<?xml version="1.0" standalone="no"?>
<!DOCTYPE svg PUBLIC "-//W3C//DTD SVG 1.1//EN" "http://www.w3.org/Graphics/SVG/1.1/DTD/svg11.dtd" >
<svg xmlns="http://www.w3.org/2000/svg">
<metadata>Generated by IcoMoon</metadata>
<defs>
<font id="icomoon" horiz-adv-x="1024">
<font-face units-per-em="1024" ascent="960" descent="-64" />
<missing-glyph horiz-adv-x="1024" />
<glyph unicode="&#x20;" horiz-adv-x="512" d="" />
<glyph unicode="&#xe900;" glyph-name="add" d="M512 874.667c22.805 0 41.289-18.486 41.289-41.29v-344.088h344.090c22.801 0 41.289-18.483 41.289-41.289s-18.487-41.289-41.289-41.289h-344.090v-344.090c0-22.801-18.483-41.289-41.289-41.289s-41.289 18.487-41.289 41.289v344.090h-344.088c-22.804 0-41.29 18.483-41.29 41.289s18.486 41.289 41.29 41.289h344.088v344.088c0 22.804 18.483 41.29 41.289 41.29z" />
<glyph unicode="&#xe901;" glyph-name="archive" d="M348.279 535.318c0 18.084 14.66 32.744 32.744 32.744h261.955c18.082 0 32.742-14.66 32.742-32.744 0-18.083-14.66-32.743-32.742-32.743h-261.955c-18.084 0-32.744 14.66-32.744 32.743zM162.729 917.333h698.541c66.308 0 120.064-53.754 120.064-120.062 0-54.957-36.924-101.29-87.317-115.543v-392.342c0-47.68 0-85.47-2.487-115.925-2.547-31.147-7.855-57.498-20.117-81.562-19.883-39.023-51.605-70.75-90.628-90.628-24.064-12.262-50.415-17.57-81.562-20.117-30.455-2.487-68.245-2.487-115.925-2.487h-142.592c-47.681 0-85.468 0-115.925 2.487-31.146 2.547-57.5 7.855-81.563 20.117-39.021 19.878-70.746 51.605-90.628 90.628-12.261 24.064-17.57 50.415-20.115 81.562-2.488 30.455-2.488 68.245-2.488 115.925v392.342c-50.393 14.253-87.318 60.586-87.318 115.543 0 66.308 53.754 120.062 120.062 120.062zM828.527 677.209h-633.054v-386.38c0-49.442 0.025-84.557 2.27-112.034 2.214-27.098 6.422-43.874 13.195-57.165 13.604-26.701 35.311-48.405 62.009-62.007 13.293-6.775 30.069-10.982 57.165-13.197 27.479-2.244 62.591-2.27 112.035-2.27h139.708c49.442 0 84.557 0.026 112.034 2.27 27.098 2.214 43.874 6.421 57.165 13.197 26.701 13.602 48.405 35.307 62.007 62.007 6.775 13.291 10.982 30.067 13.197 57.165 2.244 27.477 2.27 62.592 2.27 112.034v386.38zM861.269 742.698c30.144 0 54.575 24.433 54.575 54.574s-24.431 54.574-54.575 54.574h-698.541c-30.14 0-54.574-24.433-54.574-54.574s24.433-54.574 54.574-54.574h698.541z" />
<glyph unicode="&#xe902;" glyph-name="arrow-bottom-rec" d="M544.742 666.293c0 18.084-14.66 32.744-32.742 32.744-18.086 0-32.747-14.66-32.747-32.744v-357.536l-118.737 118.737c-12.788 12.787-33.52 12.787-46.307 0s-12.788-33.519 0-46.31l174.636-174.635c12.787-12.787 33.519-12.787 46.306 0l174.639 174.635c12.787 12.787 12.787 33.523 0 46.31s-33.519 12.787-46.306 0l-118.741-118.741v357.54zM423.217 917.333c-59.888 0-106.84 0-144.577-3.083-38.426-3.14-70.171-9.638-98.904-24.279-47.236-24.068-85.64-62.472-109.708-109.708-14.641-28.733-21.139-60.478-24.279-98.904-3.083-37.737-3.083-84.689-3.083-144.577v-177.568c0-59.887 0-106.837 3.083-144.576 3.14-38.426 9.638-70.17 24.279-98.901 24.068-47.236 62.472-85.641 109.708-109.709 28.733-14.639 60.478-21.141 98.904-24.277 37.736-3.085 84.687-3.085 144.574-3.085h177.571c59.887 0 106.837 0 144.576 3.085 38.426 3.136 70.17 9.638 98.901 24.277 47.236 24.068 85.641 62.473 109.709 109.709 14.639 28.732 21.141 60.476 24.277 98.901 3.085 37.739 3.085 84.689 3.085 144.576v177.569c0 59.887 0 106.84-3.085 144.576-3.136 38.426-9.638 70.171-24.277 98.904-24.068 47.236-62.473 85.64-109.709 109.708-28.732 14.641-60.476 21.139-98.901 24.279-37.739 3.083-84.689 3.083-144.576 3.083h-177.568zM209.467 831.621c17.963 9.152 40.13 14.55 74.506 17.359 34.758 2.84 79.040 2.865 140.709 2.865h174.635c61.67 0 105.95-0.026 140.71-2.865 34.377-2.809 56.542-8.206 74.505-17.359 34.914-17.789 63.3-46.175 81.088-81.088 9.152-17.963 14.549-40.13 17.361-74.506 2.837-34.758 2.863-79.040 2.863-140.709v-174.635c0-61.67-0.026-105.95-2.863-140.71-2.812-34.377-8.209-56.542-17.361-74.505-17.788-34.914-46.174-63.3-81.088-81.088-17.963-9.152-40.128-14.549-74.505-17.361-34.761-2.837-79.040-2.863-140.71-2.863h-174.635c-61.669 0-105.951 0.026-140.709 2.863-34.376 2.812-56.543 8.209-74.506 17.361-34.914 17.788-63.299 46.174-81.088 81.088-9.152 17.963-14.55 40.128-17.359 74.505-2.84 34.761-2.865 79.040-2.865 140.71v174.635c0 61.669 0.026 105.951 2.865 140.709 2.809 34.376 8.206 56.543 17.359 74.506 17.789 34.914 46.175 63.299 81.088 81.088z" />
<glyph unicode="&#xe903;" glyph-name="arrow-bottom" d="M509.811 874.667c18.129 0 32.823-14.694 32.823-32.82l-0.004-708.457 250.3 250.295c12.817 12.817 33.596 12.817 46.413 0s12.817-33.596 0-46.413l-306.325-306.325c-12.817-12.817-33.596-12.817-46.413 0l-306.325 306.325c-12.817 12.817-12.817 33.596 0 46.413s33.598 12.817 46.415 0l250.297-250.295v708.457c0 18.126 14.694 32.82 32.819 32.82z" />
<glyph unicode="&#xe904;" glyph-name="arrow-down" d="M219.796 612.204c19.995 19.994 52.413 19.994 72.408 0l159.457-159.455c17.493-17.498 28.463-28.412 37.385-35.981 8.461-7.185 11.652-8.307 12.407-8.55 6.852-2.227 14.238-2.227 21.094 0 0.755 0.243 3.947 1.365 12.407 8.55 8.917 7.569 19.891 18.483 37.385 35.981l159.458 159.455c19.994 19.994 52.412 19.994 72.405 0s19.994-52.413 0-72.408l-160.798-160.797c-15.748-15.753-29.683-29.687-42.18-40.299-13.303-11.294-28.305-21.786-47.036-27.874-27.422-8.909-56.96-8.909-84.382 0-18.731 6.089-33.728 16.58-47.034 27.874-12.495 10.611-26.432 24.546-42.181 40.299l-160.797 160.797c-19.995 19.995-19.995 52.413 0 72.408z" />
<glyph unicode="&#xe905;" glyph-name="arrow-left-rec" d="M502.161 588.82c12.787 12.788 12.787 33.52 0 46.307s-33.519 12.787-46.306 0l-174.637-174.639c-12.787-12.787-12.787-33.519 0-46.306l174.636-174.635c12.787-12.791 33.519-12.791 46.306 0 12.787 12.787 12.787 33.519 0 46.306l-118.737 118.737h357.539c18.082 0 32.742 14.66 32.742 32.742 0 18.086-14.66 32.747-32.742 32.747h-357.539l118.738 118.74zM433.882 906.667c-59.886 0-106.838 0-144.575-3.083-38.426-3.14-70.171-9.638-98.904-24.279-47.236-24.068-85.64-62.472-109.708-109.708-14.641-28.733-21.139-60.478-24.279-98.904-3.083-37.737-3.083-84.689-3.083-144.575v-177.57c0-59.887 0-106.837 3.083-144.576 3.14-38.426 9.638-70.17 24.279-98.901 24.068-47.236 62.472-85.641 109.708-109.709 28.733-14.639 60.478-21.141 98.904-24.277 37.736-3.085 84.687-3.085 144.575-3.085h177.57c59.887 0 106.837 0 144.576 3.085 38.426 3.136 70.17 9.638 98.901 24.277 47.236 24.068 85.641 62.473 109.709 109.709 14.639 28.732 21.141 60.476 24.277 98.901 3.085 37.739 3.085 84.689 3.085 144.576v177.57c0 59.885 0 106.839-3.085 144.575-3.136 38.426-9.638 70.171-24.277 98.904-24.068 47.236-62.473 85.64-109.709 109.708-28.732 14.641-60.476 21.139-98.901 24.279-37.739 3.083-84.689 3.083-144.576 3.083h-177.57zM220.134 820.954c17.963 9.152 40.13 14.55 74.506 17.359 34.758 2.84 79.040 2.865 140.71 2.865h174.635c61.67 0 105.95-0.026 140.71-2.865 34.377-2.809 56.542-8.206 74.505-17.359 34.914-17.789 63.3-46.175 81.088-81.088 9.152-17.963 14.549-40.13 17.361-74.506 2.837-34.758 2.863-79.040 2.863-140.71v-174.635c0-61.67-0.026-105.95-2.863-140.71-2.812-34.377-8.209-56.542-17.361-74.505-17.788-34.914-46.174-63.3-81.088-81.088-17.963-9.152-40.128-14.549-74.505-17.361-34.761-2.837-79.040-2.863-140.71-2.863h-174.635c-61.669 0-105.951 0.026-140.71 2.863-34.376 2.812-56.543 8.209-74.506 17.361-34.914 17.788-63.299 46.174-81.088 81.088-9.152 17.963-14.55 40.128-17.359 74.505-2.84 34.761-2.865 79.040-2.865 140.71v174.635c0 61.669 0.026 105.951 2.865 140.71 2.809 34.376 8.206 56.543 17.359 74.506 17.789 34.914 46.175 63.299 81.088 81.088z" />
<glyph unicode="&#xe906;" glyph-name="arrow-left" d="M447.684 779.72c12.821-12.817 12.817-33.598 0-46.415l-250.294-250.293h708.457c18.125 0 32.819-14.694 32.819-32.819 0-18.129-14.694-32.823-32.819-32.823h-708.458l250.295-250.295c12.821-12.817 12.821-33.6 0-46.417-12.817-12.817-33.596-12.817-46.413 0l-306.325 306.325c-6.155 6.157-9.613 14.502-9.613 23.211 0 8.704 3.458 17.050 9.613 23.206l306.324 306.321c12.817 12.817 33.596 12.817 46.413 0z" />
<glyph unicode="&#xe907;" glyph-name="arrow-right-curve" horiz-adv-x="1109" d="M334.706 285.090c15.168-15.168 34.67-28.169 54.171-39.002 95.343-52.002 306.607-85.589 651.136 245.935v-125.675h30.336v177.68h-177.681v-30.335h125.675c-342.357-329.361-542.793-278.438-613.214-240.521-10.834 6.502-22.752 14.084-32.503 21.67 10.834 4.331 19.502 8.666 27.086 11.917 78.006 45.504 105.091 141.926 84.508 205.85-16.252 50.92-60.673 78.006-122.428 72.588-54.171-4.334-91.007-39.003-102.925-94.259-10.834-52.002 4.334-121.34 47.67-177.681-72.589 1.084-158.179 49.839-244.852 143.014l-22.752-20.587c130.010-136.512 230.768-159.262 295.773-150.596v0zM291.37 484.442c4.334 23.834 21.668 65.004 74.756 70.421 45.504 4.334 76.921-14.084 89.926-50.923 17.331-52.002-8.67-132.177-72.591-170.095-11.918-7.582-24.919-11.917-36.836-15.168-47.67 49.839-66.089 115.925-55.254 165.764v0z" />
<glyph unicode="&#xe908;" glyph-name="arrow-right-rec" d="M589.478 635.127c-12.787 12.788-33.519 12.788-46.306 0s-12.787-33.52 0-46.307l118.737-118.74h-357.537c-18.084 0-32.744-14.66-32.744-32.747 0-18.082 14.66-32.742 32.744-32.742h357.537l-118.737-118.737c-12.787-12.787-12.787-33.519 0-46.306 12.787-12.791 33.519-12.791 46.306 0l174.635 174.635c12.787 12.787 12.787 33.519 0 46.306l-174.635 174.639zM433.882 906.667c-59.886 0-106.838 0-144.575-3.083-38.426-3.14-70.171-9.638-98.904-24.279-47.236-24.068-85.64-62.472-109.708-109.708-14.641-28.733-21.139-60.478-24.279-98.904-3.083-37.737-3.083-84.689-3.083-144.575v-177.57c0-59.887 0-106.837 3.083-144.576 3.14-38.426 9.638-70.17 24.279-98.901 24.068-47.236 62.472-85.641 109.708-109.709 28.733-14.639 60.478-21.141 98.904-24.277 37.736-3.085 84.687-3.085 144.575-3.085h177.57c59.887 0 106.837 0 144.576 3.085 38.426 3.136 70.17 9.638 98.901 24.277 47.236 24.068 85.641 62.473 109.709 109.709 14.639 28.732 21.141 60.476 24.277 98.901 3.085 37.739 3.085 84.689 3.085 144.576v177.57c0 59.885 0 106.839-3.085 144.575-3.136 38.426-9.638 70.171-24.277 98.904-24.068 47.236-62.473 85.64-109.709 109.708-28.732 14.641-60.476 21.139-98.901 24.279-37.739 3.083-84.689 3.083-144.576 3.083h-177.57zM220.134 820.954c17.963 9.152 40.13 14.55 74.506 17.359 34.758 2.84 79.040 2.865 140.71 2.865h174.635c61.67 0 105.95-0.026 140.71-2.865 34.377-2.809 56.542-8.206 74.505-17.359 34.914-17.789 63.3-46.175 81.088-81.088 9.152-17.963 14.549-40.13 17.361-74.506 2.837-34.758 2.863-79.040 2.863-140.71v-174.635c0-61.67-0.026-105.95-2.863-140.71-2.812-34.377-8.209-56.542-17.361-74.505-17.788-34.914-46.174-63.3-81.088-81.088-17.963-9.152-40.128-14.549-74.505-17.361-34.761-2.837-79.040-2.863-140.71-2.863h-174.635c-61.669 0-105.951 0.026-140.71 2.863-34.376 2.812-56.543 8.209-74.506 17.361-34.914 17.788-63.299 46.174-81.088 81.088-9.152 17.963-14.55 40.128-17.359 74.505-2.84 34.761-2.865 79.040-2.865 140.71v174.635c0 61.669 0.026 105.951 2.865 140.71 2.809 34.376 8.206 56.543 17.359 74.506 17.789 34.914 46.175 63.299 81.088 81.088z" />
<glyph unicode="&#xe909;" glyph-name="arrow-right" d="M576.316 779.72c12.817 12.817 33.596 12.817 46.413 0l306.325-306.321c6.157-6.157 9.613-14.502 9.613-23.206 0-8.708-3.456-17.054-9.613-23.211l-306.325-306.325c-12.817-12.817-33.596-12.817-46.413 0s-12.817 33.6 0 46.417l250.295 250.295h-708.457c-18.126 0-32.82 14.694-32.82 32.823 0 18.125 14.694 32.819 32.82 32.819h708.457l-250.295 250.293c-12.817 12.817-12.817 33.598 0 46.415z" />
<glyph unicode="&#xe90a;" glyph-name="arrow-up" d="M522.547 487.787c-6.857 2.227-14.242 2.227-21.094 0-0.755-0.247-3.947-1.365-12.407-8.55-8.922-7.573-19.891-18.487-37.385-35.981l-159.457-159.458c-19.995-19.994-52.413-19.994-72.408 0-19.995 19.998-19.995 52.416 0 72.41l159.456 159.454c0.448 0.448 0.895 0.896 1.341 1.344 15.748 15.748 29.686 29.687 42.181 40.295 13.306 11.296 28.303 21.788 47.034 27.874 27.422 8.91 56.96 8.91 84.382 0 18.731-6.086 33.732-16.579 47.036-27.874 12.497-10.608 26.432-24.547 42.18-40.295l160.798-160.798c19.994-19.994 19.994-52.412 0-72.41-19.994-19.994-52.412-19.994-72.405 0l-159.458 159.458c-17.493 17.493-28.467 28.407-37.385 35.981-8.461 7.185-11.652 8.303-12.407 8.55z" />
<glyph unicode="&#xe90b;" glyph-name="book-f" d="M186.255 789.33c-0.025 0-0.053 0-0.079 0-8.878 0-17.228-3.461-23.533-9.75-6.375-6.359-9.886-14.826-9.886-23.84v-503.674c0-18.47 15.085-33.532 33.631-33.579 78.185-0.188 209.175-16.482 299.539-111.049v527.109c0 6.261-1.6 12.143-4.617 17.010-74.167 119.441-216.694 137.589-295.055 137.773zM871.245 252.066v503.677c0 9.014-3.511 17.481-9.886 23.84-6.302 6.289-14.66 9.75-23.526 9.75-0.030 0-0.060 0-0.085 0-78.357-0.186-220.881-18.334-295.053-137.776-3.021-4.867-4.617-10.749-4.617-17.010v-527.104c90.368 94.562 221.355 110.861 299.541 111.044 18.543 0.051 33.626 15.113 33.626 33.579zM947.75 673.175h-24.354v-421.109c0-47.159-38.426-85.611-85.653-85.73-66.317-0.158-175.663-13.124-253.107-86.417 133.935 32.789 275.127 11.473 355.597-6.865 10.044-2.287 20.429 0.077 28.476 6.494 8.026 6.4 12.625 15.966 12.625 26.236v533.808c0.004 18.517-15.066 33.584-33.583 33.584zM100.605 252.066v421.109h-24.355c-18.514 0-33.583-15.066-33.583-33.584v-533.8c0-10.27 4.602-19.836 12.623-26.236 8.044-6.413 18.416-8.785 28.48-6.49 80.466 18.338 221.662 39.654 355.591 6.861-77.438 73.293-186.785 86.255-253.102 86.413-47.227 0.115-85.653 38.566-85.653 85.726z" />
<glyph unicode="&#xe90c;" glyph-name="book-o" d="M55.208 765.876c62.385 41.447 145.687 66.124 236.166 66.124 83.162 0 160.262-20.846 220.627-56.401 60.365 35.555 137.463 56.401 220.625 56.401 90.53 0 173.786-24.677 236.169-66.124 7.834-5.204 12.54-13.984 12.54-23.389v-637.366c0-10.347-5.692-19.857-14.81-24.747-9.122-4.89-20.19-4.369-28.809 1.357-52.147 34.645-124.314 56.742-205.090 56.742-80.725 0-152.943-22.097-205.086-56.742-9.417-6.255-21.662-6.255-31.078 0-52.143 34.645-124.36 56.742-205.088 56.742s-152.943-22.097-205.088-56.742c-8.619-5.726-19.689-6.246-28.808-1.357s-14.81 14.4-14.81 24.747v637.366c0 9.404 4.708 18.184 12.541 23.389zM483.921 726.96c-50.901 30.091-118.106 48.881-192.548 48.881s-141.645-18.79-192.547-48.881v-573.825c55.41 26.406 121.783 41.498 192.547 41.498s137.137-15.091 192.548-41.498v573.825zM540.079 153.135c55.411 26.406 121.783 41.498 192.546 41.498 70.801 0 137.152-15.091 192.55-41.498v573.825c-50.897 30.092-118.063 48.88-192.55 48.88-74.441 0-141.645-18.79-192.546-48.881v-573.825z" />
<glyph unicode="&#xe90d;" glyph-name="bookmar-f" d="M510.566 906.667c-58.526 0-104.41 0-141.289-3.013-37.553-3.068-68.576-9.42-96.657-23.727-46.162-23.521-83.694-61.052-107.215-107.215-14.307-28.081-20.659-59.104-23.727-96.657-3.013-36.879-3.013-82.764-3.013-141.291v-513.432c0-11.089 5.743-21.389 15.177-27.221 9.434-5.828 21.215-6.362 31.134-1.399l97.095 48.546c91.212 45.606 131.358 65.357 172.886 73.148 37.7 7.074 76.382 7.074 114.082 0 41.527-7.791 81.673-27.541 172.885-73.148l97.097-48.546c9.92-4.962 21.7-4.429 31.134 1.399 9.434 5.833 15.177 16.132 15.177 27.221v513.433c0 58.525 0 104.412-3.012 141.29-3.068 37.553-9.421 68.576-23.727 96.657-23.522 46.162-61.052 83.694-107.217 107.215-28.079 14.307-59.102 20.659-96.653 23.727-36.881 3.013-82.765 3.013-141.291 3.013h-2.867z" />
<glyph unicode="&#xe90e;" glyph-name="bookmark-add" d="M542.758 622.636c0 18.084-14.66 32.745-32.742 32.745-18.086 0-32.747-14.66-32.747-32.745v-98.232h-98.231c-18.084 0-32.744-14.66-32.744-32.742 0-18.086 14.66-32.747 32.744-32.747h98.231v-98.231c0-18.086 14.66-32.747 32.747-32.747 18.082 0 32.742 14.66 32.742 32.747v98.231h98.236c18.082 0 32.742 14.66 32.742 32.747 0 18.082-14.66 32.742-32.742 32.742h-98.236v98.232zM508.548 917.333c-59.887 0-106.838 0-144.575-3.083-38.426-3.14-70.171-9.638-98.904-24.279-47.236-24.068-85.64-62.472-109.708-109.708-14.641-28.733-21.139-60.478-24.279-98.904-3.083-37.737-3.083-84.689-3.083-144.577v-525.374c0-11.345 5.876-21.888 15.529-27.853s21.708-6.507 31.858-1.434l99.353 49.677c93.334 46.669 134.413 66.876 176.907 74.85 38.575 7.236 78.161 7.236 116.736 0 42.492-7.974 83.571-28.181 176.905-74.85l99.354-49.677c10.15-5.073 22.204-4.531 31.859 1.434s15.531 16.508 15.531 27.853v525.375c0 59.887 0 106.84-3.085 144.576-3.14 38.426-9.638 70.171-24.277 98.904-24.068 47.236-62.473 85.64-109.709 109.708-28.732 14.641-60.476 21.139-98.906 24.279-37.734 3.083-84.689 3.083-144.576 3.083h-2.931zM294.801 831.621c17.963 9.152 40.13 14.55 74.506 17.359 34.758 2.84 79.039 2.865 140.71 2.865 61.666 0 105.95-0.026 140.71-2.865 34.372-2.809 56.542-8.206 74.505-17.359 34.914-17.789 63.3-46.175 81.088-81.088 9.152-17.963 14.549-40.13 17.357-74.506 2.842-34.758 2.867-79.040 2.867-140.709v-470.925l-57.092 28.544c-86.75 43.383-136.397 68.211-188.992 78.076-46.558 8.738-94.332 8.738-140.885 0-52.597-9.865-102.243-34.692-188.995-78.076l-57.091-28.544v470.925c0 61.669 0.026 105.951 2.865 140.709 2.809 34.376 8.206 56.543 17.359 74.506 17.789 34.914 46.175 63.299 81.088 81.088z" />
<glyph unicode="&#xe90f;" glyph-name="bookmark-remove" d="M384 522.667c-17.673 0-32-14.327-32-32s14.327-32 32-32h256c17.673 0 32 14.327 32 32s-14.327 32-32 32h-256zM510.566 906.667c-58.526 0-104.41 0-141.289-3.013-37.553-3.068-68.576-9.42-96.657-23.727-46.162-23.521-83.694-61.052-107.215-107.215-14.307-28.081-20.659-59.104-23.727-96.657-3.013-36.879-3.013-82.764-3.013-141.291v-513.432c0-11.089 5.743-21.389 15.177-27.221 9.434-5.828 21.215-6.362 31.134-1.399l97.095 48.546c91.212 45.606 131.358 65.357 172.886 73.148 37.7 7.074 76.382 7.074 114.082 0 41.527-7.791 81.673-27.541 172.885-73.148l97.097-48.546c9.92-4.962 21.7-4.429 31.134 1.399 9.434 5.833 15.177 16.132 15.177 27.221v513.433c0 58.525 0 104.412-3.012 141.29-3.068 37.553-9.421 68.576-23.727 96.657-23.522 46.162-61.052 83.694-107.217 107.215-28.079 14.307-59.102 20.659-96.653 23.727-36.881 3.013-82.765 3.013-141.291 3.013h-2.867zM301.676 822.903c17.554 8.944 39.217 14.219 72.812 16.964 33.969 2.775 77.245 2.8 137.511 2.8s103.543-0.025 137.51-2.8c33.596-2.745 55.258-8.020 72.815-16.964 34.116-17.385 61.858-45.126 79.245-79.246 8.943-17.554 14.217-39.217 16.964-72.812 2.773-33.969 2.799-77.244 2.799-137.511v-460.224l-55.795 27.9c-84.779 42.394-133.295 66.658-184.695 76.301-45.5 8.533-92.186 8.533-137.685 0-51.4-9.643-99.918-33.907-184.698-76.301l-55.793-27.9v460.224c0 60.267 0.025 103.543 2.8 137.511 2.745 33.595 8.020 55.258 16.964 72.812 17.385 34.12 45.126 61.861 79.246 79.246z" />
<glyph unicode="&#xe910;" glyph-name="bookmark" d="M510.566 906.667h2.867c58.526 0 104.41 0 141.291-3.013 37.551-3.068 68.574-9.42 96.653-23.727 46.165-23.521 83.695-61.052 107.217-107.215 14.306-28.081 20.659-59.104 23.727-96.657 3.012-36.879 3.012-82.764 3.012-141.29v-513.433c0-11.089-5.743-21.389-15.177-27.221-9.434-5.828-21.214-6.362-31.134-1.399l-97.097 48.546c-91.213 45.606-131.358 65.357-172.885 73.148-37.7 7.074-76.382 7.074-114.082 0-41.528-7.791-81.674-27.541-172.886-73.148l-97.095-48.546c-9.92-4.962-21.7-4.429-31.134 1.399-9.434 5.833-15.177 16.132-15.177 27.221v513.432c0 58.527 0 104.412 3.013 141.291 3.068 37.553 9.42 68.576 23.727 96.657 23.521 46.162 61.052 83.694 107.215 107.215 28.081 14.307 59.104 20.659 96.657 23.727 36.879 3.013 82.763 3.013 141.289 3.013zM374.489 839.866c-33.595-2.745-55.258-8.020-72.812-16.964-34.12-17.385-61.861-45.126-79.246-79.246-8.944-17.554-14.219-39.217-16.964-72.812-2.775-33.969-2.8-77.244-2.8-137.511v-460.224l55.793 27.9c84.78 42.394 133.297 66.658 184.698 76.301 45.5 8.533 92.186 8.533 137.685 0 51.401-9.643 99.917-33.907 184.695-76.301l55.795-27.9v460.224c0 60.267-0.026 103.543-2.799 137.511-2.748 33.595-8.021 55.258-16.964 72.812-17.387 34.12-45.129 61.861-79.245 79.246-17.557 8.944-39.219 14.219-72.815 16.964-33.967 2.775-77.244 2.8-137.51 2.8s-103.543-0.025-137.511-2.8z" />
<glyph unicode="&#xe911;" glyph-name="bookmarks" d="M736.239 862.613c24.026 0 40.401-0.021 53.065-1.056 12.348-1.009 18.739-2.842 23.245-5.137 10.692-5.448 19.388-14.141 24.832-24.834 2.295-4.504 4.13-10.898 5.137-23.244 1.037-12.666 1.058-29.039 1.058-53.065v-622.971c0-15.113 12.25-27.362 27.362-27.362 15.108 0 27.358 12.25 27.358 27.362v624.105c0 22.61 0 41.229-1.237 56.387-1.284 15.73-4.041 30.127-10.918 43.631-10.697 20.989-27.759 38.053-48.747 48.747-13.504 6.881-27.904 9.635-43.635 10.92-15.155 1.238-33.775 1.238-56.384 1.238h-330.398c-18.813 0-34.307 0-46.984-0.864-13.133-0.896-25.23-2.811-36.855-7.627-27.332-11.321-49.047-33.036-60.368-60.368-4.815-11.625-6.731-23.721-7.627-36.855-0.425-6.228-0.641-13.137-0.751-20.786-7.973-0.172-15.244-0.476-21.856-1.016-15.73-1.286-30.127-4.039-43.631-10.92-20.989-10.694-38.053-27.759-48.747-48.747-6.881-13.504-9.635-27.901-10.92-43.631-1.238-15.158-1.238-33.777-1.238-56.387v-624.104c0-9.754 5.192-18.769 13.627-23.667 8.436-4.894 18.839-4.928 27.308-0.090l94.164 53.807c74.66 42.662 106.879 60.715 140.482 67.793 30.617 6.451 62.241 6.451 92.859 0 33.6-7.078 65.822-25.131 140.48-67.793l94.165-53.807c8.465-4.838 18.871-4.804 27.307 0.090 8.435 4.898 13.628 13.914 13.628 23.667v624.104c0 22.61 0 41.229-1.237 56.387-1.289 15.73-4.041 30.127-10.923 43.631-10.692 20.989-27.759 38.053-48.747 48.747-13.504 6.881-27.9 9.635-43.631 10.92-15.159 1.238-33.775 1.238-56.388 1.238h-301.972c0.101 6.468 0.283 11.973 0.615 16.84 0.706 10.347 1.995 15.793 3.588 19.639 5.768 13.924 16.83 24.986 30.754 30.754 3.846 1.593 9.292 2.882 19.639 3.588 10.593 0.723 24.213 0.738 44.2 0.738h328.323zM213.748 730.141c4.504 2.295 10.898 4.128 23.244 5.137 12.666 1.035 29.039 1.056 53.065 1.056h319.906c24.026 0 40.397-0.021 53.065-1.056 12.343-1.009 18.739-2.842 23.245-5.137 10.692-5.448 19.383-14.141 24.832-24.834 2.295-4.504 4.13-10.898 5.137-23.244 1.037-12.666 1.058-29.039 1.058-53.065v-575.823l-57.882 33.071c-68.629 39.223-108.659 62.106-151.697 71.172-38.059 8.017-77.367 8.017-115.422 0-43.041-9.067-83.069-31.945-151.699-71.172l-57.879-33.071v575.823c0 24.026 0.021 40.399 1.056 53.065 1.009 12.346 2.842 18.74 5.137 23.244 5.448 10.692 14.141 19.386 24.834 24.834z" />
<glyph unicode="&#xe912;" glyph-name="calendar-f" d="M337.364 917.333c18.084 0 32.744-14.008 32.744-31.289v-11.775c39.663 1.346 85.866 1.345 140.24 1.345h3.302c54.374 0 100.578 0 140.241-1.345v11.775c0 17.28 14.66 31.289 32.742 31.289 18.086 0 32.747-14.008 32.747-31.289v-16.026c44.663-4.795 81.591-13.92 114.603-32.131 44.8-24.716 82.001-60.264 107.87-103.073 20.902-34.598 30.366-73.709 34.961-122.13 4.518-47.665 4.518-107.319 4.518-183.961v-3.162c0-76.646 0-136.299-4.518-183.966-4.595-48.422-14.059-87.531-34.961-122.129-25.869-42.807-63.070-78.357-107.87-103.074-36.207-19.977-77.137-29.018-127.812-33.408-49.877-4.318-112.307-4.318-192.516-4.318h-3.311c-80.209 0-142.636 0-192.518 4.318-50.673 4.39-91.603 13.431-127.811 33.408-44.8 24.717-82.002 60.267-107.867 103.074-20.904 34.598-30.369 73.707-34.961 122.129-4.521 47.667-4.521 107.324-4.521 183.97v3.153c0 76.642 0 136.301 4.521 183.965 4.593 48.421 14.057 87.532 34.961 122.13 25.865 42.809 63.067 78.357 107.867 103.073 33.009 18.211 69.942 27.336 114.604 32.131v16.026c0 17.28 14.66 31.289 32.745 31.289zM260.961 594.015c0-17.28 14.66-31.289 32.744-31.289h436.59c18.082 0 32.742 14.009 32.742 31.289s-14.66 31.289-32.742 31.289h-436.59c-18.084 0-32.744-14.009-32.744-31.289zM337.364 343.706c24.112 0 43.659 18.675 43.659 41.715 0 23.044-19.547 41.719-43.659 41.719s-43.659-18.675-43.659-41.719c0-23.040 19.547-41.715 43.659-41.715zM381.023 218.547c0 23.040-19.547 41.719-43.659 41.719s-43.659-18.679-43.659-41.719c0-23.040 19.547-41.719 43.659-41.719s43.659 18.679 43.659 41.719zM512 176.828c24.111 0 43.661 18.679 43.661 41.719s-19.55 41.719-43.661 41.719c-24.111 0-43.661-18.679-43.661-41.719s19.55-41.719 43.661-41.719zM730.295 218.547c0 23.040-19.546 41.719-43.661 41.719-24.111 0-43.657-18.679-43.657-41.719s19.546-41.719 43.657-41.719c24.115 0 43.661 18.679 43.661 41.719zM512 343.706c24.111 0 43.661 18.675 43.661 41.715 0 23.044-19.55 41.719-43.661 41.719s-43.661-18.675-43.661-41.719c0-23.040 19.55-41.715 43.661-41.715zM730.295 385.421c0 23.044-19.546 41.719-43.661 41.719-24.111 0-43.657-18.675-43.657-41.719 0-23.040 19.546-41.715 43.657-41.715 24.115 0 43.661 18.675 43.661 41.715z" />
<glyph unicode="&#xe913;" glyph-name="cancel-f" d="M512 917.333c-259.206 0-469.333-210.128-469.333-469.333 0-259.204 210.128-469.333 469.333-469.333 259.204 0 469.333 210.129 469.333 469.333 0 259.206-210.129 469.333-469.333 469.333zM357.87 602.13c12.787 12.788 33.52 12.788 46.307 0l107.823-107.824 107.823 107.824c12.787 12.788 33.519 12.788 46.306 0s12.787-33.52 0-46.307l-107.823-107.823 107.823-107.823c12.787-12.787 12.787-33.519 0-46.306s-33.519-12.787-46.306 0l-107.823 107.823-107.823-107.823c-12.788-12.787-33.52-12.787-46.307 0s-12.788 33.519 0 46.306l107.824 107.823-107.824 107.823c-12.788 12.788-12.788 33.52 0 46.307z" />
<glyph unicode="&#xe914;" glyph-name="cancel" d="M404.177 602.13c-12.788 12.788-33.52 12.788-46.307 0s-12.788-33.52 0-46.307l107.824-107.823-107.824-107.823c-12.788-12.787-12.788-33.519 0-46.306s33.52-12.787 46.307 0l107.823 107.823 107.823-107.823c12.787-12.787 33.519-12.787 46.306 0s12.787 33.519 0 46.306l-107.823 107.823 107.823 107.823c12.787 12.788 12.787 33.52 0 46.307s-33.519 12.788-46.306 0l-107.823-107.824-107.823 107.824zM512 917.333c-259.206 0-469.333-210.128-469.333-469.333 0-259.204 210.128-469.333 469.333-469.333 259.204 0 469.333 210.129 469.333 469.333 0 259.206-210.129 469.333-469.333 469.333zM108.155 448c0 223.037 180.808 403.845 403.845 403.845s403.844-180.808 403.844-403.845c0-223.036-180.809-403.844-403.844-403.844-223.037 0-403.845 180.809-403.845 403.844z" />
<glyph unicode="&#xe915;" glyph-name="check-f" d="M512 917.333c-259.206 0-469.333-210.128-469.333-469.333 0-259.204 210.128-469.333 469.333-469.333 259.204 0 469.333 210.129 469.333 469.333 0 259.206-210.129 469.333-469.333 469.333zM709.79 602.13c12.787-12.787 12.787-33.52 0-46.307l-218.295-218.295c-6.14-6.14-14.468-9.591-23.155-9.591-8.683 0-17.011 3.452-23.151 9.591l-87.319 87.317c-12.788 12.787-12.788 33.523 0 46.31s33.52 12.787 46.307 0l64.162-64.166 195.145 195.142c12.787 12.788 33.519 12.788 46.306 0z" />
<glyph unicode="&#xe916;" glyph-name="check" d="M926.805 779.721c14.891-13.648 15.898-36.782 2.249-51.671l-536.381-585.142c-6.74-7.356-16.192-11.635-26.164-11.853s-19.601 3.652-26.654 10.705l-243.81 243.81c-14.282 14.281-14.282 37.436 0 51.716 14.282 14.285 37.438 14.285 51.72 0l216.801-216.798 510.571 556.985c13.649 14.889 36.783 15.895 51.669 2.247z" />
<glyph unicode="&#xe917;" glyph-name="chevron-left-1" d="M619.959 726.627c12.497-12.497 12.497-32.758 0-45.255l-159.454-159.457c-17.271-17.271-28.847-28.877-37.043-38.537-7.954-9.37-10.833-14.775-12.173-18.897-3.48-10.714-3.48-22.251 0-32.964 1.34-4.122 4.218-9.527 12.173-18.897 8.196-9.66 19.771-21.265 37.043-38.537l159.454-159.458c12.497-12.497 12.497-32.755 0-45.252s-32.755-12.497-45.252 0l-160.376 160.375c-16.116 16.111-29.567 29.564-39.658 41.451-10.525 12.399-19.26 25.182-24.251 40.542-7.657 23.565-7.657 48.951 0 72.516 4.991 15.36 13.726 28.143 24.251 40.542 10.091 11.887 23.542 25.338 39.658 41.453l160.376 160.375c12.497 12.497 32.755 12.497 45.252 0z" />
<glyph unicode="&#xe918;" glyph-name="chevron-left" d="M619.959 726.627c12.497-12.497 12.497-32.758 0-45.255l-159.454-159.457c-17.271-17.271-28.847-28.877-37.043-38.537-7.954-9.37-10.833-14.775-12.173-18.897-3.48-10.714-3.48-22.251 0-32.964 1.34-4.122 4.218-9.527 12.173-18.897 8.196-9.66 19.771-21.265 37.043-38.537l159.454-159.458c12.497-12.497 12.497-32.755 0-45.252s-32.755-12.497-45.252 0l-160.376 160.375c-16.116 16.111-29.567 29.564-39.658 41.451-10.525 12.399-19.26 25.182-24.251 40.542-7.657 23.565-7.657 48.951 0 72.516 4.991 15.36 13.726 28.143 24.251 40.542 10.091 11.887 23.542 25.338 39.658 41.453l160.376 160.375c12.497 12.497 32.755 12.497 45.252 0z" />
<glyph unicode="&#xe919;" glyph-name="chevron-right" d="M404.039 726.627c12.497 12.497 32.756 12.497 45.254 0l160.375-160.375c16.115-16.115 29.568-29.565 39.659-41.452 10.526-12.399 19.26-25.182 24.252-40.542 7.654-23.565 7.654-48.951 0-72.516-4.992-15.36-13.726-28.143-24.252-40.542-10.091-11.887-23.543-25.335-39.659-41.451l-160.375-160.375c-12.497-12.497-32.757-12.497-45.254 0s-12.497 32.755 0 45.252l159.455 159.458c17.271 17.271 28.847 28.877 37.043 38.537 7.953 9.37 10.833 14.775 12.173 18.897 3.482 10.714 3.482 22.251 0 32.964-1.34 4.122-4.22 9.527-12.173 18.897-8.196 9.66-19.772 21.265-37.043 38.537l-159.455 159.457c-12.497 12.497-12.497 32.758 0 45.255z" />
<glyph unicode="&#xe91a;" glyph-name="chevrons-left" d="M443.358 737.294c12.497 12.497 32.759 12.497 45.257 0s12.497-32.758 0-45.255l-159.456-159.457c-34.319-34.317-43.068-44.13-47.738-53.794-0.608-1.259-1.091-2.453-1.477-3.644-3.48-10.709-3.48-22.246 0-32.96 0.386-1.186 0.869-2.381 1.477-3.639 4.67-9.664 13.421-19.477 47.737-53.794l159.456-159.458c12.497-12.497 12.497-32.755 0-45.252s-32.759-12.497-45.257 0l-159.454 159.458c-40.887 40.883-50.864 52.075-60.106 71.198-1.857 3.84-3.428 7.735-4.721 11.712-7.657 23.569-7.657 48.947 0 72.512 1.293 3.981 2.864 7.872 4.721 11.716 9.242 19.123 19.217 30.311 60.107 71.201l159.454 159.456zM742.025 737.294c12.497 12.497 32.759 12.497 45.257 0s12.497-32.758 0-45.255l-159.458-159.457c-34.317-34.317-43.068-44.13-47.735-53.794-0.61-1.259-1.092-2.458-1.476-3.639-3.482-10.714-3.482-22.251 0-32.96 3.247-10.001 11.52-19.746 49.212-57.438l159.458-159.458c12.497-12.497 12.497-32.755 0-45.252s-32.759-12.497-45.257 0l-159.458 159.458c-46.788 46.788-56.994 58.807-64.823 82.914-7.659 23.565-7.659 48.943 0 72.512 1.293 3.981 2.863 7.872 4.719 11.712 9.246 19.123 19.217 30.311 60.105 71.201l159.458 159.456z" />
<glyph unicode="&#xe91b;" glyph-name="chevrons-right" d="M521.374 692.039c-12.497 12.497-12.497 32.758 0 45.255s32.755 12.497 45.252 0l159.458-159.457c40.887-40.89 50.863-52.077 60.105-71.2 1.86-3.84 3.43-7.731 4.723-11.716 7.654-23.565 7.654-48.943 0-72.512-1.293-3.981-2.867-7.872-4.723-11.712-9.242-19.123-19.217-30.315-60.105-71.198l-159.458-159.458c-12.497-12.497-32.755-12.497-45.252 0s-12.497 32.755 0 45.252l159.458 159.458c34.313 34.317 43.063 44.13 47.735 53.794 0.606 1.259 1.092 2.453 1.476 3.639 3.482 10.714 3.482 22.251 0 32.96-0.384 1.186-0.87 2.385-1.476 3.644-4.672 9.664-13.419 19.477-47.735 53.794l-159.458 159.457zM222.706 692.039c-12.497 12.497-12.497 32.758 0 45.255s32.758 12.497 45.255 0l159.457-159.456c40.887-40.886 50.863-52.078 60.105-71.201 1.86-3.84 3.43-7.731 4.723-11.716 7.654-23.565 7.654-48.943 0-72.512-7.834-24.102-18.039-36.126-64.828-82.91l-159.457-159.458c-12.497-12.497-32.758-12.497-45.255 0s-12.497 32.755 0 45.252l159.457 159.458c37.691 37.692 45.967 47.437 49.214 57.434 3.482 10.714 3.482 22.251 0 32.96-0.384 1.186-0.87 2.385-1.476 3.644-4.671 9.664-13.422 19.477-47.738 53.794l-159.456 159.457z" />
<glyph unicode="&#xe91c;" glyph-name="clip-add" d="M447.049 917.328h153.732c59.887 0 106.837 0 144.576-3.083 38.426-3.139 70.17-9.638 98.901-24.279 47.236-24.068 85.641-62.472 109.709-109.708 14.639-28.733 21.137-60.477 24.277-98.903 3.085-37.734 3.085-84.692 3.085-144.575v-177.574c0-59.883 0-106.833-3.085-144.567-3.14-38.426-9.638-70.17-24.277-98.901-24.068-47.236-62.473-85.641-109.709-109.709-28.732-14.639-60.476-21.141-98.901-24.277-37.734-3.085-84.693-3.085-144.576-3.085h-177.575c-59.883 0-106.832 0-144.567 3.085-38.426 3.136-70.17 9.638-98.903 24.277-47.236 24.068-85.64 62.473-109.708 109.709-14.64 28.732-21.139 60.476-24.279 98.901-3.083 37.734-3.083 84.689-3.083 144.576v177.566c0 59.887 0 106.839 3.083 144.575 3.14 38.426 9.638 70.17 24.279 98.903 24.068 47.236 62.472 85.64 109.708 109.708 28.733 14.64 60.478 21.139 98.903 24.279 37.737 3.083 84.689 3.083 144.576 3.083h22.694c0.38 0.007 0.759 0.007 1.139 0zM424.68 851.84c-61.668 0-105.95-0.026-140.708-2.865-3.497-0.285-6.868-0.598-10.121-0.939l82.778-149.001h163.025l-91.682 152.806h-3.292zM208.37 831.054c-34.412-17.822-62.389-45.978-79.992-80.525-6.928-13.597-11.705-29.605-14.836-51.494h168.171l-73.344 132.019zM336.768 633.547h-227.875c-0.728-27.104-0.739-59.182-0.739-98.232v-174.636c0-61.666 0.025-105.95 2.865-140.706 2.809-34.377 8.206-56.542 17.359-74.505 17.789-34.914 46.175-63.3 81.088-81.088 17.962-9.152 40.129-14.549 74.505-17.361 34.758-2.837 79.040-2.863 140.708-2.863h174.633c61.67 0 105.95 0.026 140.71 2.863 34.377 2.812 56.542 8.209 74.505 17.361 34.914 17.788 63.3 46.174 81.088 81.088 9.152 17.963 14.549 40.128 17.361 74.505 2.837 34.756 2.863 79.040 2.863 140.706v174.636c0 39.050-0.009 71.129-0.738 98.232h-96.892c-0.38-0.007-0.759-0.007-1.139 0h-238.985c-0.38-0.007-0.759-0.007-1.139 0h-238.93c-0.417-0.008-0.833-0.008-1.249 0zM504.341 851.84l91.682-152.806h163.755l-88.128 146.874c-1.105 1.845-2.010 3.756-2.718 5.706-20.484 0.221-43.49 0.226-69.619 0.226h-94.972zM746.53 848.399l89.617-149.364h74.304c-3.127 21.889-7.906 37.896-14.835 51.494-17.788 34.914-46.174 63.299-81.088 81.088-16.802 8.561-37.286 13.837-67.998 16.782zM517.367 527.957c17.673 0 32-14.327 32-32v-106.658h106.662c17.673 0 32-14.327 32-32s-14.327-32-32-32h-106.662v-106.662c0-17.673-14.327-32-32-32s-32 14.327-32 32v106.662h-106.659c-17.673 0-32 14.327-32 32s14.327 32 32 32h106.659v106.658c0 17.673 14.327 32 32 32z" />
<glyph unicode="&#xe91d;" glyph-name="clip-f" d="M447.049 917.333h153.732c59.887 0 106.837 0 144.576-3.088 38.426-3.139 70.17-9.638 98.901-24.279 47.241-24.067 85.641-62.472 109.709-109.707 14.639-28.733 21.141-60.478 24.282-98.904 3.081-37.734 3.081-84.693 3.081-144.575v-177.574c0-59.883 0-106.833-3.081-144.567-3.14-38.426-9.643-70.17-24.282-98.906-24.068-47.236-62.468-85.636-109.709-109.705-28.732-14.639-60.476-21.141-98.901-24.282-37.734-3.081-84.693-3.081-144.576-3.081h-177.577c-59.882 0-106.831 0-144.564 3.081-38.426 3.14-70.17 9.643-98.904 24.282-47.236 24.068-85.64 62.468-109.708 109.705-14.64 28.736-21.139 60.48-24.279 98.906-3.083 37.739-3.083 84.689-3.083 144.576v177.565c0 59.887 0 106.839 3.083 144.576 3.139 38.426 9.638 70.17 24.279 98.904 24.068 47.235 62.472 85.64 109.708 109.707 28.733 14.641 60.478 21.139 98.904 24.279 37.737 3.088 84.688 3.088 144.576 3.088h22.698c0.38 0 0.755 0 1.135 0zM424.681 851.84c-61.669 0-105.95-0.026-140.709-2.865-3.497-0.286-6.868-0.599-10.121-0.939l82.778-149.001h163.025l-91.682 152.806h-3.292zM208.37 831.054c-34.412-17.822-62.389-45.978-79.992-80.525-6.928-13.598-11.705-29.605-14.836-51.494h168.171l-73.344 132.019zM759.778 699.035l-88.124 146.873c-1.109 1.846-2.014 3.756-2.722 5.706-20.484 0.221-43.486 0.226-69.615 0.226h-94.976l91.682-152.806h163.755zM836.147 699.035h74.308c-3.132 21.889-7.91 37.896-14.835 51.494-17.792 34.913-46.178 63.299-81.088 81.088-16.806 8.562-37.291 13.838-68.002 16.782l89.617-149.364z" />
<glyph unicode="&#xe91e;" glyph-name="clip-personal" d="M447.049 917.328h153.732c59.887 0 106.837 0 144.576-3.083 38.426-3.139 70.17-9.638 98.901-24.279 47.236-24.068 85.641-62.472 109.709-109.708 14.639-28.733 21.137-60.477 24.277-98.903 3.085-37.734 3.085-84.692 3.085-144.575v-177.574c0-59.883 0-106.833-3.085-144.567-3.14-38.426-9.638-70.17-24.277-98.901-24.068-47.236-62.473-85.641-109.709-109.709-28.732-14.639-60.476-21.141-98.901-24.277-37.734-3.085-84.693-3.085-144.576-3.085h-177.575c-59.883 0-106.832 0-144.567 3.085-38.426 3.136-70.17 9.638-98.903 24.277-47.236 24.068-85.64 62.473-109.708 109.709-14.64 28.732-21.139 60.476-24.279 98.901-3.083 37.734-3.083 84.689-3.083 144.576v177.566c0 59.887 0 106.839 3.083 144.575 3.14 38.426 9.638 70.17 24.279 98.903 24.068 47.236 62.472 85.64 109.708 109.708 28.733 14.64 60.478 21.139 98.903 24.279 37.737 3.083 84.689 3.083 144.576 3.083h22.694c0.38 0.007 0.759 0.007 1.139 0zM424.68 851.84c-61.668 0-105.95-0.026-140.708-2.865-3.497-0.285-6.868-0.598-10.121-0.939l82.778-149.001h163.025l-91.682 152.806h-3.292zM208.37 831.054c-34.412-17.822-62.389-45.978-79.992-80.525-6.928-13.597-11.705-29.605-14.836-51.494h168.171l-73.344 132.019zM336.768 633.547h-227.875c-0.728-27.104-0.739-59.182-0.739-98.232v-174.636c0-61.666 0.025-105.95 2.865-140.706 2.809-34.377 8.206-56.542 17.359-74.505 17.789-34.914 46.175-63.3 81.088-81.088 17.962-9.152 40.129-14.549 74.505-17.361 34.758-2.837 79.040-2.863 140.708-2.863h174.633c61.67 0 105.95 0.026 140.71 2.863 34.377 2.812 56.542 8.209 74.505 17.361 34.914 17.788 63.3 46.174 81.088 81.088 9.152 17.963 14.549 40.128 17.361 74.505 2.837 34.756 2.863 79.040 2.863 140.706v174.636c0 39.050-0.009 71.129-0.738 98.232h-96.892c-0.38-0.007-0.759-0.007-1.139 0h-238.985c-0.38-0.007-0.759-0.007-1.139 0h-238.93c-0.417-0.008-0.833-0.008-1.249 0zM504.341 851.84l91.682-152.806h163.755l-88.128 146.874c-1.105 1.845-2.010 3.756-2.718 5.706-20.484 0.221-43.49 0.226-69.619 0.226h-94.972zM746.53 848.399l89.617-149.364h74.304c-3.127 21.889-7.906 37.896-14.835 51.494-17.788 34.914-46.174 63.299-81.088 81.088-16.802 8.561-37.286 13.837-67.998 16.782zM431.381 471.070c0 52.062 42.202 94.263 94.263 94.263 52.058 0 94.263-42.202 94.263-94.263s-42.206-94.263-94.263-94.263c-52.062 0-94.263 42.202-94.263 94.263zM462.14 327.194c-60.829 0-110.14-49.31-110.14-110.14 0-43.294 35.095-78.387 78.387-78.387h190.511c43.294 0 78.387 35.093 78.387 78.387 0 60.83-49.31 110.14-110.14 110.14h-127.006z" />
<glyph unicode="&#xe91f;" glyph-name="clip" d="M447.049 917.328h153.732c59.887 0 106.837 0 144.576-3.083 38.426-3.139 70.17-9.638 98.901-24.279 47.236-24.068 85.641-62.472 109.709-109.708 14.639-28.733 21.137-60.477 24.277-98.903 3.085-37.734 3.085-84.692 3.085-144.575v-177.574c0-59.883 0-106.833-3.085-144.567-3.14-38.426-9.638-70.17-24.277-98.901-24.068-47.236-62.473-85.641-109.709-109.709-28.732-14.639-60.476-21.141-98.901-24.277-37.734-3.085-84.693-3.085-144.576-3.085h-177.575c-59.883 0-106.832 0-144.567 3.085-38.426 3.136-70.17 9.638-98.903 24.277-47.236 24.068-85.64 62.473-109.708 109.709-14.64 28.732-21.139 60.476-24.279 98.901-3.083 37.734-3.083 84.689-3.083 144.576v177.566c0 59.887 0 106.839 3.083 144.575 3.14 38.426 9.638 70.17 24.279 98.903 24.068 47.236 62.472 85.64 109.708 109.708 28.733 14.64 60.478 21.139 98.903 24.279 37.737 3.083 84.689 3.083 144.576 3.083h22.694c0.38 0.007 0.759 0.007 1.139 0zM424.68 851.84c-61.668 0-105.95-0.026-140.708-2.865-3.497-0.285-6.868-0.598-10.121-0.939l82.778-149.001h163.025l-91.682 152.806h-3.292zM208.37 831.054c-34.412-17.822-62.389-45.978-79.992-80.525-6.928-13.597-11.705-29.605-14.836-51.494h168.171l-73.344 132.019zM336.768 633.547h-227.875c-0.728-27.104-0.739-59.182-0.739-98.232v-174.636c0-61.666 0.025-105.95 2.865-140.706 2.809-34.377 8.206-56.542 17.359-74.505 17.789-34.914 46.175-63.3 81.088-81.088 17.962-9.152 40.129-14.549 74.505-17.361 34.758-2.837 79.040-2.863 140.708-2.863h174.633c61.67 0 105.95 0.026 140.71 2.863 34.377 2.812 56.542 8.209 74.505 17.361 34.914 17.788 63.3 46.174 81.088 81.088 9.152 17.963 14.549 40.128 17.361 74.505 2.837 34.756 2.863 79.040 2.863 140.706v174.636c0 39.050-0.009 71.129-0.738 98.232h-96.892c-0.38-0.007-0.759-0.007-1.139 0h-238.985c-0.38-0.007-0.759-0.007-1.139 0h-238.93c-0.417-0.008-0.833-0.008-1.249 0zM504.341 851.84l91.682-152.806h163.755l-88.128 146.874c-1.105 1.845-2.010 3.756-2.718 5.706-20.484 0.221-43.49 0.226-69.619 0.226h-94.972zM746.53 848.399l89.617-149.364h74.304c-3.127 21.889-7.906 37.896-14.835 51.494-17.788 34.914-46.174 63.299-81.088 81.088-16.802 8.561-37.286 13.837-67.998 16.782z" />
<glyph unicode="&#xe920;" glyph-name="close" d="M223.747 736.253c13.885 13.885 36.398 13.885 50.283 0l259.303-259.303 259.302 259.303c13.884 13.885 36.399 13.885 50.283 0 13.888-13.885 13.888-36.398 0-50.283l-259.302-259.303 259.302-259.302c13.888-13.884 13.888-36.399 0-50.283-13.884-13.888-36.399-13.888-50.283 0l-259.302 259.302-259.303-259.302c-13.885-13.888-36.398-13.888-50.283 0-13.885 13.884-13.885 36.399 0 50.283l259.303 259.302-259.303 259.303c-13.885 13.885-13.885 36.398 0 50.283z" />
<glyph unicode="&#xe921;" glyph-name="comment" d="M304.62 535.318c0 18.084 14.66 32.744 32.745 32.744h349.27c18.086 0 32.747-14.66 32.747-32.744 0-18.083-14.66-32.743-32.747-32.743h-349.27c-18.084 0-32.745 14.66-32.745 32.743zM337.364 393.425c-18.084 0-32.745-14.66-32.745-32.742 0-18.086 14.66-32.747 32.745-32.747h174.636c18.082 0 32.742 14.66 32.742 32.747 0 18.082-14.66 32.742-32.742 32.742h-174.636zM42.667 448c0 259.206 210.128 469.333 469.333 469.333 259.204 0 469.333-210.128 469.333-469.333 0-259.204-210.129-469.333-469.333-469.333-53.001 0-99.45 7.573-143.041 23.168-39.001 13.948-54.983 19.597-59.806 20.732-23.238 5.466-38.765 0.858-57.321-7.962-3.503-1.664-7.419-3.686-11.714-5.905-17.472-9.024-41.218-21.286-68.966-25.907-49.094-8.179-92.777 32.013-88.703 81.617 1.518 18.479 8.493 34.999 14.004 47.189 1.434 3.174 2.765 6.054 3.996 8.721 4.18 9.054 7.205 15.607 9.18 22.477 10.118 35.213-1.805 60.941-22.684 105.997l-1.017 2.193c-27.769 59.947-43.26 126.716-43.26 197.013zM512 851.845c-223.037 0-403.845-180.808-403.845-403.845 0-60.591 13.337-117.986 37.194-169.485 1.192-2.573 2.41-5.175 3.643-7.808 18.683-39.902 40.609-86.729 23.576-145.997-3.513-12.224-9.309-24.691-13.754-34.253-0.974-2.095-1.883-4.053-2.689-5.833-5.278-11.678-7.891-19.273-8.409-25.574-0.582-7.087 5.658-12.83 12.672-11.661 16.687 2.782 28.664 8.9 44.643 17.062 5.611 2.867 11.715 5.986 18.691 9.301 26.036 12.373 57.391 22.682 100.423 12.561 9.026-2.121 28.713-9.165 61.177-20.783l5.694-2.035c35.629-12.745 74.499-19.341 120.984-19.341 223.036 0 403.844 180.809 403.844 403.844 0 223.037-180.809 403.845-403.844 403.845z" />
<glyph unicode="&#xe922;" glyph-name="contributors-f" d="M510.349 917.333h3.302c80.209 0 142.643 0 192.521-4.521 50.675-4.593 91.605-14.057 127.812-34.961 44.8-25.865 82.001-63.067 107.87-107.867 20.902-36.208 30.366-77.137 34.961-127.811 4.518-49.882 4.518-112.309 4.518-192.518v-3.311c0-80.209 0-142.639-4.518-192.516-4.595-50.675-14.059-91.605-34.961-127.812-25.869-44.8-63.070-82.001-107.87-107.87-36.207-20.902-77.137-30.366-127.812-34.961-49.877-4.518-112.307-4.518-192.516-4.518h-3.311c-80.209 0-142.636 0-192.518 4.518-50.673 4.595-91.603 14.059-127.811 34.961-44.8 25.869-82.002 63.070-107.867 107.87-20.904 36.207-30.369 77.137-34.961 127.812-4.521 49.877-4.521 112.311-4.521 192.521v3.302c0 80.209 0 142.641 4.521 192.522 4.593 50.673 14.057 91.603 34.961 127.811 25.865 44.8 63.067 82.002 107.867 107.867 36.208 20.904 77.137 30.369 127.811 34.961 49.882 4.521 112.313 4.521 192.522 4.521zM293.705 258.812c0-40.188 32.578-72.764 72.765-72.764h291.057c40.188 0 72.768 32.576 72.768 72.764 0 80.371-65.156 145.527-145.527 145.527h-145.536c-80.371 0-145.527-65.156-145.527-145.527zM512 491.661c72.337 0 130.978 58.639 130.978 130.975s-58.641 130.977-130.978 130.977c-72.337 0-130.977-58.641-130.977-130.977s58.64-130.975 130.977-130.975z" />
<glyph unicode="&#xe923;" glyph-name="credit-card" d="M260.708 471.070c-18.084 0-32.744-14.66-32.744-32.742 0-18.086 14.66-32.747 32.744-32.747h174.637c18.082 0 32.742 14.66 32.742 32.747 0 18.082-14.66 32.742-32.742 32.742h-174.637zM364.054 864c-47.681 0-85.469 0-115.926-2.488-31.146-2.545-57.5-7.854-81.563-20.115-39.021-19.882-70.746-51.607-90.628-90.628-12.261-24.064-17.57-50.417-20.115-81.563-2.488-30.457-2.488-68.244-2.488-115.926v-229.909c0-47.68 0-85.47 2.488-115.925 2.545-31.147 7.854-57.498 20.115-81.562 19.882-39.023 51.607-70.746 90.628-90.628 24.064-12.262 50.417-17.57 81.563-20.117 30.457-2.487 68.244-2.487 115.925-2.487h317.227c47.68 0 85.47 0 115.925 2.487 31.147 2.547 57.498 7.855 81.562 20.117 39.023 19.883 70.75 51.605 90.628 90.628 12.262 24.064 17.57 50.415 20.117 81.562 2.487 30.455 2.487 68.245 2.487 115.925v229.91c0 47.681 0 85.468-2.487 115.925-2.547 31.146-7.855 57.5-20.117 81.563-19.878 39.021-51.605 70.746-90.628 90.628-24.064 12.261-50.415 17.57-81.562 20.115-30.455 2.488-68.245 2.488-115.925 2.488h-317.226zM253.46 796.241c27.478 2.245 62.591 2.271 112.034 2.271h314.343c49.442 0 84.557-0.026 112.034-2.271 27.098-2.214 43.874-6.422 57.165-13.195 26.701-13.604 48.405-35.311 62.007-62.009 6.775-13.293 10.982-30.069 13.197-57.165 0.465-5.707 0.836-11.742 1.131-18.167h-805.411c0.294 6.425 0.665 12.461 1.131 18.167 2.214 27.096 6.422 43.872 13.195 57.165 13.604 26.698 35.311 48.405 62.009 62.009 13.293 6.773 30.069 10.981 57.165 13.195zM118.822 551.839c0 10.031 0.001 19.471 0.022 28.378h807.646c0.021-8.907 0.021-18.348 0.021-28.378v-227.026c0-49.442-0.026-84.557-2.27-112.034-2.214-27.098-6.421-43.874-13.197-57.165-13.602-26.701-35.307-48.405-62.007-62.007-13.291-6.775-30.067-10.982-57.165-13.197-27.477-2.244-62.592-2.27-112.034-2.27h-314.343c-49.443 0-84.556 0.026-112.034 2.27-27.096 2.214-43.872 6.421-57.165 13.197-26.698 13.602-48.405 35.307-62.009 62.007-6.773 13.291-10.981 30.067-13.195 57.165-2.245 27.477-2.271 62.592-2.271 112.034v227.026z" />
<glyph unicode="&#xe924;" glyph-name="dashboard" d="M213.791 917.333c-23.321 0-42.786 0.001-58.688-1.298-16.585-1.355-32.157-4.285-46.881-11.788-22.591-11.511-40.958-29.878-52.469-52.469-7.503-14.724-10.432-30.295-11.788-46.881-1.299-15.902-1.299-35.367-1.298-58.688v-72.512c0-23.321-0.001-42.786 1.298-58.688 1.355-16.585 4.285-32.157 11.788-46.881 11.511-22.591 29.878-40.956 52.469-52.468 14.724-7.505 30.295-10.432 46.881-11.789 15.901-1.297 35.366-1.297 58.685-1.297h72.515c23.319 0 42.786 0 58.687 1.297 16.585 1.357 32.157 4.284 46.881 11.789 22.591 11.511 40.956 29.877 52.468 52.468 7.505 14.725 10.432 30.296 11.789 46.881 1.297 15.901 1.297 35.366 1.297 58.685v72.515c0 23.319 0 42.786-1.297 58.687-1.357 16.585-4.284 32.157-11.789 46.881-11.511 22.591-29.877 40.958-52.468 52.469-14.725 7.503-30.296 10.432-46.881 11.788-15.902 1.299-35.367 1.299-58.688 1.298h-72.512zM137.953 845.897c3.954 2.014 9.947 3.843 22.483 4.867 12.918 1.056 29.692 1.081 54.684 1.081h69.854c24.992 0 41.766-0.026 54.684-1.081 12.535-1.024 18.529-2.853 22.483-4.867 10.269-5.232 18.618-13.581 23.85-23.85 2.014-3.954 3.843-9.947 4.867-22.483 1.056-12.918 1.081-29.692 1.081-54.684v-69.854c0-24.992-0.026-41.766-1.081-54.684-1.024-12.535-2.853-18.529-4.867-22.483-5.232-10.269-13.581-18.618-23.85-23.85-3.953-2.014-9.947-3.843-22.483-4.867-12.918-1.056-29.692-1.081-54.684-1.081h-69.854c-24.992 0-41.766 0.026-54.684 1.081-12.535 1.024-18.529 2.853-22.483 4.867-10.269 5.232-18.618 13.581-23.85 23.85-2.014 3.953-3.843 9.947-4.867 22.483-1.056 12.918-1.081 29.692-1.081 54.684v69.854c0 24.992 0.026 41.766 1.081 54.684 1.024 12.535 2.853 18.529 4.867 22.483 5.232 10.269 13.581 18.618 23.85 23.85zM737.698 917.333c-23.322 0-42.786 0.001-58.688-1.298-16.585-1.355-32.158-4.285-46.882-11.788-22.592-11.511-40.956-29.878-52.467-52.469-7.505-14.724-10.432-30.295-11.789-46.881-1.301-15.902-1.297-35.367-1.297-58.688v-72.512c0-23.321-0.004-42.786 1.297-58.688 1.357-16.585 4.284-32.157 11.789-46.881 11.511-22.591 29.875-40.956 52.467-52.468 14.724-7.505 30.298-10.432 46.882-11.789 15.902-1.297 35.366-1.297 58.684-1.297h72.516c23.322 0 42.786 0 58.688 1.297 16.585 1.357 32.154 4.284 46.882 11.789 22.588 11.511 40.956 29.877 52.467 52.468 7.501 14.725 10.432 30.296 11.789 46.881 1.297 15.9 1.297 35.362 1.297 58.679v72.521c0 23.316 0 42.787-1.297 58.687-1.357 16.585-4.288 32.157-11.789 46.881-11.511 22.591-29.879 40.958-52.467 52.469-14.729 7.503-30.298 10.432-46.882 11.788-15.902 1.299-35.366 1.299-58.688 1.298h-72.512zM661.858 845.897c3.955 2.014 9.95 3.843 22.485 4.867 12.915 1.056 29.692 1.081 54.682 1.081h69.854c24.994 0 41.766-0.026 54.686-1.081 12.535-1.024 18.53-2.853 22.481-4.867 10.27-5.232 18.62-13.581 23.851-23.85 2.014-3.954 3.844-9.947 4.868-22.483 1.054-12.918 1.079-29.692 1.079-54.684v-69.854c0-24.992-0.026-41.766-1.079-54.684-1.024-12.535-2.854-18.529-4.868-22.483-5.231-10.269-13.581-18.618-23.851-23.85-3.951-2.014-9.946-3.843-22.481-4.867-12.919-1.056-29.692-1.081-54.686-1.081h-69.854c-24.99 0-41.766 0.026-54.682 1.081-12.535 1.024-18.53 2.853-22.485 4.867-10.266 5.232-18.615 13.581-23.846 23.85-2.018 3.953-3.844 9.947-4.868 22.483-1.054 12.918-1.079 29.692-1.079 54.684v69.854c0 24.992 0.026 41.766 1.079 54.684 1.024 12.535 2.85 18.529 4.868 22.483 5.231 10.269 13.581 18.618 23.846 23.85zM213.791 393.425h72.512c23.321 0 42.786 0.004 58.688-1.297 16.585-1.357 32.157-4.284 46.881-11.789 22.591-11.511 40.956-29.875 52.468-52.467 7.505-14.724 10.432-30.298 11.789-46.882 1.297-15.902 1.297-35.366 1.297-58.684v-72.516c0-23.322 0-42.786-1.297-58.688-1.357-16.585-4.284-32.154-11.789-46.882-11.511-22.588-29.877-40.956-52.468-52.467-14.725-7.501-30.296-10.432-46.881-11.789-15.9-1.297-35.362-1.297-58.679-1.297h-72.521c-23.316 0-42.787 0-58.687 1.297-16.585 1.357-32.157 4.288-46.881 11.789-22.591 11.511-40.958 29.879-52.469 52.467-7.503 14.729-10.432 30.298-11.788 46.882-1.299 15.902-1.299 35.366-1.298 58.688v72.512c0 23.322-0.001 42.786 1.298 58.688 1.355 16.585 4.285 32.158 11.788 46.882 11.511 22.592 29.878 40.956 52.469 52.467 14.724 7.505 30.295 10.432 46.881 11.789 15.902 1.301 35.367 1.297 58.688 1.297zM160.436 326.857c-12.535-1.024-18.529-2.85-22.483-4.868-10.269-5.231-18.618-13.581-23.85-23.846-2.014-3.955-3.843-9.95-4.867-22.485-1.056-12.915-1.081-29.692-1.081-54.682v-69.854c0-24.994 0.026-41.766 1.081-54.686 1.024-12.535 2.853-18.53 4.867-22.481 5.232-10.27 13.581-18.62 23.85-23.851 3.954-2.014 9.947-3.844 22.483-4.868 12.918-1.054 29.692-1.079 54.684-1.079h69.854c24.992 0 41.766 0.026 54.684 1.079 12.535 1.024 18.529 2.854 22.483 4.868 10.269 5.231 18.618 13.581 23.85 23.851 2.014 3.951 3.843 9.946 4.867 22.481 1.056 12.919 1.081 29.692 1.081 54.686v69.854c0 24.99-0.026 41.766-1.081 54.682-1.024 12.535-2.853 18.53-4.867 22.485-5.232 10.266-13.581 18.615-23.85 23.846-3.953 2.018-9.947 3.844-22.483 4.868-12.918 1.054-29.692 1.079-54.684 1.079h-69.854c-24.992 0-41.766-0.026-54.684-1.079zM737.698 393.425c-23.322 0-42.786 0.004-58.688-1.297-16.585-1.357-32.158-4.284-46.882-11.789-22.592-11.511-40.956-29.875-52.467-52.467-7.505-14.724-10.432-30.298-11.789-46.882-1.301-15.902-1.297-35.366-1.297-58.688v-72.512c0-23.322-0.004-42.786 1.297-58.688 1.357-16.585 4.284-32.154 11.789-46.882 11.511-22.588 29.875-40.956 52.467-52.467 14.724-7.501 30.298-10.432 46.882-11.789 15.898-1.297 35.362-1.297 58.679-1.297h72.521c23.317 0 42.786 0 58.688 1.297 16.585 1.357 32.154 4.288 46.882 11.789 22.588 11.511 40.956 29.879 52.467 52.467 7.501 14.729 10.432 30.298 11.789 46.882 1.297 15.902 1.297 35.362 1.297 58.679v72.521c0 23.317 0 42.79-1.297 58.688-1.357 16.585-4.288 32.158-11.789 46.882-11.511 22.592-29.879 40.956-52.467 52.467-14.729 7.505-30.298 10.432-46.882 11.789-15.902 1.301-35.366 1.297-58.688 1.297h-72.512zM661.858 321.988c3.955 2.018 9.95 3.844 22.485 4.868 12.915 1.054 29.692 1.079 54.682 1.079h69.854c24.994 0 41.766-0.026 54.686-1.079 12.535-1.024 18.53-2.85 22.481-4.868 10.27-5.231 18.62-13.581 23.851-23.846 2.014-3.955 3.844-9.95 4.868-22.485 1.054-12.915 1.079-29.692 1.079-54.682v-69.854c0-24.994-0.026-41.766-1.079-54.686-1.024-12.535-2.854-18.53-4.868-22.481-5.231-10.27-13.581-18.62-23.851-23.851-3.951-2.014-9.946-3.844-22.481-4.868-12.919-1.054-29.692-1.079-54.686-1.079h-69.854c-24.99 0-41.766 0.026-54.682 1.079-12.535 1.024-18.53 2.854-22.485 4.868-10.266 5.231-18.615 13.581-23.846 23.851-2.018 3.951-3.844 9.946-4.868 22.481-1.054 12.919-1.079 29.692-1.079 54.686v69.854c0 24.99 0.026 41.766 1.079 54.682 1.024 12.535 2.85 18.53 4.868 22.485 5.231 10.266 13.581 18.615 23.846 23.846z" />
<glyph unicode="&#xe925;" glyph-name="delete" d="M451.789 917.329h120.41c22.379 0.029 42.022 0.058 59.524-6.825 15.3-6.019 28.851-15.783 39.403-28.399 12.062-14.427 18.249-33.070 25.289-54.312l13.815-41.448h238.349c18.082 0 32.742-14.66 32.742-32.744s-14.66-32.744-32.742-32.744h-56.444l-26.458-449.767c-2.654-45.103-4.757-80.896-8.768-109.722-4.109-29.517-10.517-54.404-23.223-76.992-20.655-36.719-52.002-66.278-89.869-84.736-23.296-11.362-48.516-16.299-78.225-18.667-29.009-2.308-64.87-2.308-110.059-2.308h-87.078c-45.187 0-81.046 0-110.062 2.308-29.709 2.368-54.925 7.305-78.22 18.667-37.869 18.458-69.217 48.017-89.871 84.736-12.706 22.588-19.115 47.475-23.223 76.992-4.011 28.826-6.116 64.627-8.77 109.73l-26.456 449.758h-56.442c-18.084 0-32.744 14.66-32.744 32.744s14.66 32.744 32.744 32.744h238.35l13.811 41.448c7.046 21.242 13.229 39.885 25.294 54.312 10.55 12.616 24.098 22.38 39.401 28.399 17.502 6.884 37.144 6.854 59.523 6.825zM685.862 720.858h-347.738c-0.505-0.012-1.012-0.012-1.52 0h-139.152l26.148-444.519c2.754-46.81 4.73-80.004 8.34-105.946 3.555-25.549 8.385-41.374 15.438-53.909 14.132-25.126 35.581-45.35 61.491-57.98 12.931-6.306 29.010-10.197 54.723-12.245 26.11-2.082 59.363-2.103 106.252-2.103h84.297c46.891 0 80.145 0.021 106.253 2.103 25.715 2.048 41.792 5.939 54.724 12.245 25.911 12.629 47.356 32.853 61.487 57.98 7.057 12.535 11.887 28.361 15.437 53.909 3.614 25.941 5.589 59.136 8.346 105.946l26.146 444.519h-139.153c-0.503-0.012-1.011-0.012-1.519 0zM641.195 786.345l-5.406 16.231c-9.472 28.414-11.887 33.909-14.903 37.518-3.511 4.205-8.030 7.46-13.133 9.466-4.378 1.721-10.355 2.272-40.303 2.272h-110.912c-29.948 0-35.924-0.551-40.303-2.272-5.101-2.007-9.617-5.261-13.134-9.466-3.018-3.609-5.43-9.104-14.901-37.518l-5.41-16.231h258.405z" />
<glyph unicode="&#xe926;" glyph-name="description" d="M42.667 753.231c0 19.939 16.164 36.102 36.102 36.102h866.46c19.942 0 36.105-16.164 36.105-36.102s-16.162-36.103-36.105-36.103h-866.46c-19.939 0-36.102 16.164-36.102 36.103zM42.667 464.41c0 19.938 16.164 36.105 36.102 36.105h385.094c19.938 0 36.1-16.166 36.1-36.105s-16.162-36.1-36.1-36.1h-385.094c-19.939 0-36.102 16.162-36.102 36.1zM78.769 211.691c-19.939 0-36.102-16.162-36.102-36.1s16.164-36.105 36.102-36.105h625.777c19.938 0 36.105 16.166 36.105 36.105s-16.166 36.1-36.105 36.1h-625.777z" />
<glyph unicode="&#xe927;" glyph-name="document-add" d="M510.016 502.575c18.082 0 32.742-14.66 32.742-32.747v-76.403h76.403c18.086 0 32.747-14.66 32.747-32.742 0-18.086-14.66-32.747-32.747-32.747h-76.403v-76.403c0-18.082-14.66-32.742-32.742-32.742-18.086 0-32.747 14.66-32.747 32.742v76.403h-76.401c-18.084 0-32.744 14.66-32.744 32.747 0 18.082 14.66 32.742 32.744 32.742h76.401v76.403c0 18.086 14.66 32.747 32.747 32.747zM604.915 911.38c28.582-6.338 55.838-17.628 80.533-33.358 23.223-14.794 43.076-34.653 75.328-66.912l22.421-22.422c34.842-34.832 56.294-56.279 71.838-81.648 13.764-22.461 23.91-46.948 30.059-72.564 6.946-28.931 6.942-59.266 6.938-108.534v-166.729c0-59.887 0-106.837-3.085-144.576-3.14-38.426-9.638-70.17-24.277-98.901-24.068-47.236-62.473-85.641-109.709-109.709-28.732-14.639-60.48-21.141-98.906-24.277-37.734-3.085-84.689-3.085-144.576-3.085h-2.931c-59.887 0-106.839 0-144.575 3.085-38.426 3.136-70.171 9.638-98.904 24.277-47.236 24.068-85.64 62.473-109.708 109.709-14.641 28.732-21.139 60.476-24.279 98.901-3.083 37.739-3.083 84.689-3.083 144.576v187.141c0 55.418 0 98.868 2.651 133.873 2.698 35.63 8.281 65.167 20.876 92.173 24.942 53.479 67.925 96.462 121.404 121.404 27.006 12.596 56.543 18.178 92.173 20.876 35.004 2.651 78.454 2.651 133.874 2.651h5.355c45.619 0.005 73.698 0.008 100.582-5.952zM564.591 850.864c-14.81 0.917-34.249 0.98-64.26 0.98-57.062 0-98.039-0.022-130.281-2.464-31.901-2.416-52.579-7.063-69.439-14.926-39.528-18.435-71.298-50.205-89.733-89.734-7.863-16.859-12.51-37.538-14.926-69.439-2.442-32.242-2.464-73.217-2.464-130.281v-184.32c0-61.67 0.026-105.95 2.865-140.71 2.809-34.377 8.206-56.542 17.359-74.505 17.789-34.914 46.175-63.3 81.088-81.088 17.962-9.152 40.13-14.549 74.506-17.361 34.758-2.837 79.039-2.863 140.71-2.863 61.666 0 105.95 0.026 140.706 2.863 34.377 2.812 56.546 8.209 74.509 17.361 34.914 17.788 63.3 46.174 81.088 81.088 9.152 17.963 14.549 40.128 17.357 74.505 2.842 34.761 2.867 79.040 2.867 140.71v160.939c0 31.664-0.073 52.434-1.071 68.268h-89.758c-23.322 0-42.786-0.001-58.688 1.298-16.585 1.355-32.158 4.285-46.882 11.788-22.592 11.511-40.96 29.878-52.467 52.469-7.505 14.724-10.436 30.295-11.789 46.881-1.301 15.902-1.301 35.367-1.297 58.688v89.85zM808.644 655.378c-2.829 5.971-5.982 11.795-9.446 17.445-11.004 17.956-26.509 33.76-65.365 72.616l-16.533 16.533c-35.972 35.974-50.598 50.345-67.038 60.816-6.502 4.142-13.244 7.867-20.186 11.159v-71.605c0-24.992 0.026-41.766 1.084-54.684 1.024-12.535 2.85-18.529 4.864-22.483 5.235-10.269 13.581-18.618 23.851-23.849 3.955-2.015 9.95-3.843 22.485-4.867 12.915-1.056 29.692-1.081 54.682-1.081h71.603z" />
<glyph unicode="&#xe928;" glyph-name="document-f" d="M565.333 905.801c-16.393 0.87-35.226 0.867-58.884 0.865h-5.235c-54.161 0-96.623 0-130.832-2.591-34.82-2.637-63.686-8.093-90.078-20.401-52.263-24.375-94.27-66.382-118.645-118.645-12.309-26.393-17.765-55.258-20.401-90.079-2.591-34.208-2.591-76.671-2.591-130.83v-182.887c0-58.526 0-104.41 3.013-141.291 3.068-37.551 9.42-68.574 23.727-96.657 23.521-46.161 61.052-83.691 107.215-107.213 28.080-14.306 59.104-20.659 96.657-23.727 36.877-3.012 82.759-3.012 141.28-3.012h2.876c58.522 0 104.414 0 141.291 3.012 37.551 3.068 68.574 9.421 96.653 23.727 46.165 23.522 83.695 61.052 107.217 107.213 14.306 28.083 20.659 59.106 23.727 96.657 3.012 36.877 3.012 82.761 3.012 141.282v154.24c0.004 28.344 0.009 51.255-1.161 71.202h-118.391c-38.336-0.001-70.302-0.002-95.68 3.409-26.786 3.601-50.97 11.523-70.4 30.957-19.435 19.433-27.358 43.617-30.959 70.403-3.413 25.377-3.409 57.344-3.409 95.679v118.687zM384 480c-17.673 0-32-14.327-32-32s14.327-32 32-32h256c17.673 0 32 14.327 32 32s-14.327 32-32 32h-256zM352 277.333c0 17.673 14.327 32 32 32h170.667c17.673 0 32-14.327 32-32s-14.327-32-32-32h-170.667c-17.673 0-32 14.327-32 32zM872.704 650.667c-4.804 14.388-10.935 28.308-18.317 41.578-16.691 29.999-41.425 54.726-81.57 94.861l-15.753 15.753c-31.518 31.525-50.923 50.933-73.617 65.39-16.943 10.793-35.119 19.447-54.114 25.789v-104.704c0-41.131 0.068-68.76 2.837-89.37 2.65-19.689 7.223-28.116 12.783-33.676s13.986-10.135 33.677-12.782c20.608-2.771 48.239-2.839 89.37-2.839h104.704z" />
<glyph unicode="&#xe929;" glyph-name="document" d="M564.591 850.864v-89.85c-0.004-23.321-0.004-42.786 1.297-58.688 1.353-16.585 4.284-32.157 11.789-46.881 11.507-22.591 29.875-40.958 52.467-52.469 14.724-7.503 30.298-10.432 46.882-11.788 15.902-1.299 35.366-1.299 58.688-1.298h89.758c0.998-15.834 1.071-36.604 1.071-68.268v-160.939c0-61.67-0.026-105.95-2.867-140.71-2.807-34.377-8.205-56.542-17.357-74.505-17.788-34.914-46.174-63.3-81.088-81.088-17.963-9.152-40.132-14.549-74.509-17.361-34.756-2.837-79.040-2.863-140.706-2.863-61.67 0-105.951 0.026-140.71 2.863-34.376 2.812-56.544 8.209-74.506 17.361-34.914 17.788-63.299 46.174-81.088 81.088-9.152 17.963-14.55 40.128-17.359 74.505-2.84 34.761-2.865 79.040-2.865 140.71v184.32c0 57.064 0.022 98.039 2.464 130.281 2.416 31.901 7.063 52.579 14.926 69.439 18.435 39.528 50.205 71.298 89.733 89.734 16.86 7.863 37.538 12.509 69.439 14.926 32.242 2.442 73.219 2.464 130.281 2.464 30.012 0 49.451-0.063 64.26-0.98zM808.644 655.378h-71.603c-24.99 0-41.766 0.025-54.682 1.081-12.535 1.024-18.53 2.853-22.485 4.867-10.27 5.232-18.615 13.581-23.851 23.849-2.014 3.954-3.84 9.947-4.864 22.483-1.058 12.918-1.084 29.692-1.084 54.684v71.605c6.942-3.292 13.683-7.017 20.186-11.159 16.439-10.471 31.066-24.843 67.038-60.816l16.533-16.533c38.857-38.857 54.362-54.66 65.365-72.616 3.465-5.65 6.618-11.474 9.446-17.445zM604.915 911.38c-26.884 5.96-54.963 5.957-100.582 5.952h-5.355c-55.42 0-98.87 0-133.874-2.651-35.63-2.699-65.167-8.281-92.173-20.876-53.479-24.942-96.463-67.925-121.404-121.404-12.595-27.006-18.178-56.543-20.876-92.173-2.651-35.005-2.651-78.454-2.651-133.873v-187.141c0-59.887 0-106.837 3.083-144.576 3.14-38.426 9.638-70.17 24.279-98.901 24.068-47.236 62.472-85.641 109.708-109.709 28.733-14.639 60.478-21.141 98.904-24.277 37.736-3.085 84.688-3.085 144.575-3.085v0h2.935c59.887 0 106.837 0 144.572 3.085 38.426 3.136 70.174 9.638 98.906 24.277 47.236 24.068 85.641 62.473 109.709 109.709 14.639 28.732 21.137 60.476 24.277 98.901 3.085 37.739 3.085 84.689 3.085 144.576v0 166.729c0.004 49.268 0.009 79.603-6.938 108.534-6.148 25.615-16.294 50.103-30.059 72.564-15.543 25.369-36.996 46.816-71.838 81.648v0.001l-22.421 22.421c-32.252 32.259-52.105 52.118-75.328 66.912-24.695 15.73-51.951 27.020-80.533 33.358zM379.039 480.742h261.951c18.086 0 32.747-14.66 32.747-32.742 0-18.086-14.66-32.742-32.747-32.742h-261.951c-18.084 0-32.744 14.656-32.744 32.742 0 18.082 14.66 32.742 32.744 32.742zM379.039 306.108h174.634c18.086 0 32.747-14.66 32.747-32.742 0-18.086-14.66-32.747-32.747-32.747h-174.634c-18.084 0-32.744 14.66-32.744 32.747 0 18.082 14.66 32.742 32.744 32.742z" />
<glyph unicode="&#xe92a;" glyph-name="dollar-circle" d="M358.941 535.853c0 60.122 48.738 108.86 108.861 108.86h22.114v32.744c0 18.084 14.66 32.744 32.747 32.744 18.082 0 32.742-14.66 32.742-32.744v-32.744h10.914c66.308 0 120.064-53.754 120.064-120.063 0-18.082-14.66-32.742-32.747-32.742-18.082 0-32.742 14.66-32.742 32.742 0 30.141-24.435 54.574-54.575 54.574h-10.914v-118.292l56.542-18.846c44.454-14.818 74.436-56.418 74.436-103.275 0-60.122-48.738-108.86-108.86-108.86h-22.118v-32.742c0-18.086-14.66-32.742-32.742-32.742-18.086 0-32.747 14.656-32.747 32.742v32.742h-10.914c-66.307 0-120.061 53.756-120.061 120.064 0 18.082 14.66 32.742 32.744 32.742s32.744-14.66 32.744-32.742c0-30.14 24.433-54.575 54.573-54.575h10.914v118.293l-56.542 18.846c-44.45 14.818-74.433 56.418-74.433 103.273zM489.916 482.765v96.46h-22.114c-23.953 0-43.373-19.418-43.373-43.372 0-18.669 11.945-35.241 29.655-41.146l35.831-11.942zM555.405 391.902v-96.461h22.118c23.953 0 43.371 19.418 43.371 43.371 0 18.671-11.947 35.243-29.658 41.148l-35.831 11.942zM53.333 437.333c0 259.206 210.128 469.333 469.333 469.333s469.333-210.128 469.333-469.333c0-259.204-210.129-469.333-469.333-469.333-259.206 0-469.333 210.129-469.333 469.333zM522.667 841.178c-223.037 0-403.845-180.808-403.845-403.845 0-223.036 180.808-403.844 403.845-403.844 223.036 0 403.844 180.809 403.844 403.844 0 223.037-180.809 403.845-403.844 403.845z" />
<glyph unicode="&#xe92b;" glyph-name="download-f" d="M965.538 281.216c-10.522 10.526-23.317 15.795-38.353 15.795h-261.751l-76.715-76.715c-21.815-21.056-47.386-31.59-76.719-31.59-29.329 0-54.908 10.522-76.719 31.59l-76.152 76.715h-262.31c-15.040 0-27.825-5.274-38.358-15.795-10.531-10.526-15.795-23.313-15.795-38.366v-180.506c0-15.044 5.264-27.827 15.795-38.357 10.531-10.526 23.316-15.787 38.358-15.787h830.37c15.036 0 27.831 5.261 38.349 15.787 10.534 10.53 15.795 23.313 15.795 38.357v180.506c0 15.053-5.261 27.84-15.795 38.366zM754.010 91.115c-7.155-7.147-15.62-10.718-25.395-10.718-9.779 0-18.231 3.571-25.387 10.718-7.138 7.147-10.709 15.607-10.709 25.378 0 9.775 3.571 18.249 10.709 25.382 7.155 7.155 15.607 10.731 25.387 10.731 9.775 0 18.24-3.575 25.395-10.731 7.138-7.134 10.709-15.603 10.709-25.382 0-9.771-3.571-18.231-10.709-25.378zM898.411 91.115c-7.142-7.147-15.607-10.718-25.387-10.718-9.775 0-18.236 3.571-25.382 10.718-7.138 7.147-10.709 15.607-10.709 25.378 0 9.775 3.571 18.249 10.709 25.382 7.147 7.155 15.603 10.731 25.382 10.731s18.244-3.575 25.387-10.731c7.147-7.134 10.722-15.603 10.722-25.382 0-9.771-3.571-18.231-10.722-25.378zM486.618 271.629c6.771-7.138 15.232-10.709 25.382-10.709 10.159 0 18.607 3.571 25.382 10.709l252.723 252.723c11.652 10.905 14.293 24.070 7.898 39.489-6.383 14.662-17.481 21.995-33.284 22.003h-144.414v252.719c0 9.776-3.575 18.239-10.709 25.383-7.151 7.147-15.612 10.721-25.382 10.721h-144.427c-9.771 0-18.234-3.574-25.382-10.721-7.143-7.145-10.717-15.605-10.717-25.383v-252.721h-144.41c-15.802 0-26.891-7.34-33.284-22.003-6.39-15.413-3.76-28.584 7.901-39.487l252.724-252.723z" />
<glyph unicode="&#xe92c;" glyph-name="download" d="M512 917.333c19.938 0 36.105-16.164 36.105-36.102v-562.686l154.982 154.982c14.097 14.101 36.958 14.101 51.055 0 14.101-14.097 14.101-36.958 0-51.055l-216.614-216.614c-14.097-14.101-36.958-14.101-51.055 0l-216.616 216.614c-14.099 14.097-14.099 36.958 0 51.055 14.099 14.101 36.957 14.101 51.057 0l154.982-154.982v562.686c0 19.939 16.166 36.102 36.105 36.102zM78.769 267.486c19.939 0 36.103-16.162 36.103-36.1v-54.157c0-33.51 13.313-65.651 37.009-89.348s55.837-37.009 89.35-37.009h541.54c33.51 0 65.651 13.312 89.348 37.009s37.009 55.838 37.009 89.348v54.157c0 19.938 16.162 36.1 36.1 36.1 19.942 0 36.105-16.162 36.105-36.1v-54.157c0-52.659-20.919-103.168-58.159-140.403-37.235-37.239-87.744-58.159-140.403-58.159h-541.54c-52.663 0-103.168 20.919-140.406 58.159-37.238 37.235-58.158 87.744-58.158 140.403v54.157c0 19.938 16.164 36.1 36.102 36.1z" />
<glyph unicode="&#xe92d;" glyph-name="draft" d="M705.634 884.115c48.725 44.292 123.132 44.291 171.857-0.002 2.266-2.057 4.681-4.474 7.97-7.766l1.126-1.126c3.294-3.294 5.717-5.714 7.774-7.978 44.288-48.725 44.288-123.132-0.004-171.856-2.052-2.261-4.471-4.677-7.757-7.964l-351.821-351.82c-20.672-20.676-33.604-33.609-48.414-44.258-13.129-9.434-27.238-17.425-42.082-23.825-16.751-7.223-34.496-11.657-62.859-18.748l-112.547-28.134c-10.678-2.671-21.974 0.461-29.757 8.243s-10.912 19.076-8.242 29.756l28.137 112.546c7.088 28.361 11.522 46.106 18.744 62.857 6.402 14.848 14.391 28.958 23.828 42.086 10.646 14.81 23.581 27.742 44.255 48.41l351.816 351.81c3.29 3.293 5.709 5.712 7.974 7.77zM835.337 837.74c-24.819 22.564-62.729 22.565-87.552 0.001-1.007-0.916-2.283-2.179-6.374-6.273l-16.145-16.143c-2.402-56.143 44.156-102.707 100.297-100.313l16.154 16.151c4.092 4.094 5.355 5.37 6.272 6.377 22.562 24.821 22.562 62.727 0 87.549-0.917 1.008-2.18 2.284-6.272 6.377-4.096 4.094-5.372 5.357-6.379 6.273zM770.999 660.451c-47.049 15.844-84.459 53.259-100.301 100.309l-278.628-278.627c-23.188-23.185-32.279-32.41-39.596-42.59-6.799-9.455-12.555-19.622-17.167-30.319-4.964-11.511-8.196-24.051-16.149-55.863l-14.814-59.26 59.258 14.814c31.814 7.953 44.354 11.187 55.865 16.149 10.698 4.612 20.861 10.368 30.32 17.169 10.176 7.317 19.401 16.405 42.59 39.595l278.622 278.623zM85.333 10.001c0 17.306 14.029 31.334 31.334 31.334h771.315c17.306 0 31.334-14.029 31.334-31.334s-14.029-31.334-31.334-31.334h-771.315c-17.306 0-31.334 14.029-31.334 31.334z" />
<glyph unicode="&#xe92f;" glyph-name="duplicate" d="M364.059 906.667c-47.681 0-85.469 0-115.926-2.488-31.146-2.545-57.5-7.854-81.563-20.115-39.021-19.882-70.746-51.607-90.628-90.628-12.261-24.064-17.57-50.417-20.115-81.563-2.489-30.457-2.488-68.244-2.488-115.925v-55.273c0-47.682 0-85.468 2.488-115.927 2.545-31.147 7.854-57.498 20.115-81.562 19.882-39.023 51.607-70.746 90.628-90.628 24.064-12.262 50.417-17.57 81.563-20.117 19.249-1.57 41.425-2.15 67.177-2.364 0.061-25.25 0.323-46.357 1.445-64.282 1.494-23.872 4.605-44.271 11.828-63.462 21.036-55.893 65.147-100.002 121.038-121.041 19.191-7.223 39.59-10.334 63.467-11.827 23.377-1.463 52.186-1.463 88.533-1.463h79.663c47.68 0 85.47 0 115.925 2.487 31.147 2.547 57.502 7.855 81.566 20.117 39.019 19.878 70.746 51.605 90.628 90.628 12.258 24.064 17.57 50.415 20.113 81.562 2.487 30.455 2.487 68.241 2.487 115.925v79.667c0 36.343 0 65.152-1.463 88.529-1.493 23.876-4.604 44.275-11.827 63.467-21.035 55.892-65.148 100.002-121.037 121.039-19.196 7.223-39.59 10.334-63.467 11.828-17.92 1.122-39.031 1.384-64.282 1.445-0.213 25.752-0.794 47.928-2.364 67.177-2.547 31.146-7.855 57.5-20.117 81.563-19.883 39.021-51.605 70.746-90.628 90.628-24.064 12.261-50.415 17.57-81.562 20.115-30.455 2.488-68.245 2.488-115.926 2.488h-55.273zM730.052 579.204c24.811-0.062 44.066-0.313 60.066-1.314 20.834-1.304 33.941-3.79 44.489-7.759 38.242-14.393 68.42-44.575 82.816-82.817 3.968-10.547 6.455-23.654 7.757-44.484 1.323-21.094 1.335-47.855 1.335-85.538v-77.129c0-49.442-0.026-84.557-2.27-112.034-2.214-27.098-6.421-43.874-13.193-57.165-13.606-26.701-35.311-48.405-62.012-62.007-13.291-6.775-30.067-10.982-57.165-13.197-27.477-2.244-62.588-2.27-112.034-2.27h-77.129c-37.683 0-64.444 0.013-85.534 1.335-20.834 1.301-33.941 3.789-44.489 7.757-38.242 14.396-68.423 44.574-82.816 82.816-3.969 10.547-6.455 23.659-7.759 44.489-1.001 16-1.252 35.255-1.314 60.066h38.531c47.68 0 85.469 0 115.925 2.487 31.147 2.547 57.498 7.855 81.562 20.117 39.023 19.883 70.746 51.605 90.628 90.628 12.262 24.064 17.57 50.415 20.117 81.562 2.487 30.46 2.487 68.245 2.487 115.927v38.531zM196.301 825.713c13.293 6.773 30.069 10.981 57.165 13.195 27.478 2.245 62.591 2.271 112.034 2.271h52.391c49.442 0 84.556-0.026 112.034-2.271 27.098-2.214 43.874-6.422 57.165-13.195 26.701-13.604 48.405-35.31 62.007-62.009 6.775-13.293 10.982-30.069 13.197-57.165 2.244-27.478 2.27-62.591 2.27-112.034v-52.391c0-49.443-0.026-84.557-2.27-112.035-2.214-27.093-6.421-43.87-13.197-57.165-13.602-26.697-35.307-48.405-62.007-62.007-13.291-6.775-30.067-10.982-57.165-13.197-27.477-2.244-62.592-2.27-112.034-2.27h-52.391c-49.443 0-84.556 0.026-112.034 2.27-27.096 2.214-43.872 6.421-57.165 13.197-26.699 13.602-48.405 35.311-62.009 62.007-6.773 13.295-10.981 30.071-13.195 57.165-2.245 27.477-2.27 62.592-2.27 112.035v52.391c0 49.443 0.025 84.556 2.27 112.034 2.214 27.096 6.422 43.872 13.195 57.165 13.604 26.699 35.311 48.405 62.009 62.009z" />
<glyph unicode="&#xe930;" glyph-name="edit" d="M423.217 917.333h88.783c18.082 0 32.742-14.66 32.742-32.744s-14.66-32.744-32.742-32.744h-87.318c-61.669 0-105.951-0.026-140.709-2.865-34.376-2.809-56.543-8.206-74.506-17.359-34.914-17.789-63.299-46.175-81.088-81.088-9.152-17.963-14.55-40.13-17.359-74.506-2.84-34.758-2.865-79.040-2.865-140.709v-174.635c0-61.67 0.026-105.95 2.865-140.71 2.809-34.377 8.206-56.542 17.359-74.505 17.789-34.914 46.175-63.3 81.088-81.088 17.963-9.152 40.13-14.549 74.506-17.361 34.758-2.837 79.040-2.863 140.709-2.863h174.635c61.67 0 105.95 0.026 140.71 2.863 34.377 2.812 56.542 8.209 74.505 17.361 34.914 17.788 63.3 46.174 81.088 81.088 9.152 17.963 14.549 40.128 17.361 74.505 2.837 34.761 2.863 79.040 2.863 140.71v87.317c0 18.082 14.66 32.742 32.747 32.742 18.082 0 32.742-14.66 32.742-32.742v-88.785c0-59.883 0-106.837-3.085-144.576-3.136-38.426-9.638-70.17-24.277-98.901-24.068-47.236-62.473-85.641-109.709-109.709-28.732-14.639-60.476-21.141-98.901-24.277-37.739-3.085-84.689-3.085-144.572-3.085h-177.573c-59.885 0-106.84 0-144.576 3.085-38.426 3.136-70.171 9.638-98.904 24.277-47.236 24.068-85.64 62.473-109.708 109.709-14.64 28.732-21.139 60.476-24.279 98.901-3.083 37.739-3.083 84.689-3.083 144.576v177.568c0 59.887 0 106.84 3.083 144.577 3.14 38.426 9.639 70.171 24.279 98.904 24.068 47.236 62.472 85.64 109.708 109.708 28.733 14.64 60.478 21.139 98.904 24.279 37.737 3.083 84.689 3.083 144.577 3.083zM736.853 849.946c45.794 41.625 115.725 41.625 161.515 0 2.133-1.937 4.395-4.201 7.334-7.14l1.101-1.101c2.94-2.94 5.205-5.205 7.142-7.336 41.626-45.793 41.626-115.722 0-161.515-1.937-2.131-4.198-4.395-7.138-7.334l-187.874-187.872c-18.534-18.539-30.485-30.494-44.194-40.346-12.143-8.73-25.199-16.124-38.933-22.046-15.501-6.682-31.898-10.782-57.331-17.135l-102.191-25.549c-11.157-2.79-22.963 0.482-31.095 8.614s-11.405 19.934-8.614 31.095l25.549 102.191c6.353 25.432 10.453 41.831 17.135 57.332 5.922 13.735 13.316 26.789 22.046 38.934 9.852 13.707 21.807 25.657 40.341 44.189l187.874 187.873c2.94 2.939 5.205 5.206 7.334 7.143zM854.319 801.487c-20.813 18.92-52.599 18.92-73.412 0-0.819-0.742-1.886-1.795-5.628-5.539l-13.406-13.403c-1.058-46.985 37.687-85.729 84.672-84.669l13.402 13.403c3.746 3.744 4.796 4.81 5.538 5.627 18.923 20.815 18.923 52.601 0 73.416-0.742 0.817-1.792 1.882-5.538 5.627-3.742 3.744-4.809 4.797-5.628 5.539zM791.057 642.386c-38.656 15.091-69.581 46.016-84.672 84.669l-116.506-116.507c-21.099-21.097-29.030-29.169-35.401-38.033-5.973-8.31-11.034-17.242-15.083-26.639-4.322-10.025-7.164-20.978-14.4-49.923l-11.652-46.609 46.609 11.652c28.945 7.236 39.898 10.078 49.924 14.4 9.395 4.049 18.33 9.109 26.637 15.083 8.866 6.37 16.939 14.302 38.033 35.401l116.51 116.507z" />
<glyph unicode="&#xe931;" glyph-name="email" d="M268.21 650.873c-15.047 10.031-35.377 5.965-45.408-9.082s-5.966-35.377 9.082-45.408l48.739-32.494c65.414-43.621 104.342-69.575 146.364-82.238 55.445-16.704 114.581-16.704 170.027 0 42.022 12.663 80.951 38.618 146.364 82.239l48.738 32.493c15.049 10.031 19.115 30.361 9.084 45.408s-30.362 19.113-45.41 9.082l-43.657-29.106c-72.051-48.033-102.481-67.911-134.007-77.41-43.127-12.995-89.122-12.995-132.25 0-31.525 9.499-61.957 29.377-134.007 77.41l-43.659 29.106zM423.217 874.667c-59.888 0-106.84 0-144.577-3.083-38.426-3.14-70.171-9.638-98.904-24.279-47.236-24.068-85.64-62.472-109.708-109.708-14.641-28.733-21.139-60.478-24.279-98.904-3.083-37.737-3.083-84.689-3.083-144.575v-90.249c0-59.891 0-106.842 3.083-144.58 3.14-38.426 9.638-70.17 24.279-98.901 24.068-47.236 62.472-85.641 109.708-109.709 28.733-14.639 60.478-21.141 98.904-24.277 37.736-3.085 84.687-3.085 144.574-3.085h177.571c59.887 0 106.837 0 144.576 3.085 38.426 3.136 70.17 9.638 98.901 24.277 47.236 24.068 85.641 62.473 109.709 109.709 14.639 28.732 21.141 60.476 24.277 98.901 3.085 37.739 3.085 84.689 3.085 144.576v90.253c0 59.885 0 106.839-3.085 144.575-3.136 38.426-9.638 70.171-24.277 98.904-24.068 47.236-62.473 85.64-109.709 109.708-28.732 14.641-60.476 21.139-98.901 24.279-37.739 3.083-84.689 3.083-144.576 3.083h-177.568zM209.467 788.954c17.963 9.152 40.13 14.55 74.506 17.359 34.758 2.84 79.040 2.865 140.709 2.865h174.635c61.67 0 105.95-0.026 140.71-2.865 34.377-2.809 56.542-8.206 74.505-17.359 34.914-17.789 63.3-46.175 81.088-81.088 9.152-17.963 14.549-40.13 17.361-74.506 2.837-34.758 2.863-79.040 2.863-140.71v-87.317c0-61.67-0.026-105.95-2.863-140.71-2.812-34.377-8.209-56.542-17.361-74.505-17.788-34.914-46.174-63.3-81.088-81.088-17.963-9.152-40.128-14.549-74.505-17.357-34.761-2.842-79.040-2.867-140.71-2.867h-174.635c-61.669 0-105.951 0.026-140.709 2.867-34.376 2.807-56.543 8.205-74.506 17.357-34.914 17.788-63.299 46.174-81.088 81.088-9.152 17.963-14.55 40.128-17.359 74.505-2.84 34.761-2.865 79.040-2.865 140.71v87.317c0 61.669 0.026 105.951 2.865 140.71 2.809 34.376 8.206 56.543 17.359 74.506 17.789 34.914 46.175 63.299 81.088 81.088z" />
<glyph unicode="&#xe932;" glyph-name="embed" d="M489.51 468.506c12.787 12.787 12.787 33.519 0 46.306s-33.519 12.787-46.306 0l-87.319-87.317c-12.787-12.787-12.787-33.519 0-46.306l87.319-87.317c12.787-12.787 33.519-12.787 46.306 0s12.787 33.519 0 46.306l-64.165 64.162 64.165 64.166zM594.684 317.022l-64.162 64.166c-12.787 12.787-12.787 33.519 0 46.306s33.519 12.787 46.306 0l87.317-87.317c12.787-12.787 12.787-33.519 0-46.306l-87.317-87.317c-12.787-12.787-33.519-12.787-46.306 0s-12.787 33.519 0 46.306l64.162 64.162zM604.915 911.38c28.582-6.338 55.838-17.628 80.533-33.358 23.223-14.794 43.076-34.653 75.328-66.912l22.421-22.422c34.842-34.832 56.294-56.279 71.838-81.648 13.764-22.461 23.91-46.948 30.059-72.564 6.946-28.931 6.942-59.266 6.938-108.534v-166.729c0-59.887 0-106.837-3.085-144.576-3.14-38.426-9.638-70.17-24.277-98.901-24.068-47.236-62.473-85.641-109.709-109.709-28.732-14.639-60.48-21.141-98.906-24.277-37.734-3.085-84.689-3.085-144.576-3.085h-2.931c-59.887 0-106.839 0-144.575 3.085-38.426 3.136-70.171 9.638-98.904 24.277-47.236 24.068-85.64 62.473-109.708 109.709-14.641 28.732-21.139 60.476-24.279 98.901-3.083 37.739-3.083 84.689-3.083 144.576v187.141c0 55.418 0 98.868 2.651 133.873 2.698 35.63 8.281 65.167 20.876 92.173 24.942 53.479 67.925 96.462 121.404 121.404 27.006 12.596 56.543 18.178 92.173 20.876 35.004 2.651 78.454 2.651 133.874 2.651h5.355c45.619 0.005 73.698 0.008 100.582-5.952zM564.591 850.864c-14.81 0.917-34.249 0.98-64.26 0.98-57.062 0-98.039-0.022-130.281-2.464-31.901-2.416-52.579-7.063-69.439-14.926-39.528-18.435-71.298-50.205-89.733-89.734-7.863-16.859-12.51-37.538-14.926-69.439-2.442-32.242-2.464-73.217-2.464-130.281v-184.32c0-61.67 0.026-105.95 2.865-140.71 2.809-34.377 8.206-56.542 17.359-74.505 17.789-34.914 46.175-63.3 81.088-81.088 17.962-9.152 40.13-14.549 74.506-17.361 34.758-2.837 79.039-2.863 140.71-2.863 61.666 0 105.95 0.026 140.706 2.863 34.377 2.812 56.546 8.209 74.509 17.361 34.914 17.788 63.3 46.174 81.088 81.088 9.152 17.963 14.549 40.128 17.357 74.505 2.842 34.761 2.867 79.040 2.867 140.71v160.939c0 31.664-0.073 52.434-1.071 68.268h-89.758c-23.322 0-42.786-0.001-58.688 1.298-16.585 1.355-32.158 4.285-46.882 11.788-22.592 11.511-40.96 29.878-52.467 52.469-7.505 14.724-10.436 30.295-11.789 46.881-1.301 15.902-1.301 35.367-1.297 58.688v89.85zM808.644 655.378c-2.829 5.971-5.982 11.795-9.446 17.445-11.004 17.956-26.509 33.76-65.365 72.616l-16.533 16.533c-35.972 35.974-50.598 50.345-67.038 60.816-6.502 4.142-13.244 7.867-20.186 11.159v-71.605c0-24.992 0.026-41.766 1.084-54.684 1.024-12.535 2.85-18.529 4.864-22.483 5.235-10.269 13.581-18.618 23.851-23.849 3.955-2.015 9.95-3.843 22.485-4.867 12.915-1.056 29.692-1.081 54.682-1.081h71.603z" />
<glyph unicode="&#xe933;" glyph-name="event-attend" d="M554.982 574.421c-12.22 12.219-32.030 12.219-44.25 0-12.215-12.219-12.215-32.030 0-44.249l71.744-71.744h-258.21c-17.28 0-31.289-14.007-31.289-31.287s14.008-31.287 31.289-31.287h258.21l-71.744-71.744c-12.215-12.22-12.215-32.030 0-44.25 12.22-12.22 32.030-12.22 44.25 0l125.158 125.158c12.22 12.22 12.22 32.030 0 44.25l-125.158 125.154zM355.555 886.045v-11.43c33.435 1.001 72.152 1.001 117.481 1.001h36.207c45.329 0 84.049 0 117.483-1.001v11.43c0 17.28 14.007 31.289 31.287 31.289s31.292-14.008 31.292-31.289v-15.308c37.137-3.982 68.25-11.392 96.555-25.814 52.983-26.998 96.064-70.077 123.063-123.064 16.26-31.918 23.607-67.404 27.179-111.079 3.511-43.014 3.511-96.642 3.511-165.536v-36.211c0-68.894 0-122.517-3.511-165.53-3.571-43.678-10.918-79.164-27.179-111.078-26.999-52.988-70.080-96.068-123.063-123.063-31.919-16.265-67.405-23.612-111.078-27.179-43.017-3.516-96.644-3.516-165.538-3.516h-36.211c-68.894 0-122.517 0-165.531 3.516-43.675 3.567-79.16 10.914-111.079 27.179-52.986 26.995-96.066 70.076-123.063 123.063-16.263 31.915-23.61 67.401-27.179 111.078-3.514 43.012-3.514 96.64-3.514 165.534v36.207c0 68.898 0 122.521 3.514 165.536 3.569 43.675 10.915 79.161 27.179 111.079 26.998 52.986 70.077 96.066 123.063 123.064 28.305 14.422 59.416 21.832 96.555 25.814v15.308c0 17.28 14.008 31.289 31.289 31.289s31.289-14.008 31.289-31.289zM626.726 760.889v51.122c-32.508 1.015-71.258 1.027-118.899 1.027h-33.374c-47.642 0-86.391-0.011-118.898-1.027v-51.122c0-17.28-14.008-31.289-31.289-31.289s-31.289 14.008-31.289 31.289v46.857c-29.216-3.603-50.286-9.481-68.145-18.58-41.212-20.998-74.718-54.505-95.716-95.716-11.019-21.626-17.314-47.96-20.566-87.765-3.282-40.17-3.306-91.248-3.306-161.857v-33.374c0-70.609 0.024-121.685 3.306-161.856 3.252-39.804 9.547-66.138 20.566-87.765 20.998-41.212 54.505-74.718 95.716-95.714 21.626-11.021 47.959-17.314 87.764-20.565 40.17-3.285 91.246-3.307 161.856-3.307h33.374c70.609 0 121.685 0.021 161.856 3.307 39.804 3.251 66.138 9.545 87.765 20.565 41.212 20.996 74.718 54.502 95.718 95.714 11.017 21.628 17.31 47.962 20.565 87.765 3.281 40.171 3.307 91.247 3.307 161.856v33.374c0 70.609-0.026 121.687-3.307 161.857-3.255 39.805-9.549 66.138-20.565 87.765-21.001 41.212-54.507 74.718-95.718 95.716-17.86 9.1-38.929 14.977-68.143 18.58v-46.857c0-17.28-14.012-31.289-31.292-31.289s-31.287 14.008-31.287 31.289z" />
<glyph unicode="&#xe934;" glyph-name="event-attending" d="M721.856 530.172c12.22 12.219 12.22 32.030 0 44.249-12.215 12.219-32.030 12.219-44.245 0l-246.067-246.067-85.152 85.154c-12.219 12.215-32.030 12.215-44.25 0-12.219-12.22-12.219-32.030 0-44.25l107.276-107.277c5.868-5.867 13.826-9.165 22.125-9.165s16.256 3.298 22.123 9.165l268.19 268.19zM355.555 886.045v-11.43c33.435 1.001 72.152 1.001 117.481 1.001h36.207c45.329 0 84.049 0 117.483-1.001v11.43c0 17.28 14.007 31.289 31.287 31.289s31.292-14.008 31.292-31.289v-15.308c37.137-3.982 68.25-11.392 96.555-25.814 52.983-26.998 96.064-70.077 123.063-123.064 16.26-31.918 23.607-67.404 27.179-111.079 3.511-43.014 3.511-96.642 3.511-165.536v-36.211c0-68.894 0-122.517-3.511-165.53-3.571-43.678-10.918-79.164-27.179-111.078-26.999-52.988-70.080-96.068-123.063-123.063-31.919-16.265-67.405-23.612-111.078-27.179-43.017-3.516-96.644-3.516-165.538-3.516h-36.211c-68.894 0-122.517 0-165.531 3.516-43.675 3.567-79.16 10.914-111.079 27.179-52.986 26.995-96.066 70.076-123.063 123.063-16.263 31.915-23.61 67.401-27.179 111.078-3.514 43.012-3.514 96.64-3.514 165.534v36.207c0 68.898 0 122.521 3.514 165.536 3.569 43.675 10.915 79.161 27.179 111.079 26.998 52.986 70.077 96.066 123.063 123.064 28.305 14.422 59.416 21.832 96.555 25.814v15.308c0 17.28 14.008 31.289 31.289 31.289s31.289-14.008 31.289-31.289zM626.726 760.889v51.122c-32.508 1.015-71.258 1.027-118.899 1.027h-33.374c-47.642 0-86.391-0.011-118.898-1.027v-51.122c0-17.28-14.008-31.289-31.289-31.289s-31.289 14.008-31.289 31.289v46.857c-29.216-3.603-50.286-9.481-68.145-18.58-41.212-20.998-74.718-54.505-95.716-95.716-11.019-21.626-17.314-47.96-20.566-87.765-3.282-40.17-3.306-91.248-3.306-161.857v-33.374c0-70.609 0.024-121.685 3.306-161.856 3.252-39.804 9.547-66.138 20.566-87.765 20.998-41.212 54.505-74.718 95.716-95.714 21.626-11.021 47.959-17.314 87.764-20.565 40.17-3.285 91.246-3.307 161.856-3.307h33.374c70.609 0 121.685 0.021 161.856 3.307 39.804 3.251 66.138 9.545 87.765 20.565 41.212 20.996 74.718 54.502 95.718 95.714 11.017 21.628 17.31 47.962 20.565 87.765 3.281 40.171 3.307 91.247 3.307 161.856v33.374c0 70.609-0.026 121.687-3.307 161.857-3.255 39.805-9.549 66.138-20.565 87.765-21.001 41.212-54.507 74.718-95.718 95.716-17.86 9.1-38.929 14.977-68.143 18.58v-46.857c0-17.28-14.012-31.289-31.292-31.289s-31.287 14.008-31.287 31.289z" />
<glyph unicode="&#xe935;" glyph-name="event-hosting" d="M324.267 917.333c-17.28 0-31.289-14.008-31.289-31.289v-15.308c-37.139-3.982-68.25-11.392-96.555-25.814-52.986-26.998-96.066-70.077-123.063-123.064-16.263-31.918-23.61-67.404-27.179-111.079-3.514-43.015-3.514-96.642-3.514-165.536v-36.207c0-68.894 0-122.522 3.514-165.534 3.569-43.678 10.915-79.164 27.179-111.078 26.998-52.988 70.077-96.068 123.063-123.063 31.919-16.265 67.404-23.612 111.079-27.179 43.014-3.516 96.642-3.516 165.535-3.516h36.211c68.894 0 122.517 0 165.534 3.516 43.674 3.567 79.159 10.914 111.078 27.179 52.983 26.995 96.064 70.076 123.063 123.063 16.26 31.915 23.607 67.401 27.179 111.078 3.511 43.012 3.511 96.64 3.511 165.534v36.211c0 68.894 0 122.518-3.511 165.532-3.571 43.675-10.918 79.161-27.179 111.079-26.999 52.986-70.080 96.066-123.063 123.064-28.305 14.422-59.418 21.832-96.555 25.814v15.308c0 17.28-14.012 31.289-31.292 31.289s-31.287-14.008-31.287-31.289v-11.43c-33.438 1.001-72.154 1.001-117.483 1.001h-36.207c-45.329 0-84.046 0-117.481-1.001v11.43c0 17.28-14.008 31.289-31.289 31.289zM626.726 812.011v-51.122c0-17.28 14.007-31.289 31.287-31.289s31.292 14.008 31.292 31.289v46.857c29.214-3.603 50.283-9.481 68.143-18.58 41.212-20.998 74.718-54.505 95.718-95.716 11.017-21.626 17.31-47.96 20.565-87.765 3.281-40.17 3.307-91.248 3.307-161.857v-33.374c0-70.609-0.026-121.685-3.307-161.856-3.255-39.804-9.549-66.138-20.565-87.765-21.001-41.212-54.507-74.718-95.718-95.714-21.628-11.021-47.962-17.314-87.765-20.565-40.171-3.285-91.247-3.307-161.856-3.307h-33.374c-70.61 0-121.686 0.021-161.856 3.307-39.805 3.251-66.138 9.545-87.764 20.565-41.212 20.996-74.718 54.502-95.716 95.714-11.019 21.628-17.314 47.962-20.566 87.765-3.282 40.171-3.306 91.247-3.306 161.856v33.374c0 70.609 0.024 121.687 3.306 161.857 3.252 39.805 9.547 66.138 20.566 87.765 20.998 41.212 54.505 74.718 95.716 95.716 17.859 9.1 38.929 14.977 68.145 18.58v-46.857c0-17.28 14.008-31.289 31.289-31.289s31.289 14.008 31.289 31.289v51.122c32.507 1.015 71.256 1.027 118.898 1.027h33.374c47.642 0 86.391-0.011 118.899-1.027zM282.548 204.642c0 76.8 62.26 139.063 139.062 139.063h139.060c76.804 0 139.063-62.263 139.063-139.063 0-38.4-31.13-69.53-69.53-69.53h-278.125c-38.401 0-69.531 31.13-69.531 69.53zM616.294 552.296c0-69.122-56.034-125.156-125.154-125.156s-125.155 56.034-125.155 125.156c0 69.122 56.034 125.156 125.155 125.156s125.154-56.034 125.154-125.156z" />
<glyph unicode="&#xe936;" glyph-name="event" d="M251.259 594.015c0 17.28 14.008 31.289 31.289 31.289h417.185c17.28 0 31.287-14.009 31.287-31.289s-14.007-31.289-31.287-31.289h-417.185c-17.28 0-31.289 14.008-31.289 31.289zM324.267 917.333c-17.28 0-31.289-14.008-31.289-31.289v-15.308c-37.139-3.982-68.25-11.392-96.555-25.814-52.986-26.998-96.066-70.077-123.063-123.064-16.263-31.918-23.61-67.404-27.179-111.079-3.514-43.015-3.514-96.642-3.514-165.536v-36.207c0-68.894 0-122.522 3.514-165.534 3.569-43.678 10.915-79.164 27.179-111.078 26.998-52.988 70.077-96.068 123.063-123.063 31.919-16.265 67.404-23.612 111.079-27.179 43.013-3.516 96.643-3.516 165.535-3.516h36.215c68.894 0 122.513 0 165.53 3.516 43.674 3.567 79.159 10.914 111.078 27.179 52.983 26.995 96.064 70.076 123.063 123.063 16.26 31.915 23.607 67.401 27.179 111.078 3.511 43.012 3.511 96.644 3.511 165.534v36.215c0 68.894 0 122.514-3.511 165.527-3.571 43.675-10.918 79.161-27.179 111.079-26.999 52.986-70.080 96.066-123.063 123.064-28.305 14.422-59.418 21.832-96.555 25.814v15.308c0 17.28-14.012 31.289-31.292 31.289s-31.287-14.008-31.287-31.289v-11.43c-33.434 1.001-72.154 1.001-117.483 1.001h-36.207c-45.329 0-84.046 0-117.481-1.001v11.43c0 17.28-14.008 31.289-31.289 31.289zM626.726 812.011v-51.122c0-17.28 14.007-31.289 31.287-31.289s31.292 14.008 31.292 31.289v46.857c29.214-3.603 50.283-9.481 68.143-18.58 41.212-20.998 74.718-54.505 95.718-95.716 11.017-21.626 17.31-47.96 20.565-87.765 3.281-40.17 3.307-91.248 3.307-161.857v-33.374c0-70.609-0.026-121.685-3.307-161.856-3.255-39.804-9.549-66.138-20.565-87.765-21.001-41.212-54.507-74.718-95.718-95.714-21.628-11.021-47.962-17.314-87.765-20.565-40.171-3.285-91.247-3.307-161.856-3.307h-33.374c-70.61 0-121.686 0.021-161.856 3.307-39.805 3.251-66.138 9.545-87.764 20.565-41.212 20.996-74.718 54.502-95.716 95.714-11.019 21.628-17.314 47.962-20.566 87.765-3.282 40.171-3.306 91.247-3.306 161.856v33.374c0 70.609 0.024 121.687 3.306 161.857 3.252 39.805 9.547 66.138 20.566 87.765 20.998 41.212 54.505 74.718 95.716 95.716 17.859 9.1 38.929 14.977 68.145 18.58v-46.857c0-17.28 14.008-31.289 31.289-31.289s31.289 14.008 31.289 31.289v51.122c32.507 1.015 71.256 1.027 118.898 1.027h33.374c47.642 0 86.391-0.011 118.899-1.027z" />
<glyph unicode="&#xe937;" glyph-name="export" d="M545.822 897.076c-12.787 12.788-33.523 12.788-46.31 0l-174.634-174.636c-12.787-12.788-12.787-33.52 0-46.307s33.52-12.787 46.307 0l118.74 118.738v-444.855c0-18.086 14.66-32.747 32.742-32.747s32.742 14.66 32.742 32.747v444.855l118.741-118.738c12.787-12.787 33.519-12.787 46.306 0s12.787 33.52 0 46.307l-174.635 174.636zM118.822 350.016c0 18.082-14.66 32.742-32.744 32.742s-32.744-14.66-32.744-32.742v-71.296c0-47.68 0-85.47 2.488-115.925 2.545-31.147 7.854-57.498 20.115-81.562 19.882-39.023 51.607-70.75 90.628-90.628 24.064-12.262 50.417-17.57 81.563-20.117 30.458-2.487 68.245-2.487 115.927-2.487h317.225c47.68 0 85.47 0 115.925 2.487 31.147 2.547 57.498 7.855 81.562 20.117 39.023 19.878 70.75 51.605 90.628 90.628 12.262 24.064 17.57 50.415 20.117 81.562 2.487 30.455 2.487 68.245 2.487 115.925v71.296c0 18.082-14.66 32.742-32.742 32.742-18.086 0-32.747-14.66-32.747-32.742v-69.854c0-49.442-0.026-84.557-2.27-112.034-2.214-27.098-6.421-43.874-13.197-57.165-13.602-26.701-35.307-48.405-62.007-62.007-13.291-6.775-30.067-10.982-57.165-13.197-27.477-2.244-62.592-2.27-112.034-2.27h-314.343c-49.443 0-84.556 0.026-112.034 2.27-27.096 2.214-43.872 6.421-57.165 13.197-26.699 13.602-48.405 35.307-62.009 62.007-6.773 13.291-10.981 30.067-13.195 57.165-2.245 27.477-2.271 62.592-2.271 112.034v69.854z" />
<glyph unicode="&#xe938;" glyph-name="external-link" d="M400.159 864c-54.559 0.006-87.817 0.010-116.097-6.779-89.706-21.536-159.747-91.577-181.283-181.283-6.789-28.28-6.785-61.538-6.779-116.097v-155.941c0-58.526 0-104.41 3.013-141.291 3.068-37.551 9.42-68.574 23.727-96.657 23.521-46.161 61.052-83.691 107.215-107.213 28.080-14.306 59.104-20.659 96.656-23.727 36.879-3.012 82.763-3.012 141.289-3.012h155.942c54.558-0.009 87.817-0.013 116.096 6.78 89.707 21.534 159.748 91.575 181.282 181.282 6.793 28.279 6.788 61.538 6.78 116.096v26.509c0 17.673-14.327 32-32 32s-32-14.327-32-32v-21.333c0-61.35-0.222-86.391-5.009-106.334-15.919-66.304-67.686-118.071-133.99-133.99-19.942-4.787-44.983-5.009-106.334-5.009h-149.333c-60.266 0-103.542 0.026-137.51 2.799-33.595 2.743-55.258 8.021-72.812 16.964-34.12 17.387-61.861 45.124-79.246 79.245-8.944 17.553-14.219 39.219-16.964 72.815-2.775 33.967-2.8 77.244-2.8 137.51v149.332c0 61.348 0.223 86.391 5.010 106.331 15.918 66.304 67.687 118.074 133.992 133.992 19.941 4.788 44.983 5.010 106.331 5.010h21.332c17.673 0 32 14.327 32 32s-14.327 32-32 32h-26.508zM608 831.999c0-17.673 14.327-32 32-32h178.748l-329.374-329.373c-12.497-12.497-12.497-32.759 0-45.252 12.497-12.497 32.759-12.497 45.252 0l329.374 329.37v-178.745c0-17.673 14.327-32 32-32s32 14.327 32 32v256c0 17.673-14.327 32-32 32h-256c-17.673 0-32-14.327-32-32z" />
<glyph unicode="&#xe939;" glyph-name="eye-close-f" d="M142.223 865.076l785.858-785.861c12.787-12.787 12.787-33.519 0-46.306s-33.515-12.787-46.302 0l-104.61 104.606c-69.653-42.432-157.722-70.537-265.169-70.537-162.217 0-279.731 64.030-356.486 143.735-75.452 78.357-112.848 173.444-112.848 238.281 0 73.796 48.644 188.628 150.126 272.898l-96.877 96.877c-12.787 12.787-12.787 33.52 0 46.307s33.52 12.788 46.307 0zM602.287 312.401l-47.936 47.936c-12.83-6.135-27.187-9.574-42.355-9.574-54.251 0-98.232 43.985-98.232 98.236 0 15.164 3.436 29.525 9.574 42.351l-47.936 47.935c-17.142-25.881-27.125-56.921-27.125-90.286 0-90.423 73.3-163.721 163.721-163.721 33.37 0 64.405 9.98 90.291 27.123zM389.334 750.33c-6.898-1.811-13.654-3.767-20.27-5.859-17.243-5.451-35.64 4.108-41.092 21.35s4.108 35.641 21.35 41.092c7.645 2.417 15.439 4.673 23.381 6.758 42.287 11.102 88.689 17.337 139.296 17.337 162.214 0 279.731-64.031 356.484-143.737 75.456-78.353 112.849-173.445 112.849-238.277 0-47.586-20.105-110.549-59.089-170.628-5.111-7.881-10.569-15.744-16.375-23.552-10.79-14.511-31.309-17.523-45.815-6.733-14.511 10.795-17.523 31.309-6.733 45.815 4.971 6.682 9.63 13.397 13.99 20.113 34.155 52.642 48.533 103.364 48.533 134.985 0 44.314-28.092 123.856-94.528 192.852-65.139 67.643-165.918 123.674-309.316 123.674-45.184 0-85.986-5.56-122.666-15.19z" />
<glyph unicode="&#xe93a;" glyph-name="eye-close" d="M95.916 865.076c12.788 12.788 33.52 12.788 46.307 0l785.862-785.861c12.787-12.787 12.787-33.519 0-46.306s-33.523-12.787-46.31 0l-104.606 104.606c-69.653-42.432-157.722-70.537-265.169-70.537-162.217 0-279.732 64.030-356.486 143.735-75.452 78.353-112.848 173.449-112.848 238.281 0 73.792 48.644 188.628 150.126 272.898l-96.877 96.876c-12.787 12.788-12.787 33.52 0 46.307zM239.327 675.358c-91.82-73.796-131.172-173.709-131.172-226.364 0-44.318 28.093-123.861 94.532-192.853 65.137-67.644 165.917-123.674 309.313-123.674 88.132 0 159.974 21.15 217.28 52.937l-126.997 126.997c-25.877-17.131-56.93-27.132-90.287-27.132-90.42 0-163.721 73.301-163.721 163.725 0 33.353 9.999 64.41 27.13 90.285l-136.079 136.079zM423.332 491.354c-6.139-12.826-9.568-27.183-9.568-42.359 0-54.255 43.982-98.236 98.232-98.236 15.181 0 29.538 3.43 42.359 9.57l-131.023 131.025zM512 765.519c-45.18 0-85.986-5.56-122.666-15.19-6.898-1.811-13.654-3.767-20.27-5.859-17.243-5.452-35.64 4.108-41.092 21.35s4.108 35.64 21.35 41.091c7.645 2.417 15.439 4.673 23.381 6.758 42.287 11.102 88.689 17.336 139.296 17.336 162.214 0 279.731-64.031 356.484-143.737 75.452-78.354 112.849-173.449 112.849-238.277 0-47.586-20.105-110.549-59.089-170.633-5.111-7.876-10.569-15.74-16.375-23.548-10.795-14.511-31.305-17.523-45.815-6.729-14.511 10.79-17.523 31.305-6.729 45.815 4.966 6.677 9.626 13.393 13.982 20.109 34.159 52.642 48.538 103.364 48.538 134.985 0 44.314-28.092 123.857-94.532 192.851-65.135 67.643-165.918 123.674-309.312 123.674z" />
<glyph unicode="&#xe93b;" glyph-name="eye-open-f" d="M511.258 832c-162.004 0-279.329-63.94-355.951-143.509-75.349-78.248-112.64-173.163-112.64-237.76 0-64.602 37.29-159.518 112.64-237.764 76.622-79.569 193.947-143.509 355.951-143.509 162.001 0 279.326 63.94 355.947 143.509 75.349 78.246 112.64 173.163 112.64 237.764 0 64.597-37.291 159.513-112.64 237.76-76.621 79.569-193.946 143.509-355.947 143.509zM511.253 549.705c-54.665 0-98.979-44.314-98.979-98.975 0-54.665 44.314-98.978 98.979-98.978 54.66 0 98.974 44.314 98.974 98.978 0 54.66-44.314 98.975-98.974 98.975zM348.274 450.731c0 90.007 72.967 162.975 162.979 162.975 90.005 0 162.974-72.967 162.974-162.975 0-90.010-72.969-162.978-162.974-162.978-90.012 0-162.979 72.969-162.979 162.978z" />
<glyph unicode="&#xe93c;" glyph-name="eye-open" d="M511.996 613.705c-90.42 0-163.721-73.3-163.721-163.721 0-90.419 73.3-163.721 163.721-163.721 90.419 0 163.721 73.301 163.721 163.721 0 90.421-73.301 163.721-163.721 163.721zM413.763 449.984c0 54.255 43.982 98.233 98.232 98.233s98.231-43.978 98.231-98.233c0-54.251-43.981-98.231-98.231-98.231s-98.232 43.981-98.232 98.231zM512 832c-162.217 0-279.732-64.031-356.486-143.737-75.452-78.354-112.848-173.447-112.848-238.279s37.396-159.923 112.848-238.276c76.754-79.71 194.269-143.74 356.486-143.74 162.214 0 279.731 64.030 356.484 143.74 75.452 78.353 112.849 173.444 112.849 238.276s-37.397 159.925-112.849 238.279c-76.753 79.706-194.27 143.737-356.484 143.737zM108.155 449.984c0 44.318 28.093 123.859 94.532 192.854 65.137 67.643 165.917 123.674 309.313 123.674 143.394 0 244.177-56.031 309.312-123.674 66.441-68.995 94.532-148.536 94.532-192.854 0-44.314-28.092-123.857-94.532-192.853-65.135-67.644-165.918-123.674-309.312-123.674-143.396 0-244.175 56.030-309.313 123.674-66.44 68.996-94.532 148.54-94.532 192.853z" />
<glyph unicode="&#xe93d;" glyph-name="facebook-f" d="M727.168 389.333l25.664 168.667h-163.166v110c0 47.667 21.999 91.667 95.334 91.667h75.166v144.833c0 0-67.831 12.833-131.998 12.833-133.837 0-221.835-82.5-221.835-229.167v-130.167h-150.333v-168.667h150.333v-410.667h183.333v410.667h137.502z" />
<glyph unicode="&#xe93e;" glyph-name="file-download" d="M520.683 513.737c18.082 0 32.742-14.66 32.742-32.747v-182.899l53.252 53.248c12.787 12.787 33.519 12.787 46.306 0s12.787-33.519 0-46.306l-109.15-109.146c-12.787-12.787-33.519-12.787-46.306 0l-109.146 109.146c-12.787 12.787-12.787 33.519 0 46.306s33.52 12.787 46.307 0l53.248-53.248v182.899c0 18.086 14.66 32.747 32.747 32.747zM615.582 900.714c28.582-6.338 55.838-17.628 80.533-33.358 23.223-14.794 43.076-34.653 75.328-66.912l22.421-22.422c34.842-34.832 56.294-56.279 71.838-81.648 13.764-22.461 23.91-46.948 30.059-72.564 6.946-28.931 6.942-59.266 6.938-108.534v-166.729c0-59.887 0-106.837-3.085-144.576-3.14-38.426-9.638-70.17-24.277-98.901-24.068-47.236-62.473-85.641-109.709-109.709-28.732-14.639-60.48-21.141-98.906-24.277-37.734-3.085-84.689-3.085-144.576-3.085h-2.931c-59.887 0-106.839 0-144.575 3.085-38.426 3.136-70.171 9.638-98.904 24.277-47.236 24.068-85.64 62.473-109.708 109.709-14.641 28.732-21.139 60.476-24.279 98.901-3.083 37.739-3.083 84.689-3.083 144.576v187.141c0 55.418 0 98.868 2.651 133.873 2.698 35.63 8.281 65.167 20.876 92.173 24.942 53.479 67.925 96.462 121.404 121.404 27.006 12.596 56.543 18.178 92.173 20.876 35.004 2.651 78.454 2.651 133.874 2.651h5.355c45.619 0.005 73.698 0.008 100.582-5.952zM575.258 840.198c-14.81 0.917-34.249 0.98-64.26 0.98-57.062 0-98.039-0.022-130.281-2.464-31.901-2.416-52.579-7.063-69.439-14.926-39.528-18.435-71.298-50.205-89.733-89.734-7.863-16.859-12.51-37.538-14.926-69.439-2.442-32.242-2.464-73.217-2.464-130.281v-184.32c0-61.67 0.026-105.95 2.865-140.71 2.809-34.377 8.206-56.542 17.359-74.505 17.789-34.914 46.175-63.3 81.088-81.088 17.962-9.152 40.13-14.549 74.506-17.361 34.758-2.837 79.039-2.863 140.71-2.863 61.666 0 105.95 0.026 140.706 2.863 34.377 2.812 56.546 8.209 74.509 17.361 34.914 17.788 63.3 46.174 81.088 81.088 9.152 17.963 14.549 40.128 17.357 74.505 2.842 34.761 2.867 79.040 2.867 140.71v160.939c0 31.664-0.073 52.434-1.071 68.268h-89.758c-23.322 0-42.786-0.001-58.688 1.298-16.585 1.355-32.158 4.285-46.882 11.788-22.592 11.511-40.96 29.878-52.467 52.469-7.505 14.724-10.436 30.295-11.789 46.881-1.301 15.902-1.301 35.367-1.297 58.688v89.85zM819.311 644.712c-2.829 5.971-5.982 11.795-9.446 17.445-11.004 17.956-26.509 33.76-65.365 72.616l-16.533 16.533c-35.972 35.974-50.598 50.345-67.038 60.816-6.502 4.142-13.244 7.867-20.186 11.159v-71.605c0-24.992 0.026-41.766 1.084-54.684 1.024-12.535 2.85-18.529 4.864-22.483 5.235-10.269 13.581-18.618 23.851-23.849 3.955-2.015 9.95-3.843 22.485-4.867 12.915-1.056 29.692-1.081 54.682-1.081h71.603z" />
<glyph unicode="&#xe93f;" glyph-name="file" d="M565.333 905.803c-16.393 0.87-35.226 0.867-58.884 0.865h-5.235c-54.161 0-96.623 0-130.832-2.591-34.82-2.637-63.686-8.093-90.078-20.401-52.263-24.375-94.27-66.382-118.645-118.645-12.309-26.393-17.765-55.258-20.401-90.079-2.591-34.208-2.591-76.671-2.591-130.83v-182.885c0-58.53 0-104.414 3.013-141.291 3.068-37.555 9.42-68.578 23.727-96.657 23.521-46.165 61.052-83.695 107.215-107.217 28.080-14.306 59.104-20.659 96.657-23.727 36.878-3.012 82.763-3.012 141.285-3.012h2.876c58.522 0 104.405 0 141.286 3.012 37.551 3.068 68.574 9.421 96.653 23.727 46.165 23.522 83.695 61.052 107.217 107.217 14.306 28.079 20.659 59.102 23.727 96.657 3.012 36.877 3.012 82.761 3.012 141.282v154.236c0.004 28.346 0.009 51.257-1.161 71.203h-118.391c-38.336-0.001-70.302-0.002-95.68 3.409-26.786 3.601-50.97 11.523-70.4 30.957-19.435 19.433-27.358 43.617-30.959 70.403-3.413 25.377-3.409 57.344-3.409 95.679v118.687zM872.704 650.668c-4.804 14.388-10.935 28.308-18.317 41.578-16.691 29.999-41.425 54.725-81.57 94.86v0 0l-15.757 15.754c-31.518 31.525-50.918 50.932-73.613 65.389-16.943 10.793-35.119 19.447-54.114 25.789v-104.704c0-41.131 0.068-68.76 2.837-89.37 2.65-19.689 7.223-28.116 12.783-33.676s13.986-10.135 33.677-12.782c20.608-2.771 48.239-2.839 89.37-2.839h104.704z" />
<glyph unicode="&#xe940;" glyph-name="filter" d="M685.726 917.333c79.283 0 145.532-55.815 161.596-130.295h98.995c19.341 0 35.017-15.677 35.017-35.017s-15.676-35.017-35.017-35.017h-98.995c-16.064-74.48-82.313-130.295-161.596-130.295-91.298 0-165.312 74.013-165.312 165.312s74.014 165.312 165.312 165.312zM781.005 752.070c-0.026 52.598-42.675 95.23-95.279 95.23-52.621 0-95.279-42.658-95.279-95.278s42.658-95.279 95.279-95.279c52.621 0 95.279 42.658 95.279 95.279v0.048zM42.667 448c0-19.341 15.677-35.017 35.017-35.017h98.994c16.063-74.479 82.311-130.295 161.596-130.295 91.299 0 165.313 74.014 165.313 165.312s-74.014 165.312-165.313 165.312c-79.284 0-145.533-55.814-161.596-130.295h-98.994c-19.34 0-35.017-15.676-35.017-35.017zM242.995 448c0 52.621 42.658 95.278 95.278 95.278s95.28-42.657 95.28-95.278c0-52.621-42.659-95.279-95.28-95.279s-95.278 42.658-95.278 95.279zM685.726 309.291c79.283 0 145.532-55.817 161.596-130.295h98.995c19.341 0 35.017-15.676 35.017-35.017s-15.676-35.017-35.017-35.017h-98.995c-16.064-74.479-82.313-130.295-161.596-130.295-91.298 0-165.312 74.014-165.312 165.312s74.014 165.312 165.312 165.312zM781.005 143.979v0.047c-0.026 52.599-42.675 95.232-95.279 95.232-52.621 0-95.279-42.658-95.279-95.279s42.658-95.279 95.279-95.279c52.621 0 95.279 42.658 95.279 95.279zM42.667 143.979c0 19.341 15.677 35.017 35.017 35.017h347.453c19.339 0 35.015-15.676 35.015-35.017s-15.676-35.017-35.015-35.017h-347.453c-19.34 0-35.017 15.676-35.017 35.017zM598.865 483.017c-19.341 0-35.017-15.676-35.017-35.017s15.676-35.017 35.017-35.017h347.452c19.341 0 35.017 15.676 35.017 35.017s-15.676 35.017-35.017 35.017h-347.452zM42.667 752.022c0 19.339 15.677 35.017 35.017 35.017h347.453c19.339 0 35.015-15.677 35.015-35.017s-15.676-35.017-35.015-35.017h-347.453c-19.34 0-35.017 15.677-35.017 35.017z" />
</font>
</defs>
</svg>
