<svg width="140" height="140" viewBox="0 0 140 140" fill="none" xmlns="http://www.w3.org/2000/svg">
<g clip-path="url(#clip0_355_14564)">
<path d="M100.552 21.7455C102.6 21.616 104.589 21.6222 106.597 21.6993C108.583 21.9121 110.563 22.2174 112.543 22.6245C114.563 22.8126 116.608 23.1056 118.687 23.562C120.645 24.4657 122.585 25.5112 124.466 26.788C124.942 27.084 125.412 27.4325 125.879 27.7625C126.347 28.1018 126.807 28.478 127.262 28.8419C128.166 29.6222 129.057 30.4333 129.879 31.3893C130.736 32.293 131.513 33.3415 132.215 34.4518L132.707 35.3215C132.787 35.4664 132.871 35.6114 132.945 35.7594L133.159 36.2189L133.57 37.1442L133.907 38.1064L134.062 38.5906C134.108 38.754 134.143 38.9206 134.183 39.084L134.402 40.074C134.517 40.7247 134.603 41.3693 134.647 42.0077C134.74 43.2845 134.699 44.5304 134.563 45.7332C134.418 46.936 134.167 48.0894 133.855 49.2058C133.539 50.3223 133.149 51.3955 132.695 52.4287C131.646 54.7602 130.306 56.8974 128.695 58.8188C128.515 59.1704 128.314 59.5096 128.122 59.8581C127.918 60.2004 127.711 60.5428 127.491 60.882C127.265 61.2151 127.046 61.5574 126.804 61.8874L126.439 62.3809L126.347 62.5042C126.334 62.5227 126.309 62.5505 126.306 62.5597L126.294 62.5844L126.251 62.6862L126.167 62.8866C126.152 62.9422 126.167 62.9699 126.167 63.0069C126.176 63.0809 126.189 63.1457 126.21 63.2043C126.254 63.3246 126.322 63.414 126.421 63.4819C126.362 63.5034 126.3 63.5281 126.235 63.5466C126.198 63.559 126.161 63.5682 126.124 63.5775C126.093 63.5775 126.114 63.5929 126.121 63.6021L126.145 63.633L126.254 63.7656C126.186 63.8489 126.155 63.9691 126.164 64.1264C126.167 64.2066 126.183 64.293 126.204 64.3917C126.207 64.4163 126.217 64.441 126.226 64.4688C126.235 64.4873 126.226 64.4903 126.248 64.5212L126.377 64.6785L126.9 65.3076C128.531 66.7602 130.133 68.2868 131.658 69.946C132.921 71.8119 134.096 73.7579 135.123 75.8119C136.382 77.7301 137.521 79.7779 138.452 81.9738C139.133 84.259 139.584 86.6338 139.745 89.0239C140.033 91.1395 140.085 93.2922 139.906 95.4109C139.887 95.9506 139.9 96.4595 139.838 97.0362L139.764 97.8843L139.646 98.7201C139.488 99.8396 139.222 100.925 138.919 102.002C138.068 104.059 136.982 105.952 135.739 107.685C134.613 109.499 133.295 111.164 131.847 112.697C130.433 114.264 128.871 115.701 127.176 116.99C125.372 118.128 123.46 119.096 121.452 119.867C119.441 120.632 117.338 121.203 115.157 121.49C113.031 121.912 110.807 122.082 108.558 121.918C109.276 118.742 109.83 115.547 110.216 112.345C110.987 112.299 111.757 112.225 112.53 112.049C112.914 111.988 113.304 111.858 113.687 111.772C114.071 111.642 114.455 111.547 114.835 111.392C116.453 111.109 118.099 110.56 119.695 109.826C120.747 109.086 121.737 108.256 122.646 107.362C123.739 106.689 124.787 105.921 125.765 105.067C126.637 103.867 127.364 102.597 127.924 101.314C128.763 100.191 129.487 98.9977 130.016 97.7548C130.047 97.4186 130.111 97.0886 130.115 96.7617L130.142 96.2745V95.7933C130.142 95.4942 130.118 95.1179 130.102 94.7664C130.096 94.4117 130.043 94.0601 130.012 93.7116C130.031 92.3207 129.898 90.9391 129.613 89.5698C129.31 88.2035 128.852 86.8527 128.265 85.5204C127.831 84.1264 127.253 82.7232 126.554 81.3354C125.731 80.0216 124.8 78.7355 123.779 77.4834C122.761 76.2282 121.66 75.0038 120.496 73.8103C120.178 73.5389 119.862 73.2644 119.534 72.9992L119.049 72.5983L118.801 72.4009L118.677 72.3022L118.442 72.0987C117.808 71.5281 117.118 70.9668 116.438 70.3994C115.763 69.8288 115.042 69.2644 114.325 68.6939L107.5 62.2359L107.246 62.02L107.082 61.8535L106.761 61.5266L106.6 61.3631L106.519 61.2799L106.408 61.1719L105.953 60.7278L110.529 59.1334L114.971 57.5482L116.311 57.0115L116.645 56.8789C116.744 56.8296 116.821 56.7679 116.911 56.7155L117.434 56.3824L117.957 56.0493C118.052 55.9938 118.117 55.9383 118.179 55.8828L118.377 55.7163L119.138 55.0686C119.587 54.6399 120.017 54.1773 120.431 53.687C121.276 52.1542 121.889 50.4826 122.21 48.8543C122.739 47.7471 123.126 46.5967 123.343 45.4957C123.398 44.9406 123.42 44.4009 123.392 43.8982C123.361 43.3986 123.29 42.9298 123.185 42.5166C123.067 41.727 122.789 40.9653 122.269 40.1449C121.895 39.229 121.186 38.2482 120.28 37.3014C119.172 36.6168 117.916 36.0123 116.58 35.4942C115.274 34.9452 113.882 34.4765 112.447 34.0786C111.021 33.6253 109.545 33.2428 108.044 32.9283C106.507 32.8203 104.963 32.7772 103.444 32.808C101.969 32.6415 100.484 32.5489 99.1348 32.5459C99.3142 30.7694 99.5308 28.99 99.7844 27.2136C100.013 25.3847 100.273 23.5713 100.561 21.7486L100.552 21.7455Z" fill="#F295A1"/>
<path d="M65.596 126.843C64.1636 126.964 62.6508 127.192 61.0793 127.466C59.5015 127.618 57.8495 127.818 56.1418 128.003C54.4588 128.413 52.7078 128.811 50.8486 129.132C48.9491 128.999 46.9691 128.783 44.9211 128.358C42.8762 127.975 40.7509 127.402 38.672 126.446C36.5714 125.545 34.5265 124.25 32.8126 122.646C32.3918 122.239 32.002 121.804 31.6091 121.379C31.2503 120.931 30.8791 120.49 30.5449 120.031C29.8984 119.109 29.2858 118.171 28.797 117.178C28.5372 116.688 28.3299 116.179 28.1071 115.679C27.9122 115.17 27.705 114.665 27.5441 114.146C27.1976 113.119 26.947 112.08 26.7521 111.047C26.5387 109.872 26.4304 108.7 26.3871 107.547C26.3438 106.393 26.3716 105.252 26.4675 104.133C26.0282 101.332 25.9632 98.4796 26.1953 95.6422C26.4861 94.5844 26.8171 93.5451 27.1945 92.5243C27.377 92.0123 27.5812 91.5065 27.7823 91.0008L27.9401 90.6245L28.0205 90.4364L28.0607 90.3439C28.0793 90.2976 28.0453 90.387 28.0545 90.3593L28.0917 90.3007C28.2804 90.2297 28.5062 90.0879 28.7846 89.8782L28.8125 89.8566V89.8041C28.8187 89.7795 28.8187 89.7548 28.8156 89.7301C28.8156 89.6777 28.8063 89.6222 28.7939 89.5636C28.5867 89.4711 28.3979 89.394 28.234 89.3292H28.2247C28.2247 89.3292 28.2247 89.3292 28.2154 89.323L28.1783 89.2953L28.0298 89.1781L27.7297 88.9468L27.1295 88.4718C26.7305 88.1511 26.3283 87.8242 25.9292 87.485C24.5742 85.8936 23.2501 84.1758 22.0869 82.2483C20.7071 80.4842 19.4325 78.4456 18.5725 76.0894C18.2631 74.8805 18.0621 73.6253 18.0002 72.3701C17.9414 71.1149 18.0157 69.8658 18.2013 68.66C18.291 67.5744 18.489 66.5227 18.7396 65.5019C18.8726 64.9992 19.0211 64.4903 19.1789 64.0123C19.3459 63.5466 19.4913 63.0717 19.6862 62.6183C20.2616 60.7309 21.032 58.9144 21.9415 57.1935C23.0428 55.5867 24.271 54.1064 25.5858 52.7432C26.7954 51.2845 28.104 49.9275 29.4962 48.6631C30.8543 47.3616 32.2959 46.1526 33.8149 45.0362C35.436 44.0709 37.1128 43.2074 38.8452 42.4641C40.5807 41.7271 42.3689 41.101 44.2065 40.6106C45.9761 39.9938 47.8137 39.5004 49.7163 39.1673C49.8431 42.4117 50.072 45.6407 50.3969 48.8512C48.8501 49.2675 47.3187 49.8535 45.8337 50.5567C44.2312 51.0254 42.6287 51.6207 41.0788 52.3608C40.0579 53.0948 39.0803 53.8782 38.1615 54.7139C37.0725 55.3153 36.0114 55.9815 34.9936 56.7093C34.0562 57.7918 33.2117 58.9237 32.4723 60.0863C31.4792 61.0455 30.5728 62.0817 29.7684 63.1765C29.2765 64.4441 28.927 65.7147 28.7259 66.9576C28.6702 67.1118 28.6362 67.2475 28.6052 67.3801L28.4969 67.7841C28.4536 68.0462 28.3732 68.3146 28.3484 68.5705C28.2556 69.0887 28.2464 69.5821 28.2402 70.0694C28.2618 70.5536 28.3299 71.0223 28.4258 71.488C28.5372 71.9537 28.6887 72.4194 28.8775 72.8882C28.9981 73.3878 29.1714 73.9059 29.3879 74.4425C29.6137 74.9761 29.8922 75.522 30.2108 76.0771C30.5975 76.589 31.0183 77.101 31.473 77.6099C31.9371 78.1187 32.4197 78.6276 32.9456 79.1303C33.4653 79.6361 34.0067 80.1419 34.576 80.6415L35.0029 81.0177L35.6216 81.5482C36.2218 82.0447 36.8127 82.5505 37.4252 83.0409L42.8577 87.0162L41.5212 89.69C41.0881 90.3747 40.6426 91.0563 40.2342 91.7224L39.6186 92.7186C39.4268 93.0486 39.2567 93.3816 39.0741 93.7116C38.8978 94.0385 38.7091 94.3716 38.5606 94.6924L38.3131 95.121C38.1553 95.4109 37.9944 95.7008 37.8398 95.9938C37.3912 97.2305 37.0107 98.4919 36.7384 99.7625C36.4662 101.027 36.2682 102.298 36.2001 103.547C36.4167 105.246 36.8622 106.819 37.4685 108.17C37.6356 109.243 37.8954 110.267 38.2976 111.201C38.7709 112.093 39.3742 112.931 40.0239 113.579C40.6055 114.291 41.2644 114.871 42.0657 115.371C42.7803 116.018 43.7022 116.604 44.8067 117.089C45.9822 117.258 47.2661 117.314 48.618 117.28C49.9514 117.289 51.3528 117.221 52.8099 117.11C54.2732 117.055 55.7922 116.956 57.37 116.86C58.9261 116.555 60.541 116.25 62.2579 116.003C63.9594 115.957 65.7538 115.963 67.6811 116.151C67.2449 117.9 66.852 119.655 66.4993 121.409C66.1652 123.217 65.8744 125.024 65.6084 126.843H65.596Z" fill="#F295A1"/>
<path d="M79.3719 139.608C60.0737 141.585 57.97 110.153 54.9723 97.1658C50.8082 79.1241 38.1923 54.2051 45.2551 35.7687C49.085 25.7702 58.0721 20.9931 66.2703 15.4449C72.7515 11.0594 80.2412 5.14109 88.3682 7.61141C116.536 16.1758 115.62 65.8196 114.587 88.0524C113.965 101.434 114.203 115.673 106.228 127.05C101 134.504 89.6552 141.783 79.3719 139.605V139.608Z" fill="#F9CABF"/>
<path d="M99.1917 57.1041C98.4337 56.3639 97.6418 55.7872 96.9859 55.485C96.6611 55.3277 96.3734 55.2259 96.1568 55.1735C96.0454 55.1488 95.9681 55.1303 95.8846 55.1426C95.798 55.155 95.7392 55.1858 95.6804 55.2506C95.3432 55.6083 94.8853 55.9815 94.4646 56.2868C94.0438 56.5983 93.6386 56.8635 93.289 57.0917C92.5651 57.5513 92.0608 57.8689 91.6958 58.1002C90.9533 58.5752 90.7986 58.7479 90.4954 58.9422C90.2294 59.1056 89.8705 59.1149 89.3415 59.4264C85.7591 61.5636 81.5486 63.0378 80.6236 63.3924C80.0853 63.6083 78.1858 64.2837 77.7249 64.4163C75.6366 65.5297 73.5082 66.5906 71.3396 67.5806C70.4517 67.7934 69.8732 68.111 69.4246 68.2066C68.9915 68.2991 67.7819 68.515 67.4106 68.6476C65.6441 69.3816 63.8529 70.0632 62.0122 70.6091C61.0903 70.8774 60.156 71.1149 59.1939 71.266C58.7113 71.3369 58.2225 71.3955 57.7182 71.3893C57.214 71.377 56.6849 71.34 56.1312 71.0717C55.5217 70.7355 55.1319 70.3192 54.8535 70.4456C54.7267 70.5042 54.6431 70.7078 54.7174 71.0655C54.7576 71.2351 54.8473 71.4233 54.9896 71.633C55.0577 71.7255 55.1381 71.8119 55.234 71.9013C55.3299 71.9938 55.4351 72.0833 55.5403 72.1449C55.6579 72.219 55.7816 72.2961 55.8961 72.3577L56.2271 72.5089C56.4529 72.6106 56.6385 72.6538 56.8489 72.7247C57.0376 72.771 57.2294 72.8173 57.412 72.8543C57.5883 72.8851 57.7646 72.916 57.9379 72.9375C58.6185 73.027 59.2279 73.0393 59.8095 73.0393C60.9696 73.0301 62.0029 72.9375 62.9558 72.8265C64.8584 72.5983 66.4361 72.2991 67.7788 72.0247C70.4579 71.4634 72.1841 70.9853 73.3226 70.6739C74.458 70.3531 75.0024 70.1773 75.2623 70.0941C75.5222 70.0046 75.5005 70.0046 75.5005 70.0046C75.7264 69.9368 79.2005 68.6846 82.6066 67.2105C84.3112 66.4765 86.0065 65.6993 87.3059 65.0671C88.6052 64.4379 89.5178 63.9661 89.6787 63.9013C94.6162 61.9028 97.1313 60.3547 98.4059 59.1581C99.0401 58.5628 99.3433 58.1033 99.4299 57.7795C99.5165 57.4526 99.3959 57.3045 99.1948 57.1072L99.1917 57.1041Z" fill="#010101"/>
<path d="M102.982 83.3092C102.004 81.4958 101.184 79.8458 100.349 80.33C99.792 80.6538 99.3063 80.9406 98.8824 81.1966C98.4369 81.4217 98.0564 81.6222 97.7285 81.8011C97.4006 81.9769 97.1252 82.1311 96.8932 82.2668C96.655 82.3932 96.457 82.4981 96.2899 82.5875C95.6279 82.9514 95.5011 83.1087 95.2381 83.2629C95.0092 83.3955 94.6998 83.3739 94.2358 83.6022C91.1359 85.2552 87.4916 86.1126 86.6749 86.2914C86.4398 86.35 85.9138 86.4919 85.3879 86.5998C84.862 86.7047 84.3454 86.8034 84.1474 86.8342C82.2974 87.5991 80.3793 88.2467 78.4303 88.8666C77.6507 88.916 77.1217 89.1318 76.7319 89.1504C76.3576 89.1781 75.2995 89.1781 74.9685 89.2521C71.7913 90.1372 68.5306 90.8589 65.2328 91.4726C64.2985 91.5991 64.3449 92.6662 65.2947 92.697C69.4433 92.8389 72.5647 92.7618 74.8912 92.6415C75.4728 92.6076 76.0049 92.5767 76.4937 92.549C76.9825 92.5089 77.4218 92.4688 77.824 92.4349C78.2261 92.4009 78.585 92.367 78.9067 92.3392C79.2285 92.3022 79.5162 92.2652 79.7668 92.2375C81.79 91.9907 81.7127 91.9537 81.7127 91.9537C81.8117 91.9322 82.6439 91.7502 83.8442 91.4911C85.0383 91.192 86.5975 90.8157 88.1382 90.3254C91.2318 89.3909 94.2389 88.1049 94.5111 87.9877C95.6093 87.6145 96.59 87.3184 97.4222 86.9607C98.2606 86.6214 99 86.3593 99.6032 86.0478C100.216 85.7548 100.732 85.505 101.166 85.2984C101.599 85.0887 101.923 84.8635 102.196 84.7001C103.269 84.0093 103.238 83.7903 102.978 83.3092H102.982Z" fill="#010101"/>
<path d="M99.2722 109.767C98.3688 107.914 97.3943 106.372 97.0479 106.498C96.7787 106.6 96.491 106.699 96.2342 106.782C95.9713 106.868 95.7454 106.945 95.5505 107.01C95.1514 107.146 94.8668 107.254 94.6688 107.343C94.2667 107.522 94.1893 107.633 94.0285 107.713C93.8861 107.781 93.682 107.673 93.4035 107.803C91.5102 108.678 89.3199 109.073 88.8404 109.19C88.562 109.261 87.5782 109.465 87.3431 109.496C86.2881 110.091 85.2115 110.668 84.1164 111.214C83.6616 111.254 83.3739 111.454 83.145 111.466C82.9253 111.476 82.3097 111.479 82.1241 111.544C81.2362 111.966 80.336 112.367 79.4079 112.706C78.9438 112.876 78.4705 113.027 77.9755 113.144C77.728 113.2 77.4774 113.249 77.2114 113.274C76.9453 113.292 76.6669 113.301 76.339 113.209C76.1595 113.135 75.977 113.101 75.7976 113.07C75.6181 113.039 75.448 113.042 75.3335 113.129C75.2191 113.212 75.1572 113.385 75.2376 113.647C75.2748 113.764 75.3366 113.884 75.4418 114.014C75.5284 114.119 75.6615 114.236 75.7945 114.31C76.3823 114.631 76.7906 114.714 77.1681 114.8C77.5393 114.877 77.8703 114.918 78.1828 114.948C78.8015 115.007 79.3429 115.019 79.8441 115.022C80.8402 115.022 81.6631 114.97 82.3654 114.918C83.7637 114.806 84.664 114.68 85.2611 114.594C86.449 114.415 86.3995 114.381 86.3995 114.381C86.5171 114.359 88.3269 113.863 90.115 113.283C91.9062 112.712 93.6851 112.046 93.8552 112.015C96.5281 111.571 97.9852 111.21 98.7555 110.865C99.1392 110.689 99.3372 110.529 99.4021 110.359C99.464 110.193 99.3959 110.017 99.2753 109.77L99.2722 109.767Z" fill="#010101"/>
<path d="M70.5705 27.3092C68.5441 26.973 66.7467 26.5721 66.6384 26.8805C66.5673 27.0809 66.5116 27.2598 66.4652 27.4202C66.425 27.5775 66.3971 27.7163 66.3786 27.8365C66.3384 28.0771 66.3322 28.2436 66.3476 28.3639C66.3755 28.6045 66.4559 28.6631 66.4776 28.7587C66.493 28.8419 66.3229 28.9283 66.3662 29.0887C66.623 30.1742 66.6199 31.2537 66.6601 31.4973C66.6756 31.6392 66.7282 32.1234 66.7282 32.2405C67.1644 32.734 67.6129 33.1935 68.0646 33.6376C68.0677 33.8473 68.2502 33.9522 68.2471 34.057C68.244 34.1588 68.2131 34.4426 68.275 34.5197C69.0422 35.2074 69.8094 35.8674 70.5581 36.5829C70.7221 36.7957 71.7739 36.589 71.7615 36.3362C71.712 35.2351 71.6409 34.4487 71.5914 33.8689C71.5419 33.2922 71.5047 32.9252 71.4769 32.6846C71.4243 32.2066 71.3903 32.2313 71.3903 32.2313C71.381 32.185 71.1088 31.485 70.8891 30.788C70.6664 30.0941 70.5086 29.394 70.5333 29.3292C70.8706 28.3238 71.1861 27.9044 71.2449 27.67C71.3037 27.4387 71.1119 27.3924 70.5736 27.303L70.5705 27.3092Z" fill="#010101"/>
<path d="M81.6144 22.7664C79.6685 23.411 77.9484 24.0401 77.9268 24.1974C77.8123 25.0455 78.0536 25.027 78.131 25.1133C78.1588 25.1504 78.001 25.2305 78.0474 25.3107C78.3815 25.8659 78.2733 26.6276 78.2856 26.7941C78.2918 26.8867 78.2856 27.2475 78.2671 27.3308L79.387 28.5613C79.3591 28.7371 79.5231 28.842 79.5045 28.9314C79.4891 29.0177 79.421 29.2614 79.4736 29.3323C80.1511 29.9923 80.8781 30.5999 81.6422 31.0285C81.8093 31.1704 82.8178 30.8034 82.8116 30.6492C82.7714 29.9615 82.8117 29.4279 82.8364 29.0147C82.8673 28.5983 82.889 28.3115 82.8983 28.1234C82.9168 27.7348 82.8828 27.7502 82.8828 27.7502C82.8735 27.7101 82.7157 27.0717 82.5549 26.4302C82.394 25.761 82.1867 25.0455 82.1991 24.9746C82.4157 23.8828 82.4744 23.1858 82.4002 22.8713C82.3229 22.5474 82.128 22.5906 81.6144 22.7633V22.7664Z" fill="#010101"/>
<path d="M27.7508 4.48728C27.6642 4.29298 27.559 4.02159 27.1785 3.57132C26.433 3.21048 26.1081 3.09021 25.8978 3.04703C25.4275 2.94834 25.6131 3.28142 25.6441 3.5744C25.6812 4.06168 25.2728 4.16037 25.18 4.4441C25.0161 4.40092 24.9171 4.41018 24.8366 4.43485C24.484 4.54896 24.6943 5.0825 24.3942 5.06091C24.1127 5.03932 24.0199 5.11642 24.0632 5.3138C23.8683 5.39707 24.0168 5.73014 23.9333 5.82883C23.627 6.18967 22.9031 5.91519 22.7206 6.33462C22.6896 6.40555 22.736 6.54433 22.8227 6.72321C22.7484 6.68928 22.6865 6.66152 22.6309 6.64302C22.1761 6.48882 22.3184 6.84965 22.3122 7.13647C22.306 7.62683 21.8915 7.68851 21.7708 7.96299C21.61 7.90748 21.511 7.91056 21.4274 7.93215C21.0686 8.02159 21.2449 8.57055 20.9417 8.53045C20.6602 8.49344 20.5674 8.56438 20.5983 8.76792C20.4003 8.84194 20.5303 9.18427 20.4406 9.27679C20.2364 9.49267 19.8806 9.45566 19.5929 9.49884C19.562 9.48651 19.5279 9.468 19.5001 9.45875C19.0484 9.29221 19.1814 9.65613 19.1691 9.94603C19.1505 10.4364 18.7329 10.4888 18.6091 10.7602C18.4482 10.7016 18.3523 10.7016 18.2688 10.7201C17.9069 10.8034 18.0708 11.3554 17.7707 11.3092C17.4923 11.2691 17.3933 11.34 17.4242 11.5405C17.2232 11.6114 17.35 11.9568 17.2603 12.0463C16.9324 12.3855 16.2239 12.0802 16.0166 12.4965C15.9826 12.5644 16.0228 12.7062 16.1002 12.8882C16.029 12.8512 15.9671 12.8234 15.9115 12.8018C15.4629 12.6322 15.5897 12.9992 15.5742 13.2891C15.5495 13.7795 15.1349 13.8288 15.0081 14.1033C14.8472 14.0447 14.7513 14.0447 14.6647 14.0632C14.4389 14.1156 14.4172 14.35 14.3584 14.5073C14.2997 14.4734 14.2378 14.4364 14.1666 14.3994C13.9006 14.2544 13.9222 14.1496 14.0986 14.0817L13.9068 13.9923C14.312 13.7949 14.7823 13.5821 14.8875 13.4526C15.2525 12.9931 14.5626 12.7988 14.278 12.4842C14.1604 12.2313 14.0893 12.0925 14.1388 11.9013C14.1976 11.6669 14.5441 11.4788 14.6152 11.2629C14.6369 11.1981 14.6245 11.1457 14.5874 11.0933C14.7359 10.973 14.8318 10.8682 14.7359 10.8126C14.8782 10.5567 14.6461 10.4395 14.5812 10.2143C14.7637 9.95836 14.6245 9.81958 14.2966 9.64996C14.5905 9.48342 14.8565 9.31997 14.9277 9.21511C15.2649 8.72166 14.5595 8.56746 14.2471 8.26831C14.1079 8.0185 14.0305 7.8828 14.0645 7.68234C14.1017 7.4387 14.4265 7.21665 14.476 6.99152C14.4915 6.92367 14.4729 6.86816 14.4327 6.8219C14.5688 6.68311 14.6554 6.569 14.5595 6.51966C14.6802 6.24518 14.4265 6.14341 14.3399 5.92136C14.5193 5.5852 14.2687 5.46183 13.7706 5.28604C13.4798 5.18427 13.4798 5.07324 13.6376 4.97147C13.5788 4.95605 13.5077 4.93446 13.4303 4.91287C13.7892 4.63839 14.2069 4.32691 14.2842 4.16654C14.5472 3.61141 13.8109 3.54664 13.4644 3.2845C13.2911 3.04703 13.189 2.92367 13.1829 2.71395C13.1767 2.46106 13.4613 2.1835 13.4737 1.94294C13.4767 1.87201 13.4489 1.8165 13.4025 1.77332C13.517 1.60987 13.5727 1.48034 13.4644 1.44641C13.5232 1.14418 13.2633 1.0825 13.1334 0.869697C13.2509 0.493444 12.9725 0.413259 12.4373 0.323822C12.131 0.271394 12.1094 0.160368 12.2455 0.0277544C12.0351 0.00616616 11.7505 -0.0370104 11.1689 0.0647629C10.4759 0.518117 10.2068 0.734 10.0614 0.891286C9.73343 1.24287 10.117 1.24595 10.3769 1.36623C10.8286 1.56361 10.6832 1.96453 10.8781 2.1835C10.7574 2.30069 10.7141 2.38704 10.6956 2.46723C10.6182 2.80956 11.1658 2.90825 10.9864 3.1488C10.8193 3.37085 10.8348 3.48188 11.0266 3.54664C10.9956 3.74711 11.3514 3.79954 11.3854 3.91981C11.5061 4.36391 10.8966 4.7926 11.1225 5.16577C11.1627 5.22745 11.3019 5.26445 11.4968 5.29221C11.4257 5.3323 11.3669 5.36931 11.3236 5.40015C10.9338 5.67772 11.3143 5.75482 11.5463 5.91827C11.933 6.19892 11.7381 6.55667 11.8866 6.80339C11.7474 6.89591 11.6917 6.97301 11.6546 7.05011C11.503 7.37702 12.0413 7.55898 11.8247 7.7687C11.6237 7.95991 11.6237 8.07093 11.8 8.16654C11.7319 8.36083 12.0784 8.46569 12.0939 8.58597C12.131 8.8697 11.8835 9.11025 11.7288 9.35081C11.6979 9.36623 11.667 9.38165 11.6391 9.39398C11.2215 9.62529 11.5834 9.74865 11.7969 9.93369C12.1619 10.2483 11.9237 10.5875 12.0475 10.8466C11.899 10.9268 11.834 10.9977 11.7938 11.0686C11.6206 11.3801 12.1372 11.6114 11.9021 11.7995C11.6824 11.9722 11.6732 12.0864 11.8433 12.1943C11.7598 12.3824 12.1032 12.515 12.1094 12.6353C12.1341 13.0917 11.4288 13.3878 11.5927 13.8011C11.6206 13.8689 11.7505 13.9337 11.9361 13.9985C11.8588 14.0231 11.7969 14.0478 11.7443 14.0725C11.3112 14.2729 11.6639 14.4271 11.865 14.6276C12.2053 14.9699 11.9485 15.2938 12.0599 15.5651C11.9083 15.6361 11.8371 15.7039 11.7938 15.7749C11.602 16.0833 12.1094 16.3423 11.8681 16.5181C11.6422 16.6847 11.6267 16.7988 11.7907 16.916C11.701 17.1041 12.0351 17.249 12.0382 17.3724C12.0444 17.5359 11.9547 17.6777 11.8464 17.8103C11.7288 17.8196 11.5803 17.9059 11.5185 17.872C11.1844 17.6746 11.3576 16.9406 10.974 16.8759C10.909 16.8666 10.7946 16.9437 10.6492 17.0702C10.6708 16.9931 10.6894 16.9283 10.6987 16.8728C10.7884 16.4133 10.4883 16.6384 10.2377 16.7124C9.81387 16.8358 9.71797 16.4749 9.46738 16.441C9.49832 16.2776 9.48594 16.1881 9.4581 16.1172C9.34054 15.8119 8.88887 16.1234 8.88887 15.8365C8.88887 15.5713 8.81462 15.5035 8.64447 15.5898C8.55785 15.4294 8.27942 15.6453 8.18661 15.5898C7.97624 15.4665 7.96696 15.1272 7.89581 14.8805C7.90509 14.8497 7.91128 14.8126 7.92056 14.7849C8.01027 14.3254 7.71019 14.5505 7.4596 14.6214C7.03577 14.7448 6.93987 14.3809 6.68928 14.347C6.72022 14.1835 6.70785 14.0941 6.68 14.0231C6.56244 13.7178 6.10768 14.0293 6.11077 13.7425C6.11077 13.4773 6.03652 13.4094 5.86637 13.4958C5.77975 13.3354 5.50132 13.5482 5.40851 13.4958C5.0744 13.2984 5.25074 12.5644 4.86712 12.4996C4.80216 12.4873 4.68769 12.5675 4.5392 12.6939C4.56395 12.6168 4.57941 12.552 4.5887 12.4965C4.67841 12.037 4.37833 12.2621 4.12774 12.3331C3.70391 12.4564 3.60801 12.0925 3.35742 12.0586C3.38836 11.8951 3.37599 11.8057 3.34814 11.7348C3.23058 11.4295 2.77582 11.7409 2.77582 11.4541C2.77582 11.1889 2.70157 11.121 2.53142 11.2074C2.4448 11.047 2.16328 11.2598 2.07356 11.2074C1.73944 11.01 1.91269 10.276 1.52598 10.2082C1.34655 10.1773 0.771133 10.825 0.21737 11.3585C0.307086 11.5436 -0.0641524 12.8697 -0.00537302 13.1318C0.112186 13.653 0.61645 13.1658 0.987688 13.0794C1.2259 13.101 1.35583 13.1133 1.46102 13.2459C1.58786 13.4094 1.52289 13.7857 1.62498 13.9491C1.65592 13.9985 1.69923 14.0139 1.75182 14.0077C1.75182 14.1897 1.7611 14.3192 1.85082 14.2699C1.93744 14.5135 2.14781 14.3809 2.33033 14.4395C2.40767 14.7695 2.63351 14.643 3.05425 14.3716C3.29555 14.2143 3.36052 14.2822 3.31102 14.4641C3.36052 14.4302 3.4162 14.3901 3.47808 14.347C3.39764 14.7787 3.28936 15.2722 3.32339 15.4233C3.43786 15.9445 3.94522 15.4572 4.31645 15.3709C4.55467 15.3924 4.6846 15.4048 4.78978 15.5374C4.91662 15.7008 4.85166 16.0771 4.95375 16.2406C4.98468 16.2899 5.02799 16.3053 5.08059 16.3022C5.08059 16.4842 5.08987 16.6137 5.17958 16.5644C5.2662 16.808 5.47657 16.6754 5.6591 16.734C5.72407 17.0085 5.89112 16.9653 6.19121 16.7864C6.12933 17.1103 6.07674 17.4094 6.10149 17.5204C6.21905 18.0416 6.72331 17.5544 7.09455 17.468C7.33276 17.4896 7.4627 17.5019 7.56788 17.6345C7.69472 17.798 7.62975 18.1742 7.73184 18.3377C7.76278 18.387 7.80609 18.4025 7.85868 18.3963C7.85868 18.5783 7.87106 18.7078 7.95768 18.6584C8.0443 18.9021 8.25467 18.7695 8.4372 18.8281C8.51454 19.1581 8.74037 19.0316 9.16111 18.7602C9.40241 18.6029 9.46738 18.6708 9.42098 18.8496C9.47047 18.8157 9.52307 18.7756 9.58494 18.7294C9.5045 19.1611 9.39932 19.6577 9.43335 19.8057C9.47047 19.9753 9.55091 20.037 9.653 20.0401C9.653 20.0678 9.653 20.0956 9.653 20.1234C9.64062 20.6137 9.22917 20.6847 9.11161 20.9653C8.94765 20.916 8.85174 20.919 8.76822 20.9437C8.40626 21.0486 8.59188 21.5914 8.2887 21.5636C8.00718 21.5389 7.91128 21.6191 7.95149 21.8196C7.7535 21.9059 7.89581 22.2421 7.81228 22.3408C7.61428 22.569 7.25852 22.5567 6.97081 22.6245C6.93987 22.6122 6.90275 22.5998 6.878 22.5906C6.41395 22.458 6.56554 22.8188 6.56863 23.1118C6.57791 23.6083 6.16955 23.707 6.06127 23.9938C5.89422 23.9537 5.79522 23.963 5.71169 23.9938C5.34973 24.1203 5.56938 24.6661 5.26002 24.66C4.97231 24.6569 4.88259 24.7432 4.93209 24.9468C4.7341 25.0486 4.90115 25.3816 4.82381 25.4896C4.5392 25.8905 3.77507 25.6993 3.62657 26.1835C3.60182 26.2637 3.66369 26.3994 3.77197 26.569C3.69463 26.5474 3.62657 26.532 3.56779 26.5227C3.08518 26.4518 3.26461 26.7972 3.30483 27.1056C3.37289 27.6237 2.95525 27.7749 2.89338 28.1079C2.72013 28.0987 2.62423 28.1326 2.54379 28.182C2.19421 28.4009 2.48811 28.9098 2.18184 28.9931C1.89413 29.0702 1.81369 29.1935 1.90031 29.3971C1.7147 29.5605 1.94981 29.8813 1.90031 30.0262C1.80441 30.3038 1.54764 30.4456 1.32799 30.6399C1.10834 30.8342 0.90416 31.0532 0.901066 31.377C0.901066 31.5251 1.11143 31.7502 1.40224 31.9476C1.69613 32.1511 2.07665 32.3454 2.43242 32.515C2.50048 32.3886 2.8841 32.222 3.2708 32.1079C3.4657 32.0493 3.6606 32 3.82147 31.9599C3.98543 31.9198 4.12155 31.8828 4.18343 31.8458C4.42473 31.6978 4.38452 31.5497 4.27314 31.3678C4.17724 31.1889 4.0009 30.9853 3.93284 30.7818C3.92047 30.5012 3.93284 30.3439 4.06896 30.1958C4.23602 30.0139 4.62273 30.0231 4.78978 29.8843C4.84238 29.8443 4.85784 29.7918 4.85784 29.7332C5.04965 29.7147 5.18268 29.6839 5.13318 29.5914C5.38995 29.4711 5.24764 29.2459 5.33117 29.0331C5.68694 28.9221 5.56938 28.6816 5.33117 28.2128C5.19196 27.9383 5.28167 27.8643 5.4611 27.9106L5.35901 27.7255C5.80759 27.7995 6.30876 27.9136 6.46963 27.8736C7.0234 27.7409 6.60885 27.1766 6.58719 26.7479C6.65525 26.4765 6.69238 26.3254 6.85943 26.2113C7.06052 26.0725 7.44413 26.1588 7.63594 26.0509C7.69472 26.02 7.71947 25.9707 7.72566 25.909C7.91437 25.9214 8.05358 25.909 8.02265 25.8103C8.30107 25.7271 8.21136 25.4865 8.31654 25.283C8.62281 25.2274 8.61663 25.0362 8.50526 24.6877C8.83009 24.7803 9.13327 24.8635 9.25392 24.845C9.83243 24.7618 9.45191 24.1542 9.46738 23.7286C9.5571 23.4634 9.60969 23.3184 9.77984 23.2136C9.98711 23.0871 10.3614 23.1981 10.5656 23.1025C10.6244 23.0748 10.6553 23.0254 10.6677 22.9668C10.8595 22.9915 10.9987 22.9884 10.974 22.8836C11.2555 22.8157 11.1782 22.5659 11.2957 22.3685C11.6639 22.3192 11.602 22.0571 11.4504 21.5544C11.3638 21.2645 11.4566 21.2028 11.6298 21.2768L11.5618 21.0856H11.5772C11.6484 21.1103 11.7227 21.1349 11.7938 21.1596C11.8495 21.3045 11.9454 21.3231 12.0939 21.2614C12.3321 21.3385 12.5363 21.3971 12.6353 21.3878C12.7064 21.3816 12.7652 21.3631 12.8085 21.3416C12.7961 21.7857 12.1248 22.0817 12.2826 22.5042C12.3104 22.5752 12.4404 22.643 12.6291 22.7078C12.5517 22.7355 12.4899 22.7602 12.4373 22.7849C12.0042 22.9946 12.363 23.1519 12.5672 23.3554C12.9137 23.7008 12.6693 24.0339 12.79 24.3084C12.6415 24.3886 12.5734 24.4595 12.5332 24.5335C12.3568 24.8604 12.8766 25.0979 12.6446 25.2953C12.428 25.4773 12.4218 25.6006 12.5951 25.7086C12.5208 25.909 12.8642 26.0355 12.8766 26.1619C12.9044 26.4549 12.6446 26.7016 12.5023 26.9545C12.4713 26.9699 12.4373 26.9853 12.4125 26.9977C11.998 27.2413 12.363 27.377 12.5827 27.5713C12.9477 27.8982 12.7436 28.256 12.8828 28.5274C12.7405 28.6199 12.6786 28.7001 12.6446 28.7772C12.4899 29.1257 13.0436 29.3261 12.8302 29.5451C12.6353 29.7517 12.6384 29.8751 12.8209 29.9707C12.7621 30.1835 13.121 30.2791 13.1488 30.4055C13.2571 30.8743 12.5982 31.3092 12.8549 31.7286C12.8982 31.7964 13.0405 31.8427 13.2385 31.8736C13.1674 31.9167 13.1117 31.9537 13.0684 31.9907C12.691 32.293 13.0746 32.3886 13.3159 32.5551C13.7397 32.8389 13.5819 33.2336 13.7645 33.4896C13.6376 33.6037 13.5912 33.6931 13.5665 33.7795C13.4829 34.1557 14.0584 34.276 13.8851 34.5351C13.7273 34.7756 13.7521 34.9052 13.947 34.973C13.9346 35.1951 14.3058 35.2352 14.3553 35.3616C14.541 35.8211 13.9841 36.3732 14.3244 36.7525C14.4791 36.9283 15.3484 36.7741 16.1218 36.6785C16.1311 36.4318 17.1613 35.4819 17.2541 35.2167C17.4304 34.6862 16.7406 34.7479 16.3662 34.5443C16.1744 34.347 16.063 34.2359 16.0599 34.0385C16.0569 33.798 16.3415 33.5297 16.3569 33.3138C16.3631 33.249 16.3353 33.2028 16.292 33.1658C16.4064 33.0177 16.4776 32.9005 16.3724 32.8728C16.459 32.6045 16.2146 32.549 16.1094 32.3516C16.2672 32.0216 16.0043 31.9507 15.5031 31.8119C15.2154 31.7317 15.2154 31.6207 15.3732 31.5189C15.3144 31.5065 15.2432 31.488 15.169 31.4726C15.5247 31.1981 15.9455 30.9052 16.0259 30.7633C16.3043 30.2698 15.6083 30.2113 15.2742 29.9491C15.1164 29.724 15.0359 29.5975 15.0638 29.4032C15.0978 29.1688 15.4227 28.9499 15.4722 28.7402C15.4876 28.6785 15.4691 28.6261 15.4288 28.5829C15.565 28.4534 15.6547 28.3516 15.5588 28.3053C15.6887 28.0524 15.4505 27.9599 15.3732 27.7533C15.5433 27.5004 15.3948 27.3832 15.07 27.229C15.3608 27.0594 15.6268 26.9021 15.698 26.8034C16.0321 26.3439 15.3298 26.2113 15.0359 25.9152C14.906 25.6746 14.838 25.542 14.8813 25.3539C14.9339 25.1257 15.2773 24.9375 15.3484 24.7309C15.3701 24.6692 15.3577 24.6168 15.3206 24.5705C15.4691 24.4534 15.5681 24.3577 15.4752 24.3053C15.6237 24.0648 15.3886 23.9537 15.3329 23.7379C15.5588 23.451 15.3268 23.3153 14.8627 23.081C14.5936 22.9453 14.6152 22.8404 14.7885 22.7695L14.5967 22.6831C14.7916 22.5875 14.9988 22.4919 15.1783 22.3994C15.2989 22.3994 15.4783 22.2945 15.7227 22.1311C15.964 21.9707 16.0259 22.0385 15.9826 22.2205C16.029 22.1866 16.0847 22.1434 16.1466 22.1002C16.0723 22.532 15.9733 23.0285 16.0074 23.1766C16.1311 23.6947 16.6323 23.2043 17.0035 23.1118C17.2417 23.1303 17.3747 23.1395 17.4799 23.2722C17.6099 23.4325 17.5511 23.8119 17.6563 23.9722C17.6872 24.0185 17.7336 24.0339 17.7862 24.0308C17.7862 24.2128 17.8048 24.3423 17.8914 24.2899C17.9842 24.5335 18.1915 24.3948 18.3771 24.4503C18.4482 24.7247 18.6153 24.6785 18.9092 24.4934C18.8535 24.8173 18.8102 25.1195 18.838 25.2305C18.968 25.7486 19.463 25.2521 19.8342 25.1565C20.0755 25.1719 20.2054 25.1812 20.3137 25.3138C20.4436 25.4742 20.388 25.8535 20.4962 26.0139C20.5272 26.0601 20.5736 26.0756 20.6262 26.0725C20.6262 26.2544 20.6447 26.384 20.7344 26.3315C20.8304 26.5721 21.0345 26.4333 21.2232 26.4888C21.3099 26.8157 21.5326 26.6831 21.9472 26.4025C22.1854 26.239 22.2503 26.3069 22.2101 26.4857C22.2565 26.4487 22.3122 26.4086 22.371 26.3624C22.3029 26.7972 22.2163 27.2968 22.2534 27.4449C22.3896 27.963 22.8814 27.4603 23.2527 27.3585C23.494 27.3709 23.6239 27.3801 23.7353 27.5096C23.8683 27.6669 23.8188 28.0463 23.9302 28.2066C23.9642 28.2529 24.0075 28.2683 24.0601 28.2621C24.0663 28.4441 24.0849 28.5736 24.1746 28.5212C24.2736 28.7618 24.4778 28.6199 24.6665 28.6723C24.7593 28.9992 24.982 28.8635 25.3904 28.5736C25.6255 28.4071 25.6936 28.4719 25.6534 28.6538C25.8111 28.5305 26.0308 28.3762 26.4051 27.9291C26.7021 27.1611 26.7949 26.8342 26.8258 26.6276C26.8939 26.165 26.6062 26.4025 26.3587 26.4857C25.9411 26.6276 25.8297 26.2698 25.576 26.2452C25.5977 26.0817 25.5822 25.9923 25.5544 25.9244C25.4244 25.6253 24.9851 25.9522 24.9727 25.6654C24.9635 25.4002 24.8861 25.3354 24.7191 25.4279C24.6263 25.2706 24.354 25.4958 24.2643 25.4464C23.924 25.2614 24.0725 24.5243 23.6889 24.4719C23.6239 24.4626 23.5125 24.5459 23.3702 24.6754C23.3919 24.5983 23.4043 24.5335 23.4136 24.478C23.4878 24.0154 23.197 24.2498 22.9495 24.33C22.5288 24.4657 22.4236 24.1049 22.173 24.0802C22.1977 23.9167 22.1854 23.8273 22.1544 23.7594C22.0276 23.4572 21.5852 23.781 21.579 23.4942C21.5728 23.229 21.4986 23.1611 21.3284 23.2537C21.2387 23.0933 20.9634 23.3153 20.8737 23.266C20.6602 23.1457 20.6447 22.8096 20.5643 22.5628L20.586 22.4672C20.6664 22.0077 20.3725 22.2359 20.1219 22.3161C19.7012 22.4487 19.5991 22.0879 19.3485 22.0571C19.3763 21.8936 19.364 21.8042 19.333 21.7363C19.2093 21.4341 18.7638 21.7548 18.7576 21.4649C18.7545 21.1997 18.6803 21.1318 18.5101 21.2213C18.4204 21.0609 18.1451 21.2799 18.0554 21.2274C17.7181 21.0332 17.8821 20.2991 17.5016 20.2406C17.4366 20.2313 17.3222 20.3115 17.1768 20.4379C17.1984 20.3608 17.2139 20.2961 17.2263 20.2406C17.3098 19.781 17.0128 20.0093 16.7653 20.0833C16.3415 20.2128 16.2425 19.8489 15.9919 19.818C16.0197 19.6546 16.0074 19.5651 15.9795 19.4942C15.9022 19.2938 15.6825 19.3616 15.5402 19.3493C15.5031 19.2444 15.4165 19.1488 15.3886 19.0224C15.6083 18.7602 15.4227 18.6122 15.0298 18.3901C15.0143 18.3223 14.9957 18.2483 14.9741 18.1681C14.9524 18.0879 14.9462 18.0293 14.9462 17.983C15.4814 17.909 15.169 17.2953 15.2092 16.8789C15.3175 16.6168 15.3763 16.4749 15.5526 16.3793C15.7691 16.2652 16.1404 16.3948 16.3477 16.3022C16.4095 16.2745 16.4405 16.2282 16.4559 16.1696C16.6446 16.2005 16.787 16.2035 16.7653 16.0987C17.053 16.0401 16.9849 15.7872 17.1149 15.5929C17.4892 15.559 17.4366 15.2876 17.3067 14.7818C17.2293 14.4888 17.3252 14.4302 17.4954 14.5104C17.4768 14.4518 17.4552 14.384 17.4304 14.3099C17.8543 14.4672 18.3338 14.6584 18.5039 14.6461C19.0917 14.5968 18.7669 13.9614 18.8102 13.5328C18.9185 13.2706 18.9773 13.1257 19.1567 13.0331C19.3732 12.919 19.7445 13.0455 19.9549 12.956C20.0167 12.9283 20.0508 12.882 20.0631 12.8234C20.2518 12.8543 20.3941 12.8574 20.3756 12.7494C20.6633 12.6877 20.5983 12.4348 20.7252 12.2406C21.0376 12.2097 21.0531 12.0154 20.9727 11.6577C21.2913 11.7718 21.5883 11.8736 21.712 11.8612C22.3029 11.8026 21.9719 11.1704 22.0121 10.7417C22.1173 10.4765 22.1761 10.3315 22.3555 10.2328C22.5721 10.1126 22.9464 10.2359 23.1568 10.1403C23.2187 10.1126 23.2496 10.0632 23.2651 10.0046C23.4569 10.0293 23.5992 10.0293 23.5775 9.92444C23.8652 9.85659 23.7972 9.6037 23.924 9.40324C24.3014 9.35389 24.2426 9.07941 24.0972 8.57363C24.0137 8.28065 24.1065 8.21896 24.2798 8.2899L24.2086 8.08943C24.6417 8.22822 25.1305 8.39476 25.3007 8.37008C25.8947 8.28065 25.5451 7.65767 25.5698 7.21974C25.6657 6.94526 25.7214 6.79414 25.8947 6.68311C26.1081 6.5505 26.4917 6.6461 26.699 6.52583C26.7609 6.4919 26.7918 6.43947 26.8011 6.37779C26.996 6.38705 27.1414 6.37471 27.1136 6.26677C27.4044 6.17116 27.3208 5.91519 27.4384 5.69005C27.8189 5.59136 27.7508 5.31997 27.5621 4.8111C27.4539 4.51812 27.5405 4.43793 27.7261 4.48419L27.7508 4.48728Z" fill="#010101"/>
</g>
<defs>
<clipPath id="clip0_355_14564">
<rect width="140" height="140" fill="white"/>
</clipPath>
</defs>
</svg>
