<svg width="258" height="217" viewBox="0 0 258 217" fill="none" xmlns="http://www.w3.org/2000/svg">
<g clip-path="url(#clip0_265_14066)">
<path d="M105.891 94.2442C92.0511 97.361 97.5345 112.988 102.865 120.075C119.596 142.308 131.588 135.464 136.052 130.493C140.109 125.98 142.988 120.429 145.086 114.934C147.135 109.633 149.874 100.521 145.25 95.8423C140.249 90.7858 132.612 94.2991 129.368 99.7032L129.355 99.7276C125.696 105.845 124.586 110.389 120.322 102.576C117.541 97.4769 112.643 92.7193 105.891 94.2381V94.2442Z" fill="#FF5D97"/>
<path d="M189.065 79.2701C189.241 79.6665 189.321 73.4268 189.205 72.6522C188.686 69.145 187.515 65.6561 186.088 62.4234C181.782 52.6948 174.755 47.1687 166.515 41.0387C163.727 38.9649 160.867 36.9887 158.476 34.4147C156.884 32.7008 155.902 30.7123 155.737 28.4738C154.926 17.3972 178.506 34.5123 183.801 39.4163C193.456 48.3642 200.489 58.7881 204.887 71.2066C205.033 71.6214 205.649 71.4323 205.539 71.0053C204.142 65.7293 201.623 60.7338 198.75 56.0678C191.84 44.8448 182.703 35.0003 172.023 27.2784C171.272 26.7355 170.687 25.9792 170.419 25.0948C168.137 17.5436 181.782 21.0508 184.758 22.9965C187.509 24.7959 190.071 27.9798 192.389 30.3098C205.185 43.1674 215.225 57.2389 219.556 69.7427C222.361 64.546 203.356 39.892 191.584 27.2296C188.333 23.7346 182.434 19.2454 189.979 17.1655C193.908 16.0859 201.129 20.5507 204.185 22.9782C211.834 29.0472 215.341 33.0118 219.824 39.8493C244.527 77.5073 244.008 121.692 252.218 164.492C252.578 166.376 252.81 168.285 253.121 170.176C255.018 181.899 256.567 193.641 257.5 205.486C257.787 209.14 258.025 212.805 257.824 216.465C258.043 222.144 221.044 233.647 207.454 217.618C209.01 197.349 206.485 166.803 186.198 156.404C179.44 152.939 176.786 147.12 172.889 148.005C163.313 150.17 142.989 159.972 135.609 152.409C131.364 148.06 138.232 143.869 143.111 140.875C161.544 129.56 167.729 123.955 172.511 108.273C175.512 98.4467 177.738 77.8428 165.466 73.0669C157.53 69.9806 153.578 77.0072 152.285 81.844C151.797 83.6739 151.205 85.5647 149.857 86.9005C145.704 91.0237 141.891 85.7111 140.617 81.8562C138.958 76.8425 139.897 70.987 141.861 66.2172C149.046 48.7179 168.198 49.3584 179.092 63.0516C184.136 69.389 186.143 72.8168 189.071 79.2762L189.065 79.2701Z" fill="#EDC6A9"/>
<path d="M60.5665 83.9483C60.414 84.357 59.9504 78.1356 60.0175 77.3487C60.3164 73.8171 61.274 70.2612 62.5 66.9492C66.2024 56.9766 72.869 51.0235 80.719 44.3995C83.3723 42.161 86.1049 40.0079 88.3312 37.2936C89.8133 35.4882 90.6733 33.4388 90.6977 31.1942C90.8258 20.0871 68.3433 38.6233 63.36 43.8445C54.2718 53.3657 47.8918 64.2105 44.2687 76.8669C44.1467 77.2877 43.5185 77.1352 43.61 76.7022C44.6774 71.353 46.8854 66.2111 49.4716 61.3743C55.6808 49.7487 64.1956 39.3614 74.3756 30.999C75.0893 30.4135 75.6321 29.6205 75.8456 28.7178C77.6571 21.0386 64.2505 25.3753 61.4082 27.504C58.7732 29.4742 56.4127 32.8044 54.2413 35.2747C42.262 48.8948 33.1067 63.5579 29.5508 76.3057C26.4339 71.292 43.8845 45.5157 54.8574 32.1518C57.8888 28.4616 63.5003 23.6187 55.8394 22.0084C51.8504 21.1728 44.9153 26.0768 42.018 28.6873C34.7597 35.2198 31.5026 39.3919 27.4465 46.4855C5.09807 85.5952 8.34298 129.664 2.78028 172.884C2.5363 174.787 2.42041 176.703 2.23133 178.618C1.06024 190.439 0.236811 202.247 0.0294298 214.129C-0.0315647 217.789 -0.0437636 221.467 0.377098 225.108C0.505187 230.786 38.1449 239.997 50.722 223.156C47.9223 203.022 48.5688 172.372 68.1725 160.753C74.705 156.879 76.9984 150.908 80.9386 151.549C90.6306 153.116 111.515 161.649 118.414 153.647C122.384 149.048 115.266 145.284 110.216 142.595C91.1247 132.439 84.6044 127.218 78.8648 111.866C75.2661 102.247 71.7712 81.8135 83.7261 76.2935C91.4541 72.7253 95.8335 79.4957 97.4193 84.2472C98.0171 86.0404 98.7307 87.8947 100.152 89.1451C104.55 93.006 108.032 87.4677 109.069 83.5397C110.417 78.4344 109.118 72.646 106.867 68.0044C98.6209 50.9747 79.5419 52.7984 69.5144 67.1382C64.8727 73.7744 63.0794 77.3182 60.5543 83.9422L60.5665 83.9483Z" fill="#EDC6A9"/>
</g>
<defs>
<clipPath id="clip0_265_14066">
<rect width="258" height="217" fill="white"/>
</clipPath>
</defs>
</svg>
