<svg width="14" height="18" viewBox="0 0 14 18" fill="none" xmlns="http://www.w3.org/2000/svg">
<path d="M7.5407 9.76744V11.3023C7.5407 11.6202 7.28299 11.8779 6.96512 11.8779C6.64724 11.8779 6.38953 11.6202 6.38953 11.3023V9.76744C6.38953 9.44957 6.64724 9.19186 6.96512 9.19186C7.28299 9.19186 7.5407 9.44957 7.5407 9.76744ZM6.32783 0.75H7.6024C8.01237 0.75 8.35449 0.75 8.63407 0.772824C8.92562 0.796645 9.19929 0.848148 9.45815 0.980026C9.85523 1.18237 10.1781 1.50522 10.3805 1.90234C10.5123 2.16116 10.5638 2.43488 10.5877 2.72642C10.6105 3.00593 10.6105 3.34808 10.6105 3.758V4.89441C12.4579 6.0908 13.6802 8.17009 13.6802 10.5349C13.6802 14.2435 10.6738 17.25 6.96512 17.25C3.25646 17.25 0.25 14.2435 0.25 10.5349C0.25 8.17009 1.47239 6.0908 3.31977 4.89441V3.75804C3.31977 3.34811 3.31975 3.00594 3.34259 2.72642C3.36641 2.43488 3.41792 2.16116 3.54979 1.90234C3.75213 1.50522 4.07499 1.18237 4.4721 0.980026C4.73093 0.848148 5.00465 0.796645 5.29618 0.772824C5.57571 0.75 5.91787 0.75 6.32783 0.75ZM9.4593 3.7814C9.4593 3.34209 9.45884 3.04723 9.44027 2.82016C9.42231 2.59981 9.39016 2.49445 9.35478 2.42495C9.26276 2.24445 9.11603 2.09769 8.93552 2.00572C8.86599 1.97031 8.76062 1.93817 8.54029 1.92016C8.3132 1.90161 8.01835 1.90116 7.57907 1.90116H6.35116C5.91188 1.90116 5.617 1.90161 5.38993 1.92016C5.16957 1.93817 5.06422 1.97031 4.99472 2.00572C4.81421 2.09769 4.66746 2.24445 4.57549 2.42495C4.54008 2.49445 4.50794 2.59981 4.48993 2.82016C4.47138 3.04723 4.47093 3.34209 4.47093 3.7814V4.29824C5.24205 3.98956 6.08379 3.81977 6.96512 3.81977C7.84645 3.81977 8.68818 3.98956 9.4593 4.29824V3.7814ZM6.96512 4.97093C3.89223 4.97093 1.40116 7.462 1.40116 10.5349C1.40116 13.6078 3.89223 16.0988 6.96512 16.0988C10.038 16.0988 12.5291 13.6078 12.5291 10.5349C12.5291 7.462 10.038 4.97093 6.96512 4.97093Z" fill="#374151"/>
</svg>
