<svg width="381" height="213" viewBox="0 0 381 213" fill="none" xmlns="http://www.w3.org/2000/svg">
<g clip-path="url(#clip0_2554_97977)">
<path d="M121.308 207.485C174.46 207.485 217.548 205.442 217.548 202.922C217.548 200.403 174.46 198.36 121.308 198.36C68.1565 198.36 25.0684 200.403 25.0684 202.922C25.0684 205.442 68.1565 207.485 121.308 207.485Z" fill="#231F20"/>
</g>
<g clip-path="url(#clip1_2554_97977)">
<path d="M330.789 184.626H230.074C225.294 184.626 221.419 180.727 221.419 175.917V80.2778C221.419 75.4681 225.294 71.5688 230.074 71.5688H330.789C335.569 71.5688 339.445 75.4681 339.445 80.2778V175.917C339.445 180.727 335.57 184.626 330.789 184.626Z" fill="white"/>
<path d="M330.79 185.22H230.075C224.977 185.22 220.829 181.047 220.829 175.917V80.2778C220.829 75.1482 224.977 70.975 230.075 70.975H330.79C335.888 70.975 340.035 75.1482 340.035 80.2778V175.917C340.035 181.047 335.888 185.22 330.79 185.22ZM230.075 72.1626C225.627 72.1626 222.009 75.8029 222.009 80.2778V175.917C222.009 180.392 225.627 184.032 230.075 184.032H330.79C335.237 184.032 338.855 180.392 338.855 175.917V80.2778C338.855 75.8029 335.237 72.1626 330.79 72.1626H230.075Z" fill="#231F20"/>
<path d="M339.445 89.7105V80.2778C339.445 75.4681 335.57 71.5688 330.79 71.5688H230.074C225.294 71.5688 221.419 75.4681 221.419 80.2778V89.7105H339.445Z" fill="white"/>
<path d="M339.445 90.3043H221.419L220.829 89.7105V80.2778C220.829 75.1482 224.977 70.975 230.075 70.975H330.79C335.888 70.975 340.035 75.1482 340.035 80.2778V89.7105L339.445 90.3043ZM222.009 89.1167H338.855V80.2778C338.855 75.8029 335.237 72.1626 330.79 72.1626H230.075C225.627 72.1626 222.009 75.8033 222.009 80.2778V89.1167Z" fill="#231F20"/>
<path d="M289.409 100.667H328.608V133.65H289.409V100.667Z" fill="#FF7C5C"/>
<path d="M328.609 134.243H289.409L288.819 133.649V100.667L289.409 100.073H328.609L329.199 100.667V133.65L328.609 134.243ZM290 133.056H328.019V101.261H290V133.056Z" fill="#231F20"/>
<path d="M289.031 101.125L289.788 100.214L328.986 133.197L328.229 134.108L289.031 101.125Z" fill="#231F20"/>
<path d="M289.03 133.197L328.228 100.214L328.985 101.124L289.787 134.108L289.03 133.197ZM288.819 143.267H295.135V144.454H288.819V143.267ZM297.655 143.267H313.086V144.454H297.655V143.267ZM315.605 143.267H329.199V144.454H315.605V143.267ZM288.819 153.22H309.934V154.407H288.819V153.22ZM297.518 163.173H329.199V164.361H297.518V163.173ZM288.922 163.173H294.998V164.361H288.922V163.173ZM309.765 173.126H320.811V174.314H309.765V173.126ZM288.819 173.126H307.057V174.314H288.819V173.126ZM232.229 100.667H278.599V173.72H232.229V100.667Z" fill="#231F20"/>
<path d="M278.6 174.314H232.229L231.639 173.72V100.667L232.229 100.073H278.6L279.19 100.667V173.72L278.6 174.314ZM232.819 173.126H278.01V101.261H232.819V173.126Z" fill="#231F20"/>
</g>
<g clip-path="url(#clip2_2554_97977)">
<path d="M185.305 39.7132L176.611 52.1869L189.875 53.0111L195.219 47.8232L197.149 45.2727L194.376 39.7132H185.305Z" fill="#231F20"/>
<path d="M189.839 53.6073L176.575 52.7832L176.123 51.8447L184.817 39.371L185.305 39.1157H194.376L194.909 39.4459L197.682 45.0054L197.624 45.6335L195.635 48.2522L190.291 53.44L189.839 53.6073ZM177.709 51.6563L189.649 52.3984L194.771 47.4256L196.449 45.2073L194.007 40.3103H185.616L177.709 51.6563Z" fill="#231F20"/>
<path d="M180.887 73.1188C189.709 67.8588 192.379 60.794 193.11 58.7104L199.207 53.585L200.136 51.532L199.716 49.2357L197.666 47.7941L195.209 47.8323L189.15 50.1582C189.15 50.1582 186.142 48.8732 182.819 49.3265L186.998 43.2651L193.72 42.9078L197.148 45.2723L199.525 46.0036L201.57 45.5272L202.979 43.7411L203.081 41.6658L202.18 39.89L197.08 35.4566L194.56 34.5126L185.807 34.5823L183.274 34.9352L181.12 36.039C181.12 36.039 166.635 47.4587 163.067 49.4699L180.887 73.1188Z" fill="white"/>
<path d="M181.193 73.6326L180.412 73.4793L162.593 49.8308L162.776 48.9501C166.264 46.9843 180.609 35.6845 180.753 35.5706L180.85 35.5084L183.004 34.4046L183.193 34.3449L185.804 33.9864L194.556 33.9167L194.77 33.9545L197.291 34.8986L197.473 35.0069L202.572 39.4403L202.713 39.6208L203.614 41.3965L203.678 41.6965L203.576 43.7718L203.448 44.1128L202.04 45.8989L201.707 46.1104L199.661 46.5868L199.351 46.576L196.975 45.8447L196.812 45.7658L193.55 43.5164L187.324 43.8475L184.022 48.6358C186.438 48.5816 188.482 49.2644 189.155 49.5185L194.997 47.2755L195.201 47.2361L197.658 47.1978L198.01 47.3062L200.059 48.7477L200.303 49.1289L200.724 51.4253L200.68 51.7798L199.752 53.8328L199.592 54.0439L193.62 59.0645C191.485 65.0207 187.192 70.0556 181.193 73.6326ZM163.945 49.6412L181.039 72.3285C186.608 68.8849 190.582 64.1177 192.549 58.5124L192.728 58.2527L198.721 53.215L199.516 51.4564L199.174 49.5846L197.483 48.3948L195.325 48.4283L189.364 50.7163L188.918 50.7083C188.889 50.696 186.012 49.4942 182.9 49.9188L182.329 48.9871L186.508 42.9253L186.967 42.6684L193.689 42.3111L194.059 42.4155L197.412 44.7278L199.547 45.385L201.233 44.9923L202.394 43.5204L202.479 41.7949L201.703 40.2649L196.772 35.9788L194.456 35.1113L185.852 35.1798L183.458 35.5136L181.445 36.5449C180.442 37.3348 168.157 46.9995 163.945 49.6412Z" fill="#231F20"/>
<path d="M124.275 60.1674C124.275 60.1674 128.988 37.2073 128.997 37.1479C129.523 33.9433 127.725 30.7137 124.57 29.5525C121.416 28.3918 117.96 29.688 116.291 32.4719C116.25 32.5396 105.759 53.1461 105.759 53.1461L124.275 60.1674Z" fill="white"/>
<path d="M124.718 60.9745L104.926 53.4687L105.228 52.8744C115.729 32.2497 115.766 32.1875 115.78 32.164C117.625 29.0865 121.408 27.7521 124.776 28.9917C128.144 30.2309 130.167 33.702 129.586 37.2448C129.578 37.2922 127.988 45.0449 124.859 60.2878L124.718 60.9745ZM106.593 52.8235L123.832 59.3605C124.613 55.5572 128.365 37.2766 128.412 37.0348C128.898 34.0732 127.197 31.1555 124.365 30.1134C121.534 29.0714 118.353 30.1927 116.802 32.7795C116.665 33.0424 108.303 49.4651 106.593 52.8235Z" fill="#231F20"/>
<path d="M122.178 21.8831C125.887 21.8831 128.895 18.8694 128.895 15.1517C128.895 11.4341 125.887 8.42035 122.178 8.42035C118.468 8.42035 115.461 11.4341 115.461 15.1517C115.461 18.8694 118.468 21.8831 122.178 21.8831Z" fill="#231F20"/>
<path d="M122.17 22.481C121.335 22.481 120.486 22.3364 119.657 22.0313C115.871 20.6383 113.923 16.4188 115.313 12.6251C116.703 8.83182 120.913 6.8788 124.699 8.27177C126.532 8.94654 127.994 10.2965 128.815 12.073C129.635 13.8496 129.716 15.84 129.043 17.6775C127.957 20.6407 125.15 22.481 122.17 22.481ZM122.184 9.01744C119.69 9.01744 117.341 10.5574 116.432 13.0374C115.269 16.2125 116.9 19.7441 120.068 20.9096C123.236 22.0755 126.76 20.4408 127.923 17.2661C128.487 15.7281 128.419 14.0623 127.732 12.5753C127.045 11.0884 125.822 9.9587 124.287 9.39386C123.614 9.14511 122.902 9.01767 122.184 9.01744ZM112.895 39.1324C112.895 39.1324 111.251 34.1947 112.927 30.409C114.322 27.2594 116.947 23.0518 125.375 24.7638C133.567 26.4285 135.034 36.135 129.029 36.9348C127.85 37.1396 123.066 35.4052 122.291 32.352C118.867 37.1029 112.895 39.1324 112.895 39.1324Z" fill="#231F20"/>
<path d="M113.087 39.698L112.33 39.3212C112.26 39.1105 110.632 34.1186 112.382 30.1664C113.083 28.5834 114.149 26.5953 116.188 25.2625C118.492 23.7564 121.623 23.3916 125.493 24.1779C130.713 25.2382 133.406 29.4307 133.291 32.8364C133.205 35.3972 131.602 37.1945 129.107 37.5267C127.895 37.7382 123.639 36.3234 122.125 33.5394C118.59 37.7904 113.323 39.618 113.087 39.698ZM121.74 24.9614C116.76 24.9614 114.752 27.7612 113.472 30.6515C112.242 33.4287 112.934 36.9491 113.29 38.3401C114.85 37.6996 119.155 35.682 121.807 32.0023L122.869 32.2046C123.549 34.8838 128.016 36.5042 128.927 36.3461C130.855 36.0887 132.032 34.7631 132.099 32.7961C132.198 29.88 129.833 26.2795 125.256 25.3494C123.942 25.0825 122.777 24.9614 121.74 24.9614Z" fill="#231F20"/>
<path d="M125.873 41.0807L124.69 40.9313L124.824 39.8622L123.618 38.9767L121.769 39.287L121.572 38.1083L123.67 37.7566L124.121 37.8637L125.812 39.1065L126.051 39.663L125.873 41.0807Z" fill="#231F20"/>
<path d="M125.375 24.8152L118.825 24.8057C118.295 24.8057 117.786 24.5945 117.411 24.2186C117.036 23.8427 116.825 23.3329 116.825 22.8013C116.825 22.2697 117.036 21.7598 117.411 21.3839C117.786 21.0081 118.295 20.7969 118.825 20.7969L125.375 20.8064C125.906 20.8064 126.414 21.0176 126.79 21.3935C127.165 21.7694 127.375 22.2792 127.375 22.8108C127.375 23.3424 127.165 23.8523 126.79 24.2282C126.414 24.6041 125.906 24.8152 125.375 24.8152Z" fill="white"/>
<path d="M125.375 25.4127L118.824 25.4032C117.393 25.4032 116.229 24.2361 116.229 22.8013C116.229 21.3665 117.393 20.199 118.825 20.199L125.376 20.2085C126.806 20.2085 127.971 21.3756 127.971 22.8104C127.971 24.2452 126.806 25.4127 125.375 25.4127ZM118.824 21.3936C118.051 21.3936 117.421 22.0249 117.421 22.8005C117.421 23.576 118.051 24.2074 118.825 24.2074L125.376 24.2169C125.748 24.2164 126.104 24.068 126.368 23.8043C126.631 23.5405 126.779 23.183 126.779 22.81C126.779 22.437 126.631 22.0794 126.367 21.8157C126.104 21.5519 125.747 21.4035 125.375 21.4031L118.824 21.3936Z" fill="#231F20"/>
<path d="M165.121 144.081L62.9696 113.059C58.9397 117.708 43.2363 130.477 46.054 154.973C47.6701 169.021 56.5051 180.339 69.3578 185.121C73.6418 186.714 138.413 203.968 156.117 203.968C172.991 203.968 186.67 189.642 186.67 172.731C186.67 159.302 177.124 148.21 165.121 144.081Z" fill="white"/>
<path d="M156.118 204.565C138.187 204.565 73.0743 187.14 69.1509 185.681C55.9603 180.774 47.105 169.32 45.4623 155.041C42.9355 133.075 54.9603 120.576 60.7392 114.569C61.4522 113.828 62.0679 113.188 62.5202 112.667L63.1435 112.487L165.316 143.516C178.446 148.032 187.267 159.773 187.267 172.731C187.267 181.105 184.029 189.051 178.15 195.107C172.228 201.206 164.404 204.565 156.118 204.565ZM63.163 113.741C62.7297 114.222 62.1975 114.775 61.5977 115.399C55.9456 121.274 44.1848 133.499 46.6468 154.904C48.2366 168.726 56.8046 179.813 69.5658 184.56C73.4738 186.014 138.293 203.37 156.118 203.37C164.079 203.37 171.6 200.14 177.295 194.275C182.957 188.443 186.074 180.792 186.074 172.732C186.074 160.287 177.581 149.003 164.938 144.65L63.163 113.741Z" fill="#231F20"/>
<path d="M143.88 161.812C143.88 161.812 140.354 160.281 127.153 161.5C119.253 162.229 95.2805 168.814 95.2805 168.814C95.2789 168.814 90.5009 170.026 85.3027 169.794V203.967H156.118L143.88 161.812Z" fill="white"/>
<path d="M85.302 203.37H156.117V204.565H85.302V203.37ZM86.6642 170.421C86.2071 170.421 85.7432 170.412 85.2754 170.391L85.3287 169.197C90.3722 169.422 95.0866 168.247 95.1335 168.235C96.103 167.969 119.235 161.631 127.097 160.905C140.299 159.686 143.967 161.199 144.117 161.264L143.642 162.361L143.879 161.813L143.647 162.363C143.612 162.348 139.975 160.917 127.207 162.095C119.449 162.812 95.6769 169.326 95.4376 169.391C95.2452 169.439 91.3051 170.421 86.6642 170.421Z" fill="#231F20"/>
<path d="M180.887 73.1188C180.887 73.1188 177.17 65.566 171.976 58.8298C166.782 52.0937 163.068 49.4703 163.068 49.4703L126.084 72.6404C120.604 69.2454 109.632 62.9107 106.338 60.8641C103.178 58.9015 97.9574 56.2391 91.2218 58.2809C80.3847 61.5656 79.4733 72.5304 79.4733 72.5304C79.4733 72.5304 76.7621 85.7287 98.7523 102.561C108.508 110.029 117.418 113.863 122.353 115.33C124.793 116.055 127.367 116.496 130.046 116.496C136.296 116.496 142.029 114.274 146.5 110.576C148.148 109.213 169.186 86.2127 175.441 79.2156C178.683 75.5908 180.887 73.1188 180.887 73.1188Z" fill="#6875F5"/>
<path d="M130.047 117.093C127.487 117.093 124.842 116.693 122.185 115.903C119.506 115.107 109.876 111.827 98.3911 103.036C76.6808 86.4178 78.7103 73.353 78.8836 72.4424C78.9603 71.7122 80.2783 60.9737 91.0498 57.7089C97.8812 55.6384 103.226 58.228 106.653 60.3562C108.108 61.2605 111.027 62.9808 114.407 64.9725C118.454 67.3577 123.023 70.0504 126.083 71.9369L162.753 48.9632L163.412 48.9815C163.567 49.0907 167.259 51.734 172.448 58.4642C177.619 65.1701 181.385 72.7782 181.422 72.8539L181.332 73.5163C181.332 73.5163 179.127 75.9887 175.886 79.6139C169.503 86.7532 148.564 109.644 146.88 111.036C142.159 114.942 136.18 117.093 130.047 117.093ZM96.0329 58.1495C94.5806 58.1495 93.0324 58.3566 91.3952 58.8529C81.0875 61.977 80.105 72.1492 80.0684 72.5806L80.0585 72.6511C80.0334 72.7782 77.7448 85.7283 99.1157 102.086C110.439 110.753 119.896 113.976 122.525 114.757C125.071 115.514 127.602 115.898 130.047 115.898C135.905 115.898 141.614 113.844 146.123 110.115C147.733 108.783 168.805 85.745 174.999 78.8169C177.571 75.9397 179.491 73.7891 180.173 73.0243C179.369 71.4501 175.966 64.9793 171.506 59.1951C167.285 53.7209 164.027 50.974 163.037 50.1952L126.402 73.147L125.772 73.1486C122.728 71.2629 117.987 68.4682 113.803 66.0026C110.417 64.0069 107.492 62.2834 106.025 61.372C103.625 59.8818 100.231 58.1495 96.0329 58.1495Z" fill="#231F20"/>
<path d="M130.046 116.496C135.924 116.496 141.343 114.53 145.687 111.22L142.458 86.5911C141.696 81.4754 142.074 73.9501 136.375 66.1934L126.084 72.6404V116.18C127.394 116.389 128.719 116.494 130.046 116.496Z" fill="#231F20"/>
<path d="M130.046 117.093C128.716 117.093 127.352 116.985 125.992 116.771L125.489 116.18V72.6408L125.769 72.1341L136.059 65.6871L136.856 65.8397C141.594 72.2887 142.207 78.4763 142.699 83.4487C142.807 84.5389 142.909 85.5682 143.049 86.5035L144.893 100.571L146.279 111.143L146.049 111.696C141.415 115.227 135.881 117.093 130.046 117.093ZM126.681 115.664C127.812 115.82 128.942 115.898 130.046 115.898C135.503 115.898 140.684 114.189 145.051 110.952L143.71 100.727C142.179 89.0424 141.917 87.044 141.872 86.6792L141.869 86.6795C141.725 85.7152 141.622 84.6716 141.512 83.5662C141.046 78.8563 140.467 73.0224 136.218 66.9964L126.681 72.9714V115.664H126.681ZM49.4457 131.388C51.7077 126.298 54.6589 122.271 57.3041 119.184L52.5138 116.828L46.7596 117.108L43.4148 119.895L43.0078 123.674L45.8327 128.64L49.4457 131.388Z" fill="#231F20"/>
<path d="M49.085 131.863L45.472 129.116L45.3146 128.936L42.4898 123.97L42.415 123.61L42.8221 119.83L43.0335 119.435L46.3782 116.649L46.7304 116.511L52.4846 116.23L52.7764 116.291L57.5667 118.647L57.7563 119.573C54.3909 123.5 51.8507 127.444 49.9901 131.631L49.085 131.863ZM46.29 128.238L49.2118 130.46C50.9921 126.628 53.3372 122.991 56.354 119.382L52.3888 117.432L46.9872 117.695L43.9815 120.199L43.621 123.545L46.29 128.238Z" fill="#231F20"/>
<path d="M144.222 137.734C144.222 137.734 111.176 154.414 78.3311 135.072C67.5282 128.71 60.8991 123.546 55.7832 121.015L52.2759 119.064L48.0496 118.503L43.4151 119.894C43.398 119.923 53.8758 110.034 62.4345 95.3584C70.5497 81.4435 73.7478 71.0777 80.6813 60.6841C86.0353 52.4092 95.7138 47.352 106.302 47.352C122.007 47.352 135.012 58.9394 137.266 74.0521V74.0561C138.426 80.3935 144.222 137.734 144.222 137.734Z" fill="#6875F5"/>
<path d="M113.06 145C102.834 145 90.4209 142.884 78.0289 135.587C72.7588 132.483 68.3958 129.608 64.8905 127.299C61.1037 124.804 58.1127 122.834 55.5196 121.551L52.0859 119.642L48.0984 119.112L43.6411 120.45C43.5541 120.493 43.4929 120.492 43.4106 120.492L43.3085 119.772L43.0215 119.446C43.1205 119.356 53.4571 109.568 61.9201 95.0564C65.6774 88.6134 68.3278 83.038 70.8911 77.6462C73.7497 71.6326 76.4498 65.9524 80.186 60.3515C85.6934 51.8396 95.4581 46.7541 106.303 46.7541C113.989 46.7524 121.417 49.5327 127.219 54.5833C132.96 59.5823 136.737 66.4647 137.856 73.9632L137.856 73.9672C139.016 80.3505 144.579 135.334 144.816 137.674L144.491 138.268C144.407 138.31 135.999 142.502 123.677 144.248C120.16 144.747 116.612 144.998 113.06 145ZM48.1278 117.911L52.3542 118.472L52.5652 118.542L56.0725 120.493C58.7062 121.794 61.7242 123.783 65.5451 126.3C69.0397 128.603 73.3884 131.468 78.6327 134.556C95.4351 144.451 112.288 144.648 123.466 143.07C134.166 141.561 141.856 138.184 143.586 137.376C143.057 132.152 137.77 80.121 136.678 74.1636L136.676 74.1397H136.675C135.599 66.9228 131.963 60.2977 126.436 55.4851C120.85 50.6235 113.7 47.9472 106.302 47.9487C95.8631 47.9487 86.4724 52.831 81.1813 61.0083C77.4884 66.5439 74.8062 72.1863 71.9671 78.1597C69.3934 83.5738 66.7319 89.1723 62.9492 95.6587C58.509 103.272 53.5529 109.568 50.1772 113.51C48.6768 115.265 47.1241 116.975 45.5212 118.637L47.8786 117.929L48.1278 117.911Z" fill="#231F20"/>
<path d="M191.028 119.184L198.67 116.069C199.879 115.503 200.724 114.224 200.724 112.736C200.724 110.722 199.179 109.089 197.274 109.089C196.794 109.089 185.67 109.542 185.67 109.542C185.67 109.542 178.443 104.623 167.328 109.782L173.788 139.285L195.346 133.455L205.384 128.287C205.384 128.287 208.979 124.73 209.837 123.666L209.837 123.664C210.431 123.045 210.762 122.22 210.762 121.361C210.762 120.477 210.411 119.629 209.788 119.003C209.164 118.378 208.317 118.027 207.435 118.027C206.759 118.026 206.1 118.233 205.545 118.619L205.544 118.618C204.352 119.25 201.732 120.816 201.732 120.816L194.612 121.966L191.028 119.184Z" fill="white"/>
<path d="M173.943 139.862L173.206 139.413L166.746 109.909L167.077 109.239C177.562 104.373 184.63 108.198 185.832 108.937C187.342 108.876 196.817 108.491 197.274 108.491C199.505 108.491 201.32 110.395 201.32 112.735C201.32 114.407 200.379 115.927 198.922 116.61C198.844 116.642 194.251 118.514 192.211 119.345L194.772 121.333L201.524 120.244C202.015 119.951 204.16 118.676 205.242 118.101C205.889 117.662 206.653 117.428 207.434 117.429C209.597 117.429 211.357 119.192 211.357 121.36C211.358 122.356 210.98 123.315 210.3 124.041C209.431 125.118 205.95 128.565 205.802 128.711L205.656 128.817L195.501 134.031L173.943 139.862ZM168.014 110.126L174.236 138.545L195.129 132.894L205.029 127.797C205.517 127.313 208.607 124.239 209.373 123.29L209.389 123.304L209.406 123.251C209.893 122.743 210.166 122.066 210.165 121.361C210.164 120.635 209.876 119.94 209.364 119.427C208.853 118.914 208.158 118.625 207.434 118.624C206.878 118.624 206.341 118.793 205.884 119.11L205.808 119.122L205.821 119.147C204.657 119.763 202.063 121.314 202.037 121.33L201.826 121.406L194.706 122.556L194.246 122.438L190.663 119.656L190.803 118.63L198.43 115.522C199.462 115.033 200.128 113.94 200.128 112.736C200.128 111.055 198.847 109.687 197.274 109.687C196.891 109.687 188.785 110.013 185.694 110.139L185.335 110.036C185.318 110.025 183.551 108.851 180.495 108.303C177.75 107.812 173.383 107.742 168.014 110.126ZM126.201 155.839C142.732 153.662 164.781 147.064 169.087 145.747C167.803 145.107 166.478 144.55 165.121 144.081L124.619 131.781C124.619 131.781 113.009 129.407 103.792 120.987C94.4361 112.44 85.3018 95.4496 85.3018 95.4496C88.3253 109.074 88.2943 120.578 89.924 129.05C93.4806 147.538 106.423 158.444 126.201 155.839Z" fill="#231F20"/>
<path d="M120.57 156.818C104.226 156.818 92.7318 146.799 89.3393 129.163C88.67 125.683 88.2888 121.799 87.8472 117.301C87.2176 110.886 86.5042 103.616 84.7207 95.5795L85.8277 95.1664C85.9187 95.3353 95.0224 112.166 104.194 120.545C113.175 128.75 124.624 131.172 124.739 131.196L124.792 131.209L165.295 143.51C166.683 143.989 168.038 144.557 169.353 145.212L169.262 146.318C164.992 147.624 142.856 154.248 126.28 156.432C124.319 156.69 122.412 156.818 120.57 156.818ZM126.124 155.247L126.202 155.839L126.124 155.247C141.181 153.264 160.884 147.586 167.424 145.626C166.606 145.265 165.773 144.938 164.928 144.646L124.47 132.36C123.805 132.217 112.395 129.655 103.391 121.428C96.569 115.196 89.8131 104.417 86.6441 99.0158C87.9033 105.662 88.4991 111.731 89.0341 117.183C89.4725 121.652 89.8513 125.511 90.5103 128.936C94.1515 147.868 107.465 157.704 126.124 155.247Z" fill="#231F20"/>
<path d="M131.734 106.461C131.734 106.461 121.156 81.3694 117.269 72.1086C115.828 68.675 113.111 63.4744 106.44 61.229C95.7077 57.6165 88.6275 66.0261 88.6275 66.0261C88.6275 66.0261 78.7896 75.212 86.9879 101.697C90.6252 113.448 92.0179 114.388 93.6472 122.859L131.734 106.461ZM131.734 106.461L117.269 72.1082L131.734 106.461Z" fill="#6875F5"/>
<path d="M116.719 72.3372L117.817 71.8724L132.283 106.224L131.184 106.688L116.719 72.3372ZM93.1753 123.559L93.0625 122.972C92.1077 118.009 91.242 115.675 89.932 112.142C89.0309 109.712 87.9096 106.688 86.4191 101.874C78.2041 75.3351 87.8087 65.9743 88.2216 65.5887L88.6577 65.1812L89.4705 66.0555L89.0353 66.4622C88.9128 66.579 79.602 75.8182 87.5578 101.52C89.0384 106.303 90.1533 109.31 91.0496 111.726C92.3808 115.315 93.26 117.686 94.2334 122.746L94.3463 123.333L93.1753 123.559Z" fill="#231F20"/>
<path d="M93.6475 122.859C97.2037 141.347 110.781 149.572 127.009 148.68C145.537 147.66 173.789 139.285 173.789 139.285C173.789 139.285 179.085 119.798 167.329 109.782C159.531 110.965 150.218 108.405 141.882 107.386C124.722 105.286 117.179 106.045 106.542 114.353L93.6475 122.859Z" fill="#6875F5"/>
<path d="M124.609 149.344C107.976 149.344 96.2661 139.628 93.0621 122.971L92.9492 122.385L94.1202 122.158L94.2331 122.745C97.4677 139.561 109.709 149.033 126.976 148.083C144.156 147.137 170.087 139.738 173.293 138.807C173.894 136.274 177.411 119.417 167.145 110.412C161.524 111.2 155.176 110.127 149.032 109.089C146.633 108.683 144.153 108.264 141.809 107.977C124.854 105.903 117.434 106.602 106.908 114.823L106.438 115.19L105.705 114.248L106.176 113.88C117.034 105.399 124.632 104.672 141.954 106.791C144.325 107.081 146.819 107.503 149.23 107.91C155.381 108.949 161.74 110.024 167.239 109.19L167.715 109.325C179.621 119.47 174.418 139.242 174.364 139.441L173.958 139.857C173.674 139.941 145.426 148.263 127.042 149.275C126.22 149.321 125.408 149.344 124.609 149.344ZM51.1855 170.146C54.9651 176.387 60.5599 181.332 67.4366 184.337L68.8401 163.842C59.0841 161.515 51.327 169.99 51.1855 170.146Z" fill="#231F20"/>
<path d="M67.1983 184.885C60.2728 181.858 54.5595 176.868 50.6758 170.456L50.7449 169.743C51.0756 169.38 58.9543 160.869 68.9782 163.26L69.4349 163.882L68.0314 184.378L67.1983 184.885ZM51.9346 170.226C55.5349 176.001 60.6889 180.55 66.9002 183.44L68.2099 164.315C60.0355 162.663 53.4319 168.716 51.9346 170.226Z" fill="#231F20"/>
<path d="M92.9315 176.078C92.9315 172.593 96.1355 172.192 95.2798 168.814C95.2798 168.814 86.1391 171.134 79.388 168.743C72.8659 166.473 71.5661 163.564 66.2217 163.564C60.7632 163.564 57.8664 166.409 54.7105 173.866C52.6436 178.749 47.0035 183.776 37.4999 188.859C34.1413 190.651 26.8254 193.022 26.3385 193.163C23.9489 193.858 22.2314 196.133 22.3856 198.786C22.5569 201.723 25.09 203.968 28.0265 203.968H92.9315C92.9315 200.481 95.3163 200.481 95.3163 196.995C95.3163 193.508 92.9315 193.508 92.9315 190.022C92.9315 186.536 95.3163 186.536 95.3163 183.05C95.3163 179.563 92.9315 179.563 92.9315 176.078Z" fill="white"/>
<path d="M92.9319 204.565H28.027C24.718 204.565 21.9786 202.042 21.791 198.82C21.6237 195.95 23.4258 193.388 26.1728 192.589C26.7435 192.423 33.9477 190.078 37.2201 188.331C46.4149 183.414 52.1154 178.468 54.162 173.632C57.4952 165.757 60.6512 162.966 66.2221 162.966C69.5303 162.966 71.348 164.018 73.6493 165.35C75.1999 166.247 76.9575 167.265 79.584 168.179C86.093 170.484 95.0441 168.258 95.1339 168.235L95.8581 168.667C96.3836 170.742 95.5254 171.915 94.7683 172.95C94.1307 173.823 93.5281 174.647 93.5281 176.078C93.5281 177.635 94.0321 178.372 94.616 179.226C95.2238 180.114 95.913 181.121 95.913 183.049C95.913 184.978 95.2238 185.985 94.616 186.873C94.0321 187.726 93.5281 188.463 93.5281 190.021C93.5281 191.579 94.0321 192.316 94.616 193.17C95.2238 194.059 95.913 195.066 95.913 196.994C95.913 198.923 95.2242 199.93 94.616 200.819C94.0321 201.672 93.5281 202.409 93.5281 203.967L92.9319 204.565ZM66.2221 164.161C61.1707 164.161 58.4046 166.669 55.2594 174.099C53.1035 179.193 47.2229 184.336 37.781 189.386C34.4251 191.177 27.0858 193.568 26.505 193.737C24.2959 194.379 22.8467 196.441 22.9814 198.751C23.1325 201.341 25.3488 203.37 28.027 203.37H92.3592C92.4848 201.822 93.0909 200.936 93.6327 200.144C94.2166 199.29 94.7206 198.553 94.7206 196.995C94.7206 195.436 94.2166 194.7 93.6327 193.846C93.0249 192.957 92.3357 191.95 92.3357 190.022C92.3357 188.093 93.0246 187.086 93.6327 186.198C94.2166 185.344 94.7206 184.607 94.7206 183.049C94.7206 181.491 94.2166 180.755 93.6327 179.901C93.0249 179.013 92.3357 178.006 92.3357 176.077C92.3357 174.255 93.1172 173.187 93.8064 172.244C94.4272 171.394 94.9348 170.7 94.8084 169.537C92.6092 170.017 85.0918 171.396 79.1897 169.306C76.4595 168.356 74.6498 167.308 73.0531 166.384C70.8225 165.094 69.2107 164.161 66.2221 164.161Z" fill="#231F20"/>
<path d="M37.4998 188.859C34.1412 190.651 26.8257 193.021 26.3384 193.163C24.0489 193.828 22.376 195.945 22.376 198.455C22.376 201.502 24.8363 203.967 27.873 203.967H47.9891C38.2932 200.157 37.5018 188.888 37.4998 188.859Z" fill="#00FFB9"/>
<path d="M47.9896 204.565H27.8735C24.5137 204.565 21.7803 201.824 21.7803 198.455C21.7803 195.753 23.5864 193.341 26.1727 192.59C26.7431 192.424 33.9445 190.08 37.2197 188.332L38.0922 188.818H38.095C38.1025 188.927 38.971 199.782 48.2075 203.412L47.9896 204.565ZM37.0118 189.775C33.4179 191.505 27.044 193.58 26.5046 193.737C24.4251 194.341 22.9723 196.281 22.9723 198.455C22.9723 201.165 25.1707 203.37 27.8731 203.37H45.42C39.0223 199.538 37.3922 192.28 37.0118 189.775Z" fill="#231F20"/>
<path d="M92.9321 203.967C92.9321 200.481 95.3169 200.481 95.3169 196.995C95.3169 193.508 92.9321 193.508 92.9321 190.022C92.9321 186.536 95.3169 186.536 95.3169 183.05C95.3169 179.564 92.9321 179.564 92.9321 176.078C92.9321 172.593 96.1361 172.192 95.2803 168.815C95.2803 168.815 86.1396 171.134 79.3886 168.744C78.6493 173.031 77.5244 174.013 77.5244 176.078C77.5244 179.564 79.9093 179.564 79.9093 183.05C79.9093 186.536 77.5244 186.536 77.5244 190.022C77.5244 193.508 79.9093 193.508 79.9093 196.995C79.9093 200.481 77.5244 200.481 77.5244 203.967H92.9321Z" fill="#00FFB9"/>
<path d="M92.9316 204.565H77.5239L76.9277 203.968C76.9277 202.039 77.6166 201.032 78.2247 200.143C78.8086 199.29 79.3126 198.553 79.3126 196.994C79.3126 195.436 78.8086 194.699 78.2247 193.846C77.617 192.957 76.9277 191.95 76.9277 190.021C76.9277 188.093 77.6166 187.086 78.2247 186.197C78.8086 185.344 79.3126 184.607 79.3126 183.049C79.3126 181.491 78.8086 180.754 78.2247 179.901C77.617 179.012 76.9277 178.005 76.9277 176.077C76.9277 174.96 77.2227 174.139 77.5963 173.101C77.9691 172.064 78.4326 170.774 78.8006 168.641L79.5868 168.179C86.0927 170.483 95.0438 168.257 95.1336 168.234L95.8578 168.667C96.3832 170.741 95.5251 171.914 94.7679 172.95C94.1304 173.822 93.5278 174.646 93.5278 176.077C93.5278 177.635 94.0318 178.372 94.6157 179.225C95.2234 180.114 95.9126 181.121 95.9126 183.049C95.9126 184.977 95.2234 185.984 94.6157 186.873C94.0318 187.726 93.5278 188.463 93.5278 190.021C93.5278 191.579 94.0318 192.316 94.6157 193.17C95.2234 194.058 95.9126 195.066 95.9126 196.994C95.9126 198.922 95.2238 199.93 94.6157 200.818C94.0318 201.672 93.5278 202.409 93.5278 203.967L92.9316 204.565ZM78.1476 203.37H92.3588C92.4844 201.822 93.0906 200.935 93.6323 200.143C94.2162 199.29 94.7202 198.553 94.7202 196.994C94.7202 195.436 94.2162 194.699 93.6323 193.846C93.0246 192.957 92.3354 191.95 92.3354 190.021C92.3354 188.093 93.0242 187.086 93.6323 186.197C94.2162 185.344 94.7202 184.607 94.7202 183.049C94.7202 181.491 94.2162 180.754 93.6323 179.901C93.0246 179.012 92.3354 178.005 92.3354 176.077C92.3354 174.255 93.1168 173.186 93.806 172.243C94.4269 171.394 94.9345 170.7 94.8081 169.536C92.6903 169.999 85.6399 171.294 79.8504 169.524C79.489 171.362 79.0653 172.539 78.718 173.506C78.371 174.471 78.1202 175.169 78.1202 176.077C78.1202 177.635 78.6241 178.372 79.208 179.225C79.8158 180.114 80.505 181.12 80.505 183.048C80.505 184.977 79.8158 185.984 79.208 186.872C78.6241 187.726 78.1202 188.463 78.1202 190.02C78.1202 191.579 78.6241 192.316 79.208 193.169C79.8158 194.058 80.505 195.065 80.505 196.994C80.505 198.922 79.8162 199.929 79.208 200.818C78.7044 201.555 78.2601 202.205 78.1476 203.37Z" fill="#231F20"/>
</g>
<g clip-path="url(#clip3_2554_97977)">
<path d="M263.239 120.182H198.834L198.231 119.579V46.7573L198.834 46.1544H263.239L263.842 46.7573V119.579L263.239 120.182ZM199.437 118.976H262.636V47.3602H199.437V118.976Z" fill="#231F20"/>
<path d="M256.309 39.8229H270.169V53.6914H256.309V39.8229Z" fill="white"/>
<path d="M270.169 54.2943H256.309L255.706 53.6914V39.8229L256.309 39.22H270.169L270.772 39.8229V53.6914L270.169 54.2943ZM256.911 53.0885H269.567V40.4258H256.911V53.0885Z" fill="#231F20"/>
<path d="M256.309 112.576H270.169V126.445H256.309V112.576Z" fill="white"/>
<path d="M270.169 127.047H256.309L255.706 126.445V112.576L256.309 111.973H270.169L270.772 112.576V126.445L270.169 127.047ZM256.911 125.842H269.567V113.179H256.911V125.842Z" fill="#231F20"/>
<path d="M191.903 39.8229H205.764V53.6914H191.903V39.8229Z" fill="white"/>
<path d="M205.764 54.2943H191.903L191.301 53.6914V39.8229L191.903 39.22H205.764L206.367 39.8229V53.6914L205.764 54.2943ZM192.506 53.0885H205.162V40.4258H192.506V53.0885Z" fill="#231F20"/>
<path d="M191.903 112.713H205.764V126.582H191.903V112.713Z" fill="white"/>
<path d="M205.764 127.185H191.903L191.301 126.582V112.714L191.903 112.111H205.764L206.367 112.714V126.582L205.764 127.185ZM192.506 125.979H205.162V113.316H192.506V125.979Z" fill="#231F20"/>
<path d="M263.239 120.182H231.659V118.976H262.636V100.421H263.841V119.579L263.239 120.182Z" fill="white"/>
</g>
<g clip-path="url(#clip4_2554_97977)">
<path d="M325.72 75.5051L323.507 71.9532L321.225 68.4821L319.054 64.9417L316.771 61.4698L314.571 57.9116L312.409 61.5126L310.161 65.0299L308.027 68.6151L305.779 72.1337L303.601 75.7341L305.02 71.7822L306.331 67.826L307.767 63.9143L309.079 59.9568L310.51 56.0108L306.344 56.5877L302.19 57.0459L298.054 57.6343L293.898 58.0926L289.723 58.6567L293.705 57.2807L297.623 55.8186L301.583 54.4808L305.503 53.0182L309.487 51.6561L306.455 48.7743L303.522 45.828L300.498 42.9771L297.565 40.0298L294.536 37.1328L298.083 39.369L301.657 41.5014L305.16 43.7457L308.735 45.8789L312.273 48.126L312.657 43.956L313.154 39.824L313.52 35.68L314.018 31.5467L314.416 27.3702L314.857 31.5345L315.396 35.6563L315.804 39.7917L316.343 43.9152L316.77 48.0794L320.282 45.7612L323.834 43.5547L327.314 41.2385L330.867 39.0312L334.393 36.7203L331.397 39.6772L328.494 42.6844L325.5 45.5971L322.597 48.6052L319.591 51.551L323.586 52.8301L327.519 54.211L331.492 55.4666L335.426 56.8478L339.424 58.1424L335.246 57.6651L331.089 57.2932L326.946 56.79L322.787 56.4178L318.613 55.9267L320.082 59.8401L321.434 63.7684L322.909 67.6503L324.261 71.5799L325.72 75.5051Z" fill="white"/>
<path d="M304.024 75.99L303.137 75.5673L304.555 71.6151L305.863 67.6703L307.304 63.744L308.611 59.8011L309.767 56.6126L306.412 57.0769L302.244 57.5367L298.124 58.1234L293.953 58.5838L289.789 59.1463L289.562 58.19L293.544 56.8139L297.45 55.3558L301.425 54.0131L305.33 52.5557L308.556 51.4526L306.115 49.1324L303.173 46.1767L300.16 43.3365L297.216 40.3781L294.196 37.4895L294.8 36.7149L298.346 38.9511L301.91 41.0773L305.427 43.3295L308.988 45.4548L311.856 47.2758L312.166 43.9099L312.665 39.7645L313.029 35.6359L313.528 31.4876L313.925 27.3231L314.908 27.3184L315.349 31.483L315.886 35.5927L316.296 39.7436L316.833 43.8513L317.178 47.2182L320.01 45.3489L323.574 43.1352L327.041 40.8274L330.608 38.6117L334.123 36.3072L334.741 37.0718L331.744 40.0286L328.85 43.0269L325.845 45.9509L322.953 48.9481L320.522 51.3304L323.737 52.3597L327.683 53.7449L331.641 54.9953L335.591 56.3816L339.577 57.6725L339.369 58.6328L335.191 58.1556L331.046 57.7847L326.888 57.28L322.744 56.9096L319.36 56.5117L320.545 59.6668L321.901 63.6078L323.37 67.4752L324.728 71.4194L326.183 75.3334L325.302 75.7663L323.088 72.2141L320.813 68.7534L318.633 65.1997L316.359 61.7408L314.577 58.8602L312.832 61.7666L310.578 65.2956L308.452 68.8679L306.195 72.3997L304.024 75.99ZM310.442 55.5217L310.974 56.1793L309.543 60.1249L308.235 64.0697L306.795 67.996L305.671 71.3859L307.611 68.3491L309.738 64.7768L311.993 61.2463L314.148 57.657L314.991 57.6518L317.191 61.2097L319.467 64.6704L321.646 68.2241L323.615 71.2168L322.443 67.8106L320.973 63.9433L319.616 60.0004L318.151 56.0998L318.671 55.436L322.846 55.9268L326.991 56.2976L331.149 56.8023L334.718 57.1218L331.33 55.9323L327.371 54.6818L323.423 53.2961L319.442 52.0213L319.246 51.1981L322.252 48.2523L325.145 45.254L328.151 42.33L330.631 39.7595L327.575 41.6578L324.108 43.9656L320.543 46.1801L317.043 48.4911L316.28 48.129L315.852 43.9647L315.315 39.855L314.905 35.7048L314.442 32.1593L314.011 35.7396L313.647 39.8682L313.148 44.0156L312.765 48.1721L312.009 48.5434L308.471 46.2964L304.908 44.1702L301.391 41.9181L298.312 40.0808L300.849 42.6292L303.861 45.4694L306.805 48.4267L309.827 51.2987L309.648 52.1241L305.663 53.4865L301.757 54.9444L297.781 56.2863L294.429 57.5376L298 57.1435L302.121 56.5568L306.29 56.0968L310.442 55.5217Z" fill="#231F20"/>
</g>
<g clip-path="url(#clip5_2554_97977)">
<path d="M339.489 136.789L339.502 136.898L339.514 137.005L339.527 137.114L339.54 137.224L339.553 137.335L339.567 137.445L339.589 137.55L339.612 137.652L339.634 137.755L339.658 137.861L339.681 137.966L339.704 138.071L339.714 138.178L339.723 138.283L339.732 138.388L339.742 138.496L339.752 138.603L339.762 138.712L339.784 138.816L339.807 138.919L339.83 139.023L339.853 139.128L339.876 139.234L339.9 139.34L339.909 139.447L339.919 139.551L339.928 139.657L339.938 139.765L339.948 139.873L339.957 139.981L339.984 140.083L340.011 140.184L340.037 140.285L340.064 140.388L340.091 140.492L340.119 140.595L340.132 140.7L340.145 140.802L340.159 140.906L340.173 141.011L340.187 141.118L340.2 141.223L340.227 141.325L340.253 141.426L340.28 141.527L340.307 141.63L340.334 141.734L340.362 141.837L340.375 141.942L340.389 142.046L340.402 142.149L340.416 142.255L340.43 142.362L340.444 142.468L340.47 142.57L340.497 142.671L340.524 142.772L340.551 142.876L340.578 142.98L340.605 143.084L340.613 143.189L340.622 143.292L340.63 143.397L340.638 143.503L340.647 143.609L340.655 143.716L340.676 143.819L340.698 143.921L340.719 144.023L340.741 144.127L340.763 144.232L340.784 144.336L340.793 144.441L340.801 144.545L340.809 144.649L340.817 144.755L340.826 144.862L340.834 144.969L340.856 145.072L340.877 145.174L340.898 145.277L340.92 145.381L340.942 145.486L340.964 145.591L340.972 145.697L340.98 145.8L340.988 145.905L340.997 146.011L341.005 146.119L341.014 146.226L341.041 146.327L341.067 146.428L341.094 146.529L341.121 146.632L341.148 146.736L341.175 146.839L341.189 146.944L341.202 147.047L341.216 147.15L341.229 147.256L341.243 147.362L341.257 147.468L341.284 147.57L341.31 147.671L341.337 147.772L341.364 147.875L341.391 147.979L341.418 148.082L341.432 148.187L341.445 148.29L341.459 148.394L341.472 148.5L341.486 148.607L341.5 148.713L341.527 148.815L341.553 148.916L341.58 149.018L341.607 149.121L341.634 149.225L341.662 149.329L341.671 149.435L341.679 149.539L341.687 149.644L341.696 149.752L341.705 149.859L341.714 149.966L341.736 150.07L341.757 150.172L341.779 150.275L341.801 150.38L341.823 150.485L341.846 150.591L341.854 150.697L341.863 150.801L341.871 150.906L341.88 151.014L341.889 151.121L341.898 151.228L341.92 151.333L341.941 151.435L341.963 151.539L341.985 151.644L342.008 151.75L342.03 151.856L342.039 151.963L342.049 152.07L342.059 152.177L342.068 152.287L342.078 152.396L342.088 152.506L342.195 152.515L342.301 152.525L342.408 152.534L342.517 152.544L342.626 152.554L342.735 152.563L342.839 152.585L342.94 152.607L343.043 152.628L343.148 152.651L343.253 152.673L343.358 152.695L343.464 152.704L343.568 152.712L343.673 152.721L343.78 152.73L343.887 152.739L343.994 152.747L344.099 152.769L344.201 152.791L344.304 152.813L344.409 152.835L344.515 152.857L344.62 152.879L344.726 152.888L344.831 152.897L344.936 152.905L345.043 152.914L345.151 152.923L345.258 152.932L345.36 152.958L345.46 152.985L345.561 153.011L345.665 153.039L345.768 153.066L345.872 153.093L345.976 153.107L346.078 153.12L346.182 153.134L346.287 153.147L346.393 153.161L346.499 153.175L346.601 153.202L346.701 153.228L346.802 153.255L346.905 153.282L347.009 153.309L347.112 153.336L347.217 153.35L347.32 153.363L347.424 153.377L347.529 153.391L347.636 153.405L347.742 153.419L347.844 153.445L347.945 153.472L348.046 153.498L348.149 153.526L348.253 153.553L348.357 153.58L348.462 153.589L348.565 153.597L348.669 153.605L348.775 153.613L348.882 153.622L348.989 153.63L349.091 153.652L349.193 153.673L349.295 153.694L349.399 153.716L349.503 153.738L349.608 153.76L349.713 153.768L349.816 153.776L349.92 153.784L350.026 153.793L350.133 153.801L350.24 153.81L350.343 153.831L350.444 153.852L350.547 153.874L350.652 153.895L350.756 153.917L350.861 153.939L350.966 153.948L351.07 153.956L351.174 153.964L351.281 153.973L351.388 153.981L351.495 153.99L351.596 154.016L351.697 154.043L351.798 154.069L351.901 154.097L352.004 154.124L352.108 154.151L352.212 154.164L352.315 154.178L352.418 154.191L352.524 154.205L352.63 154.219L352.735 154.233L352.838 154.26L352.938 154.286L353.039 154.313L353.142 154.34L353.246 154.367L353.349 154.394L353.454 154.408L353.557 154.421L353.661 154.435L353.767 154.449L353.873 154.463L353.979 154.476L354.081 154.503L354.182 154.53L354.283 154.556L354.387 154.584L354.49 154.611L354.594 154.638L354.7 154.648L354.805 154.657L354.91 154.667L355.018 154.676L355.126 154.686L355.234 154.696L355.337 154.719L355.44 154.742L355.543 154.764L355.648 154.787L355.754 154.811L355.859 154.834L355.965 154.843L356.07 154.853L356.176 154.862L356.283 154.872L356.391 154.882L356.499 154.892L356.603 154.914L356.706 154.937L356.81 154.96L356.915 154.983L357.021 155.006L357.127 155.029L357.236 155.042L357.344 155.055L357.452 155.068L357.563 155.081L357.674 155.094L357.785 155.107L357.676 155.12L357.568 155.133L357.46 155.146L357.35 155.159L357.24 155.172L357.129 155.185L357.025 155.208L356.923 155.23L356.82 155.253L356.715 155.276L356.609 155.299L356.504 155.323L356.398 155.332L356.293 155.342L356.188 155.351L356.08 155.361L355.972 155.371L355.865 155.381L355.76 155.403L355.658 155.426L355.554 155.449L355.449 155.472L355.343 155.495L355.237 155.519L355.131 155.528L355.026 155.538L354.92 155.547L354.812 155.557L354.704 155.567L354.596 155.577L354.494 155.603L354.394 155.63L354.293 155.656L354.19 155.684L354.087 155.711L353.983 155.738L353.879 155.751L353.776 155.765L353.673 155.778L353.568 155.792L353.462 155.806L353.356 155.82L353.254 155.846L353.154 155.873L353.053 155.9L352.949 155.927L352.846 155.954L352.743 155.981L352.638 155.995L352.535 156.008L352.431 156.022L352.325 156.036L352.219 156.049L352.113 156.063L352.011 156.09L351.91 156.117L351.809 156.143L351.705 156.171L351.602 156.198L351.498 156.225L351.393 156.233L351.289 156.241L351.185 156.25L351.079 156.258L350.973 156.267L350.866 156.275L350.763 156.296L350.662 156.318L350.56 156.339L350.456 156.361L350.351 156.383L350.247 156.405L350.142 156.413L350.038 156.421L349.935 156.429L349.828 156.437L349.722 156.446L349.615 156.454L349.512 156.476L349.41 156.497L349.308 156.519L349.203 156.54L349.098 156.562L348.993 156.584L348.888 156.592L348.785 156.601L348.68 156.609L348.574 156.617L348.467 156.626L348.36 156.634L348.258 156.661L348.158 156.688L348.057 156.714L347.953 156.741L347.85 156.768L347.747 156.796L347.643 156.809L347.54 156.822L347.436 156.836L347.331 156.85L347.225 156.864L347.119 156.877L347.017 156.904L346.917 156.931L346.816 156.957L346.713 156.984L346.609 157.012L346.505 157.039L346.401 157.053L346.298 157.066L346.194 157.08L346.088 157.093L345.982 157.107L345.875 157.121L345.773 157.148L345.673 157.175L345.571 157.201L345.468 157.228L345.364 157.256L345.26 157.283L345.155 157.292L345.05 157.3L344.945 157.309L344.839 157.318L344.731 157.326L344.624 157.335L344.52 157.357L344.418 157.379L344.315 157.4L344.211 157.423L344.105 157.445L344 157.467L343.894 157.476L343.79 157.484L343.685 157.493L343.578 157.501L343.47 157.511L343.363 157.519L343.259 157.541L343.156 157.563L343.053 157.585L342.948 157.607L342.842 157.629L342.737 157.651L342.629 157.661L342.523 157.67L342.416 157.68L342.307 157.69L342.197 157.699L342.088 157.709L342.078 157.817L342.069 157.923L342.059 158.03L342.05 158.139L342.04 158.248L342.03 158.357L342.008 158.461L341.987 158.563L341.965 158.666L341.943 158.771L341.921 158.876L341.898 158.981L341.89 159.087L341.881 159.192L341.873 159.297L341.864 159.404L341.855 159.511L341.846 159.619L341.824 159.723L341.803 159.825L341.781 159.929L341.759 160.034L341.737 160.14L341.714 160.245L341.706 160.351L341.697 160.456L341.689 160.561L341.68 160.668L341.671 160.776L341.662 160.884L341.635 160.986L341.609 161.086L341.582 161.187L341.555 161.291L341.528 161.394L341.501 161.498L341.487 161.602L341.474 161.705L341.461 161.808L341.447 161.914L341.433 162.02L341.419 162.126L341.393 162.228L341.366 162.329L341.34 162.43L341.312 162.533L341.285 162.636L341.258 162.74L341.245 162.845L341.231 162.948L341.217 163.052L341.204 163.158L341.19 163.265L341.176 163.371L341.149 163.473L341.123 163.574L341.096 163.675L341.069 163.779L341.042 163.882L341.014 163.986L341.006 164.091L340.998 164.195L340.99 164.299L340.981 164.405L340.973 164.512L340.965 164.619L340.943 164.722L340.922 164.823L340.901 164.926L340.879 165.03L340.857 165.134L340.835 165.239L340.827 165.344L340.819 165.447L340.811 165.552L340.802 165.658L340.794 165.765L340.786 165.872L340.764 165.975L340.743 166.077L340.721 166.179L340.699 166.284L340.678 166.389L340.656 166.494L340.647 166.599L340.639 166.703L340.631 166.807L340.623 166.914L340.614 167.021L340.606 167.128L340.579 167.23L340.553 167.331L340.526 167.432L340.499 167.535L340.472 167.639L340.445 167.742L340.431 167.847L340.418 167.949L340.404 168.053L340.391 168.159L340.376 168.265L340.363 168.371L340.336 168.473L340.309 168.573L340.283 168.674L340.256 168.778L340.229 168.881L340.201 168.985L340.188 169.09L340.174 169.193L340.161 169.297L340.147 169.403L340.133 169.509L340.119 169.616L340.093 169.718L340.066 169.819L340.039 169.92L340.012 170.024L339.985 170.128L339.958 170.232L339.948 170.338L339.939 170.442L339.929 170.548L339.919 170.656L339.91 170.764L339.9 170.872L339.877 170.976L339.855 171.078L339.832 171.181L339.809 171.287L339.786 171.392L339.762 171.498L339.753 171.604L339.744 171.709L339.734 171.815L339.724 171.922L339.715 172.031L339.705 172.138L339.682 172.243L339.659 172.346L339.637 172.45L339.614 172.555L339.59 172.661L339.567 172.768L339.554 172.877L339.541 172.985L339.529 173.093L339.515 173.204L339.502 173.315L339.489 173.426L339.476 173.317L339.464 173.21L339.451 173.101L339.438 172.991L339.425 172.88L339.412 172.77L339.389 172.666L339.366 172.563L339.344 172.46L339.32 172.355L339.297 172.249L339.274 172.144L339.264 172.037L339.255 171.933L339.246 171.827L339.236 171.719L339.226 171.612L339.216 171.504L339.194 171.399L339.171 171.296L339.148 171.193L339.125 171.087L339.102 170.981L339.078 170.875L339.069 170.769L339.06 170.664L339.05 170.558L339.04 170.45L339.03 170.342L339.02 170.233L338.994 170.132L338.968 170.031L338.941 169.93L338.914 169.827L338.887 169.723L338.86 169.62L338.846 169.516L338.833 169.413L338.819 169.309L338.806 169.204L338.791 169.098L338.778 168.992L338.751 168.89L338.724 168.789L338.698 168.688L338.671 168.585L338.644 168.481L338.616 168.378L338.603 168.273L338.589 168.17L338.576 168.066L338.562 167.96L338.548 167.853L338.535 167.747L338.508 167.645L338.481 167.544L338.455 167.443L338.427 167.339L338.4 167.235L338.373 167.132L338.365 167.027L338.356 166.923L338.348 166.818L338.34 166.712L338.332 166.606L338.323 166.499L338.302 166.396L338.28 166.294L338.259 166.192L338.237 166.088L338.215 165.983L338.194 165.879L338.185 165.774L338.177 165.67L338.169 165.566L338.161 165.46L338.152 165.353L338.144 165.246L338.123 165.143L338.101 165.041L338.08 164.939L338.058 164.834L338.036 164.729L338.014 164.624L338.006 164.519L337.998 164.415L337.99 164.31L337.981 164.203L337.973 164.096L337.964 163.99L337.937 163.887L337.911 163.787L337.885 163.686L337.858 163.582L337.83 163.479L337.803 163.375L337.789 163.271L337.776 163.168L337.762 163.065L337.749 162.959L337.735 162.853L337.721 162.747L337.695 162.645L337.668 162.544L337.641 162.443L337.614 162.34L337.587 162.236L337.56 162.133L337.546 162.028L337.533 161.925L337.519 161.821L337.506 161.715L337.492 161.609L337.478 161.502L337.451 161.4L337.424 161.299L337.398 161.197L337.371 161.094L337.343 160.99L337.316 160.886L337.308 160.78L337.299 160.676L337.291 160.571L337.282 160.464L337.273 160.356L337.264 160.249L337.242 160.145L337.221 160.043L337.199 159.94L337.177 159.835L337.155 159.729L337.132 159.624L337.124 159.518L337.115 159.414L337.107 159.309L337.098 159.201L337.089 159.094L337.08 158.987L337.058 158.882L337.037 158.78L337.015 158.676L336.993 158.571L336.971 158.465L336.948 158.36L336.939 158.251L336.929 158.145L336.92 158.038L336.91 157.929L336.9 157.819L336.89 157.709L336.783 157.7L336.677 157.69L336.571 157.681L336.462 157.671L336.352 157.661L336.243 157.652L336.14 157.63L336.038 157.608L335.935 157.587L335.83 157.564L335.725 157.542L335.62 157.52L335.514 157.511L335.41 157.503L335.305 157.494L335.198 157.485L335.091 157.477L334.984 157.468L334.88 157.446L334.777 157.424L334.674 157.402L334.569 157.38L334.463 157.358L334.358 157.336L334.252 157.327L334.147 157.318L334.042 157.31L333.935 157.301L333.827 157.292L333.72 157.284L333.618 157.256L333.518 157.23L333.417 157.204L333.314 157.176L333.21 157.149L333.106 157.122L333.002 157.108L332.9 157.095L332.796 157.082L332.691 157.068L332.585 157.054L332.479 157.04L332.377 157.013L332.277 156.987L332.176 156.96L332.073 156.933L331.969 156.906L331.866 156.879L331.761 156.865L331.658 156.851L331.555 156.838L331.449 156.824L331.342 156.81L331.236 156.797L331.134 156.77L331.034 156.743L330.932 156.717L330.829 156.689L330.725 156.662L330.621 156.635L330.516 156.626L330.413 156.618L330.309 156.61L330.203 156.602L330.096 156.594L329.99 156.585L329.887 156.563L329.785 156.542L329.683 156.521L329.579 156.499L329.475 156.477L329.371 156.456L329.266 156.447L329.162 156.439L329.058 156.431L328.952 156.423L328.845 156.414L328.739 156.406L328.635 156.384L328.533 156.363L328.431 156.341L328.327 156.319L328.222 156.298L328.117 156.276L328.012 156.267L327.908 156.259L327.804 156.251L327.697 156.243L327.59 156.234L327.483 156.226L327.381 156.199L327.281 156.172L327.18 156.146L327.077 156.119L326.973 156.091L326.87 156.064L326.766 156.051L326.663 156.037L326.56 156.024L326.454 156.01L326.348 155.996L326.242 155.982L326.141 155.956L326.04 155.929L325.939 155.902L325.836 155.875L325.732 155.848L325.629 155.821L325.524 155.807L325.421 155.794L325.317 155.78L325.211 155.766L325.105 155.753L324.999 155.738L324.897 155.712L324.796 155.685L324.695 155.659L324.591 155.631L324.488 155.604L324.384 155.577L324.278 155.567L324.173 155.558L324.068 155.548L323.96 155.539L323.852 155.529L323.745 155.519L323.641 155.496L323.538 155.474L323.435 155.451L323.33 155.428L323.224 155.405L323.119 155.381L323.013 155.372L322.908 155.363L322.803 155.353L322.695 155.343L322.587 155.333L322.479 155.324L322.375 155.301L322.272 155.278L322.169 155.255L322.063 155.232L321.957 155.209L321.851 155.186L321.742 155.173L321.634 155.16L321.526 155.147L321.415 155.134L321.304 155.121L321.193 155.108L321.302 155.095L321.409 155.082L321.518 155.069L321.628 155.056L321.738 155.043L321.849 155.03L321.953 155.007L322.055 154.985L322.158 154.962L322.263 154.939L322.369 154.916L322.474 154.892L322.58 154.883L322.685 154.873L322.791 154.864L322.898 154.854L323.005 154.844L323.114 154.834L323.218 154.812L323.32 154.789L323.424 154.766L323.529 154.743L323.635 154.72L323.741 154.696L323.848 154.687L323.952 154.678L324.058 154.668L324.166 154.658L324.274 154.648L324.382 154.638L324.484 154.612L324.584 154.585L324.685 154.559L324.788 154.532L324.892 154.504L324.995 154.477L325.099 154.464L325.202 154.45L325.305 154.437L325.41 154.423L325.517 154.409L325.622 154.395L325.724 154.369L325.824 154.342L325.925 154.316L326.029 154.288L326.132 154.261L326.235 154.234L326.34 154.22L326.443 154.207L326.547 154.193L326.653 154.179L326.759 154.166L326.865 154.152L326.967 154.125L327.068 154.099L327.169 154.072L327.273 154.044L327.376 154.017L327.48 153.99L327.585 153.982L327.688 153.973L327.793 153.965L327.899 153.957L328.005 153.949L328.112 153.94L328.215 153.919L328.316 153.897L328.418 153.876L328.522 153.854L328.627 153.832L328.731 153.811L328.836 153.802L328.939 153.794L329.044 153.786L329.15 153.777L329.256 153.769L329.363 153.761L329.466 153.739L329.568 153.718L329.671 153.697L329.775 153.675L329.88 153.653L329.985 153.631L330.09 153.623L330.193 153.614L330.298 153.606L330.404 153.598L330.511 153.589L330.618 153.581L330.72 153.554L330.82 153.528L330.922 153.501L331.025 153.474L331.128 153.447L331.231 153.42L331.336 153.406L331.438 153.392L331.542 153.379L331.647 153.365L331.753 153.351L331.859 153.338L331.961 153.311L332.061 153.284L332.162 153.258L332.266 153.231L332.369 153.204L332.472 153.176L332.577 153.162L332.68 153.149L332.784 153.135L332.89 153.122L332.996 153.108L333.103 153.094L333.205 153.067L333.305 153.04L333.407 153.014L333.51 152.987L333.614 152.959L333.718 152.932L333.823 152.924L333.928 152.915L334.032 152.906L334.14 152.898L334.247 152.889L334.354 152.88L334.458 152.858L334.56 152.837L334.663 152.815L334.768 152.793L334.873 152.77L334.978 152.748L335.084 152.739L335.188 152.731L335.293 152.722L335.4 152.713L335.507 152.705L335.615 152.696L335.719 152.674L335.821 152.652L335.924 152.63L336.03 152.608L336.135 152.586L336.241 152.564L336.349 152.554L336.455 152.545L336.562 152.535L336.672 152.525L336.781 152.515L336.89 152.506L336.9 152.398L336.909 152.292L336.919 152.185L336.928 152.076L336.938 151.967L336.948 151.858L336.97 151.754L336.991 151.652L337.013 151.549L337.035 151.444L337.058 151.339L337.08 151.234L337.088 151.128L337.097 151.023L337.105 150.918L337.114 150.811L337.123 150.704L337.132 150.596L337.154 150.493L337.175 150.39L337.197 150.287L337.219 150.181L337.242 150.075L337.264 149.97L337.273 149.864L337.281 149.759L337.289 149.654L337.298 149.547L337.307 149.439L337.316 149.331L337.343 149.229L337.369 149.129L337.396 149.027L337.423 148.924L337.45 148.821L337.477 148.717L337.491 148.613L337.504 148.51L337.518 148.406L337.531 148.301L337.545 148.195L337.559 148.089L337.585 147.987L337.612 147.887L337.639 147.785L337.666 147.682L337.693 147.578L337.72 147.475L337.734 147.37L337.747 147.267L337.76 147.163L337.775 147.057L337.788 146.951L337.802 146.845L337.829 146.742L337.856 146.642L337.882 146.54L337.909 146.436L337.936 146.333L337.964 146.229L337.972 146.124L337.98 146.02L337.988 145.916L337.997 145.81L338.005 145.703L338.013 145.596L338.035 145.493L338.056 145.392L338.077 145.29L338.099 145.185L338.121 145.081L338.143 144.976L338.151 144.871L338.159 144.768L338.167 144.663L338.176 144.557L338.184 144.45L338.193 144.344L338.214 144.24L338.235 144.138L338.257 144.036L338.278 143.931L338.3 143.826L338.322 143.721L338.331 143.616L338.339 143.512L338.347 143.408L338.356 143.301L338.364 143.194L338.372 143.087L338.399 142.985L338.426 142.885L338.452 142.783L338.479 142.68L338.506 142.576L338.533 142.473L338.547 142.369L338.56 142.266L338.574 142.162L338.588 142.057L338.602 141.95L338.615 141.844L338.642 141.743L338.668 141.642L338.695 141.541L338.722 141.437L338.75 141.334L338.777 141.23L338.79 141.125L338.804 141.022L338.817 140.918L338.831 140.812L338.845 140.706L338.859 140.599L338.885 140.497L338.912 140.396L338.939 140.295L338.966 140.191L338.993 140.087L339.02 139.983L339.03 139.877L339.039 139.773L339.049 139.667L339.058 139.559L339.068 139.451L339.078 139.344L339.101 139.239L339.123 139.137L339.146 139.034L339.169 138.928L339.192 138.823L339.215 138.717L339.225 138.61L339.235 138.506L339.244 138.4L339.254 138.293L339.264 138.185L339.273 138.077L339.296 137.972L339.319 137.869L339.342 137.766L339.365 137.66L339.388 137.554L339.411 137.447L339.424 137.338L339.437 137.231L339.45 137.122L339.463 137.011L339.475 136.9L339.489 136.789Z" fill="white"/>
<path d="M338.906 173.496L336.349 158.251L321.124 155.692L321.124 154.524L336.349 151.964L338.905 136.72L340.072 136.719L342.629 151.964L357.853 154.523L357.854 155.691L342.629 158.251L340.073 173.495L338.906 173.496ZM339.437 169.507L339.489 169.704L341.503 157.657L342.035 157.124L354.068 155.108L342.035 153.091L341.503 152.558L339.489 140.511L337.475 152.558L336.942 153.091L324.91 155.107L336.942 157.124L337.475 157.657L339.437 169.507Z" fill="#231F20"/>
</g>
<g clip-path="url(#clip6_2554_97977)">
<path d="M188.185 163.9L188.183 163.913L188.221 163.904L188.183 163.913L188.221 163.904L188.183 163.913L189.321 167.073L191.071 169.939L193.472 172.286L196.296 174.103L199.48 175.168L199.471 175.206L199.48 175.168L199.471 175.206L199.48 175.168L199.467 175.205L199.48 175.206L199.471 175.168L199.48 175.206L199.471 175.168L199.48 175.206L196.296 176.271L193.472 178.088L191.071 180.436L189.321 183.302L188.183 186.462L188.221 186.47L188.183 186.462L188.221 186.47L188.183 186.462L188.22 186.475L188.221 186.462L188.183 186.47L188.221 186.462L188.183 186.47L188.221 186.462L187.083 183.302L185.333 180.435L182.932 178.088L180.109 176.271L176.925 175.206L176.934 175.168L176.925 175.206L176.934 175.168L176.925 175.206L176.938 175.17L176.925 175.168L176.934 175.206L176.925 175.168L176.934 175.206L176.925 175.168L180.109 174.103L182.932 172.286L185.334 169.939L187.083 167.073L188.221 163.913L188.183 163.904L188.221 163.913L188.183 163.904L188.211 163.891L188.185 163.9Z" fill="white"/>
<path d="M188.21 187.043C188.19 187.043 188.17 187.042 188.15 187.04C188.004 187.031 187.868 186.968 187.768 186.862C187.668 186.756 187.613 186.615 187.613 186.47V186.455L186.567 183.549L184.884 180.793L182.575 178.536L179.86 176.789L176.75 175.749C176.665 175.721 176.59 175.675 176.529 175.616C176.468 175.557 176.529 175.616 176.529 175.616L176.518 175.606L176.518 175.605C176.413 175.499 176.354 175.356 176.354 175.206L176.355 175.187L176.354 175.168C176.355 175.056 176.387 174.947 176.448 174.854C176.457 174.841 176.449 174.854 176.449 174.854C176.52 174.745 176.626 174.664 176.75 174.624L179.86 173.584L182.575 171.837L184.884 169.58L186.567 166.824L187.613 163.919V163.903C187.613 163.847 187.621 163.79 187.638 163.736C187.669 163.634 187.728 163.543 187.809 163.473L187.816 163.467C187.87 163.42 187.933 163.382 188.001 163.359L188.027 163.35C188.14 163.312 188.261 163.31 188.374 163.344C188.488 163.378 188.588 163.446 188.661 163.54C188.746 163.642 188.793 163.771 188.792 163.904V163.919L189.838 166.825L191.521 169.581L193.83 171.838L196.545 173.585L199.656 174.625C199.74 174.652 199.814 174.697 199.875 174.756L199.894 174.775L199.895 174.776L199.895 174.776C199.924 174.806 199.949 174.839 199.97 174.875L199.97 174.876C200.022 174.964 200.05 175.064 200.05 175.166L200.05 175.186L200.05 175.205C200.05 175.3 200.026 175.392 199.983 175.473C199.939 175.554 199.983 175.473 199.982 175.474C199.955 175.524 199.921 175.57 199.881 175.61C199.817 175.673 199.74 175.721 199.654 175.748L196.543 176.788L193.829 178.535L191.52 180.792L189.837 183.548L188.791 186.454V186.469C188.791 186.603 188.744 186.732 188.659 186.835C188.573 186.937 188.454 187.007 188.323 187.03C188.286 187.039 188.248 187.043 188.21 187.043ZM178.666 175.187L180.29 175.73C180.334 175.745 180.377 175.766 180.417 175.791L183.241 177.608C183.273 177.629 183.303 177.653 183.331 177.68L185.732 180.027C185.766 180.06 185.795 180.098 185.82 180.138L187.57 183.004C187.591 183.037 187.607 183.072 187.62 183.108L188.203 184.726L188.785 183.109C188.798 183.072 188.815 183.038 188.835 183.005L190.585 180.138C190.61 180.098 190.639 180.061 190.673 180.028L193.074 177.681C193.102 177.654 193.132 177.63 193.164 177.609L195.988 175.792C196.028 175.766 196.071 175.745 196.116 175.731L197.739 175.188L196.116 174.645C196.071 174.63 196.028 174.609 195.988 174.584L193.165 172.767C193.132 172.746 193.102 172.722 193.075 172.695L190.674 170.348C190.64 170.315 190.61 170.277 190.585 170.237L188.835 167.371C188.815 167.338 188.798 167.303 188.785 167.267L188.203 165.65L187.621 167.267C187.608 167.303 187.591 167.338 187.571 167.371L185.821 170.237C185.796 170.277 185.766 170.315 185.732 170.348L183.331 172.695C183.304 172.722 183.274 172.746 183.241 172.767L180.418 174.584C180.378 174.609 180.335 174.63 180.29 174.645L178.666 175.187Z" fill="#231F20"/>
</g>
<g clip-path="url(#clip7_2554_97977)">
<path d="M24.1277 103.15C29.7099 96.9513 35.298 90.7583 40.892 84.5707C41.0132 84.4222 45.6159 79.3988 45.4367 79.3841C45.7574 78.5919 45.5601 77.5963 44.9466 76.9966L44.9412 77.0026L44.9466 76.9966L44.9412 77.0026L44.9466 76.9966L44.9412 77.0026C44.1228 76.2608 42.806 76.3313 42.0507 77.1252C38.3266 81.2732 33.2073 86.916 29.484 91.0638C26.6836 94.1556 23.8889 97.2528 21.0999 100.355C20.3688 101.169 20.4444 102.519 21.2317 103.278L21.2371 103.272L21.2318 103.278L21.2372 103.272L21.2318 103.278L21.2372 103.272C22.0503 104.019 23.3757 103.94 24.1277 103.15Z" fill="white"/>
<path d="M20.0378 102.279C20.1419 102.829 20.4124 103.334 20.8121 103.723L20.8326 103.722L20.8282 103.727C21.8682 104.683 23.5806 104.614 24.5676 103.578L24.5792 103.565C30.1613 97.3671 35.7491 91.1743 41.3428 84.9868C41.3971 84.9234 41.606 84.6937 41.9128 84.3548C45.2443 80.6785 45.9824 79.8642 46.0587 79.4615C46.3914 78.461 46.1195 77.2869 45.3695 76.5535L45.3374 76.5544L45.3469 76.5437C44.2838 75.5802 42.6078 75.6485 41.6105 76.6962C39.7362 78.7838 37.5249 81.2318 35.3141 83.6801C33.2168 85.9998 31.1227 88.3226 29.032 90.6483C26.2316 93.7402 23.4369 96.8373 20.6479 99.9397C20.077 100.576 19.8781 101.46 20.0378 102.279ZM21.6354 102.817C21.093 102.277 21.0522 101.326 21.5518 100.77C24.3402 97.6686 27.1342 94.572 29.9337 91.4806C31.7964 89.4056 34.006 86.9592 36.2155 84.5129C38.3145 82.1914 40.4101 79.8668 42.5024 77.5391C43.0294 76.9859 43.9655 76.9434 44.535 77.4596L44.5453 77.4593C44.9608 77.8842 45.0987 78.5896 44.8727 79.148L44.8742 79.1514C44.4924 79.6809 41.8868 82.5565 41.0128 83.5206C40.6733 83.8956 40.4479 84.1449 40.4218 84.1768C34.8361 90.3547 29.2563 96.5381 23.6825 102.727C23.1483 103.282 22.1986 103.324 21.646 102.817L21.6354 102.817ZM45.1157 79.5476L44.896 79.6601C44.7955 79.4566 44.8316 79.264 44.8779 79.1574L45.1157 79.5476Z" fill="#231F20"/>
</g>
<g clip-path="url(#clip8_2554_97977)">
<path d="M18.2669 147.924L17.0828 147.581L15.9233 148.041L14.7582 148.485L14.0696 149.553L13.3699 150.614L13.415 151.885L13.447 153.157L14.2099 154.144L14.9603 155.142L16.1491 155.468L17.3332 155.81L18.4931 155.351L19.6578 154.907L20.3467 153.838L21.0466 152.777L21.0014 151.506L20.9693 150.235L20.2061 149.247L19.4557 148.25L18.2669 147.924Z" fill="white"/>
<path d="M21.5604 152.922L19.9861 155.336L17.3505 156.361L16.0046 155.971L14.66 155.603L12.9442 153.352L12.8566 150.469L14.431 148.055L17.0662 147.03L18.409 147.419L19.7567 147.788L21.4725 150.039L21.5604 152.922ZM19.3305 154.477L20.5333 152.632L20.4664 150.43L19.1553 148.711L18.1223 148.427L17.0997 148.132L15.0862 148.915L13.8837 150.759L13.9506 152.961L15.2617 154.68L16.288 154.962L17.317 155.259L19.3305 154.477Z" fill="#231F20"/>
</g>
<g clip-path="url(#clip9_2554_97977)">
<path d="M358.011 179.072C357.84 176.011 353.532 176.012 353.361 179.072C353.533 182.134 357.84 182.133 358.011 179.072Z" fill="white"/>
<path d="M355.686 181.935C354.37 181.935 352.904 181.049 352.795 179.104V179.04C352.904 177.095 354.37 176.209 355.686 176.209C357.002 176.209 358.468 177.095 358.577 179.04V179.104C358.468 181.049 357.002 181.935 355.686 181.935ZM353.929 179.072C354.01 180.266 354.867 180.801 355.686 180.801C356.505 180.801 357.362 180.266 357.443 179.072C357.362 177.879 356.505 177.344 355.686 177.344C354.867 177.344 354.01 177.879 353.929 179.072Z" fill="#231F20"/>
</g>
<g clip-path="url(#clip10_2554_97977)">
<path d="M362.697 85.442L362.707 83.9856L361.812 82.8133L360.932 81.6298L359.494 81.1877L358.062 80.7304L356.629 81.1877L355.191 81.6302L354.311 82.8133L353.416 83.9856L353.426 85.442L353.416 86.8985L354.311 88.0712L355.191 89.2543L356.629 89.6968L358.062 90.1541L359.495 89.6968L360.932 89.2543L361.812 88.0708L362.707 86.8985L362.697 85.442Z" fill="white"/>
<path d="M358.062 90.7845L354.808 89.7646L352.795 87.0936L352.807 85.4381L352.795 83.7909L354.807 81.1203L358.062 80.1L361.317 81.1199L363.329 83.7905L363.318 85.4421L363.329 87.0932L361.317 89.7638L358.062 90.7845ZM355.576 88.7443L358.062 89.5236L360.548 88.7443L362.086 86.7038L362.077 85.4381L362.086 84.1804L360.548 82.1398L358.062 81.3609L355.576 82.1402L354.038 84.1808L354.048 85.4381L354.038 86.7038L355.576 88.7443Z" fill="#231F20"/>
</g>
<g clip-path="url(#clip11_2554_97977)">
<path d="M204.032 161.862C203.73 161.86 203.603 161.539 203.374 161.403C203.17 161.182 202.904 160.988 202.727 160.74C202.561 160.523 202.577 160.238 202.573 159.988C202.575 159.694 202.479 159.335 202.713 159.101C206.654 155.117 211.908 149.546 215.847 145.563C217.996 143.289 222.381 138.75 224.582 136.524C224.876 136.257 225.333 136.316 225.698 136.334C226.152 136.176 226.415 136.639 226.72 136.879C226.92 137.13 227.274 137.312 227.355 137.65C227.444 137.954 227.387 138.269 227.411 138.574C227.855 138.818 222.928 143.363 222.866 143.565C219.022 147.636 213.634 153.078 209.792 157.148L205.394 161.645C205.316 161.725 205.216 161.78 205.106 161.803C204.753 161.886 204.389 161.827 204.032 161.862Z" fill="white"/>
<path d="M203.949 162.401C203.569 162.367 203.339 162.122 203.197 161.972C203.163 161.935 203.112 161.88 203.091 161.867L202.97 161.768C202.902 161.695 202.825 161.625 202.749 161.554C202.595 161.412 202.421 161.251 202.279 161.051C202.029 160.727 202.027 160.342 202.025 160.062L202.024 159.993C202.025 159.929 202.021 159.872 202.017 159.815C201.998 159.519 201.969 159.072 202.323 158.718C204.293 156.727 206.633 154.294 208.897 151.942C211.153 149.597 213.486 147.173 215.455 145.182C217.619 142.891 222.032 138.325 224.19 136.143C224.646 135.727 225.23 135.762 225.618 135.784L225.635 135.786C226.241 135.642 226.658 136.061 226.889 136.292C226.946 136.349 227.002 136.407 227.061 136.453L227.15 136.541C227.19 136.592 227.258 136.653 227.329 136.717C227.526 136.895 227.796 137.138 227.888 137.525C227.962 137.771 227.958 138.026 227.954 138.251C227.953 138.309 227.952 138.366 227.953 138.423C227.966 138.46 227.976 138.5 227.982 138.54C228.047 138.999 227.771 139.453 224.427 142.748C223.977 143.191 223.514 143.648 223.362 143.815L223.353 143.843L223.266 143.935C221.345 145.969 219.001 148.385 216.735 150.72C214.463 153.061 212.115 155.482 210.193 157.517L205.788 162.023C205.635 162.18 205.438 162.288 205.223 162.334C204.958 162.396 204.692 162.394 204.458 162.393C204.335 162.392 204.21 162.39 204.088 162.402L204.029 162.405C204.002 162.405 203.976 162.403 203.949 162.401ZM203.73 160.986C203.843 161.066 203.929 161.157 204 161.233C204.023 161.258 204.054 161.291 204.078 161.314C204.212 161.306 204.339 161.306 204.463 161.307C204.652 161.309 204.83 161.31 204.978 161.275L209.397 156.77C211.318 154.736 213.669 152.312 215.943 149.969C218.188 147.655 220.51 145.262 222.417 143.243C222.521 143.098 222.793 142.825 223.652 141.979C224.593 141.051 226.497 139.176 226.863 138.595C226.856 138.475 226.854 138.354 226.857 138.233C226.86 138.063 226.862 137.916 226.828 137.8C226.806 137.714 226.687 137.606 226.591 137.52C226.508 137.445 226.416 137.361 226.33 137.263C226.254 137.196 226.18 137.127 226.109 137.054C226.036 136.981 225.914 136.859 225.863 136.841L225.761 136.877L225.555 136.869C225.34 136.856 225.047 136.839 224.953 136.924C222.821 139.082 218.417 143.639 216.248 145.934C214.276 147.928 211.945 150.35 209.692 152.692C207.426 155.047 205.082 157.482 203.105 159.481C203.096 159.511 203.106 159.659 203.111 159.748C203.117 159.832 203.122 159.914 203.121 159.992L203.122 160.058C203.123 160.185 203.124 160.36 203.163 160.412C203.252 160.536 203.371 160.646 203.496 160.762C203.577 160.836 203.656 160.91 203.73 160.986Z" fill="#231F20"/>
</g>
<g clip-path="url(#clip12_2554_97977)">
<path d="M71.114 31.9771C70.9424 28.916 66.6347 28.9168 66.4639 31.9771C66.6354 35.0387 70.9428 35.0375 71.114 31.9771Z" fill="white"/>
<path d="M68.7887 34.8401C67.4727 34.8401 66.0063 33.9544 65.8975 32.0089V31.9454C66.0063 30.0003 67.4723 29.1142 68.7883 29.1142C70.1042 29.1142 71.5706 29.9999 71.6795 31.9454V32.0089C71.571 33.954 70.105 34.8401 68.7887 34.8401ZM67.0316 31.9772C67.1129 33.1707 67.9697 33.7055 68.7887 33.7055C69.608 33.7055 70.4648 33.1707 70.5457 31.9772C70.4644 30.7836 69.6076 30.2488 68.7887 30.2488C67.9693 30.2492 67.1125 30.7839 67.0316 31.9772Z" fill="#231F20"/>
</g>
<g clip-path="url(#clip13_2554_97977)">
<path d="M278.493 16.4449C278.359 13.9877 274.895 13.9885 274.762 16.4449C274.896 18.902 278.36 18.9013 278.493 16.4449Z" fill="white"/>
<path d="M276.628 18.8547C275.484 18.8547 274.281 18.0378 274.196 16.4759V16.4142C274.281 14.8523 275.484 14.035 276.628 14.035C277.772 14.035 278.975 14.8519 279.06 16.4138V16.4755C278.975 18.0374 277.772 18.8547 276.628 18.8547ZM275.33 16.4448C275.396 17.3854 276.068 17.7201 276.628 17.7201C277.189 17.7201 277.861 17.3854 277.926 16.4448C277.861 15.5043 277.189 15.1696 276.628 15.1696C276.067 15.1696 275.395 15.5043 275.33 16.4448Z" fill="#231F20"/>
</g>
<g clip-path="url(#clip14_2554_97977)">
<path d="M190.908 89.2274C190.606 89.2248 190.479 88.9045 190.25 88.7678C190.046 88.5471 189.78 88.3533 189.603 88.1049C189.437 87.888 189.452 87.6031 189.449 87.3529C189.451 87.0593 189.355 86.7003 189.589 86.4659C193.53 82.4822 198.783 76.9115 202.723 72.9283C204.872 70.6545 209.257 66.1148 211.458 63.8892C211.752 63.6222 212.209 63.6806 212.574 63.6986C213.028 63.541 213.291 64.0037 213.596 64.2437C213.796 64.4949 214.15 64.6768 214.231 65.0148C214.32 65.3186 214.263 65.6343 214.287 65.9394C214.731 66.183 209.804 70.7279 209.742 70.9303C205.898 75.0007 200.51 80.4426 196.668 84.5128L192.27 89.0102C192.192 89.0899 192.092 89.1448 191.982 89.168C191.629 89.2513 191.264 89.1923 190.908 89.2274Z" fill="white"/>
<path d="M190.825 89.766C190.445 89.7325 190.215 89.487 190.073 89.3366C190.039 89.3001 189.988 89.2455 189.967 89.2317L189.846 89.1335C189.778 89.0599 189.701 88.9903 189.625 88.9193C189.471 88.7772 189.297 88.6162 189.155 88.4163C188.905 88.0917 188.903 87.7072 188.901 87.4267L188.9 87.3583C188.901 87.2937 188.897 87.237 188.893 87.1797C188.874 86.8841 188.845 86.4373 189.199 86.0831C191.169 84.0921 193.509 81.6593 195.773 79.3069C198.029 76.9623 200.362 74.5376 202.331 72.5468C204.495 70.2565 208.908 65.6902 211.066 63.508C211.522 63.0923 212.106 63.1267 212.494 63.1495L212.511 63.1506C213.117 63.0075 213.534 63.4256 213.765 63.6566C213.822 63.7143 213.878 63.7719 213.937 63.8181L214.026 63.9062C214.066 63.9566 214.134 64.0178 214.205 64.0822C214.402 64.2598 214.672 64.5029 214.764 64.8902C214.838 65.1364 214.834 65.3914 214.83 65.6163C214.829 65.6736 214.828 65.7309 214.829 65.788C214.842 65.8255 214.852 65.8648 214.857 65.9053C214.923 66.3636 214.647 66.8177 211.303 70.1127C210.853 70.5558 210.389 71.0126 210.238 71.1802L210.229 71.2077L210.142 71.2996C208.221 73.3345 205.877 75.7496 203.611 78.0853C201.339 80.4261 198.991 82.8466 197.069 84.8822L192.664 89.3881C192.511 89.545 192.314 89.6531 192.099 89.6986C191.834 89.7614 191.568 89.7595 191.334 89.7578C191.211 89.757 191.086 89.7552 190.964 89.7673L190.905 89.7697C190.878 89.7697 190.852 89.7685 190.825 89.766ZM190.606 88.3512C190.719 88.4312 190.805 88.5223 190.876 88.5983C190.899 88.6228 190.93 88.6561 190.954 88.6789C191.088 88.6707 191.215 88.6714 191.339 88.6725C191.528 88.6739 191.706 88.675 191.854 88.6401L196.273 84.1347C198.194 82.1008 200.545 79.6773 202.819 77.3339C205.064 75.0198 207.386 72.6275 209.293 70.6085C209.397 70.4629 209.669 70.1901 210.528 69.3438C211.469 68.4165 213.373 66.5413 213.739 65.9604C213.732 65.8399 213.73 65.7192 213.733 65.5985C213.736 65.4284 213.738 65.2812 213.704 65.1648C213.682 65.0786 213.563 64.9712 213.467 64.885C213.384 64.8101 213.291 64.7264 213.206 64.6277C213.13 64.5615 213.056 64.492 212.985 64.4194C212.912 64.3461 212.79 64.2239 212.739 64.2063L212.637 64.2417L212.431 64.2337C212.216 64.2213 211.923 64.2038 211.829 64.2886C209.697 66.4473 205.293 71.0045 203.124 73.2991C201.152 75.2932 198.821 77.7153 196.567 80.0572C194.302 82.4123 191.958 84.8474 189.981 86.8458C189.972 86.8762 189.982 87.0245 189.987 87.1129C189.993 87.1966 189.998 87.2791 189.997 87.3572L189.998 87.423C189.999 87.5505 190 87.7253 190.039 87.7771C190.128 87.9008 190.247 88.0108 190.372 88.1272C190.453 88.2014 190.532 88.2753 190.606 88.3512Z" fill="#231F20"/>
</g>
<g clip-path="url(#clip15_2554_97977)">
<path d="M29.0775 31.59L29.0883 31.681L29.0988 31.7707L29.1096 31.8611L29.1207 31.9534L29.1315 32.0457L29.1426 32.138L29.1616 32.2251L29.1802 32.3105L29.1992 32.3966L29.2184 32.4846L29.2377 32.5727L29.257 32.6607L29.2652 32.7495L29.273 32.8372L29.2809 32.9252L29.2891 33.0149L29.2972 33.1049L29.3054 33.1953L29.3244 33.2824L29.3433 33.3681L29.3623 33.4549L29.3816 33.5429L29.4009 33.6316L29.4205 33.72L29.4283 33.809L29.4365 33.8964L29.4444 33.9848L29.4525 34.0748L29.4607 34.1652L29.4689 34.2555L29.4911 34.3406L29.5133 34.4244L29.5352 34.5089L29.5581 34.5953L29.5807 34.6817L29.6036 34.7681L29.6147 34.8552L29.6258 34.941L29.6372 35.0274L29.6487 35.1154L29.6601 35.2042L29.6716 35.2925L29.6938 35.3776L29.716 35.4614L29.7383 35.5459L29.7608 35.6323L29.7834 35.7187L29.8063 35.8051L29.8177 35.8925L29.8288 35.979L29.8403 36.0657L29.8517 36.1541L29.8632 36.2428L29.8749 36.3318L29.8972 36.4169L29.9194 36.5011L29.9416 36.5858L29.9642 36.6723L29.9871 36.759L30.0096 36.8458L30.0165 36.9335L30.0233 37.0199L30.0302 37.107L30.0371 37.1957L30.0443 37.2847L30.0511 37.3741L30.0691 37.4598L30.0868 37.5446L30.1048 37.6297L30.1227 37.7168L30.141 37.8042L30.1594 37.8916L30.1662 37.9793L30.1731 38.0657L30.1799 38.1528L30.1868 38.2415L30.1937 38.3306L30.2009 38.4199L30.2189 38.506L30.2365 38.5911L30.2545 38.6769L30.2725 38.7639L30.2908 38.8517L30.3091 38.9394L30.316 39.0275L30.3228 39.1139L30.3297 39.2013L30.3369 39.2903L30.3437 39.3797L30.3509 39.469L30.3732 39.5541L30.3954 39.6379L30.4176 39.7227L30.4402 39.8088L30.4627 39.8952L30.4856 39.9816L30.4967 40.069L30.5079 40.1548L30.5193 40.2412L30.5307 40.3296L30.5422 40.418L30.5536 40.5064L30.5762 40.5915L30.5981 40.6756L30.6203 40.7601L30.6429 40.8465L30.6658 40.9329L30.6883 41.0193L30.6998 41.1067L30.7109 41.1931L30.7223 41.2799L30.7338 41.3682L30.7455 41.4573L30.757 41.546L30.7795 41.6314L30.8014 41.7155L30.8237 41.8003L30.8462 41.8867L30.8691 41.9735L30.892 42.0602L30.8992 42.1486L30.9061 42.2357L30.9132 42.3234L30.9208 42.4131L30.928 42.5028L30.9355 42.5925L30.9535 42.6792L30.9718 42.7643L30.9898 42.8504L31.0084 42.9382L31.0267 43.0259L31.0453 43.1139L31.0525 43.2023L31.0597 43.2894L31.0669 43.3771L31.0741 43.4668L31.0816 43.5565L31.0888 43.6462L31.1071 43.7333L31.1251 43.819L31.1434 43.9051L31.162 43.9932L31.1807 44.0815L31.199 44.1699L31.2072 44.2599L31.215 44.349L31.2232 44.4383L31.231 44.5297L31.2392 44.621L31.2474 44.7126L31.3373 44.7205L31.4255 44.7284L31.5148 44.7365L31.6057 44.7444L31.6969 44.7526L31.7878 44.7608L31.8744 44.7791L31.9594 44.7971L32.0451 44.8151L32.1327 44.8338L32.2206 44.8524L32.3083 44.8708L32.3965 44.878L32.4835 44.8852L32.5711 44.8924L32.6604 44.8996L32.7499 44.9071L32.8395 44.9143L32.9265 44.9326L33.0118 44.9506L33.0981 44.969L33.1861 44.9876L33.274 45.0063L33.3623 45.0246L33.4506 45.0321L33.5378 45.039L33.6255 45.0462L33.715 45.0537L33.8049 45.0609L33.8948 45.0685L33.9798 45.0907L34.0635 45.113L34.1479 45.1349L34.2342 45.1578L34.3205 45.1804L34.4068 45.203L34.4938 45.2145L34.5794 45.2256L34.6657 45.237L34.754 45.2485L34.8423 45.26L34.9306 45.2714L35.0156 45.2937L35.0996 45.3159L35.1839 45.3382L35.2699 45.3608L35.3562 45.3834L35.4425 45.4063L35.5298 45.4177L35.6161 45.4289L35.7028 45.44L35.791 45.4518L35.88 45.4632L35.9686 45.475L36.0536 45.4973L36.1379 45.5195L36.2223 45.5415L36.3086 45.5644L36.3952 45.587L36.4818 45.6099L36.5695 45.6168L36.6558 45.6236L36.7427 45.6305L36.8313 45.6374L36.9206 45.6446L37.0095 45.6515L37.0952 45.6695L37.1798 45.6871L37.2652 45.7048L37.3518 45.7231L37.4391 45.7415L37.5264 45.7598L37.614 45.7667L37.7003 45.7732L37.7873 45.7801L37.8759 45.7873L37.9651 45.7942L38.054 45.8014L38.14 45.8194L38.225 45.837L38.3107 45.8551L38.398 45.8731L38.4853 45.8914L38.5729 45.9097L38.6608 45.9166L38.7475 45.9235L38.8344 45.9303L38.9234 45.9375L39.0126 45.9444L39.1019 45.9516L39.1869 45.9739L39.2709 45.9961L39.3552 46.0181L39.4412 46.041L39.5275 46.0636L39.6142 46.0862L39.7011 46.0976L39.7868 46.1087L39.8731 46.1202L39.9614 46.1317L40.0496 46.1431L40.1379 46.1546L40.2232 46.1772L40.3069 46.1991L40.3913 46.2213L40.4776 46.2439L40.5639 46.2668L40.6502 46.2894L40.7375 46.3009L40.8238 46.312L40.9104 46.3235L40.999 46.3349L41.0876 46.3467L41.1762 46.3582L41.2615 46.3804L41.3456 46.4027L41.4302 46.4249L41.5166 46.4475L41.6032 46.4704L41.6898 46.493L41.7784 46.5012L41.8657 46.5091L41.9537 46.5169L42.0436 46.5251L42.1335 46.5333L42.2237 46.5415L42.3103 46.5605L42.396 46.5795L42.482 46.5984L42.5699 46.6177L42.6579 46.6371L42.7461 46.6564L42.8347 46.6642L42.922 46.6724L43.0103 46.6803L43.0999 46.6885L43.1901 46.6966L43.28 46.7048L43.3673 46.7238L43.453 46.7428L43.5396 46.7618L43.6275 46.7811L43.7161 46.8004L43.8047 46.8197L43.896 46.8305L43.9859 46.8413L44.0761 46.8521L44.1686 46.8629L44.2611 46.8737L44.3536 46.8849L44.2628 46.8957L44.1732 46.9061L44.083 46.9169L43.9911 46.9281L43.8986 46.9389L43.8064 46.95L43.7197 46.969L43.6341 46.9876L43.5481 47.0066L43.4605 47.0259L43.3722 47.0453L43.2843 47.0646L43.1957 47.0727L43.1084 47.0806L43.0204 47.0885L42.9305 47.0966L42.8406 47.1048L42.7507 47.113L42.6634 47.132L42.5778 47.151L42.4915 47.17L42.4032 47.1893L42.3149 47.2086L42.2263 47.2282L42.1377 47.2361L42.0501 47.2443L41.9618 47.2521L41.8719 47.2603L41.7817 47.2685L41.6915 47.2767L41.6065 47.2989L41.5228 47.3212L41.4384 47.3431L41.3524 47.366L41.2661 47.3886L41.1798 47.4115L41.0929 47.4227L41.0069 47.4338L40.9206 47.4453L40.8326 47.4567L40.7443 47.4682L40.6558 47.4796L40.5707 47.5019L40.4871 47.5241L40.4027 47.5464L40.3164 47.569L40.2301 47.5916L40.1438 47.6145L40.0565 47.6259L39.9705 47.6371L39.8839 47.6485L39.7953 47.66L39.7067 47.6714L39.6181 47.6832L39.5327 47.7055L39.4487 47.7277L39.3641 47.75L39.2777 47.7726L39.1911 47.7955L39.1048 47.8181L39.0172 47.825L38.9305 47.8318L38.8436 47.8387L38.755 47.8456L38.6661 47.8528L38.5771 47.8597L38.4911 47.8777L38.4065 47.8953L38.3215 47.9133L38.2345 47.9314L38.1472 47.9497L38.0603 47.968L37.9726 47.9749L37.886 47.9818L37.7994 47.9886L37.7104 47.9955L37.6215 48.0024L37.5326 48.0096L37.4463 48.0276L37.3613 48.0453L37.276 48.0633L37.1887 48.0813L37.101 48.0996L37.0134 48.1179L36.9258 48.1248L36.8392 48.1317L36.7519 48.1386L36.663 48.1458L36.5737 48.1526L36.4848 48.1598L36.3995 48.1821L36.3158 48.2044L36.2314 48.2266L36.1451 48.2492L36.0588 48.2718L35.9725 48.2947L35.8855 48.3058L35.7995 48.317L35.7132 48.3284L35.6253 48.3399L35.5367 48.3513L35.4484 48.3628L35.3634 48.3854L35.2794 48.4073L35.195 48.4296L35.1091 48.4521L35.0224 48.4751L34.9361 48.4976L34.8488 48.5091L34.7628 48.5202L34.6759 48.5317L34.5876 48.5431L34.499 48.5549L34.4101 48.5664L34.3248 48.589L34.2407 48.6109L34.1561 48.6332L34.0698 48.6558L33.9831 48.6787L33.8965 48.7016L33.8082 48.7088L33.7212 48.7157L33.6336 48.7229L33.5444 48.7304L33.4548 48.7376L33.3649 48.7451L33.2786 48.7631L33.1933 48.7814L33.1076 48.7995L33.02 48.8181L32.932 48.8364L32.8441 48.8551L32.7558 48.8623L32.6689 48.8695L32.5812 48.8767L32.4917 48.8839L32.4021 48.8914L32.3125 48.8986L32.2255 48.917L32.1399 48.935L32.0539 48.9533L31.966 48.972L31.8777 48.9906L31.7897 49.0089L31.6995 49.0171L31.6109 49.025L31.5217 49.0332L31.4305 49.041L31.3389 49.0492L31.2474 49.0574L31.2395 49.1474L31.2317 49.2358L31.2238 49.3252L31.2157 49.4162L31.2075 49.5075L31.1993 49.5985L31.181 49.6852L31.163 49.7703L31.145 49.8561L31.1264 49.9438L31.1081 50.0319L31.0895 50.1196L31.0823 50.208L31.0751 50.2951L31.0679 50.3828L31.0607 50.4721L31.0535 50.5618L31.046 50.6515L31.0277 50.7386L31.0097 50.824L30.9914 50.9104L30.9731 50.9985L30.9544 51.0866L30.9358 51.1749L30.9286 51.2633L30.9214 51.3507L30.9142 51.4384L30.907 51.5281L30.8995 51.6182L30.8923 51.7082L30.8698 51.7933L30.8479 51.8771L30.8256 51.9615L30.8031 52.0479L30.7802 52.1344L30.7576 52.2208L30.7462 52.3079L30.7351 52.3936L30.724 52.48L30.7125 52.5684L30.7007 52.6568L30.6893 52.7452L30.6671 52.8303L30.6452 52.9144L30.6229 52.9989L30.6001 53.0849L30.5775 53.1714L30.5549 53.2578L30.5435 53.3452L30.532 53.4316L30.5209 53.5183L30.5095 53.6067L30.4977 53.6958L30.4863 53.7845L30.4637 53.8696L30.4418 53.954L30.4196 54.0385L30.3967 54.1249L30.3741 54.2116L30.3513 54.2984L30.3444 54.3861L30.3375 54.4725L30.331 54.5596L30.3238 54.6483L30.3169 54.7377L30.3097 54.8267L30.2918 54.9125L30.2741 54.9973L30.2564 55.0827L30.2381 55.1694L30.2198 55.2568L30.2019 55.3442L30.195 55.432L30.1881 55.5184L30.1813 55.6054L30.1744 55.6942L30.1672 55.7835L30.1603 55.8726L30.1423 55.9586L30.1244 56.0438L30.1067 56.1295L30.0884 56.2169L30.0701 56.3043L30.0518 56.392L30.0449 56.4801L30.0381 56.5668L30.0312 56.6539L30.0243 56.7429L30.0171 56.8323L30.0103 56.9217L29.9877 57.0068L29.9658 57.0909L29.9436 57.1754L29.921 57.2614L29.8981 57.3479L29.8756 57.4346L29.8641 57.5217L29.853 57.6074L29.8419 57.6939L29.8305 57.7822L29.8187 57.8706L29.8072 57.959L29.785 58.0444L29.7628 58.1282L29.7406 58.2127L29.718 58.2991L29.6954 58.3855L29.6726 58.4719L29.6611 58.5593L29.65 58.6458L29.6389 58.7325L29.6271 58.8212L29.6157 58.9099L29.6039 58.9986L29.5817 59.0841L29.5594 59.1682L29.5372 59.253L29.5146 59.3394L29.4918 59.4261L29.4692 59.5129L29.461 59.6016L29.4532 59.689L29.4453 59.777L29.4372 59.8671L29.429 59.9571L29.4208 60.0474L29.4019 60.1342L29.3832 60.2199L29.3643 60.306L29.345 60.3941L29.3257 60.4821L29.3061 60.5705L29.2982 60.6592L29.2904 60.7466L29.2822 60.835L29.2744 60.9247L29.2662 61.015L29.258 61.105L29.2387 61.1924L29.2201 61.2782L29.2011 61.3649L29.1818 61.453L29.1622 61.5417L29.1429 61.6304L29.1321 61.7217L29.1213 61.8118L29.1109 61.9021L29.0998 61.9947L29.089 62.0874L29.0779 62.18L29.0671 62.089L29.0566 61.9993L29.0458 61.909L29.035 61.817L29.0239 61.7244L29.0131 61.6321L28.9938 61.5453L28.9752 61.4595L28.9562 61.3735L28.937 61.2857L28.9177 61.1973L28.8984 61.1093L28.8902 61.0206L28.8824 60.9332L28.8745 60.8451L28.8663 60.7551L28.8582 60.6651L28.85 60.5751L28.831 60.4877L28.8121 60.4019L28.7931 60.3155L28.7738 60.2271L28.7545 60.1387L28.7349 60.05L28.7271 59.9613L28.7192 59.8736L28.7111 59.7852L28.7029 59.6952L28.6947 59.6049L28.6865 59.5145L28.6643 59.4294L28.6424 59.3456L28.6202 59.2611L28.5976 59.1751L28.5747 59.0886L28.5522 59.0022L28.5407 58.9152L28.5296 58.8291L28.5185 58.7426L28.507 58.6546L28.4953 58.5662L28.4838 58.4775L28.4616 58.3924L28.4394 58.3086L28.4175 58.2241L28.3946 58.1377L28.372 58.0513L28.3491 57.9649L28.338 57.8775L28.3266 57.7914L28.3155 57.7047L28.3037 57.616L28.2923 57.5272L28.2808 57.4385L28.2583 57.3531L28.2364 57.269L28.2141 57.1842L28.1912 57.0978L28.1687 57.011L28.1458 56.9246L28.1389 56.8369L28.1321 56.7501L28.1252 56.6631L28.1183 56.5744L28.1115 56.4853L28.1043 56.3963L28.0863 56.3102L28.0686 56.2254L28.051 56.1403L28.0327 56.0532L28.0144 55.9658L27.9964 55.8788L27.9892 55.791L27.9827 55.7043L27.9758 55.6176L27.9686 55.5285L27.9617 55.4395L27.9549 55.3505L27.9369 55.264L27.9189 55.1789L27.9012 55.0935L27.8829 55.0061L27.8646 54.9184L27.8463 54.8306L27.8395 54.7429L27.8326 54.6562L27.8257 54.5688L27.8185 54.4797L27.8117 54.3904L27.8045 54.3013L27.7822 54.2159L27.7603 54.1321L27.7381 54.0476L27.7156 53.9612L27.6927 53.8748L27.6701 53.7884L27.6587 53.7013L27.6476 53.6152L27.6361 53.5288L27.6247 53.4408L27.6132 53.3521L27.6018 53.2637L27.5795 53.1786L27.5573 53.0944L27.5351 53.01L27.5125 52.9239L27.49 52.8372L27.4671 52.7507L27.4556 52.6633L27.4445 52.5772L27.4331 52.4902L27.4216 52.4018L27.4102 52.3131L27.3984 52.2241L27.3762 52.1386L27.354 52.0545L27.3317 51.9697L27.3092 51.8833L27.2863 51.7966L27.2637 51.7098L27.2565 51.6214L27.2494 51.5344L27.2422 51.4466L27.235 51.3573L27.2274 51.2676L27.2203 51.1776L27.2019 51.0911L27.184 51.0057L27.1657 50.9199L27.1473 50.8322L27.1287 50.7442L27.1101 50.6561L27.1029 50.5677L27.0957 50.4807L27.0885 50.3929L27.0813 50.3032L27.0741 50.2135L27.0666 50.1239L27.0483 50.0368L27.0303 49.951L27.012 49.8649L26.9937 49.7769L26.9751 49.6885L26.9564 49.6004L26.9482 49.5101L26.9404 49.4214L26.9326 49.332L26.9244 49.2407L26.9162 49.149L26.908 49.0574L26.8181 49.0495L26.7299 49.0417L26.6409 49.0338L26.55 49.0256L26.4588 49.0175L26.3676 49.0093L26.2813 48.9909L26.196 48.9729L26.1103 48.9549L26.0227 48.9363L25.9351 48.9179L25.8472 48.8993L25.7589 48.8921L25.6719 48.8849L25.5843 48.8777L25.495 48.8705L25.4055 48.8633L25.3159 48.8558L25.2293 48.8374L25.1436 48.8194L25.0576 48.8011L24.9697 48.7828L24.8814 48.7641L24.7935 48.7454L24.7049 48.7382L24.6176 48.731L24.53 48.7238L24.4404 48.7166L24.3505 48.7091L24.2609 48.7019L24.1759 48.6793L24.0919 48.6574L24.0075 48.6351L23.9215 48.6125L23.8352 48.5896L23.7486 48.567L23.6616 48.5556L23.576 48.5445L23.4897 48.5333L23.4017 48.5219L23.3131 48.5101L23.2248 48.4986L23.1398 48.4764L23.0562 48.4544L22.9718 48.4322L22.8855 48.4093L22.7992 48.3867L22.7129 48.3641L22.6256 48.3526L22.5396 48.3412L22.453 48.33L22.3644 48.3186L22.2758 48.3068L22.1872 48.2954L22.1018 48.2728L22.0178 48.2508L21.9331 48.2286L21.8468 48.2057L21.7602 48.1831L21.6736 48.1602L21.5859 48.1533L21.4996 48.1464L21.4127 48.1399L21.3241 48.1327L21.2352 48.1258L21.1462 48.1186L21.0602 48.1006L20.9756 48.0829L20.8906 48.0652L20.8036 48.0469L20.7163 48.0286L20.6294 48.0106L20.5417 48.0037L20.4551 47.9968L20.3681 47.9899L20.2795 47.9831L20.1906 47.9759L20.1017 47.969L20.0154 47.951L19.9304 47.933L19.8451 47.9153L19.7578 47.897L19.6701 47.8787L19.5825 47.8603L19.4949 47.8534L19.4083 47.8466L19.321 47.8397L19.2321 47.8328L19.1428 47.8256L19.0536 47.8187L18.9686 47.7962L18.8849 47.7742L18.8005 47.752L18.7142 47.7294L18.6279 47.7065L18.5416 47.6839L18.4546 47.6724L18.3686 47.6613L18.2823 47.6502L18.1944 47.6387L18.1058 47.6269L18.0175 47.6155L17.9325 47.5932L17.8485 47.571L17.7641 47.5487L17.6782 47.5261L17.5915 47.5035L17.5052 47.4806L17.4179 47.4692L17.3316 47.458L17.245 47.4469L17.1567 47.4351L17.0678 47.4237L16.9792 47.4119L16.8939 47.3896L16.8098 47.3674L16.7252 47.3451L16.6389 47.3225L16.5522 47.2996L16.4659 47.277L16.377 47.2688L16.2897 47.261L16.2017 47.2531L16.1118 47.2449L16.0219 47.2367L15.932 47.2286L15.8451 47.2096L15.7597 47.1909L15.6734 47.1719L15.5858 47.1526L15.4975 47.1333L15.4096 47.1137L15.3207 47.1058L15.2334 47.098L15.1454 47.0898L15.0555 47.0819L14.9656 47.0737L14.8754 47.0655L14.7884 47.0462L14.7024 47.0276L14.6161 47.0086L14.5279 46.9893L14.4393 46.9696L14.351 46.9503L14.2598 46.9395L14.1699 46.9287L14.0793 46.9182L13.9871 46.9071L13.8943 46.8963L13.8018 46.8852L13.8926 46.8744L13.9822 46.8639L14.0725 46.8531L14.1646 46.8423L14.2568 46.8312L14.349 46.8204L14.436 46.8011L14.5213 46.7824L14.6073 46.7634L14.6953 46.7441L14.7832 46.7248L14.8711 46.7055L14.9597 46.6973L15.0474 46.6894L15.1353 46.6816L15.2249 46.6734L15.3148 46.6652L15.405 46.657L15.492 46.638L15.5776 46.6191L15.6643 46.6001L15.7522 46.5808L15.8408 46.5614L15.9291 46.5418L16.018 46.534L16.1053 46.5261L16.1936 46.5179L16.2835 46.5097L16.3737 46.5015L16.4639 46.4934L16.5489 46.4711L16.6326 46.4492L16.717 46.4269L16.8033 46.4043L16.8896 46.3814L16.9759 46.3588L17.0629 46.3474L17.1485 46.3362L17.2348 46.3251L17.3228 46.3137L17.4114 46.3019L17.4997 46.2904L17.5847 46.2682L17.6684 46.2459L17.7527 46.224L17.839 46.201L17.9253 46.1785L18.0116 46.1556L18.0989 46.1444L18.1852 46.133L18.2719 46.1218L18.3601 46.1101L18.4487 46.0986L18.5377 46.0871L18.6227 46.0646L18.7067 46.0426L18.7914 46.0204L18.8777 45.9974L18.9643 45.9749L19.0509 45.9519L19.1386 45.9451L19.2249 45.9382L19.3118 45.9313L19.4004 45.9244L19.4894 45.9176L19.5786 45.9104L19.6643 45.8924L19.7489 45.8747L19.8339 45.857L19.9209 45.8387L20.0082 45.8204L20.0955 45.8024L20.1831 45.7952L20.2694 45.7886L20.3564 45.7817L20.445 45.7745L20.5339 45.7677L20.6231 45.7608L20.7091 45.7428L20.7941 45.7248L20.8798 45.7071L20.9667 45.6888L21.0544 45.6704L21.142 45.6521L21.2299 45.6452L21.3162 45.6384L21.4035 45.6315L21.4924 45.6243L21.5817 45.6174L21.671 45.6102L21.756 45.5879L21.8396 45.566L21.9243 45.5438L22.0103 45.5212L22.0966 45.4983L22.1829 45.4757L22.2702 45.4642L22.3559 45.4531L22.4422 45.4416L22.5304 45.4302L22.6187 45.4187L22.707 45.4073L22.792 45.385L22.876 45.3627L22.9604 45.3405L23.0467 45.3179L23.133 45.2953L23.2193 45.2724L23.3066 45.2609L23.3929 45.2498L23.4795 45.2383L23.5678 45.2269L23.6567 45.2154L23.7453 45.2037L23.8306 45.1814L23.9147 45.1591L23.9993 45.1369L24.0857 45.1143L24.1723 45.0914L24.2589 45.0688L24.3472 45.0616L24.4342 45.0544L24.5218 45.0472L24.6114 45.04L24.7009 45.0325L24.7905 45.0253L24.8771 45.0069L24.9622 44.9889L25.0481 44.9706L25.1358 44.9523L25.2234 44.9336L25.3113 44.9149L25.3996 44.9077L25.4865 44.9005L25.5742 44.8933L25.6637 44.8861L25.7533 44.8789L25.8429 44.8714L25.9299 44.8531L26.0155 44.8351L26.1015 44.8167L26.1894 44.7984L26.2777 44.7798L26.366 44.7611L26.4559 44.7529L26.5448 44.7451L26.6341 44.7372L26.7253 44.729L26.8165 44.7208L26.908 44.7126L26.9159 44.6226L26.9237 44.5342L26.9319 44.4452L26.9397 44.3542L26.9479 44.2629L26.9561 44.1716L26.9744 44.0851L26.9924 43.9997L27.0104 43.9139L27.029 43.8262L27.0476 43.7385L27.0659 43.6504L27.0731 43.5621L27.0803 43.475L27.0875 43.3873L27.0947 43.2979L27.1022 43.2082L27.1094 43.1185L27.1277 43.0318L27.1457 42.946L27.164 42.8599L27.1827 42.7719L27.2013 42.6835L27.2196 42.5954L27.2271 42.5067L27.234 42.4193L27.2412 42.3316L27.2487 42.2419L27.2559 42.1519L27.2634 42.0622L27.2856 41.9771L27.3079 41.893L27.3298 41.8085L27.3527 41.7224L27.3752 41.636L27.3978 41.5493L27.4092 41.4622L27.4203 41.3764L27.4318 41.29L27.4432 41.202L27.4547 41.1132L27.4661 41.0249L27.4883 40.9398L27.5106 40.856L27.5328 40.7715L27.5554 40.6851L27.5779 40.5987L27.6008 40.5123L27.6122 40.4249L27.6234 40.3388L27.6345 40.252L27.6462 40.1633L27.6577 40.0746L27.6695 39.9859L27.6917 39.9005L27.7139 39.8163L27.7358 39.7316L27.7587 39.6451L27.7813 39.5584L27.8041 39.4717L27.811 39.3839L27.8179 39.2975L27.8247 39.2104L27.8316 39.1217L27.8388 39.0327L27.8457 38.9437L27.8637 38.8576L27.8813 38.7728L27.899 38.6877L27.9173 38.6006L27.9356 38.5132L27.9539 38.4261L27.9607 38.3384L27.9673 38.2517L27.9742 38.1646L27.9813 38.0759L27.9882 37.9868L27.9954 37.8978L28.0134 37.8114L28.031 37.7263L28.049 37.6409L28.067 37.5535L28.0853 37.4657L28.1036 37.378L28.1105 37.2903L28.1173 37.2035L28.1242 37.1161L28.1314 37.0271L28.1383 36.9377L28.1455 36.8484L28.1677 36.7633L28.1899 36.6795L28.2118 36.595L28.2347 36.5086L28.2573 36.4222L28.2798 36.3358L28.2913 36.2487L28.3024 36.1626L28.3138 36.0762L28.3253 35.9881L28.3367 35.8994L28.3482 35.811L28.3707 35.7259L28.3926 35.6418L28.4149 35.5574L28.4374 35.4709L28.4603 35.3845L28.4829 35.2981L28.4943 35.2107L28.5054 35.1243L28.5169 35.0375L28.5283 34.9492L28.5401 34.8601L28.5515 34.7714L28.5737 34.686L28.596 34.6019L28.6182 34.5171L28.6408 34.4307L28.6636 34.3439L28.6862 34.2572L28.6944 34.1685L28.7022 34.0811L28.7101 33.993L28.7182 33.903L28.7264 33.813L28.7346 33.723L28.7536 33.6359L28.7725 33.5504L28.7915 33.464L28.8108 33.376L28.8301 33.2879L28.8493 33.1995L28.8572 33.1108L28.8654 33.0234L28.8732 32.9354L28.8814 32.8454L28.8896 32.7553L28.8977 32.665L28.9167 32.5779L28.9357 32.4918L28.9546 32.4054L28.9739 32.317L28.9932 32.2283L29.0125 32.1396L29.0233 32.0486L29.0341 31.9586L29.0448 31.8679L29.0556 31.7753L29.0664 31.6827L29.0775 31.59Z" fill="white"/>
<path d="M28.5913 62.2383L26.4561 49.5101L13.7445 47.3729L13.7441 46.3978L26.4561 44.2599L28.5907 31.5324L29.5646 31.5317L31.6998 44.2599L44.4114 46.3971L44.4118 47.3722L31.6998 49.5101L29.5652 62.2376L28.5913 62.2383ZM29.0346 58.9076L29.0778 59.0726L30.7592 49.0138L31.2041 48.5683L41.2504 46.8852L31.2041 45.2017L30.7592 44.7562L29.0781 34.6977L27.3967 44.7562L26.9518 45.2017L16.9055 46.8848L26.9514 48.5683L27.3964 49.0138L29.0346 58.9076Z" fill="#231F20"/>
</g>
<g clip-path="url(#clip16_2554_97977)">
<path d="M283.95 184.988L251.675 166.396L262.015 201.72L267.922 193.408L277.218 205.547L283.086 201.077L273.821 188.991L283.95 184.988Z" fill="white"/>
<path d="M277.593 206.025L276.729 205.911L267.94 194.435L262.517 202.067L261.426 201.887L251.086 166.564L251.984 165.875L284.26 184.467L284.178 185.549L274.792 189.258L283.574 200.713L283.46 201.555L277.593 206.025ZM268.411 193.044L277.334 204.696L282.231 200.965L273.331 189.356L273.593 188.431L282.56 184.887L252.688 167.68L262.249 200.339L267.42 193.061L268.411 193.044Z" fill="#231F20"/>
</g>
<g clip-path="url(#clip17_2554_97977)">
<path d="M191.028 119.184L198.67 116.069C199.879 115.503 200.724 114.225 200.724 112.736C200.724 110.722 199.179 109.089 197.274 109.089C196.794 109.089 185.67 109.543 185.67 109.543C185.67 109.543 178.443 104.623 167.328 109.782L173.788 139.286L195.346 133.455L205.384 128.287C205.384 128.287 208.979 124.731 209.837 123.667L209.837 123.664C210.431 123.045 210.762 122.22 210.762 121.361C210.762 120.477 210.411 119.629 209.788 119.004C209.164 118.378 208.317 118.027 207.435 118.027C206.759 118.026 206.1 118.233 205.545 118.619L205.544 118.619C204.352 119.25 201.732 120.817 201.732 120.817L194.612 121.966L191.028 119.184Z" fill="white"/>
<path d="M173.943 139.862L173.206 139.413L166.746 109.91L167.077 109.239C177.562 104.373 184.63 108.198 185.832 108.937C187.342 108.876 196.817 108.491 197.274 108.491C199.505 108.491 201.32 110.395 201.32 112.735C201.32 114.407 200.379 115.928 198.922 116.61C198.844 116.642 194.251 118.514 192.211 119.346L194.772 121.334L201.524 120.244C202.015 119.951 204.16 118.676 205.242 118.101C205.889 117.662 206.653 117.428 207.434 117.429C209.597 117.429 211.357 119.193 211.357 121.36C211.358 122.356 210.98 123.315 210.3 124.041C209.431 125.118 205.95 128.565 205.802 128.711L205.656 128.818L195.501 134.031L173.943 139.862ZM168.014 110.126L174.236 138.545L195.129 132.894L205.029 127.797C205.517 127.313 208.607 124.239 209.373 123.291L209.389 123.304L209.406 123.251C209.893 122.743 210.166 122.066 210.165 121.361C210.164 120.636 209.876 119.94 209.364 119.427C208.853 118.914 208.158 118.625 207.434 118.625C206.878 118.625 206.341 118.793 205.884 119.11L205.808 119.123L205.821 119.147C204.657 119.763 202.063 121.314 202.037 121.33L201.826 121.407L194.706 122.556L194.246 122.438L190.663 119.656L190.803 118.631L198.43 115.522C199.462 115.033 200.128 113.941 200.128 112.736C200.128 111.055 198.847 109.687 197.274 109.687C196.891 109.687 188.785 110.014 185.694 110.139L185.335 110.037C185.318 110.025 183.551 108.851 180.495 108.303C177.75 107.812 173.383 107.743 168.014 110.126ZM126.201 155.839C142.732 153.663 164.781 147.064 169.087 145.747C167.803 145.107 166.478 144.55 165.121 144.082L124.619 131.781C124.619 131.781 113.009 129.407 103.792 120.987C94.4361 112.44 85.3018 95.4498 85.3018 95.4498C88.3253 109.074 88.2943 120.578 89.924 129.05C93.4806 147.538 106.423 158.444 126.201 155.839Z" fill="#231F20"/>
</g>
<g clip-path="url(#clip18_2554_97977)">
<path d="M185.306 39.7132L176.612 52.1869L189.876 53.0111L195.22 47.8232L197.15 45.2727L194.377 39.7132H185.306Z" fill="#231F20"/>
<path d="M189.839 53.6074L176.575 52.7832L176.123 51.8448L184.817 39.3711L185.305 39.1157H194.376L194.909 39.4459L197.682 45.0054L197.624 45.6336L195.635 48.2522L190.291 53.4401L189.839 53.6074ZM177.709 51.6564L189.649 52.3984L194.771 47.4257L196.449 45.2074L194.007 40.3103H185.616L177.709 51.6564Z" fill="#231F20"/>
<path d="M180.888 73.1188C189.71 67.8588 192.38 60.794 193.111 58.7104L199.208 53.585L200.137 51.532L199.717 49.2357L197.667 47.7941L195.21 47.8323L189.151 50.1582C189.151 50.1582 186.143 48.8732 182.82 49.3265L186.999 43.2651L193.721 42.9078L197.149 45.2723L199.526 46.0036L201.571 45.5272L202.98 43.7411L203.082 41.6658L202.181 39.89L197.081 35.4566L194.561 34.5126L185.808 34.5823L183.275 34.9352L181.121 36.039C181.121 36.039 166.636 47.4587 163.068 49.4699L180.888 73.1188Z" fill="white"/>
<path d="M181.193 73.6326L180.412 73.4793L162.593 49.8308L162.776 48.9501C166.264 46.9843 180.609 35.6845 180.753 35.5706L180.85 35.5084L183.004 34.4046L183.193 34.3449L185.804 33.9864L194.556 33.9167L194.77 33.9545L197.291 34.8986L197.473 35.0069L202.572 39.4403L202.713 39.6208L203.614 41.3965L203.678 41.6965L203.576 43.7718L203.448 44.1128L202.04 45.8989L201.707 46.1104L199.661 46.5868L199.351 46.576L196.975 45.8447L196.812 45.7658L193.55 43.5164L187.324 43.8475L184.022 48.6358C186.438 48.5816 188.482 49.2644 189.155 49.5185L194.997 47.2755L195.201 47.2361L197.658 47.1978L198.01 47.3062L200.059 48.7477L200.303 49.1289L200.724 51.4253L200.68 51.7798L199.752 53.8328L199.592 54.0439L193.62 59.0645C191.485 65.0207 187.192 70.0556 181.193 73.6326ZM163.945 49.6412L181.039 72.3285C186.608 68.8849 190.582 64.1177 192.549 58.5124L192.728 58.2527L198.721 53.215L199.516 51.4564L199.174 49.5846L197.483 48.3948L195.325 48.4283L189.364 50.7163L188.918 50.7083C188.889 50.696 186.012 49.4942 182.9 49.9188L182.329 48.9871L186.508 42.9253L186.967 42.6684L193.689 42.3111L194.059 42.4155L197.412 44.7278L199.547 45.385L201.233 44.9923L202.394 43.5204L202.479 41.7949L201.703 40.2649L196.772 35.9788L194.456 35.1113L185.852 35.1798L183.458 35.5136L181.445 36.5449C180.442 37.3348 168.157 46.9995 163.945 49.6412Z" fill="#231F20"/>
</g>
<defs>
<clipPath id="clip0_2554_97977">
<rect width="192.48" height="9.125" fill="white" transform="translate(25.0684 198.36)"/>
</clipPath>
<clipPath id="clip1_2554_97977">
<rect width="119.206" height="114.245" fill="white" transform="translate(220.829 70.975)"/>
</clipPath>
<clipPath id="clip2_2554_97977">
<rect width="189.564" height="196.735" fill="white" transform="translate(21.7871 7.83002)"/>
</clipPath>
<clipPath id="clip3_2554_97977">
<rect width="79.4709" height="87.965" fill="white" transform="translate(191.301 39.22)"/>
</clipPath>
<clipPath id="clip4_2554_97977">
<rect width="49.5863" height="49.6319" fill="white" transform="matrix(0.992628 0.121202 -0.120679 0.992692 293.631 24.7205)"/>
</clipPath>
<clipPath id="clip5_2554_97977">
<rect width="37.5482" height="37.595" fill="white" transform="translate(320.715 136.31)"/>
</clipPath>
<clipPath id="clip6_2554_97977">
<rect width="23.6955" height="23.725" fill="white" transform="translate(176.354 163.32)"/>
</clipPath>
<clipPath id="clip7_2554_97977">
<rect width="24.0827" height="30.2642" fill="white" transform="matrix(-0.191286 -0.981534 -0.981389 0.192031 50.2422 99.0507)"/>
</clipPath>
<clipPath id="clip8_2554_97977">
<rect width="13.8652" height="12.0348" fill="white" transform="matrix(0.270281 -0.962781 0.962522 0.271205 11.6533 154.756)"/>
</clipPath>
<clipPath id="clip9_2554_97977">
<rect width="8.02014" height="9.12516" fill="white" transform="translate(352.795 172.81)"/>
</clipPath>
<clipPath id="clip10_2554_97977">
<rect width="16.4045" height="18.25" fill="white" transform="translate(352.795 80.1)"/>
</clipPath>
<clipPath id="clip11_2554_97977">
<rect width="24.0632" height="28.4671" fill="white" transform="matrix(0.996147 0.0877014 -0.0873067 0.996181 204.254 133.851)"/>
</clipPath>
<clipPath id="clip12_2554_97977">
<rect width="8.02014" height="9.12516" fill="white" transform="translate(65.8975 25.715)"/>
</clipPath>
<clipPath id="clip13_2554_97977">
<rect width="16.7689" height="5.47517" fill="white" transform="translate(270.407 14.035)"/>
</clipPath>
<clipPath id="clip14_2554_97977">
<rect width="24.0632" height="28.4671" fill="white" transform="matrix(0.996147 0.0877014 -0.0873067 0.996181 191.13 61.2156)"/>
</clipPath>
<clipPath id="clip15_2554_97977">
<rect width="31.3509" height="31.39" fill="white" transform="translate(13.4023 31.19)"/>
</clipPath>
<clipPath id="clip16_2554_97977">
<rect width="33.1736" height="40.15" fill="white" transform="translate(251.086 165.875)"/>
</clipPath>
<clipPath id="clip17_2554_97977">
<rect width="23.3309" height="41.61" fill="white" transform="translate(187.655 99.445)"/>
</clipPath>
<clipPath id="clip18_2554_97977">
<rect width="21.8725" height="11.6798" fill="white" transform="translate(189.479 47.25)"/>
</clipPath>
</defs>
</svg>
