<svg width="348" height="319" viewBox="0 0 348 319" fill="none" xmlns="http://www.w3.org/2000/svg">
<g clip-path="url(#clip0_2696_77389)">
<g clip-path="url(#clip1_2696_77389)">
<path d="M257.836 83.7396C264.36 83.7396 269.648 78.4449 269.648 71.9135C269.648 65.3821 264.36 60.0874 257.836 60.0874C251.312 60.0874 246.024 65.3821 246.024 71.9135C246.024 78.4449 251.312 83.7396 257.836 83.7396Z" fill="#FFFD9F"/>
<path d="M257.836 84.2452C251.044 84.2452 245.519 78.7133 245.519 71.9135C245.519 65.1138 251.044 59.5819 257.836 59.5819C264.628 59.5819 270.153 65.1138 270.153 71.9135C270.153 78.7133 264.628 84.2452 257.836 84.2452ZM257.836 60.5929C251.601 60.5929 246.529 65.6714 246.529 71.9135C246.529 78.1557 251.601 83.2341 257.836 83.2341C264.071 83.2341 269.143 78.1557 269.143 71.9135C269.143 65.6714 264.071 60.5929 257.836 60.5929Z" fill="#25242E"/>
<path d="M314.08 313.403C313.247 313.302 312.644 312.55 312.644 311.71V39.1668C312.644 24.7206 301.257 12.689 286.833 12.277C271.824 11.8483 259.477 23.9482 259.477 38.8809V40.1495C259.477 40.9895 258.874 41.7409 258.041 41.8423C257.81 41.8713 257.576 41.8509 257.353 41.7822C257.131 41.7136 256.925 41.5984 256.751 41.4442C256.576 41.29 256.436 41.1004 256.34 40.888C256.245 40.6755 256.195 40.4451 256.195 40.212V39.2022C256.195 22.9725 268.988 9.45545 285.192 8.99265C302.055 8.51089 315.926 22.1048 315.926 38.8812V311.772C315.926 312.005 315.876 312.236 315.781 312.448C315.685 312.661 315.545 312.851 315.37 313.005C315.196 313.159 314.99 313.274 314.768 313.343C314.545 313.411 314.311 313.432 314.08 313.403V313.403Z" fill="#25242E"/>
<path d="M257.836 34.4943C260.611 34.4943 262.864 36.7499 262.864 39.528V43.0128H252.808V39.528C252.808 36.7499 255.061 34.4943 257.836 34.4943Z" fill="#25242E"/>
<path d="M262.864 43.5183H252.808C252.674 43.5183 252.546 43.465 252.451 43.3702C252.356 43.2754 252.303 43.1469 252.303 43.0128V39.528C252.303 36.4736 254.785 33.9888 257.836 33.9888C260.887 33.9888 263.369 36.4736 263.369 39.528V43.0128C263.369 43.1469 263.315 43.2754 263.221 43.3702C263.126 43.465 262.998 43.5183 262.864 43.5183ZM253.313 42.5073H262.359V39.528C262.359 37.0312 260.33 34.9998 257.836 34.9998C255.342 34.9998 253.313 37.0312 253.313 39.528V42.5073Z" fill="#25242E"/>
<path d="M245.804 38.7535H269.868C270.446 38.7535 270.999 38.9851 271.405 39.3963L301.629 70.0444C302.313 70.738 301.822 71.9135 300.849 71.9135H214.823C213.85 71.9135 213.359 70.738 214.043 70.0444L244.268 39.3963C244.468 39.1927 244.708 39.031 244.971 38.9207C245.235 38.8104 245.518 38.7535 245.804 38.7535Z" fill="#FF7C5C"/>
<path d="M300.849 72.419H214.823C214.166 72.419 213.599 72.0417 213.346 71.434C213.092 70.8264 213.221 70.1579 213.684 69.6892L243.908 39.0409C244.157 38.7904 244.452 38.5914 244.777 38.4553C245.102 38.3192 245.451 38.2487 245.804 38.2477H269.868C270.221 38.2487 270.57 38.3193 270.895 38.4554C271.22 38.5915 271.515 38.7904 271.764 39.0409L301.988 69.689C302.45 70.1576 302.58 70.8262 302.326 71.4338C302.072 72.0414 301.506 72.4188 300.849 72.4188V72.419ZM245.804 39.259C245.585 39.2596 245.368 39.3034 245.166 39.3878C244.964 39.4723 244.781 39.5959 244.627 39.7514L214.402 70.3995C214.146 70.6598 214.242 70.9586 214.277 71.044C214.313 71.1295 214.458 71.408 214.823 71.408H300.849C301.214 71.408 301.359 71.1295 301.394 71.044C301.43 70.9586 301.526 70.6598 301.269 70.3995L271.045 39.7512C270.891 39.5957 270.708 39.4722 270.506 39.3877C270.304 39.3032 270.087 39.2594 269.868 39.2588H245.804V39.259ZM290.295 308.571H338.275C343.08 308.571 346.981 312.477 346.981 317.288H281.589C281.589 312.477 285.49 308.571 290.295 308.571H290.295Z" fill="#25242E"/>
<path d="M346.982 317.793H281.589C281.455 317.793 281.327 317.74 281.232 317.645C281.137 317.55 281.084 317.422 281.084 317.288C281.084 312.203 285.216 308.066 290.295 308.066H338.276C343.355 308.066 347.487 312.203 347.487 317.287C347.487 317.422 347.434 317.55 347.339 317.645C347.244 317.74 347.116 317.793 346.982 317.793L346.982 317.793ZM282.109 316.782H346.461C346.2 312.489 342.628 309.077 338.276 309.077H290.295C285.942 309.077 282.371 312.489 282.109 316.782ZM223.194 72.419C223.099 72.4191 223.007 72.3929 222.927 72.3433C222.847 72.2937 222.783 72.2227 222.741 72.1383C222.699 72.0539 222.682 71.9594 222.691 71.8657C222.7 71.7719 222.735 71.6825 222.792 71.6077L242.319 45.8818C242.359 45.8275 242.409 45.7817 242.467 45.7471C242.524 45.7124 242.588 45.6895 242.654 45.6798C242.721 45.6701 242.788 45.6737 242.853 45.6905C242.918 45.7073 242.979 45.7369 243.033 45.7776C243.086 45.8182 243.131 45.8691 243.164 45.9273C243.198 45.9855 243.22 46.0498 243.228 46.1165C243.237 46.1831 243.232 46.2508 243.214 46.3155C243.196 46.3803 243.165 46.4408 243.123 46.4935L223.596 72.2193C223.496 72.3503 223.346 72.419 223.194 72.419ZM245.894 50.5268C245.808 50.5267 245.723 50.5046 245.648 50.4626C245.573 50.4206 245.51 50.3601 245.465 50.2868C245.419 50.2135 245.394 50.1298 245.39 50.0437C245.386 49.9577 245.404 49.8721 245.443 49.795L248.944 42.7865C249.005 42.6689 249.11 42.5802 249.236 42.5393C249.362 42.4984 249.499 42.5088 249.617 42.5681C249.736 42.6274 249.826 42.7309 249.869 42.8564C249.912 42.9818 249.904 43.1191 249.847 43.2387L246.346 50.2472C246.304 50.3312 246.239 50.4019 246.159 50.4513C246.08 50.5007 245.988 50.5268 245.894 50.5268ZM234.957 72.4193C234.871 72.4192 234.786 72.3971 234.711 72.3551C234.636 72.3131 234.573 72.2526 234.528 72.1793C234.482 72.106 234.457 72.0223 234.453 71.9362C234.449 71.8502 234.467 71.7646 234.506 71.6875L242.799 55.0863C242.86 54.9687 242.965 54.8799 243.091 54.8391C243.217 54.7982 243.354 54.8086 243.473 54.8679C243.591 54.9272 243.682 55.0307 243.725 55.1562C243.767 55.2816 243.759 55.4189 243.702 55.5385L235.409 72.1397C235.367 72.2237 235.302 72.2944 235.223 72.3438C235.143 72.3932 235.051 72.4193 234.957 72.4193ZM281.12 72.4193C280.935 72.4193 280.757 72.3169 280.668 72.1397L278.65 68.0986C278.619 68.0391 278.6 67.974 278.594 67.9071C278.589 67.8403 278.597 67.773 278.617 67.7091C278.638 67.6453 278.671 67.5862 278.715 67.5353C278.758 67.4844 278.812 67.4428 278.872 67.4128C278.932 67.3827 278.997 67.365 279.064 67.3605C279.131 67.356 279.198 67.3649 279.261 67.3866C279.325 67.4084 279.383 67.4426 279.433 67.4872C279.483 67.5318 279.524 67.5859 279.553 67.6464L281.572 71.6875C281.61 71.7646 281.628 71.8502 281.624 71.9362C281.621 72.0223 281.595 72.106 281.55 72.1793C281.504 72.2526 281.441 72.3131 281.366 72.3551C281.291 72.3971 281.206 72.4192 281.12 72.4193ZM277.609 65.3903C277.424 65.3903 277.245 65.2879 277.157 65.1107L275.814 62.4219C275.783 62.3624 275.764 62.2973 275.758 62.2304C275.753 62.1636 275.76 62.0962 275.781 62.0324C275.802 61.9686 275.835 61.9095 275.879 61.8586C275.922 61.8077 275.976 61.766 276.036 61.736C276.095 61.706 276.161 61.6882 276.228 61.6838C276.295 61.6793 276.362 61.6882 276.425 61.7099C276.488 61.7317 276.547 61.7658 276.597 61.8104C276.647 61.855 276.688 61.9092 276.717 61.9697L278.06 64.6585C278.099 64.7356 278.117 64.8212 278.113 64.9073C278.109 64.9933 278.083 65.077 278.038 65.1503C277.993 65.2236 277.93 65.2841 277.855 65.3261C277.78 65.3681 277.695 65.3902 277.609 65.3903ZM247.438 67.5605C247.361 67.5605 247.285 67.543 247.216 67.5092C247.147 67.4754 247.087 67.4262 247.039 67.3654C246.992 67.3046 246.959 67.2338 246.944 67.1584C246.928 67.083 246.93 67.005 246.949 66.9303L251.269 49.8969C251.286 49.8325 251.315 49.772 251.354 49.7189C251.394 49.6657 251.444 49.6208 251.501 49.5869C251.558 49.5529 251.621 49.5306 251.686 49.5211C251.752 49.5115 251.819 49.515 251.883 49.5314C251.947 49.5477 252.008 49.5766 252.061 49.6163C252.114 49.6561 252.159 49.7059 252.193 49.7629C252.227 49.82 252.249 49.8832 252.259 49.9489C252.268 50.0146 252.265 50.0815 252.248 50.1459L247.927 67.1793C247.9 67.2882 247.837 67.3848 247.748 67.4538C247.66 67.5228 247.551 67.5603 247.438 67.5605ZM257.836 60.9111C257.702 60.9111 257.574 60.8579 257.479 60.7631C257.384 60.6683 257.331 60.5397 257.331 60.4056V54.9847C257.331 54.8506 257.384 54.722 257.479 54.6272C257.574 54.5324 257.702 54.4792 257.836 54.4792C257.97 54.4792 258.099 54.5324 258.193 54.6272C258.288 54.722 258.341 54.8506 258.341 54.9847V60.4056C258.341 60.5397 258.288 60.6683 258.193 60.7631C258.099 60.8579 257.97 60.9111 257.836 60.9111ZM269.467 72.4193C269.354 72.4191 269.245 72.3816 269.157 72.3126C269.068 72.2436 269.005 72.147 268.978 72.0381L266.058 60.5302C266.025 60.4003 266.045 60.2625 266.114 60.1473C266.182 60.0321 266.294 59.9488 266.423 59.9158C266.553 59.8827 266.691 59.9027 266.806 59.9712C266.921 60.0398 267.004 60.1513 267.037 60.2812L269.956 71.7891C269.975 71.8638 269.977 71.9418 269.961 72.0172C269.945 72.0926 269.913 72.1634 269.865 72.2242C269.818 72.285 269.758 72.3342 269.689 72.368C269.619 72.4018 269.543 72.4193 269.467 72.4193ZM257.836 72.419C257.702 72.419 257.574 72.3657 257.479 72.2709C257.384 72.1761 257.331 72.0476 257.331 71.9135V64.4068C257.331 64.2727 257.384 64.1441 257.479 64.0493C257.574 63.9545 257.702 63.9013 257.836 63.9013C257.97 63.9013 258.099 63.9545 258.193 64.0493C258.288 64.1441 258.341 64.2727 258.341 64.4068V71.9135C258.341 72.0476 258.288 72.1761 258.193 72.2709C258.099 72.3657 257.97 72.419 257.836 72.419Z" fill="#25242E"/>
<path d="M317.901 309.077H310.811C310.677 309.077 310.549 309.024 310.454 308.929C310.359 308.834 310.306 308.705 310.306 308.571C310.306 308.437 310.359 308.309 310.454 308.214C310.549 308.119 310.677 308.066 310.811 308.066H317.901C318.035 308.066 318.164 308.119 318.258 308.214C318.353 308.309 318.406 308.437 318.406 308.571C318.406 308.705 318.353 308.834 318.258 308.929C318.164 309.024 318.035 309.077 317.901 309.077Z" fill="white"/>
</g>
<g clip-path="url(#clip2_2696_77389)">
<path d="M45.6727 317.291L66.7898 268.791H55.9805L41.5503 317.291H45.6727Z" fill="white"/>
<path d="M45.6725 317.793H41.5501C41.4718 317.793 41.3946 317.775 41.3247 317.74C41.2547 317.705 41.1939 317.654 41.1471 317.591C41.1003 317.529 41.0688 317.456 41.0551 317.379C41.0414 317.302 41.0459 317.223 41.0682 317.148L55.4987 268.648C55.5296 268.544 55.5931 268.453 55.68 268.388C55.7668 268.323 55.8722 268.288 55.9806 268.288H66.7899C66.8733 268.288 66.9554 268.309 67.0288 268.349C67.1022 268.388 67.1645 268.446 67.2102 268.515C67.256 268.585 67.2836 268.665 67.2907 268.748C67.2978 268.831 67.2842 268.915 67.2509 268.991L46.1338 317.491C46.0947 317.581 46.0303 317.657 45.9484 317.711C45.8665 317.765 45.7707 317.793 45.6727 317.793H45.6725ZM42.2241 316.788H45.3429L66.0225 269.293H56.3554L42.2241 316.788Z" fill="#25242E"/>
<path d="M279.342 317.291L258.225 268.791H269.034L283.464 317.291H279.342Z" fill="white"/>
<path d="M283.464 317.793H279.342C279.244 317.793 279.148 317.765 279.066 317.711C278.984 317.657 278.92 317.581 278.881 317.491L257.764 268.991C257.731 268.915 257.717 268.831 257.724 268.748C257.731 268.665 257.759 268.585 257.804 268.515C257.85 268.446 257.913 268.388 257.986 268.349C258.059 268.309 258.141 268.288 258.225 268.288H269.034C269.142 268.288 269.248 268.323 269.335 268.388C269.422 268.453 269.485 268.544 269.516 268.648L283.946 317.148C283.969 317.223 283.973 317.302 283.959 317.379C283.946 317.456 283.914 317.529 283.867 317.591C283.821 317.654 283.76 317.705 283.69 317.74C283.62 317.775 283.543 317.793 283.464 317.793ZM279.672 316.788H282.79L268.659 269.293H258.992L279.671 316.788H279.672Z" fill="#25242E"/>
<path d="M40.8267 179.722H199.456C203.116 179.722 206.088 182.693 206.088 186.351V232.996H40.8267V179.722Z" fill="white"/>
<path d="M206.088 233.499H40.8265C40.6932 233.499 40.5653 233.446 40.471 233.352C40.3767 233.257 40.3237 233.129 40.3237 232.996V179.722C40.3237 179.589 40.3767 179.461 40.471 179.367C40.5653 179.273 40.6932 179.22 40.8265 179.22H199.456C203.39 179.22 206.591 182.419 206.591 186.351V232.996C206.591 233.129 206.538 233.257 206.443 233.352C206.349 233.446 206.221 233.499 206.088 233.499ZM41.3293 232.494H205.585V186.351C205.585 182.973 202.836 180.225 199.456 180.225H41.3293V232.494Z" fill="#25242E"/>
<path d="M59.2808 225.202H285.683C290.713 225.202 294.797 229.284 294.797 234.311V238.24C294.797 241.4 292.23 243.965 289.069 243.965H50.167V234.311C50.167 229.283 54.2507 225.202 59.2808 225.202V225.202Z" fill="white"/>
<path d="M289.069 244.468H50.1673C50.034 244.468 49.9061 244.415 49.8118 244.321C49.7175 244.226 49.6646 244.099 49.6646 243.965V234.311C49.6646 229.011 53.9785 224.7 59.2811 224.7H285.683C290.986 224.7 295.3 229.011 295.3 234.311V238.24C295.3 241.674 292.505 244.468 289.069 244.468L289.069 244.468ZM50.6701 243.463H289.069C291.951 243.463 294.295 241.12 294.295 238.24V234.311C294.295 229.566 290.432 225.705 285.684 225.705H59.2811C54.533 225.705 50.6701 229.566 50.6701 234.311V243.463V243.463Z" fill="#25242E"/>
<path d="M44.6798 179.722H36.304C33.2734 179.722 30.8164 182.178 30.8164 185.207V257.533C30.8164 260.562 33.2734 263.017 36.304 263.017H289.31C292.341 263.017 294.798 260.562 294.798 257.533V249.45C294.798 246.421 292.341 243.965 289.31 243.965H50.1674V185.207C50.1674 182.178 47.7104 179.722 44.6798 179.722Z" fill="white"/>
<path d="M289.31 263.52H36.3039C33.0007 263.52 30.3135 260.834 30.3135 257.533V185.207C30.3135 181.906 33.0007 179.22 36.3039 179.22H44.6796C47.9827 179.22 50.67 181.906 50.67 185.207V243.463H289.31C292.613 243.463 295.3 246.149 295.3 249.45V257.533C295.3 260.834 292.613 263.52 289.31 263.52ZM36.3039 180.225C33.555 180.225 31.319 182.46 31.319 185.207V257.533C31.319 260.28 33.5553 262.515 36.3039 262.515H289.31C292.058 262.515 294.295 260.28 294.295 257.533V249.45C294.295 246.703 292.058 244.468 289.31 244.468H50.1672C50.0339 244.468 49.906 244.415 49.8117 244.321C49.7174 244.226 49.6645 244.099 49.6645 243.965V185.207C49.6645 182.46 47.4282 180.225 44.6796 180.225H36.3039Z" fill="#25242E"/>
<path d="M293.833 263.017H31.7804C31.248 263.017 30.8164 263.449 30.8164 263.981V267.827C30.8164 268.359 31.248 268.791 31.7804 268.791H293.833C294.366 268.791 294.798 268.359 294.798 267.827V263.981C294.798 263.449 294.366 263.017 293.833 263.017Z" fill="white"/>
<path d="M293.833 269.293H31.7803C31.3914 269.293 31.0186 269.138 30.7436 268.863C30.4686 268.589 30.3139 268.216 30.3135 267.827V263.981C30.3139 263.592 30.4686 263.22 30.7436 262.945C31.0186 262.67 31.3914 262.516 31.7803 262.515H293.833C294.222 262.516 294.595 262.67 294.87 262.945C295.145 263.22 295.3 263.592 295.3 263.981V267.827C295.3 268.216 295.145 268.589 294.87 268.863C294.595 269.138 294.222 269.293 293.833 269.293ZM31.7803 263.52C31.658 263.52 31.5407 263.569 31.4542 263.655C31.3678 263.741 31.3191 263.859 31.319 263.981V267.827C31.319 268.081 31.5259 268.288 31.7803 268.288H293.833C293.956 268.288 294.073 268.239 294.159 268.153C294.246 268.066 294.294 267.949 294.295 267.827V263.981C294.294 263.859 294.246 263.741 294.159 263.655C294.073 263.569 293.956 263.52 293.833 263.52H31.7803Z" fill="#25242E"/>
<path d="M270.844 269.293H254.778C254.645 269.293 254.517 269.24 254.423 269.146C254.328 269.052 254.275 268.924 254.275 268.791C254.275 268.657 254.328 268.53 254.423 268.435C254.517 268.341 254.645 268.288 254.778 268.288H270.844C270.978 268.288 271.106 268.341 271.2 268.435C271.294 268.53 271.347 268.657 271.347 268.791C271.347 268.924 271.294 269.052 271.2 269.146C271.106 269.24 270.978 269.293 270.844 269.293ZM70.3187 269.293H54.1698C54.0364 269.293 53.9085 269.24 53.8142 269.146C53.72 269.052 53.667 268.924 53.667 268.791C53.667 268.657 53.72 268.53 53.8142 268.435C53.9085 268.341 54.0364 268.288 54.1698 268.288H70.3187C70.452 268.288 70.5799 268.341 70.6742 268.435C70.7684 268.53 70.8214 268.657 70.8214 268.791C70.8214 268.924 70.7684 269.052 70.6742 269.146C70.5799 269.24 70.452 269.293 70.3187 269.293Z" fill="#25242E"/>
</g>
<g clip-path="url(#clip3_2696_77389)">
<path d="M107.278 80.6897C112.968 70.8328 111.288 60.7525 101.186 55.7214C90.2985 50.2987 80.8633 55.5717 75.9479 65.6215C75.0516 60.9403 69.5074 61.6583 67.7553 65.302C66.4591 67.998 67.997 72.1687 73.1678 72.7065C72.7582 84.1558 79.4477 90.9125 88.1472 94.2611C98.245 98.1479 109.658 91.1225 107.278 80.69V80.6897Z" fill="white"/>
<path d="M93.978 95.8501C91.922 95.8495 89.8837 95.4705 87.9651 94.7321C83.1902 92.8941 79.4471 90.2349 76.8395 86.828C73.954 83.0579 72.5453 78.4579 72.6492 73.1495C70.2992 72.7954 68.4864 71.6604 67.5148 69.922C66.659 68.3907 66.5784 66.5818 67.2992 65.0824C68.332 62.9342 70.6792 61.5829 72.8803 61.8695C74.3449 62.0601 75.4598 62.9216 76.0646 64.2891C78.8697 59.1121 82.8739 55.4431 87.4397 53.8957C91.806 52.416 96.6372 52.8906 101.411 55.2684C105.998 57.553 109.094 60.9888 110.365 65.2047C111.773 69.878 110.866 75.3994 107.813 80.7713C108.748 85.1618 107.354 89.3433 103.973 92.2704C101.262 94.6174 97.673 95.8501 93.9777 95.8501H93.978ZM72.2768 62.8417C70.6408 62.8417 68.9853 63.9097 68.2106 65.5206C67.6321 66.7235 67.7022 68.1848 68.3977 69.4292C69.2677 70.9852 70.98 71.9705 73.2198 72.2033C73.3473 72.2165 73.465 72.2777 73.5491 72.3744C73.6332 72.4711 73.6775 72.5961 73.6729 72.7241C73.2231 85.2985 81.3946 91.12 88.3286 93.789C93.5201 95.7872 99.4013 94.8913 103.312 91.5061C106.451 88.7886 107.717 84.8871 106.785 80.8019C106.757 80.6776 106.776 80.5473 106.84 80.4369C109.831 75.2554 110.739 69.9495 109.397 65.4963C108.209 61.5544 105.291 58.3304 100.961 56.1734C96.3682 53.8863 91.9286 53.442 87.7648 54.8532C83.1366 56.4219 79.1013 60.3246 76.4021 65.843C76.3556 65.9385 76.2803 66.0168 76.1867 66.067C76.0931 66.1172 75.9861 66.1366 75.8809 66.1226C75.7756 66.1085 75.6775 66.0617 75.6004 65.9888C75.5233 65.9158 75.4711 65.8204 75.4512 65.7162C75.1357 64.0679 74.1765 63.0578 72.7501 62.8723C72.5933 62.8518 72.435 62.842 72.277 62.842L72.2768 62.8417Z" fill="#25242E"/>
<path d="M69.9786 68.0574C69.8568 68.0576 69.739 68.0138 69.6469 67.9342C69.5549 67.8545 69.4946 67.7443 69.4773 67.6238C69.46 67.5033 69.4868 67.3806 69.5527 67.2783C69.6186 67.1759 69.7193 67.1008 69.8362 67.0667L73.596 65.9628C73.7247 65.925 73.8631 65.9399 73.9808 66.0041C74.0986 66.0683 74.1859 66.1766 74.2238 66.3053C74.2616 66.4339 74.2467 66.5723 74.1825 66.6899C74.1182 66.8076 74.0099 66.895 73.8812 66.9328L70.1214 68.0367C70.075 68.0503 70.0269 68.0573 69.9786 68.0574Z" fill="#25242E"/>
<path d="M72.3442 69.1952C72.2361 69.1951 72.1308 69.1604 72.0438 69.0961C71.9569 69.0319 71.8928 68.9414 71.8611 68.8381L70.7259 65.1438C70.6865 65.0156 70.6997 64.8771 70.7625 64.7587C70.8254 64.6402 70.9327 64.5516 71.0609 64.5122C71.1891 64.4729 71.3277 64.4861 71.4462 64.5489C71.5646 64.6117 71.6533 64.719 71.6927 64.8471L72.8279 68.5414C72.8511 68.617 72.8563 68.697 72.843 68.775C72.8297 68.853 72.7982 68.9268 72.7512 68.9904C72.7041 69.0541 72.6428 69.1058 72.5721 69.1414C72.5014 69.177 72.4234 69.1955 72.3442 69.1954V69.1952Z" fill="#25242E"/>
<path d="M137.201 150.402L131.593 146.206L89.1401 157.332L108.974 190.48L137.201 150.402Z" fill="#8DA2FB"/>
<path d="M108.974 190.986L108.955 190.985C108.871 190.982 108.789 190.958 108.716 190.915C108.644 190.872 108.583 190.812 108.54 190.74L88.7061 157.591C88.6658 157.524 88.6417 157.448 88.6357 157.37C88.6298 157.292 88.6421 157.213 88.6718 157.141C88.7014 157.068 88.7476 157.003 88.8066 156.951C88.8656 156.9 88.9358 156.863 89.0117 156.843L131.465 145.717C131.538 145.697 131.615 145.695 131.69 145.709C131.765 145.724 131.835 145.755 131.896 145.801L137.504 149.998C137.609 150.076 137.679 150.193 137.7 150.323C137.72 150.453 137.69 150.586 137.614 150.693L109.387 190.771C109.34 190.837 109.279 190.891 109.207 190.929C109.135 190.966 109.055 190.985 108.974 190.986ZM89.9196 157.65L109.008 189.553L136.504 150.512L131.485 146.756L89.9194 157.65L89.9196 157.65Z" fill="#25242E"/>
<path d="M118.968 107.74C127.982 113.406 138.684 122.508 146.172 129.047C138.139 138.518 123.615 156.205 123.615 156.205C116.313 149.354 104.262 135.285 104.262 135.285C104.262 135.285 106.342 99.8033 118.968 107.74Z" fill="#6875F5"/>
<path d="M288.361 208.898H281.991L262.86 204.308L262.742 204.322C261.637 201.107 255.23 182.488 248.755 164.032C243.098 147.909 213.52 167.544 217.334 189.638C220.45 194.452 225.044 201.412 229.905 208.595C230.379 223.509 236.809 225.473 247.663 223.504C254.456 222.272 266.035 219.85 280.013 216.689C283.814 215.829 286.859 214.612 289.152 213.451C291.045 212.494 290.472 209.087 288.36 208.897L288.361 208.898Z" fill="#FAC0C3"/>
<path d="M123.615 156.71C123.487 156.71 123.363 156.661 123.269 156.573C116.03 149.782 103.998 135.755 103.877 135.614C103.792 135.514 103.749 135.386 103.757 135.255C103.815 134.254 105.285 110.676 113.076 106.666C114.949 105.702 117.022 105.919 119.236 107.312C128.138 112.907 138.485 121.663 146.505 128.666C146.605 128.753 146.666 128.876 146.676 129.009C146.686 129.141 146.644 129.272 146.558 129.373C138.619 138.733 124.151 156.348 124.006 156.525C123.959 156.582 123.899 156.629 123.831 156.661C123.764 156.693 123.69 156.709 123.615 156.709L123.615 156.71ZM104.78 135.112C106.097 136.643 116.756 148.986 123.568 155.465C125.786 152.767 138.158 137.727 145.464 129.1C137.527 122.178 127.403 113.639 118.698 108.168C116.781 106.962 115.093 106.765 113.539 107.565C106.617 111.127 104.94 132.777 104.78 135.112Z" fill="#6875F5"/>
<path d="M101.221 193.571C116.243 211.016 140.526 226.388 162.127 201.004C180.831 179.023 189.809 167.596 197.68 156.987C201.1 166.393 215.951 191.706 224.774 200.952L265.995 185.871C265.995 185.871 242.455 134.55 236.377 121.897C222.305 92.6029 199.195 90.4091 176.861 109.61C170.693 114.913 125.72 162.407 125.72 162.407C125.72 162.407 86.199 176.127 101.221 193.571H101.221Z" fill="#8DA2FB"/>
<path d="M137.001 214.914C121.282 214.914 107.601 201.755 100.838 193.901C100.755 193.799 100.715 193.668 100.726 193.537C100.738 193.406 100.8 193.284 100.9 193.198C101 193.112 101.13 193.068 101.261 193.077C101.393 193.085 101.516 193.144 101.605 193.242C108.266 200.977 121.738 213.944 137.081 213.903C145.998 213.877 154.296 209.427 161.742 200.676C180.494 178.64 189.509 167.153 197.274 156.685C197.329 156.612 197.402 156.555 197.486 156.52C197.571 156.485 197.663 156.473 197.753 156.486C197.844 156.499 197.929 156.537 198 156.594C198.071 156.652 198.125 156.728 198.156 156.814C201.394 165.72 216.025 190.882 224.914 200.362L265.308 185.584C262.862 180.254 241.609 133.955 235.922 122.115C229.437 108.615 220.638 100.355 210.478 98.2282C200.165 96.0698 188.655 100.138 177.191 109.993C172.443 114.075 144.267 143.619 132.373 156.132C132.327 156.18 132.272 156.219 132.212 156.246C132.151 156.273 132.086 156.288 132.019 156.289C131.885 156.293 131.755 156.243 131.658 156.15C131.61 156.105 131.571 156.05 131.544 155.989C131.517 155.929 131.502 155.863 131.501 155.797C131.497 155.663 131.547 155.533 131.64 155.436C143.544 142.912 171.749 113.338 176.532 109.226C188.243 99.1585 200.053 95.0131 210.685 97.2386C221.165 99.4322 230.207 107.883 236.834 121.678C242.844 134.19 266.22 185.147 266.455 185.66C266.484 185.723 266.5 185.792 266.501 185.862C266.502 185.931 266.489 186.001 266.462 186.065C266.435 186.129 266.395 186.187 266.345 186.236C266.295 186.284 266.235 186.321 266.17 186.345L224.949 201.426C224.857 201.46 224.756 201.466 224.66 201.444C224.564 201.421 224.477 201.372 224.409 201.3C215.565 192.033 201.449 167.927 197.536 158.029C189.879 168.318 180.842 179.791 162.512 201.331C154.866 210.317 146.311 214.887 137.084 214.914H137.002L137.001 214.914Z" fill="#8DA2FB"/>
<path d="M248.546 194.018C248.456 194.018 248.367 193.994 248.289 193.948C248.211 193.902 248.147 193.836 248.103 193.757C244.596 187.412 238.927 175.44 233.926 164.878C230.573 157.797 227.678 151.682 226.134 148.753C217.899 133.126 210.236 125.339 202.016 124.247C194.698 123.275 186.592 127.693 177.232 137.754C171.761 143.634 130.43 191.553 130.013 192.036C129.924 192.133 129.801 192.192 129.67 192.2C129.538 192.208 129.409 192.164 129.309 192.078C129.209 191.992 129.147 191.871 129.135 191.74C129.124 191.609 129.164 191.478 129.247 191.376C129.664 190.893 171.008 142.959 176.491 137.065C186.091 126.747 194.484 122.227 202.149 123.245C210.722 124.384 218.628 132.34 227.029 148.282C228.582 151.23 231.482 157.354 234.84 164.446C239.835 174.995 245.496 186.951 248.988 193.268C249.031 193.345 249.053 193.432 249.052 193.52C249.05 193.607 249.026 193.694 248.982 193.769C248.937 193.845 248.873 193.908 248.797 193.951C248.721 193.995 248.634 194.018 248.547 194.018L248.546 194.018Z" fill="#25242E"/>
<path d="M264.796 223.972C276.358 223.086 290.532 221.518 306.795 219.015L309.512 187.326L265.995 184.434C265.995 184.434 227.546 226.825 264.796 223.972H264.796Z" fill="white"/>
<path d="M261.433 224.613C254.806 224.613 250.596 222.862 248.895 219.389C243.594 208.57 264.719 185.089 265.621 184.095C265.672 184.038 265.735 183.994 265.806 183.966C265.876 183.937 265.953 183.925 266.029 183.93L309.546 186.822C309.613 186.826 309.679 186.844 309.739 186.874C309.799 186.904 309.853 186.946 309.896 186.997C309.94 187.048 309.973 187.107 309.994 187.171C310.015 187.235 310.022 187.303 310.016 187.37L307.299 219.059C307.289 219.171 307.242 219.278 307.164 219.361C307.087 219.443 306.984 219.498 306.872 219.515C291.929 221.815 277.786 223.484 264.835 224.476L264.796 223.972L264.835 224.476C263.639 224.568 262.504 224.613 261.433 224.613L261.433 224.613ZM266.208 184.955C264.229 187.184 245.034 209.211 249.803 218.944C251.579 222.57 256.61 224.092 264.758 223.468C277.569 222.486 291.552 220.841 306.325 218.576L308.965 187.797L266.208 184.955V184.955Z" fill="#25242E"/>
<path d="M300.66 217.876C314.591 225.157 318.89 219.647 321.312 208.777C322.813 202.041 325.074 190.434 327.585 176.33C328.268 172.494 328.327 169.217 328.147 166.653C327.999 164.539 325.18 163.935 324.185 165.807L321.169 171.483L309.513 187.326C302.109 194.11 300.092 205.006 300.66 217.875V217.876Z" fill="white"/>
<path d="M311.154 221.685C309.079 221.685 306.677 221.113 303.907 219.965L302.69 220.145C302.625 220.154 302.558 220.151 302.493 220.135C302.429 220.119 302.368 220.09 302.315 220.051C302.262 220.011 302.217 219.961 302.183 219.904C302.149 219.847 302.126 219.784 302.116 219.719C302.107 219.653 302.11 219.586 302.126 219.522C302.142 219.457 302.171 219.397 302.21 219.343C302.25 219.29 302.3 219.245 302.357 219.211C302.414 219.177 302.477 219.154 302.543 219.145L303.898 218.944C303.99 218.931 304.083 218.943 304.168 218.978C308.734 220.893 312.191 221.184 314.736 219.869C317.54 218.419 319.416 214.964 320.819 208.667C322.384 201.642 324.669 189.824 327.088 176.242C327.671 172.966 327.858 169.752 327.643 166.689C327.581 165.798 326.948 165.351 326.376 165.229C325.807 165.108 325.05 165.259 324.633 166.044L321.617 171.72C321.605 171.742 321.592 171.763 321.577 171.783L309.921 187.626C309.87 187.694 309.804 187.749 309.726 187.785C309.649 187.821 309.565 187.836 309.48 187.831L308.191 187.745C308.058 187.735 307.934 187.673 307.847 187.572C307.76 187.472 307.716 187.341 307.725 187.208C307.734 187.075 307.795 186.951 307.894 186.863C307.994 186.774 308.125 186.729 308.258 186.737L309.27 186.804L320.741 171.214L323.74 165.57C324.301 164.515 325.418 163.993 326.586 164.24C327.757 164.489 328.569 165.422 328.653 166.618C328.873 169.764 328.681 173.061 328.084 176.419C325.663 190.015 323.375 201.849 321.807 208.887C320.332 215.503 318.295 219.167 315.2 220.767C314.017 221.379 312.673 221.685 311.154 221.685L311.154 221.685Z" fill="#25242E"/>
<path d="M73.1469 174.059C69.1083 196.719 75.7212 221.983 109.02 223.59C136.794 224.931 255.505 224.726 264.796 223.972C265.142 212.383 265.995 184.434 265.995 184.434L111.337 174.155C111.337 174.155 77.1855 151.399 73.1472 174.059H73.1469Z" fill="#8DA2FB"/>
<path d="M198.253 225.069C162.673 225.069 123.416 224.791 108.996 224.095C95.7497 223.455 85.7975 219.075 79.4162 211.075C72.3636 202.234 69.9605 189.057 72.6493 173.97C72.661 173.905 72.6854 173.843 72.7212 173.787C72.757 173.731 72.8034 173.682 72.8579 173.644C72.9124 173.606 72.9738 173.58 73.0386 173.565C73.1035 173.551 73.1705 173.55 73.2359 173.561C73.3013 173.573 73.3637 173.597 73.4196 173.633C73.4756 173.669 73.5239 173.715 73.5619 173.77C73.5999 173.824 73.6268 173.886 73.641 173.951C73.6553 174.015 73.6566 174.082 73.645 174.148C71.008 188.944 73.3385 201.834 80.207 210.445C86.3992 218.208 96.1016 222.46 109.045 223.085C136.282 224.4 252.205 224.224 264.305 223.499C264.631 212.584 265.362 188.62 265.475 184.906L129.596 175.875C129.464 175.865 129.34 175.803 129.253 175.702C129.166 175.601 129.122 175.471 129.13 175.338C129.139 175.205 129.2 175.081 129.3 174.993C129.4 174.904 129.53 174.859 129.663 174.866L266.029 183.93C266.159 183.938 266.281 183.997 266.369 184.094C266.457 184.191 266.504 184.318 266.5 184.449C266.5 184.449 265.648 212.398 265.301 223.987C265.298 224.111 265.248 224.23 265.163 224.32C265.077 224.41 264.961 224.465 264.837 224.475C260.409 224.835 230.876 225.069 198.252 225.069H198.253Z" fill="#8DA2FB"/>
<path d="M121.819 172.706C121.657 172.706 121.497 172.627 121.4 172.482L111.394 157.614C111.319 157.502 111.292 157.366 111.318 157.234C111.343 157.103 111.42 156.987 111.532 156.912C111.643 156.837 111.779 156.81 111.911 156.835C112.042 156.861 112.158 156.938 112.233 157.049L122.239 171.918C122.29 171.994 122.319 172.083 122.324 172.174C122.329 172.266 122.308 172.357 122.265 172.437C122.222 172.518 122.158 172.586 122.08 172.633C122.001 172.681 121.911 172.706 121.819 172.706Z" fill="#25242E"/>
<path d="M110.514 117.082C115.886 124.888 121.035 130.359 121.819 132.711C122.658 135.228 123.18 138.685 124.353 146.752L130.469 155.033C130.469 155.033 125.603 158.262 118.979 163.283C91.3749 192.717 71.9565 191.706 71.9565 191.706C62.6697 186.256 64.8394 172.2 64.8394 172.2C58.0615 158.288 38.8905 113.029 40.8701 103.165C47.617 95.5709 60.3222 94.372 69.1152 94.9446C76.566 95.4299 91.8173 97.8297 98.5652 99.5391C106.392 101.522 114.015 103.973 120.83 108.943L110.514 117.082L110.514 117.082Z" fill="#6875F5"/>
<path d="M197.68 157.492C197.585 157.492 197.492 157.465 197.412 157.415C197.332 157.365 197.267 157.293 197.226 157.208C197.184 157.123 197.168 157.028 197.178 156.933C197.188 156.839 197.224 156.75 197.282 156.675L204.122 147.937C204.206 147.836 204.327 147.771 204.458 147.756C204.589 147.742 204.721 147.78 204.824 147.861C204.928 147.942 204.996 148.061 205.014 148.191C205.032 148.322 204.998 148.454 204.919 148.56L198.079 157.298C198.031 157.359 197.971 157.407 197.902 157.441C197.833 157.475 197.757 157.492 197.68 157.492ZM209.861 181.209C209.849 181.209 209.838 181.208 209.826 181.207L129.596 175.875C129.464 175.865 129.34 175.803 129.253 175.702C129.166 175.602 129.122 175.471 129.131 175.338C129.139 175.205 129.2 175.081 129.3 174.993C129.4 174.905 129.53 174.859 129.663 174.867L209.893 180.199C210.024 180.208 210.146 180.268 210.233 180.365C210.321 180.462 210.367 180.589 210.363 180.72C210.359 180.85 210.304 180.974 210.21 181.065C210.117 181.157 209.991 181.208 209.86 181.209H209.861Z" fill="#25242E"/>
<path d="M73.0398 192.267C72.3253 192.267 71.9355 192.214 71.8834 192.206C71.819 192.197 71.757 192.175 71.7008 192.142C67.7669 189.833 65.2477 185.629 64.4157 179.983C63.86 176.213 64.2185 173.027 64.3178 172.282C58.7494 160.81 38.2754 113.528 40.3751 103.065C40.3927 102.978 40.4334 102.896 40.4929 102.829C48.2663 94.0796 63.1227 94.0475 69.1488 94.44C76.572 94.9232 91.7569 97.2924 98.6904 99.0488C106.197 100.951 114.111 103.416 121.129 108.534C121.237 108.613 121.31 108.732 121.331 108.864C121.351 108.997 121.319 109.132 121.24 109.24C121.161 109.349 121.042 109.421 120.909 109.442C120.777 109.463 120.642 109.43 120.533 109.351C113.654 104.334 105.85 101.906 98.4418 100.029C91.5521 98.2833 76.4613 95.929 69.0831 95.4488C63.2294 95.0677 48.8455 95.0852 41.3419 103.397C39.5918 113.377 58.8841 158.82 65.295 171.979C65.34 172.071 65.3557 172.175 65.3403 172.277C65.3193 172.414 63.3493 185.965 72.1218 191.215C72.7882 191.279 77.0852 191.535 84.355 188.607C91.6565 185.667 103.527 178.826 118.613 162.935C118.632 162.915 118.652 162.897 118.674 162.88C124.105 158.763 128.403 155.818 129.749 154.908L123.947 147.052C123.898 146.985 123.866 146.907 123.854 146.825C122.677 138.73 122.166 135.346 121.34 132.871C120.842 131.375 118.427 128.251 115.37 124.296C113.792 122.254 112.003 119.94 110.109 117.382C110.032 117.275 110.001 117.141 110.021 117.01C110.042 116.879 110.113 116.762 110.22 116.683C110.326 116.605 110.459 116.571 110.591 116.589C110.722 116.607 110.84 116.676 110.921 116.781C112.81 119.331 114.595 121.64 116.17 123.678C119.408 127.867 121.747 130.893 122.3 132.551C123.148 135.096 123.663 138.486 124.836 146.554L130.877 154.732C130.917 154.788 130.946 154.85 130.962 154.917C130.978 154.984 130.98 155.053 130.968 155.12C130.956 155.188 130.93 155.252 130.893 155.309C130.855 155.367 130.807 155.416 130.75 155.454C130.701 155.486 125.836 158.722 119.318 163.661C104.063 179.723 92.029 186.628 84.6179 189.591C78.7933 191.921 74.8617 192.267 73.0403 192.267H73.0398Z" fill="#6875F5"/>
<path d="M130.47 155.538C130.39 155.538 130.312 155.52 130.241 155.484C130.171 155.449 130.109 155.397 130.062 155.333L123.946 147.053C123.897 146.986 123.865 146.908 123.853 146.826C122.676 138.731 122.165 135.347 121.34 132.871C120.841 131.376 118.426 128.252 115.369 124.297C113.791 122.255 112.002 119.941 110.108 117.383C110.031 117.275 110 117.142 110.02 117.011C110.041 116.88 110.112 116.763 110.219 116.684C110.325 116.605 110.458 116.571 110.59 116.59C110.721 116.608 110.84 116.677 110.92 116.782C112.809 119.332 114.594 121.641 116.169 123.679C119.407 127.868 121.746 130.894 122.299 132.552C123.147 135.097 123.662 138.487 124.835 146.555L130.876 154.733C130.931 154.808 130.965 154.898 130.973 154.991C130.981 155.084 130.963 155.177 130.921 155.261C130.878 155.344 130.814 155.415 130.734 155.464C130.655 155.513 130.563 155.539 130.47 155.539V155.538Z" fill="#25242E"/>
<path d="M47.6173 149.736L61.592 132.299C68.5765 113.732 47.2105 97.16 40.8704 103.165C33.1841 111.401 27.833 118.542 16.0592 135.144C8.72075 145.492 6.25773 154.664 7.35575 162.15C9.3068 175.451 47.6173 149.736 47.6173 149.736V149.736Z" fill="white"/>
<path d="M12.485 166.464C11.346 166.464 10.3403 166.296 9.50619 165.927C8.01048 165.265 7.11877 164.019 6.85533 162.223C5.66452 154.105 8.70449 144.641 15.6465 134.852C27.6163 117.974 32.8859 110.979 40.5005 102.82C40.5076 102.812 40.5149 102.805 40.5225 102.798C42.9028 100.544 47.2608 101.054 51.8955 104.129C55.9792 106.838 59.478 111.024 61.495 115.611C63.9328 121.156 64.13 126.988 62.0649 132.477C62.0461 132.527 62.0196 132.574 61.9863 132.615L48.0116 150.053C47.9796 150.093 47.9416 150.128 47.8989 150.156C46.8107 150.887 23.4636 166.464 12.4847 166.464L12.485 166.464ZM41.2289 103.522C33.6601 111.633 28.4061 118.608 16.4718 135.436C9.68292 145.009 6.70363 154.221 7.85601 162.077C8.06863 163.526 8.74241 164.483 9.91577 165.003C18.0924 168.623 45.7433 150.376 47.2716 149.359L61.1466 132.046C65.6487 119.947 57.7553 109.23 51.3365 104.971C47.1867 102.218 43.2219 101.65 41.2291 103.522H41.2289Z" fill="#25242E"/>
<path d="M55.1704 154.994C55.0614 154.994 54.9553 154.959 54.868 154.893C41.7975 145.15 20.5319 138.171 12.7302 141.066C12.6327 141.102 12.5265 141.107 12.426 141.081C12.3255 141.054 12.2355 140.998 12.1684 140.918C12.1013 140.839 12.0602 140.741 12.0509 140.637C12.0415 140.534 12.0643 140.43 12.1161 140.34C13.1494 138.545 14.3374 136.698 15.647 134.852C27.6168 117.974 32.8864 110.979 40.501 102.82C42.0209 101.242 44.0342 100.559 46.3281 100.839C51.195 101.435 56.8428 106.161 60.7166 112.881C60.7497 112.938 60.7712 113.002 60.7799 113.068C60.7885 113.133 60.784 113.2 60.7668 113.264C60.7496 113.328 60.7199 113.388 60.6794 113.441C60.639 113.494 60.5885 113.538 60.531 113.571C60.4735 113.604 60.41 113.626 60.3442 113.634C60.2783 113.643 60.2115 113.638 60.1473 113.621C60.0832 113.604 60.0231 113.574 59.9705 113.534C59.9179 113.493 59.8737 113.443 59.8405 113.385C56.1771 107.031 50.6974 102.392 46.2055 101.842C44.2112 101.599 42.539 102.161 41.2352 103.515C33.6659 111.626 28.4124 118.6 16.4723 135.436C15.4752 136.839 14.5301 138.278 13.6386 139.75C17.8256 138.807 24.5495 139.732 32.4313 142.369C40.523 145.076 48.8879 149.29 54.9552 153.702L62.6155 135.637C62.6679 135.514 62.7671 135.416 62.8914 135.366C63.0158 135.316 63.155 135.317 63.2785 135.369C63.4019 135.421 63.4996 135.521 63.5499 135.645C63.6002 135.769 63.599 135.908 63.5467 136.032L55.6366 154.686C55.5977 154.777 55.5329 154.855 55.4502 154.91C55.3674 154.965 55.2704 154.994 55.1711 154.994L55.1704 154.994Z" fill="#6875F5"/>
<path d="M55.1703 154.488L63.0805 135.834C70.065 117.267 49.1698 94.5463 40.8706 103.165C33.1842 111.401 27.8332 118.542 16.0594 135.144C14.7449 136.997 13.5774 138.815 12.5542 140.592C27.9621 137.067 50.4258 150.859 55.1703 154.488Z" fill="#6875F5"/>
<path d="M60.0297 113.214C59.942 113.214 59.8558 113.191 59.7796 113.148C59.7034 113.105 59.6397 113.042 59.5949 112.967C55.9266 106.812 50.5233 102.339 46.1491 101.836C44.1791 101.609 42.5262 102.174 41.2347 103.515C41.1417 103.612 41.0141 103.667 40.8801 103.67C40.746 103.673 40.6164 103.622 40.5197 103.529C40.4231 103.436 40.3674 103.308 40.3648 103.174C40.3623 103.04 40.4131 102.911 40.5061 102.814C42.0064 101.256 43.9973 100.571 46.2647 100.831C51.0092 101.377 56.5827 105.937 60.4638 112.449C60.5096 112.526 60.5342 112.614 60.5351 112.703C60.536 112.792 60.5133 112.88 60.4692 112.958C60.4251 113.035 60.3612 113.1 60.284 113.145C60.2068 113.19 60.1191 113.214 60.0297 113.214V113.214ZM55.1699 154.994C55.0864 154.994 55.0042 154.973 54.9306 154.934C54.8571 154.894 54.7944 154.837 54.7483 154.767C54.7022 154.698 54.6741 154.618 54.6665 154.535C54.6588 154.451 54.6719 154.368 54.7045 154.291L62.6146 135.637C62.6669 135.513 62.7662 135.416 62.8905 135.365C63.0148 135.315 63.154 135.316 63.2775 135.369C63.401 135.421 63.4986 135.52 63.5489 135.644C63.5992 135.769 63.5981 135.908 63.5458 136.031L55.6356 154.685C55.5969 154.777 55.5321 154.855 55.4492 154.91C55.3664 154.965 55.2693 154.994 55.1699 154.994Z" fill="#25242E"/>
<path d="M146.172 129.047C149.171 131.666 157.111 138.947 158.581 140.548C166.671 149.357 167.296 154.682 169.873 170.014C172.129 183.441 173.105 189.354 173.105 189.354L141.152 196.106L133.891 160.328L127.195 150.392L146.172 129.046L146.172 129.047Z" fill="white"/>
<path d="M141.152 196.612C141.035 196.612 140.922 196.572 140.832 196.498C140.742 196.424 140.68 196.322 140.656 196.207L133.415 160.527L126.775 150.675C126.702 150.564 126.676 150.428 126.702 150.298C126.729 150.168 126.805 150.053 126.915 149.978C127.026 149.904 127.161 149.876 127.292 149.901C127.423 149.926 127.538 150.001 127.614 150.11L134.309 160.045C134.346 160.1 134.372 160.162 134.385 160.227L141.546 195.507L172.527 188.959C172.252 187.302 171.253 181.278 169.373 170.098L169.082 168.362C166.754 154.452 165.883 149.247 158.208 140.89C156.797 139.354 148.993 132.182 145.839 129.427C145.788 129.384 145.747 129.331 145.717 129.271C145.688 129.212 145.67 129.147 145.665 129.08C145.661 129.014 145.669 128.947 145.69 128.884C145.711 128.821 145.745 128.763 145.789 128.713C145.833 128.662 145.886 128.621 145.946 128.592C146.005 128.562 146.07 128.545 146.137 128.541C146.203 128.536 146.27 128.545 146.333 128.567C146.396 128.588 146.454 128.622 146.504 128.666C149.365 131.164 157.44 138.559 158.953 140.207C166.831 148.785 167.715 154.07 170.08 168.195L170.37 169.93C172.602 183.204 173.593 189.213 173.603 189.272C173.624 189.4 173.595 189.532 173.522 189.639C173.448 189.747 173.336 189.822 173.209 189.849L141.256 196.601C141.222 196.608 141.187 196.612 141.151 196.612H141.152Z" fill="#25242E"/>
<path d="M265.086 215.985C265.078 215.985 265.071 215.985 265.063 215.984L116.794 209.402C103.649 208.819 87.6483 203.716 86.0682 182.718C86.0608 182.585 86.1055 182.456 86.1928 182.356C86.2802 182.256 86.403 182.195 86.5351 182.185C86.6672 182.175 86.7978 182.218 86.8991 182.303C87.0003 182.388 87.064 182.51 87.0764 182.642C88.601 202.901 104.103 207.827 116.839 208.392L265.107 214.974C265.239 214.98 265.364 215.038 265.454 215.134C265.544 215.23 265.593 215.358 265.59 215.49C265.588 215.622 265.533 215.748 265.439 215.84C265.344 215.933 265.217 215.985 265.085 215.985H265.086Z" fill="#25242E"/>
<path d="M77.0444 157.332L47.6176 149.736C47.6176 149.736 11.227 142.697 9.74196 146.205C2.50131 163.308 9.84182 175.886 29.2691 179.983C51.6327 184.7 71.3298 185.557 71.3298 185.557L77.0444 157.331V157.332Z" fill="white"/>
<path d="M71.3296 186.062C71.3223 186.062 71.3147 186.062 71.3074 186.062C71.1099 186.053 51.3127 185.149 29.1645 180.478C19.0803 178.351 11.9947 173.867 8.67332 167.51C5.60175 161.63 5.81008 154.195 9.27605 146.009L10.2244 144.026C10.2524 143.965 10.2923 143.91 10.3417 143.865C10.391 143.82 10.4489 143.785 10.512 143.762C10.575 143.739 10.6419 143.729 10.7088 143.733C10.7758 143.736 10.8414 143.753 10.9018 143.782C10.9623 143.81 11.0164 143.851 11.061 143.901C11.1056 143.951 11.1398 144.009 11.1616 144.073C11.1835 144.136 11.1925 144.203 11.1882 144.27C11.1839 144.337 11.1664 144.402 11.1366 144.462L10.1976 146.424C6.86284 154.302 6.64237 161.439 9.56958 167.042C12.7463 173.122 19.5941 177.427 29.3731 179.489C49.6345 183.762 67.9117 184.871 70.92 185.03L76.4531 157.701L46.0201 149.846C45.9558 149.829 45.8954 149.8 45.8423 149.76C45.7893 149.72 45.7446 149.67 45.7109 149.613C45.6772 149.556 45.655 149.493 45.6458 149.427C45.6365 149.361 45.6403 149.294 45.6569 149.23C45.6735 149.166 45.7026 149.105 45.7425 149.052C45.7825 148.999 45.8325 148.955 45.8897 148.921C45.9469 148.887 46.0102 148.865 46.0759 148.856C46.1417 148.847 46.2086 148.85 46.2729 148.867L77.1701 156.842C77.2954 156.875 77.4036 156.954 77.4723 157.063C77.5409 157.173 77.5649 157.305 77.5392 157.432L71.8246 185.657C71.8015 185.771 71.7395 185.874 71.6493 185.948C71.559 186.022 71.446 186.062 71.3293 186.062L71.3296 186.062Z" fill="#25242E"/>
<path d="M69.0855 188.767C62.44 181.385 63.9236 173.475 63.9236 173.475C64.6977 168.128 67.4399 154.889 77.0442 157.332C83.7483 159.037 91.8693 167.246 96.295 177.279C96.295 177.279 75.731 196.149 69.0855 188.767V188.767Z" fill="white"/>
<path d="M73.3118 190.986C73.1756 190.986 73.0408 190.982 72.9071 190.976C71.1644 190.893 69.7521 190.263 68.7094 189.105C68.6204 189.005 68.5745 188.874 68.5818 188.741C68.5891 188.607 68.649 188.482 68.7484 188.393C68.8478 188.303 68.9786 188.257 69.1122 188.264C69.2457 188.27 69.3712 188.33 69.4611 188.429C70.3285 189.392 71.4713 189.895 72.9551 189.966C80.5699 190.33 93.6443 178.967 95.683 177.15C91.3736 167.6 83.5257 159.501 76.9192 157.821L71.2885 156.368C71.1586 156.334 71.0474 156.251 70.9793 156.135C70.9112 156.02 70.8918 155.882 70.9253 155.752C70.9588 155.622 71.0426 155.511 71.1581 155.443C71.2736 155.375 71.4115 155.356 71.5413 155.389L77.1702 156.842C84.1282 158.612 92.3665 167.121 96.7573 177.075C96.7999 177.172 96.8111 177.28 96.7895 177.383C96.7678 177.486 96.7143 177.58 96.6364 177.652C96.0345 178.204 82.0045 190.985 73.3113 190.985L73.3118 190.986Z" fill="#25242E"/>
<path d="M93.2366 171.23C104.455 182.106 106.188 191.79 104.384 198.179C102.823 203.709 96.41 203.812 95.8243 197.01C95.6695 195.214 95.6478 187.006 88.0565 181.68C84.1364 178.929 88.7217 166.854 93.2366 171.23Z" fill="white"/>
<path d="M99.9874 202.733C99.8625 202.733 99.7371 202.727 99.6112 202.715C97.7577 202.539 95.657 200.96 95.3205 197.053C95.3099 196.931 95.3 196.779 95.2884 196.601C95.1314 194.208 94.6538 186.926 87.7661 182.093C87.7115 182.055 87.665 182.007 87.6292 181.951C87.5934 181.895 87.5691 181.832 87.5575 181.767C87.5459 181.701 87.5474 181.634 87.5618 181.569C87.5763 181.504 87.6034 181.443 87.6416 181.388C87.6798 181.334 87.7284 181.288 87.7845 181.252C87.8407 181.216 87.9034 181.192 87.9689 181.181C88.0344 181.169 88.1016 181.171 88.1665 181.186C88.2314 181.2 88.2927 181.228 88.3471 181.266C95.631 186.377 96.1326 194.023 96.2974 196.535C96.3085 196.705 96.3179 196.85 96.328 196.966C96.6112 200.254 98.2588 201.572 99.7065 201.709C101.515 201.881 103.239 200.373 103.898 198.042C104.876 194.577 104.641 190.605 103.217 186.555C101.466 181.577 97.9901 176.543 92.8845 171.593C92.8678 171.577 92.8521 171.56 92.8378 171.541L91.6265 169.988C91.544 169.883 91.507 169.749 91.5235 169.616C91.54 169.483 91.6087 169.361 91.7145 169.279C91.8202 169.197 91.9544 169.16 92.0875 169.176C92.2206 169.193 92.3417 169.261 92.4241 169.367L93.6137 170.892C98.8193 175.944 102.371 181.101 104.171 186.22C105.664 190.467 105.906 194.65 104.871 198.317C104.121 200.972 102.147 202.734 99.9871 202.734L99.9874 202.733Z" fill="#25242E"/>
<path d="M90.8751 176.778C90.8751 176.778 93.0731 193.969 92.661 200.788C92.0861 210.305 84.6842 211.588 83.1872 203.609C81.1914 192.972 80.9502 178.425 80.9502 178.425C81.1418 172.861 88.8616 171.54 90.8748 176.778L90.8751 176.778Z" fill="white"/>
<path d="M87.5212 209.355C85.2223 209.355 83.3403 207.168 82.69 203.703C80.7094 193.146 80.4469 178.58 80.4444 178.434C80.4433 178.368 80.4553 178.302 80.4797 178.24C80.5041 178.178 80.5404 178.122 80.5866 178.074C80.6328 178.027 80.6879 177.988 80.7488 177.962C80.8098 177.936 80.8753 177.921 80.9417 177.92C81.0758 177.918 81.2053 177.969 81.3017 178.062C81.3981 178.156 81.4535 178.283 81.4557 178.417C81.4582 178.563 81.7191 193.044 83.6841 203.516C84.2555 206.563 85.8253 208.456 87.6873 208.339C89.6262 208.218 91.8519 205.794 92.1563 200.758C92.4422 196.026 91.4539 186.197 90.8393 180.76C90.8242 180.627 90.8627 180.493 90.9463 180.388C91.0299 180.284 91.1518 180.216 91.285 180.201C91.4183 180.186 91.5521 180.225 91.657 180.308C91.7618 180.392 91.8292 180.513 91.8443 180.647C92.4624 186.117 93.4563 196.011 93.1658 200.819C92.8227 206.498 90.1989 209.195 87.7508 209.348C87.6739 209.353 87.5976 209.355 87.5215 209.355H87.5212Z" fill="#25242E"/>
<path d="M85.0509 177.855C85.0509 177.855 86.0106 185.227 85.0486 191.86C84.3412 196.739 83.205 200.431 82.019 203.037C78.1379 211.566 70.2763 209.528 71.4466 201.677C72.2696 196.158 73.3595 192.512 73.8202 189.286C74.8987 181.733 74.6899 178.903 74.6899 178.903C74.1784 173.092 84.8641 174.248 85.0506 177.855H85.0509Z" fill="white"/>
<path d="M75.5442 209.066C75.1114 209.066 74.6955 209.006 74.3051 208.891C71.719 208.127 70.401 205.266 70.9471 201.603C71.407 198.519 71.9445 196.04 72.4188 193.853C72.794 192.123 73.1181 190.629 73.3201 189.214C74.3742 181.832 74.1881 178.967 74.1861 178.939C74.1766 178.806 74.2205 178.674 74.3082 178.573C74.3959 178.471 74.5202 178.409 74.6538 178.399C74.7874 178.39 74.9192 178.433 75.0206 178.521C75.1219 178.608 75.1845 178.732 75.1946 178.866C75.2032 178.984 75.3948 181.837 74.3211 189.357C74.1138 190.808 73.7863 192.319 73.4069 194.068C72.9358 196.239 72.4019 198.7 71.947 201.752C71.4796 204.887 72.5177 207.309 74.5916 207.922C76.6314 208.524 79.577 207.183 81.5589 202.828C82.8918 199.899 83.9256 196.081 84.5483 191.788C85.0396 188.4 85.0138 184.809 84.9056 182.393C84.9023 182.327 84.9122 182.26 84.9348 182.197C84.9573 182.135 84.9919 182.077 85.0368 182.028C85.0816 181.979 85.1357 181.939 85.196 181.911C85.2563 181.882 85.3216 181.866 85.3881 181.863C85.4546 181.86 85.5211 181.871 85.5837 181.893C85.6462 181.916 85.7037 181.951 85.7527 181.996C85.8017 182.041 85.8414 182.095 85.8694 182.156C85.8974 182.216 85.9132 182.282 85.9159 182.348C86.0261 184.808 86.0519 188.467 85.5493 191.933C84.9132 196.32 83.8516 200.232 82.4797 203.247C80.6007 207.375 77.8381 209.066 75.5442 209.067V209.066Z" fill="#25242E"/>
<path d="M77.6035 180.277C76.9775 186.812 74.534 194.687 71.627 199.542C68.72 204.397 62.8373 201.574 64.1078 195.147C65.3782 188.72 67.0463 183.002 67.2762 182.232C68.5676 177.903 78.2657 173.362 77.6035 180.277Z" fill="white"/>
<path d="M67.9332 202.501C67.4652 202.501 66.994 202.414 66.5311 202.236C64.5234 201.464 62.8421 198.943 63.6119 195.049C64.8215 188.932 65.6687 186.117 65.947 185.192L65.9877 185.057C66.0062 184.993 66.0372 184.933 66.0789 184.881C66.1207 184.829 66.1724 184.785 66.231 184.753C66.2896 184.721 66.3541 184.701 66.4205 184.694C66.487 184.687 66.5542 184.693 66.6182 184.712C66.6823 184.731 66.7419 184.763 66.7937 184.805C66.8454 184.848 66.8883 184.9 66.9198 184.959C66.9513 185.018 66.9707 185.082 66.9771 185.149C66.9835 185.215 66.9766 185.282 66.9568 185.346L66.9156 185.484C66.6408 186.397 65.8042 189.177 64.6043 195.245C63.9484 198.563 65.2818 200.673 66.8944 201.293C68.4462 201.89 70.0936 201.119 71.1934 199.283C74.0546 194.504 76.4837 186.669 77.1006 180.229C77.107 180.163 77.1263 180.098 77.1574 180.04C77.1886 179.981 77.231 179.929 77.2822 179.887C77.3335 179.845 77.3925 179.813 77.456 179.794C77.5195 179.774 77.5862 179.767 77.6523 179.774C77.7184 179.78 77.7826 179.799 77.8413 179.831C77.8999 179.862 77.9518 179.904 77.9941 179.955C78.0364 180.007 78.0681 180.066 78.0876 180.129C78.107 180.192 78.1137 180.259 78.1074 180.325C77.4776 186.899 74.9913 194.908 72.0613 199.802C71.0235 201.535 69.498 202.501 67.9337 202.501L67.9332 202.501Z" fill="#25242E"/>
<path d="M65.4541 189.577C65.3767 189.577 65.3003 189.559 65.2308 189.525C65.1614 189.491 65.1006 189.441 65.0533 189.38C65.006 189.319 64.9735 189.248 64.9581 189.172C64.9427 189.096 64.945 189.018 64.9647 188.943L65.9112 185.345C64.6582 183.975 63.4298 181.76 62.7406 180.101C62.7144 180.04 62.7007 179.974 62.7002 179.907C62.6997 179.84 62.7125 179.774 62.7377 179.712C62.7629 179.65 62.8001 179.594 62.8472 179.547C62.8943 179.5 62.9503 179.462 63.0119 179.436C63.0736 179.411 63.1397 179.398 63.2065 179.398C63.2733 179.398 63.3394 179.411 63.401 179.437C63.4626 179.463 63.5184 179.5 63.5654 179.548C63.6123 179.595 63.6494 179.652 63.6745 179.713C64.3629 181.371 65.6063 183.601 66.8323 184.847C66.9572 184.974 67.006 185.158 66.9607 185.33L65.9426 189.2C65.9142 189.308 65.8509 189.404 65.7625 189.472C65.6741 189.54 65.5656 189.577 65.4539 189.577L65.4541 189.577Z" fill="#25242E"/>
<path d="M86.7849 63.1387C93.4183 63.1387 98.7958 57.7634 98.7958 51.1327C98.7958 44.5019 93.4183 39.1266 86.7849 39.1266C80.1514 39.1266 74.7739 44.5019 74.7739 51.1327C74.7739 57.7634 80.1514 63.1387 86.7849 63.1387Z" fill="#25242E"/>
<path d="M98.0881 57.6276C98.0881 62.3535 94.2553 66.1848 89.5274 66.1848C84.7996 66.1848 80.9668 62.3535 80.9668 57.6276C80.9668 52.9017 84.7996 49.0705 89.5274 49.0705C94.2553 49.0705 98.0881 52.9017 98.0881 57.6276ZM93.4579 82.9005C93.1671 78.8345 97.0598 79.1759 97.097 82.0789C99.9059 79.9573 102.182 83.6213 98.3624 84.784C98.9624 85.5943 98.4122 88.0851 95.7115 87.5311C92.0961 86.7891 92.35 84.1227 93.4579 82.9005Z" fill="#FF7C5C"/>
<path d="M99.4647 85.3655C96.9551 85.3655 93.3402 84.2677 91.3869 81.7268C91.3465 81.6742 91.3168 81.6141 91.2996 81.55C91.2823 81.4859 91.2779 81.419 91.2865 81.3532C91.2952 81.2874 91.3167 81.2239 91.3498 81.1664C91.383 81.1089 91.4272 81.0585 91.4798 81.0181C91.5325 80.9776 91.5926 80.9479 91.6567 80.9307C91.7209 80.9135 91.7878 80.9091 91.8536 80.9177C91.9194 80.9263 91.9829 80.9478 92.0405 80.981C92.098 81.0141 92.1484 81.0583 92.1889 81.1109C94.1999 83.7269 98.3492 84.6442 100.449 84.2783C100.579 84.2593 100.712 84.2919 100.818 84.3691C100.925 84.4464 100.997 84.5622 101.02 84.6919C101.043 84.8216 101.014 84.955 100.939 85.0637C100.865 85.1725 100.751 85.248 100.622 85.2743C100.276 85.3344 99.8861 85.3655 99.4649 85.3655H99.4647ZM86.761 65.789C83.8768 69.6063 78.1179 69.2836 75.9214 65.6088C76.6333 62.2504 81.0487 55.2654 87.6519 53.4931C95.6144 51.3558 107.474 55.8626 109.405 63.5145L86.761 65.789Z" fill="#25242E"/>
<path d="M108.315 61.2961C115.275 64.077 116.901 72.4772 113.433 77.3515L105.234 73.797C105.895 71.7896 105.802 69.3417 105.162 66.5747C104.435 68.8386 103.43 70.8464 101.858 72.3337L97.3654 70.386C97.9676 69.1643 98.5216 67.7438 98.1813 66.046C97.7345 67.1951 96.7017 68.9359 95.5757 69.6101L83.877 64.5385C85.114 60.7078 87.994 55.5502 92.7359 55.018L108.314 61.2961H108.315ZM107.475 77.9664C107.383 77.9664 107.293 77.9414 107.214 77.8939C107.135 77.8464 107.071 77.7783 107.028 77.6969C106.459 76.6214 105.74 76.007 104.891 75.8708C103.957 75.7209 102.874 76.1609 101.921 77.0783C101.824 77.1713 101.695 77.2221 101.561 77.2196C101.427 77.2171 101.299 77.1614 101.206 77.0649C101.113 76.9683 101.062 76.8388 101.065 76.7048C101.067 76.5707 101.123 76.4432 101.219 76.3502C102.403 75.2107 103.8 74.6721 105.052 74.8728C105.862 75.0027 107.019 75.5162 107.922 77.2246C107.963 77.3016 107.983 77.3878 107.981 77.4749C107.978 77.562 107.953 77.647 107.908 77.7216C107.863 77.7962 107.8 77.858 107.724 77.9009C107.648 77.9438 107.563 77.9663 107.475 77.9664Z" fill="#25242E"/>
<path d="M105.867 78.2951C104.932 79.9348 103.579 80.9249 102.846 80.5069C102.112 80.0889 102.276 78.421 103.211 76.7813C103.585 76.1258 104.025 75.5741 104.466 75.1748C105.428 75.0297 106.587 76.5228 106.532 76.7239C106.395 77.2211 106.172 77.7596 105.867 78.2951ZM96.5944 73.3585C96.5023 73.3585 96.412 73.3335 96.3331 73.286C96.2542 73.2385 96.1898 73.1704 96.1469 73.0891C95.578 72.0135 94.8592 71.3991 94.0105 71.2629C93.0766 71.113 91.9929 71.553 91.04 72.4704C90.9435 72.5634 90.8139 72.6142 90.6798 72.6117C90.5457 72.6092 90.4181 72.5536 90.3251 72.457C90.232 72.3605 90.1812 72.2309 90.1837 72.0969C90.1862 71.9629 90.2419 71.8353 90.3385 71.7423C91.5222 70.6028 92.9188 70.0642 94.1705 70.2649C94.9813 70.3948 96.1378 70.9083 97.0411 72.6167C97.0818 72.6937 97.102 72.78 97.0996 72.867C97.0971 72.9541 97.0723 73.0391 97.0273 73.1137C96.9824 73.1883 96.9189 73.2501 96.843 73.293C96.7672 73.3359 96.6815 73.3584 96.5944 73.3585Z" fill="#25242E"/>
<path d="M94.9859 73.6872C94.0507 75.3269 92.6981 76.3171 91.9647 75.8991C91.2312 75.4811 91.3948 73.8131 92.3298 72.1735C92.7037 71.5179 93.1441 70.9662 93.5853 70.5669C94.5473 70.4218 95.706 71.9149 95.6509 72.1161C95.5143 72.6132 95.2914 73.1517 94.9859 73.6872ZM97.0965 54.6258C96.9893 54.6259 96.8849 54.5919 96.7982 54.5288C96.7116 54.4657 96.6472 54.3768 96.6145 54.2747C96.5817 54.1727 96.5823 54.0629 96.616 53.9612C96.6498 53.8595 96.715 53.7711 96.8022 53.7089C97.9619 52.8807 98.906 51.1251 99.2071 49.2365C99.5209 47.268 99.1308 45.4196 98.1088 44.0312C98.0686 43.9778 98.0395 43.9169 98.0229 43.8522C98.0064 43.7874 98.0029 43.72 98.0127 43.6539C98.0224 43.5878 98.0451 43.5242 98.0796 43.467C98.114 43.4097 98.1595 43.3598 98.2133 43.3202C98.2672 43.2806 98.3284 43.2521 98.3933 43.2363C98.4583 43.2205 98.5257 43.2177 98.5918 43.2281C98.6578 43.2385 98.7211 43.2619 98.778 43.297C98.835 43.332 98.8844 43.378 98.9234 43.4322C100.107 45.0403 100.562 47.1581 100.206 49.3957C99.8589 51.5709 98.7801 53.5391 97.39 54.5315C97.3045 54.5928 97.2018 54.6258 97.0965 54.6258ZM64.0187 123.567C63.901 123.566 63.787 123.525 63.6964 123.45C63.6058 123.375 63.5443 123.271 63.5224 123.155C63.2238 121.574 62.7773 119.974 62.1953 118.398C62.1723 118.336 62.1619 118.27 62.1645 118.204C62.1671 118.137 62.1827 118.072 62.2105 118.012C62.2383 117.952 62.2777 117.897 62.3265 117.852C62.3752 117.807 62.4324 117.772 62.4947 117.749C62.557 117.726 62.6232 117.716 62.6896 117.718C62.7559 117.721 62.8211 117.737 62.8814 117.764C62.9417 117.792 62.996 117.832 63.0411 117.88C63.0862 117.929 63.1212 117.986 63.1442 118.048C63.7454 119.677 64.2071 121.332 64.5163 122.967C64.5301 123.04 64.5276 123.116 64.509 123.188C64.4903 123.26 64.4561 123.327 64.4086 123.384C64.3611 123.441 64.3015 123.487 64.2342 123.519C64.1668 123.55 64.0933 123.567 64.019 123.567H64.0187Z" fill="#25242E"/>
<path d="M73.6296 95.8403C71.7524 99.412 72.3326 104.659 74.536 108.833C78.6919 116.708 88.9374 120.205 96.8149 116.051C101.092 113.795 104.441 108.693 101.951 101.54C100.796 98.1327 96.6263 97.136 95.5088 98.7673C98.9632 101.861 99.6648 108.599 94.3587 111.397C89.0524 114.195 81.9911 111.682 79.1918 106.378C77.4134 103.008 77.5848 99.1285 79.3071 96.0293C79.2914 94.6894 75.1532 92.9416 73.6296 95.8406V95.8403Z" fill="#6875F5"/>
<path d="M89.5943 118.328C87.781 118.328 85.9377 118.031 84.1211 117.433C79.7988 116.009 76.142 112.96 74.0883 109.069C71.6958 104.536 71.3315 99.1254 73.1814 95.6053L73.6291 95.8403L73.1814 95.6053C73.973 94.0991 75.521 93.4582 77.3222 93.8911C78.5506 94.1863 79.8003 95.0134 79.8122 96.023C79.8132 96.1109 79.7913 96.1976 79.7488 96.2745C78.0409 99.3478 77.9997 103.037 79.6385 106.142C82.3759 111.329 89.144 113.575 94.1224 110.95C96.1338 109.889 97.3904 108.099 97.6601 105.909C97.9658 103.427 96.9889 100.772 95.1711 99.1436C95.0797 99.0618 95.0212 98.9495 95.0065 98.8277C94.9918 98.706 95.0219 98.583 95.0912 98.4818C95.6112 97.7226 96.6491 97.3693 97.8685 97.5371C99.5697 97.7711 101.64 99.0494 102.43 101.378C105.095 109.037 101.198 114.31 97.0506 116.498C94.7448 117.714 92.2011 118.328 89.5945 118.328L89.5943 118.328ZM76.2626 94.7743C75.541 94.7743 74.6321 95.0185 74.0766 96.0753C72.3746 99.3137 72.7387 104.346 74.9825 108.597C76.9154 112.259 80.3616 115.13 84.4374 116.472C88.6024 117.845 92.9141 117.536 96.5783 115.604C100.553 113.508 103.926 108.756 101.473 101.706C100.82 99.7825 99.1235 98.7299 97.7302 98.5384C97.116 98.454 96.5871 98.5369 96.2322 98.762C98.0391 100.62 98.9862 103.413 98.6633 106.032C98.3519 108.56 96.9065 110.624 94.5936 111.844C93.0309 112.668 91.3069 113.055 89.5735 113.056C85.2565 113.056 80.8759 110.654 78.7433 106.614C76.9717 103.257 76.9884 99.2799 78.7797 95.9381C78.6581 95.6184 78.0096 95.0963 77.0853 94.8742C76.8855 94.8261 76.5935 94.7746 76.2621 94.7746L76.2626 94.7743ZM114.138 113.214C114.058 113.214 113.98 113.195 113.909 113.16C113.838 113.124 113.777 113.072 113.73 113.007C113.683 112.943 113.652 112.869 113.639 112.791C113.626 112.713 113.632 112.632 113.656 112.557L115.767 105.87C115.787 105.806 115.819 105.748 115.862 105.697C115.904 105.646 115.957 105.604 116.016 105.573C116.074 105.543 116.139 105.524 116.205 105.518C116.271 105.512 116.338 105.52 116.401 105.54C116.464 105.56 116.523 105.592 116.574 105.635C116.625 105.677 116.667 105.73 116.697 105.788C116.728 105.847 116.747 105.912 116.752 105.978C116.758 106.044 116.751 106.111 116.731 106.174L114.62 112.861C114.588 112.963 114.523 113.053 114.437 113.116C114.35 113.18 114.245 113.214 114.138 113.214V113.214Z" fill="#25242E"/>
<path d="M172.616 186.676C175.179 200.922 175.294 206.897 172.013 212.099C169.173 216.602 163.448 215.009 164.715 208.812C165.049 207.176 165.345 199.209 162.513 191.1C161.05 186.912 171.585 180.944 172.617 186.676H172.616Z" fill="white"/>
<path d="M167.972 215.18C167.493 215.18 167.019 215.092 166.566 214.91C164.951 214.262 163.487 212.293 164.22 208.711C164.589 206.901 164.77 199.094 162.035 191.266C161.991 191.139 161.999 191.001 162.057 190.88C162.115 190.759 162.219 190.666 162.346 190.622C162.472 190.578 162.611 190.586 162.732 190.644C162.853 190.702 162.946 190.806 162.99 190.933C165.794 198.959 165.595 207.034 165.21 208.913C164.603 211.886 165.707 213.475 166.943 213.972C168.489 214.593 170.398 213.712 171.585 211.829C174.665 206.947 174.779 201.559 172.119 186.766L171.629 183.556C171.619 183.49 171.622 183.423 171.637 183.359C171.653 183.295 171.682 183.234 171.721 183.18C171.76 183.127 171.81 183.082 171.867 183.047C171.924 183.013 171.987 182.99 172.052 182.98C172.118 182.97 172.185 182.973 172.249 182.989C172.314 183.005 172.375 183.033 172.428 183.073C172.482 183.112 172.527 183.161 172.561 183.218C172.596 183.275 172.618 183.338 172.628 183.404L173.116 186.6C175.829 201.684 175.685 207.225 172.441 212.369C171.316 214.151 169.615 215.18 167.972 215.18V215.18Z" fill="#25242E"/>
<path d="M167.975 188.968C170.622 203.681 170.742 209.852 167.352 215.226C164.419 219.876 158.506 218.232 159.815 211.831C160.16 210.141 160.466 201.912 157.54 193.537C156.029 189.212 166.911 183.048 167.976 188.968H167.975Z" fill="white"/>
<path d="M163.179 218.391C162.686 218.391 162.199 218.301 161.733 218.114C160.071 217.447 158.565 215.419 159.319 211.73C159.701 209.86 159.888 201.792 157.062 193.704C157.018 193.577 157.026 193.438 157.084 193.317C157.143 193.196 157.247 193.104 157.373 193.06C157.5 193.015 157.639 193.023 157.76 193.082C157.88 193.14 157.973 193.244 158.017 193.37C160.912 201.657 160.707 209.992 160.31 211.932C159.68 215.013 160.827 216.661 162.11 217.176C163.714 217.82 165.694 216.908 166.925 214.956C169.944 210.17 170.166 204.646 167.875 191.313C167.864 191.248 167.866 191.181 167.88 191.116C167.895 191.051 167.922 190.99 167.96 190.936C167.999 190.881 168.047 190.835 168.104 190.8C168.16 190.765 168.222 190.741 168.288 190.729C168.353 190.718 168.42 190.72 168.485 190.734C168.55 190.749 168.611 190.776 168.665 190.815C168.72 190.853 168.766 190.902 168.801 190.958C168.837 191.014 168.861 191.077 168.872 191.142C171.213 204.767 170.958 210.457 167.78 215.495C166.622 217.331 164.87 218.391 163.18 218.391H163.179Z" fill="#25242E"/>
<path d="M160.925 189.494C162.646 205.021 162.335 211.464 158.422 216.828C155.035 221.47 148.986 219.338 150.803 212.756C151.282 211.019 152.182 202.461 149.722 193.522C148.452 188.906 160.233 183.246 160.925 189.494V189.494Z" fill="white"/>
<path d="M154.136 219.82C153.525 219.82 152.926 219.691 152.368 219.422C150.692 218.613 149.272 216.402 150.315 212.622C150.846 210.697 151.61 202.293 149.234 193.655C149.198 193.526 149.216 193.388 149.282 193.272C149.348 193.155 149.458 193.07 149.587 193.034C149.717 192.998 149.855 193.016 149.971 193.082C150.088 193.148 150.174 193.258 150.209 193.387C152.641 202.227 151.84 210.897 151.29 212.891C150.412 216.071 151.498 217.88 152.808 218.512C154.445 219.301 156.586 218.486 158.013 216.53C161.482 211.775 162.115 206.131 160.722 192.373C160.709 192.239 160.749 192.106 160.834 192.002C160.919 191.898 161.041 191.832 161.175 191.819C161.308 191.805 161.441 191.846 161.545 191.93C161.649 192.015 161.715 192.138 161.729 192.271C163.151 206.325 162.474 212.132 158.83 217.125C157.571 218.852 155.808 219.821 154.137 219.821L154.136 219.82Z" fill="#25242E"/>
<path d="M143.028 194.947C144.443 193.755 147.586 188.374 147.135 187.169C145.595 183.059 139.519 181.798 138.433 183.276C136.196 186.322 134.519 189.784 133.269 193.775C132.46 196.36 132.335 199.674 132.556 201.804C133.31 209.066 140.196 209.886 142.056 201.39C142.581 198.994 143.028 194.947 143.028 194.947Z" fill="white"/>
<path d="M136.953 208.012C136.889 208.012 136.826 208.011 136.763 208.007C134.725 207.893 132.478 205.947 132.053 201.857C131.825 199.655 131.963 196.255 132.787 193.624C134.079 189.499 135.793 186.017 138.026 182.977C138.068 182.919 138.116 182.864 138.168 182.811C138.215 182.763 138.271 182.724 138.332 182.697C138.394 182.671 138.46 182.657 138.527 182.656C138.595 182.656 138.661 182.668 138.723 182.694C138.786 182.719 138.842 182.756 138.89 182.804C138.937 182.851 138.975 182.907 139 182.97C139.026 183.032 139.039 183.098 139.038 183.165C139.038 183.232 139.024 183.299 138.997 183.36C138.971 183.422 138.933 183.478 138.884 183.525C138.869 183.54 138.854 183.557 138.841 183.575C136.675 186.523 135.011 189.909 133.753 193.926C132.971 196.42 132.842 199.654 133.06 201.752C133.423 205.25 135.21 206.907 136.82 206.998C138.41 207.087 140.608 205.644 141.563 201.282C142.076 198.94 142.521 194.931 142.526 194.891C142.533 194.825 142.553 194.761 142.585 194.703C142.617 194.645 142.66 194.594 142.712 194.552C142.764 194.511 142.824 194.48 142.887 194.461C142.951 194.443 143.018 194.437 143.084 194.444C143.15 194.452 143.214 194.472 143.272 194.504C143.33 194.536 143.382 194.579 143.423 194.631C143.465 194.682 143.496 194.742 143.514 194.806C143.533 194.869 143.539 194.936 143.531 195.002C143.513 195.169 143.075 199.104 142.551 201.498C141.495 206.324 138.921 208.012 136.954 208.012L136.953 208.012Z" fill="#25242E"/>
<path d="M152.304 188.211C153.668 203.773 153.209 210.207 149.174 215.479C145.682 220.043 139.684 217.773 141.65 211.235C142.17 209.508 143.265 200.973 141.011 191.98C139.847 187.336 151.754 181.948 152.304 188.211Z" fill="white"/>
<path d="M144.922 218.375C144.276 218.375 143.645 218.232 143.064 217.934C141.406 217.087 140.037 214.844 141.166 211.089C141.479 210.049 142.231 205.389 141.751 200.366C141.739 200.232 141.779 200.099 141.865 199.996C141.95 199.893 142.073 199.827 142.207 199.815C142.34 199.802 142.473 199.843 142.577 199.928C142.68 200.013 142.745 200.136 142.758 200.27C143.258 205.505 142.476 210.245 142.135 211.38C141.184 214.54 142.229 216.373 143.524 217.034C145.142 217.861 147.301 217.095 148.773 215.172C152.239 210.643 153.055 205.099 152.131 192.358C152.124 192.226 152.169 192.096 152.256 191.996C152.344 191.896 152.467 191.835 152.599 191.826C152.732 191.816 152.862 191.859 152.964 191.945C153.065 192.031 153.128 192.153 153.14 192.285C154.084 205.316 153.218 211.027 149.576 215.786C148.302 217.45 146.563 218.374 144.921 218.374L144.922 218.375Z" fill="#25242E"/>
<path d="M141.854 202.712C141.775 202.712 141.696 202.693 141.625 202.657C141.554 202.621 141.493 202.569 141.446 202.505C141.399 202.44 141.368 202.366 141.355 202.288C141.342 202.209 141.348 202.129 141.372 202.053C141.859 200.518 142.137 197.478 141.752 196.005C141.734 195.94 141.728 195.872 141.737 195.806C141.745 195.739 141.767 195.675 141.8 195.617C141.833 195.559 141.878 195.508 141.931 195.467C141.985 195.426 142.046 195.396 142.11 195.379C142.175 195.362 142.243 195.358 142.31 195.368C142.376 195.377 142.44 195.4 142.498 195.434C142.555 195.469 142.605 195.514 142.645 195.568C142.685 195.622 142.714 195.683 142.73 195.749C143.2 197.546 142.811 200.864 142.336 202.359C142.303 202.461 142.239 202.551 142.152 202.614C142.066 202.677 141.961 202.711 141.854 202.712H141.854ZM267.362 185.03C267.35 185.03 267.339 185.03 267.328 185.029L209.826 181.208C209.693 181.197 209.57 181.135 209.483 181.035C209.396 180.934 209.352 180.803 209.36 180.67C209.369 180.537 209.43 180.413 209.53 180.325C209.63 180.237 209.76 180.191 209.893 180.199L267.395 184.021C267.525 184.03 267.647 184.089 267.735 184.186C267.822 184.283 267.869 184.411 267.864 184.541C267.86 184.672 267.805 184.796 267.712 184.887C267.618 184.978 267.492 185.03 267.362 185.03H267.362Z" fill="#25242E"/>
<path d="M183.051 181.787L172.655 183.48L170.814 172.254L181.221 170.56L183.051 181.787Z" fill="#8DA2FB"/>
<path d="M133.891 160.833C133.821 160.833 133.753 160.819 133.689 160.791C133.625 160.764 133.568 160.723 133.521 160.672C133.473 160.622 133.437 160.562 133.414 160.496C133.39 160.431 133.381 160.361 133.386 160.292C133.686 156.048 135.747 153.646 135.834 153.546C135.878 153.495 135.931 153.454 135.991 153.424C136.05 153.394 136.115 153.377 136.181 153.372C136.248 153.367 136.315 153.376 136.378 153.397C136.441 153.418 136.499 153.452 136.549 153.496C136.6 153.539 136.641 153.593 136.67 153.652C136.7 153.712 136.717 153.777 136.721 153.844C136.726 153.91 136.717 153.977 136.695 154.04C136.674 154.103 136.64 154.161 136.596 154.211C136.577 154.232 134.669 156.476 134.395 160.363C134.386 160.491 134.329 160.61 134.235 160.697C134.142 160.784 134.019 160.833 133.891 160.833ZM106.107 156.384C105.989 156.384 105.876 156.344 105.785 156.269C105.695 156.195 105.633 156.091 105.61 155.976C105.588 155.861 105.606 155.742 105.662 155.638C105.718 155.535 105.807 155.455 105.916 155.41L121.978 148.888C122.086 148.844 122.206 148.839 122.317 148.873C122.429 148.908 122.525 148.98 122.589 149.077C122.654 149.174 122.683 149.29 122.672 149.406C122.66 149.522 122.609 149.63 122.527 149.713L117.214 155.055C117.119 155.15 116.991 155.204 116.856 155.204C116.722 155.205 116.594 155.152 116.499 155.057C116.403 154.963 116.35 154.835 116.349 154.7C116.349 154.566 116.402 154.438 116.496 154.343L120.063 150.757L106.297 156.347C106.235 156.372 106.17 156.384 106.107 156.384Z" fill="#25242E"/>
<path d="M88.1839 66.9113C88.1167 66.9113 88.0484 66.8979 87.9829 66.8694L83.676 65.0022C83.568 64.9554 83.4796 64.8723 83.4263 64.7673C83.373 64.6622 83.3581 64.5419 83.384 64.4271C84.1284 61.1392 85.6387 58.5892 87.8732 56.8477C87.979 56.7653 88.1132 56.7283 88.2463 56.7447C88.3793 56.7612 88.5004 56.8299 88.5829 56.9356C88.6653 57.0414 88.7024 57.1755 88.6859 57.3085C88.6694 57.4416 88.6007 57.5626 88.4949 57.645C86.5408 59.1677 85.1872 61.3863 84.4674 64.2438L88.3852 65.9421C88.492 65.9883 88.5797 66.0699 88.6334 66.1731C88.687 66.2764 88.7034 66.395 88.6797 66.5089C88.656 66.6229 88.5937 66.7251 88.5034 66.7985C88.413 66.8718 88.3001 66.9118 88.1837 66.9116L88.1839 66.9113Z" fill="white"/>
</g>
<g clip-path="url(#clip4_2696_77389)">
<path d="M125.318 219.759H167.683V224.568H121.26V223.805C121.26 221.572 123.078 219.759 125.318 219.759L125.318 219.759Z" fill="#25242E"/>
<path d="M229.387 224.568H153.092L173.593 175.344C174.271 173.716 175.418 172.325 176.889 171.346C178.359 170.367 180.088 169.845 181.856 169.845H245.474C248.665 169.845 250.831 173.08 249.607 176.019L229.387 224.568Z" fill="#25242E"/>
<path d="M229.387 225.073H121.26C121.126 225.073 120.997 225.02 120.902 224.925C120.807 224.831 120.753 224.702 120.753 224.568V223.805C120.753 221.296 122.801 219.254 125.318 219.254H154.757L173.126 175.15C173.839 173.428 175.05 171.956 176.604 170.922C178.159 169.887 179.987 169.336 181.856 169.34H245.473C247.142 169.34 248.691 170.166 249.617 171.55C250.543 172.933 250.714 174.677 250.074 176.213L229.855 224.762C229.816 224.854 229.751 224.933 229.668 224.988C229.585 225.044 229.487 225.073 229.387 225.073H229.387ZM121.766 224.063H229.049L249.139 175.825C249.39 175.224 249.488 174.57 249.425 173.922C249.361 173.274 249.138 172.652 248.775 172.11C248.413 171.568 247.922 171.124 247.346 170.817C246.77 170.51 246.127 170.349 245.473 170.35H181.856C180.187 170.347 178.555 170.838 177.167 171.762C175.779 172.686 174.698 174 174.061 175.538L155.563 219.953C155.525 220.045 155.46 220.124 155.377 220.179C155.293 220.235 155.196 220.264 155.095 220.264H125.318C123.359 220.264 121.766 221.853 121.766 223.806V224.064V224.063Z" fill="#25242E"/>
<path d="M153.801 223.371C153.718 223.371 153.636 223.351 153.562 223.311C153.489 223.272 153.426 223.216 153.38 223.146C153.334 223.077 153.305 222.998 153.297 222.915C153.289 222.833 153.302 222.749 153.334 222.673L154.628 219.566C154.653 219.504 154.69 219.448 154.737 219.4C154.784 219.353 154.84 219.315 154.902 219.289C154.963 219.264 155.03 219.25 155.096 219.25C155.163 219.25 155.23 219.263 155.291 219.289C155.353 219.315 155.409 219.352 155.456 219.399C155.503 219.447 155.541 219.503 155.566 219.565C155.591 219.626 155.604 219.692 155.604 219.759C155.603 219.826 155.589 219.892 155.563 219.953L154.269 223.06C154.231 223.152 154.166 223.231 154.082 223.286C153.999 223.342 153.901 223.371 153.801 223.371Z" fill="white"/>
</g>
<g clip-path="url(#clip5_2696_77389)">
<path d="M95.1613 314.81C94.8538 305.044 104.772 298.024 111.823 296.399C122.69 293.893 131.857 303.508 132.914 312.677L95.1613 314.81Z" fill="#00FFB9"/>
<path d="M148.413 312.068H97.896C96.3856 312.068 95.1611 313.296 95.1611 314.81C95.1611 316.324 96.3856 317.552 97.896 317.552H148.413C149.923 317.552 151.148 316.324 151.148 314.81C151.148 313.296 149.923 312.068 148.413 312.068Z" fill="#00FFB9"/>
<path d="M148.413 318.047H97.8957C96.1155 318.047 94.6669 316.595 94.6669 314.81C94.3478 304.68 104.649 297.545 111.712 295.916C117.378 294.61 121.878 296.587 124.655 298.475C129.069 301.475 132.332 306.462 133.248 311.573H148.412C150.193 311.573 151.641 313.025 151.641 314.81C151.641 316.595 150.193 318.047 148.412 318.047L148.413 318.047ZM115.345 296.487C114.266 296.487 113.127 296.606 111.933 296.881C105.19 298.436 95.3528 305.204 95.6546 314.794C95.6546 316.048 96.66 317.056 97.8957 317.056H148.413C149.648 317.056 150.653 316.048 150.653 314.81C150.653 313.571 149.648 312.563 148.413 312.563H132.83C132.712 312.563 132.598 312.521 132.508 312.444C132.419 312.367 132.36 312.26 132.342 312.143C131.573 307.151 128.416 302.227 124.101 299.294C122.073 297.916 119.071 296.487 115.344 296.487H115.345Z" fill="#00FFB9"/>
<path d="M125.692 312.563H114.72C114.589 312.563 114.463 312.511 114.37 312.418C114.278 312.325 114.226 312.199 114.226 312.068C114.226 311.937 114.278 311.811 114.37 311.718C114.463 311.625 114.589 311.573 114.72 311.573H125.692C125.823 311.573 125.949 311.625 126.041 311.718C126.134 311.811 126.186 311.937 126.186 312.068C126.186 312.199 126.134 312.325 126.041 312.418C125.949 312.511 125.823 312.563 125.692 312.563Z" fill="#25242E"/>
<path d="M123.553 314.81C123.245 305.044 133.163 298.024 140.215 296.399C151.082 293.893 160.248 303.508 161.306 312.677L123.553 314.809L123.553 314.81Z" fill="#00FFB9"/>
<path d="M176.805 312.068H126.288C124.778 312.068 123.553 313.296 123.553 314.81C123.553 316.324 124.778 317.552 126.288 317.552H176.805C178.315 317.552 179.54 316.324 179.54 314.81C179.54 313.296 178.315 312.068 176.805 312.068Z" fill="#00FFB9"/>
<path d="M176.805 318.047H126.288C124.508 318.047 123.059 316.595 123.059 314.81C122.74 304.68 133.041 297.545 140.104 295.916C145.77 294.61 150.27 296.587 153.047 298.475C157.461 301.475 160.724 306.462 161.64 311.573H176.804C178.585 311.573 180.033 313.025 180.033 314.81C180.033 316.595 178.585 318.047 176.804 318.047L176.805 318.047ZM143.737 296.487C142.658 296.487 141.519 296.606 140.325 296.881C133.582 298.436 123.745 305.204 124.047 314.794C124.047 316.048 125.052 317.056 126.288 317.056H176.805C178.041 317.056 179.046 316.048 179.046 314.81C179.046 313.571 178.041 312.563 176.805 312.563H161.222C161.104 312.563 160.99 312.521 160.901 312.444C160.811 312.367 160.752 312.26 160.734 312.143C159.966 307.151 156.808 302.227 152.493 299.294C150.465 297.916 147.463 296.486 143.737 296.486V296.487Z" fill="#00FFB9"/>
<path d="M126.288 318.047C124.508 318.047 123.059 316.595 123.059 314.81C122.885 309.297 126.006 303.841 131.622 299.856C131.729 299.78 131.862 299.75 131.991 299.772C132.12 299.795 132.235 299.867 132.311 299.974C132.386 300.082 132.416 300.215 132.394 300.344C132.372 300.474 132.3 300.589 132.193 300.665C126.853 304.454 123.883 309.604 124.047 314.794C124.047 316.048 125.052 317.056 126.288 317.056C126.419 317.056 126.545 317.108 126.637 317.201C126.73 317.294 126.782 317.42 126.782 317.551C126.782 317.683 126.73 317.809 126.637 317.902C126.545 317.994 126.419 318.047 126.288 318.047ZM161.07 312.563H145.209C145.078 312.563 144.952 312.511 144.859 312.418C144.767 312.325 144.715 312.199 144.715 312.068C144.715 311.937 144.767 311.811 144.859 311.718C144.952 311.625 145.078 311.573 145.209 311.573H161.07C161.201 311.573 161.326 311.625 161.419 311.718C161.512 311.811 161.564 311.937 161.564 312.068C161.564 312.199 161.512 312.325 161.419 312.418C161.326 312.511 161.201 312.563 161.07 312.563ZM140.668 312.563H135.277C135.146 312.563 135.02 312.511 134.928 312.418C134.835 312.325 134.783 312.199 134.783 312.068C134.783 311.937 134.835 311.811 134.928 311.718C135.02 311.625 135.146 311.573 135.277 311.573H140.668C140.799 311.573 140.925 311.625 141.018 311.718C141.11 311.811 141.162 311.937 141.162 312.068C141.162 312.199 141.11 312.325 141.018 312.418C140.925 312.511 140.799 312.563 140.668 312.563ZM111.441 312.563H106.948C106.817 312.563 106.691 312.511 106.598 312.418C106.506 312.325 106.454 312.199 106.454 312.068C106.454 311.937 106.506 311.811 106.598 311.718C106.691 311.625 106.817 311.573 106.948 311.573H111.441C111.572 311.573 111.697 311.625 111.79 311.718C111.883 311.811 111.935 311.937 111.935 312.068C111.935 312.199 111.883 312.325 111.79 312.418C111.697 312.511 111.572 312.563 111.441 312.563Z" fill="#25242E"/>
</g>
</g>
<defs>
<clipPath id="clip0_2696_77389">
<rect width="347" height="318" fill="white" transform="translate(0.5 0.5)"/>
</clipPath>
<clipPath id="clip1_2696_77389">
<rect width="134.267" height="308.813" fill="white" transform="translate(213.22 8.97998)"/>
</clipPath>
<clipPath id="clip2_2696_77389">
<rect width="264.987" height="138.573" fill="white" transform="translate(30.3135 179.22)"/>
</clipPath>
<clipPath id="clip3_2696_77389">
<rect width="322.24" height="185.947" fill="white" transform="translate(6.5 39.1266)"/>
</clipPath>
<clipPath id="clip4_2696_77389">
<rect width="129.707" height="55.7333" fill="white" transform="translate(120.753 169.34)"/>
</clipPath>
<clipPath id="clip5_2696_77389">
<rect width="85.3733" height="22.5467" fill="white" transform="translate(94.6602 295.5)"/>
</clipPath>
</defs>
</svg>
