<svg width="18" height="16" viewBox="0 0 18 16" fill="none" xmlns="http://www.w3.org/2000/svg">
<path d="M4.71462 4.43388C4.45013 4.25755 4.09277 4.32902 3.91644 4.59352C3.74011 4.85801 3.81158 5.21537 4.07607 5.3917L4.93282 5.96288C6.08267 6.72962 6.76695 7.1859 7.50559 7.40845C8.48023 7.7021 9.51977 7.7021 10.4944 7.40845C11.2331 7.1859 11.9173 6.72962 13.0672 5.96287L13.9239 5.3917C14.1884 5.21537 14.2599 4.85801 14.0836 4.59352C13.9072 4.32902 13.5499 4.25755 13.2854 4.43388L12.5179 4.94551C11.2514 5.78983 10.7165 6.13926 10.1623 6.30623C9.40427 6.53462 8.59573 6.53462 7.83768 6.30623C7.2835 6.13926 6.74856 5.78983 5.48207 4.94551L4.71462 4.43388Z" fill="#374151"/>
<path fill-rule="evenodd" clip-rule="evenodd" d="M7.43936 0.5C6.38665 0.499996 5.56131 0.499994 4.89797 0.554191C4.22252 0.609378 3.6645 0.723616 3.15943 0.980966C2.32911 1.40403 1.65403 2.07911 1.23097 2.90943C0.973616 3.4145 0.859378 3.97252 0.804191 4.64797C0.749994 5.31131 0.749997 6.13665 0.75 7.18936V8.77575C0.749997 9.82847 0.749994 10.6538 0.804191 11.3171C0.859378 11.9926 0.973616 12.5506 1.23097 13.0557C1.65403 13.886 2.32911 14.5611 3.15943 14.9842C3.6645 15.2415 4.22252 15.3557 4.89797 15.4109C5.5613 15.4651 6.38662 15.4651 7.43931 15.4651H10.5607C11.6133 15.4651 12.4387 15.4651 13.102 15.4109C13.7775 15.3557 14.3355 15.2415 14.8406 14.9842C15.6709 14.5611 16.346 13.886 16.769 13.0557C17.0264 12.5506 17.1406 11.9926 17.1958 11.3171C17.25 10.6538 17.25 9.8285 17.25 8.77581V7.18935C17.25 6.13666 17.25 5.3113 17.1958 4.64797C17.1406 3.97252 17.0264 3.4145 16.769 2.90943C16.346 2.07911 15.6709 1.40403 14.8406 0.980966C14.3355 0.723616 13.7775 0.609378 13.102 0.554191C12.4387 0.499994 11.6134 0.499996 10.5606 0.5H7.43936ZM3.68204 2.00666C3.99779 1.84578 4.38745 1.7509 4.99172 1.70153C5.6027 1.65161 6.3811 1.65116 7.46512 1.65116H10.5349C11.6189 1.65116 12.3973 1.65161 13.0083 1.70153C13.6126 1.7509 14.0022 1.84578 14.318 2.00666C14.9317 2.31936 15.4306 2.81833 15.7433 3.43204C15.9042 3.74779 15.9991 4.13745 16.0485 4.74172C16.0984 5.3527 16.0988 6.1311 16.0988 7.21512V8.75C16.0988 9.83402 16.0984 10.6124 16.0485 11.2234C15.9991 11.8277 15.9042 12.2173 15.7433 12.5331C15.4306 13.1468 14.9317 13.6458 14.318 13.9585C14.0022 14.1193 13.6126 14.2142 13.0083 14.2636C12.3973 14.3135 11.6189 14.314 10.5349 14.314H7.46512C6.3811 14.314 5.6027 14.3135 4.99172 14.2636C4.38745 14.2142 3.99779 14.1193 3.68204 13.9585C3.06833 13.6458 2.56936 13.1468 2.25666 12.5331C2.09578 12.2173 2.0009 11.8277 1.95153 11.2234C1.90161 10.6124 1.90116 9.83402 1.90116 8.75V7.21512C1.90116 6.1311 1.90161 5.3527 1.95153 4.74172C2.0009 4.13745 2.09578 3.74779 2.25666 3.43204C2.56936 2.81833 3.06833 2.31936 3.68204 2.00666Z" fill="#374151"/>
</svg>
