<svg width="201" height="117" viewBox="0 0 201 117" fill="none" xmlns="http://www.w3.org/2000/svg">
<g clip-path="url(#clip0_265_14068)">
<path d="M32.4079 37.1416C34.0728 36.0835 35.7588 35.0676 37.473 34.0871C36.0268 30.9126 34.5807 27.7381 33.1345 24.5636C32.7395 23.7029 32.3585 22.4543 31.8012 21.3679C29.2687 22.2779 27.0395 23.3573 24.6692 24.6835C23.4558 25.3678 22.2283 26.0097 20.9727 26.56C22.9408 31.2794 25.1066 35.9001 27.491 40.4149C28.2952 39.8505 29.1064 39.2932 29.9318 38.7501C30.7572 38.2069 31.5755 37.6637 32.4079 37.1346V37.1416Z" fill="black"/>
<path d="M91.9474 17.4809C92.9139 17.4104 93.8804 17.3539 94.8539 17.3116C95.8203 17.2622 96.7938 17.234 97.7603 17.2058C98.7268 17.1846 99.7003 17.1705 100.674 17.1705C100.321 12.5992 99.9613 8.03502 99.6086 3.46374C99.538 2.51844 99.6015 1.22043 99.4463 9.16549e-06C96.7515 -0.0140997 94.2895 0.23986 91.6159 0.677235C90.2403 0.902977 88.8647 1.08639 87.4961 1.17105C87.7501 6.71584 88.258 12.2324 89.0551 17.7208C89.5348 17.6784 90.0216 17.6432 90.5013 17.6008C90.981 17.5585 91.4677 17.5162 91.9474 17.4809Z" fill="black"/>
<path d="M108.723 30.8068C109.682 30.7997 110.649 30.8068 111.601 30.8561C110.649 30.8068 109.682 30.7927 108.723 30.8068Z" fill="#F9F5F0"/>
<path d="M185.362 50.15C189.919 54.2487 194.18 58.6788 198.103 63.3983C198.808 64.2519 199.506 65.1196 200.191 65.9943C199.506 65.1196 198.815 64.2519 198.103 63.3983C194.18 58.6718 189.919 54.2487 185.362 50.15Z" fill="#F9F5F0"/>
<path d="M185.362 50.15C183.204 48.203 180.974 46.3336 178.682 44.5417C180.967 46.3336 183.196 48.203 185.362 50.15Z" fill="#F9F5F0"/>
<path d="M75.9053 43.6317C75.2351 44.6758 74.6214 45.7551 74.0711 46.8768C72.7943 48.8097 71.6656 50.8343 70.7344 52.9506C71.6656 50.8343 72.7943 48.8097 74.0711 46.8768C74.6284 45.7622 75.2351 44.6758 75.9053 43.6317Z" fill="#F9F5F0"/>
<path d="M183.817 64.527C184.191 64.5411 184.53 64.2095 184.516 63.8427C184.481 63.102 184.029 62.587 183.444 62.6152C183.07 62.6293 182.787 62.9256 182.752 63.3277C182.696 64.0331 183.112 64.4987 183.81 64.527H183.817Z" fill="#F9F5F0"/>
<path d="M178.216 57.1198C178.216 57.1198 178.35 57.0352 178.343 57.0211C178.301 56.9293 178.245 56.8447 178.188 56.76C178.11 56.8306 178.026 56.9011 177.948 56.9646C178.033 57.0211 178.118 57.0845 178.209 57.1198H178.216Z" fill="#F9F5F0"/>
<path d="M177.13 50.9613C177.207 51.0248 177.278 51.0883 177.356 51.1518C177.391 51.053 177.426 50.9613 177.447 50.8625C177.447 50.8343 177.349 50.7638 177.334 50.7708C177.257 50.8273 177.193 50.8978 177.13 50.9683V50.9613Z" fill="#F9F5F0"/>
<path d="M168.615 64.3718V66.2341C169.024 66.3047 169.426 66.3823 169.843 66.4528C170.365 66.22 170.463 65.7544 170.463 65.2536C170.463 64.4635 170.202 63.7651 169.144 64.2307C168.982 64.3012 168.799 64.3294 168.622 64.3788L168.615 64.3718Z" fill="#F9F5F0"/>
<path d="M184.48 79.6658C184.544 79.6305 184.579 79.3977 184.529 79.3483C184.424 79.2355 184.226 79.0732 184.12 79.1085C183.394 79.3413 182.681 79.6164 181.877 79.9127C181.919 80.0608 181.919 80.1455 181.955 80.1596C182.9 80.5547 183.704 80.1314 184.48 79.6658Z" fill="#F9F5F0"/>
<path d="M29.9251 38.7571C29.1068 39.3074 28.2955 39.8576 27.4843 40.422C25.763 41.6283 24.0699 42.884 22.4121 44.1749C24.0699 42.884 25.763 41.6353 27.4843 40.422C28.2885 39.8576 29.0997 39.3003 29.918 38.7571H29.9251Z" fill="#F9F5F0"/>
<path d="M171.247 46.4817C171.169 46.4817 171.021 46.6581 171.035 46.7286C171.063 46.8838 171.148 47.0955 171.268 47.1448C171.472 47.2224 171.712 47.2154 171.938 47.2366C171.875 47.0179 171.846 46.778 171.726 46.6017C171.656 46.4958 171.409 46.4747 171.247 46.4817Z" fill="#F9F5F0"/>
<path d="M90.4939 17.6008C90.0142 17.6432 89.5274 17.6784 89.0477 17.7208C88.2083 17.7984 87.3688 17.8901 86.5293 17.9818C87.3688 17.883 88.2083 17.7984 89.0477 17.7208C89.5274 17.6784 90.0142 17.6432 90.4939 17.6008Z" fill="#F9F5F0"/>
<path d="M172.869 47.7727C172.919 47.7727 172.975 47.7162 172.996 47.6668C173.017 47.6245 172.996 47.5187 172.982 47.5116C172.672 47.434 172.354 47.3706 172.044 47.3071C172.263 47.561 172.474 47.822 172.869 47.7727Z" fill="#F9F5F0"/>
<path d="M169.616 50.6791L169.518 50.8131C169.588 50.8837 169.652 50.9542 169.722 51.0248C169.757 50.9825 169.828 50.9119 169.814 50.8978C169.757 50.8202 169.687 50.7497 169.616 50.6791Z" fill="#F9F5F0"/>
<path d="M170.823 45.4024C171.268 45.4518 171.769 44.9721 171.776 44.4924C171.783 44.1255 171.373 43.7516 170.908 43.7023C170.52 43.667 170.16 43.928 170.111 44.2878C170.04 44.8098 170.386 45.3459 170.823 45.4024Z" fill="#F9F5F0"/>
<path d="M168.615 76.2656C169.13 76.4278 169.645 76.5971 170.125 76.7453C170.626 76.2797 171.098 75.8917 171.515 75.4472C171.762 75.1862 171.973 74.8688 172.128 74.5513C172.354 74.0857 172.375 73.472 171.747 73.1193C171.183 72.8089 170.781 72.3856 170.605 71.7507C170.315 70.7208 169.61 70.4315 168.615 70.6925V76.2726V76.2656Z" fill="#F9F5F0"/>
<path d="M171.938 47.2365C171.938 47.2365 171.945 47.2648 171.952 47.2789C171.98 47.2789 172.015 47.293 172.043 47.3001C172.029 47.2789 172.008 47.2577 171.994 47.2365C171.98 47.2365 171.959 47.2365 171.945 47.2365H171.938Z" fill="#F9F5F0"/>
<path d="M100.666 17.1705C99.6929 17.1705 98.7264 17.1846 97.7529 17.2058C98.7194 17.1846 99.6929 17.1705 100.666 17.1705Z" fill="#F9F5F0"/>
<path d="M189.609 58.1145C189.264 58.0863 188.932 58.3191 189.003 58.5801C189.052 58.7705 189.25 58.9187 189.461 59.1938C189.729 58.9116 190.004 58.7423 190.068 58.5236C190.138 58.2626 189.856 58.1356 189.609 58.1145Z" fill="#F9F5F0"/>
<path d="M132.249 21.3044C131.649 21.1422 131.05 20.987 130.45 20.8318C131.05 20.987 131.649 21.1422 132.249 21.3044C137.829 22.7999 143.303 24.6694 148.629 26.8915C143.31 24.6623 137.836 22.7929 132.249 21.3044Z" fill="#F9F5F0"/>
<path d="M191.874 62.5517C191.655 62.6646 191.457 62.8198 191.26 62.9609C190.244 63.7016 189.934 64.9714 190.491 66.0578C190.956 66.9608 191.972 67.2218 192.84 66.6856C193.842 66.0648 194.131 65.0913 194.258 64.1037C194.272 62.58 193.15 61.8816 191.881 62.5447L191.874 62.5517Z" fill="#F9F5F0"/>
<path d="M198.089 70.3328C196.889 71.7719 195.662 73.1828 194.406 74.5584C195.662 73.1757 196.889 71.7648 198.089 70.3328C198.879 69.3875 199.655 68.421 200.417 67.4475C199.655 68.421 198.879 69.3804 198.089 70.3328Z" fill="#F9F5F0"/>
<path d="M188.805 67.8284C188.522 67.7156 188.226 67.6591 188.05 67.6097C187.401 67.6873 186.992 67.9413 186.709 68.3646C186.618 68.4986 186.561 68.7173 186.597 68.8725C186.801 69.7896 187.866 70.3892 188.734 70.107C189.256 69.9377 189.736 69.2464 189.686 68.6679C189.637 68.16 189.214 67.9836 188.819 67.8284H188.805Z" fill="#F9F5F0"/>
<path d="M150.902 27.8721C151.79 28.2601 152.672 28.6622 153.547 29.0784C154.422 29.4876 155.297 29.9108 156.164 30.3412C157.9 31.2018 159.614 32.1048 161.307 33.043C163.205 28.634 165.102 24.225 167 19.8159C167.374 18.9412 168.037 17.8266 168.467 16.6767C166.09 15.414 163.797 14.4898 161.222 13.6292C159.903 13.1848 158.598 12.7121 157.342 12.1478C154.93 17.2834 152.771 22.5248 150.895 27.8721H150.902Z" fill="black"/>
<path d="M176.375 42.7781C177.151 43.3566 177.92 43.9492 178.682 44.5488C180.968 46.3406 183.197 48.21 185.363 50.1571C188.184 46.4464 191.006 42.7287 193.828 39.0181C194.399 38.2633 195.316 37.3321 196.008 36.3233C194.004 34.5244 192.001 33.0712 189.708 31.618C188.53 30.8702 187.38 30.0942 186.301 29.2477C182.767 33.6003 179.451 38.101 176.368 42.7781H176.375Z" fill="black"/>
<path d="M69.0838 21.2268C67.6729 17.368 66.255 13.5022 64.8441 9.64342C64.5196 8.75456 64.2303 7.48476 63.7577 6.35605C61.1616 7.06855 58.8548 7.97857 56.3999 9.12139C55.1372 9.70691 53.8674 10.2572 52.5693 10.7086C54.1354 15.4492 55.899 20.1122 57.8672 24.6835C61.5567 23.3572 65.3026 22.2003 69.0908 21.2198L69.0838 21.2268Z" fill="black"/>
<path d="M121.082 18.8706C123.608 19.3009 126.133 19.8018 128.638 20.3944C129.244 20.5355 129.844 20.6836 130.443 20.8388C131.043 20.994 131.643 21.1492 132.242 21.3115C133.562 16.2534 134.888 11.1883 136.207 6.1303C136.447 5.21323 136.934 4.00692 137.188 2.80766C134.648 1.91175 132.235 1.34739 129.562 0.8818C128.186 0.641949 126.832 0.37388 125.505 0.00704956C123.671 6.21496 122.176 12.5005 121.075 18.8777L121.082 18.8706Z" fill="black"/>
<path d="M112.779 96.3354C113.224 96.1167 113.654 95.884 114.084 95.6441C120.483 92.0252 125.294 86.1982 128.955 79.8915C129.209 79.4612 129.449 79.0238 129.696 78.5865C130.176 77.7117 130.641 76.8299 131.093 75.9411C131.544 75.0522 131.981 74.1492 132.405 73.2533C133.047 71.8989 133.66 70.5303 134.267 69.1617C134.366 68.936 134.465 68.7103 134.563 68.4916C135.96 65.3453 137.385 62.0861 137.167 58.6012C137.152 58.3543 137.124 58.1004 137.096 57.8535C136.807 55.6595 135.925 53.6914 134.803 51.8431C133.929 50.404 132.913 49.0425 131.904 47.7021C129.188 44.062 126.528 40.3655 123.721 36.796C123.114 36.027 122.479 35.3216 121.802 34.6937C121.294 34.2211 120.765 33.7908 120.208 33.4028C120.024 33.2758 119.834 33.1488 119.643 33.0289C119.262 32.789 118.867 32.5704 118.465 32.3728C117.859 32.0766 117.217 31.8226 116.546 31.618C115.876 31.4134 115.178 31.2582 114.437 31.1454C113.964 31.0748 113.499 31.0184 113.019 30.9761C112.547 30.9337 112.067 30.8985 111.594 30.8702C110.642 30.8209 109.675 30.8068 108.716 30.8209C106.79 30.842 104.864 30.9549 102.981 31.0537C102.466 31.0819 101.951 31.1101 101.436 31.1454C100.66 31.2018 99.8838 31.2653 99.1007 31.3429C98.8397 31.3711 98.5787 31.3993 98.3248 31.4275C97.8098 31.484 97.2878 31.5545 96.7728 31.6251C96.2578 31.6956 95.7428 31.7803 95.2279 31.8649C94.4589 31.999 93.69 32.1471 92.9281 32.3235C92.4202 32.4363 91.9193 32.5633 91.4185 32.6973C91.1716 32.7679 90.9176 32.8314 90.6707 32.909C89.9229 33.1277 89.1893 33.3675 88.4627 33.6356C87.2563 34.08 86.0783 34.602 84.9425 35.2087C83.1295 36.1822 81.4153 37.3744 79.8633 38.8347C78.9392 39.7024 78.1067 40.6336 77.3378 41.6142C76.8299 42.2702 76.3502 42.9404 75.8987 43.6388C75.2285 44.6828 74.6148 45.7622 74.0645 46.8838C72.7877 48.8167 71.659 50.8414 70.7278 52.9577C70.0294 54.5449 69.4509 56.1745 69.0065 57.8605C68.8584 58.4178 68.7243 58.9892 68.6044 59.5606C67.9977 62.5023 67.8214 65.4652 68.0894 68.3646C68.2235 69.8107 68.4704 71.2428 68.8302 72.6466C69.07 73.5849 69.3592 74.5019 69.7049 75.412C69.8742 75.8635 70.0576 76.3149 70.2551 76.7594C70.8477 78.0927 71.5602 79.3907 72.3856 80.6323C72.6607 81.0485 72.9499 81.4576 73.2533 81.8597C73.5496 82.2548 73.8529 82.6357 74.1633 83.0167C74.7841 83.7785 75.4331 84.5122 76.1033 85.2247C76.4348 85.5845 76.7805 85.9301 77.1262 86.2829C78.1632 87.3269 79.2354 88.3286 80.3359 89.3092C80.7028 89.6337 81.0696 89.9582 81.4364 90.2827C84.4769 92.9352 87.6937 95.5171 91.3832 97.2243C94.4237 98.6352 97.6052 99.2913 100.787 99.3054C102.148 99.3054 103.517 99.1995 104.864 98.9738C105.316 98.8962 105.767 98.8115 106.212 98.7128C106.663 98.614 107.108 98.5012 107.552 98.3812C107.996 98.2613 108.441 98.1273 108.878 97.9791C109.316 97.831 109.76 97.6758 110.19 97.5065C110.628 97.3372 111.058 97.1608 111.488 96.9703C111.919 96.7799 112.342 96.5753 112.765 96.3637L112.779 96.3354ZM110.529 44.5559C110.388 44.7604 110.211 44.9227 110.028 44.9791C108.913 45.3177 108.54 46.1784 108.194 47.1307C108.116 47.3424 107.912 47.5117 107.792 47.6598C106.837 47.6504 105.955 47.9185 105.146 48.464C105.026 48.2594 104.878 48.069 104.808 47.8503C104.751 47.681 104.758 47.4693 104.808 47.3C105.118 46.2771 104.928 45.4024 104.3 44.5065C103.905 43.9351 103.757 43.1661 103.601 42.4607C105.993 42.5665 108.384 43.2719 110.522 44.5488L110.529 44.5559ZM102.494 46.1502C102.303 46.0867 102.155 45.8962 101.866 45.6705C102.184 45.4729 102.353 45.3036 102.55 45.2613C102.804 45.2049 103.016 45.3601 103.051 45.6422C103.094 45.9526 102.79 46.2489 102.494 46.1502ZM86.0148 69.8037C85.2882 67.6944 85.0624 65.5992 85.2035 63.5393C85.3093 63.5464 85.4081 63.5535 85.521 63.5535C86.5227 63.5323 87.0518 63.0455 87.0518 62.1355C87.0518 61.0844 86.5862 60.4707 85.6903 60.3296C85.8596 59.603 86.0712 58.8834 86.3111 58.1639C86.3322 58.1639 86.3534 58.1639 86.3745 58.1498C87.1153 57.9875 87.4539 56.9787 86.9601 56.4355C87.3057 55.5961 87.6867 54.7707 88.0958 53.9524C88.0676 54.679 88.505 55.1516 89.2528 55.1446C89.4926 55.1446 89.7536 55.1305 89.9723 55.0458C91.0516 54.6508 92.1239 54.2275 93.2597 53.7831C93.1891 53.2046 93.1186 52.6685 93.0269 51.9418C92.7447 52.1535 92.6107 52.1958 92.5613 52.2875C92.0393 53.2681 91.2633 53.4656 90.2333 53.1552C89.7818 53.0212 89.2669 53.0635 88.7801 53.0847C88.6743 53.0847 88.5826 53.1199 88.4979 53.1693C88.7942 52.612 89.0976 52.0618 89.408 51.5186C89.5984 51.5256 89.7959 51.5539 89.9935 51.5891C90.0852 51.6032 90.2051 51.4904 90.3039 51.4339C90.2263 50.919 90.1416 50.6721 89.9441 50.5945C90.6425 49.4234 91.362 48.2877 92.0816 47.1872C92.5119 46.524 93.1256 46.2278 93.7464 46.1854C94.9951 44.9086 96.4624 43.9633 98.0496 43.3425C98.4024 44.0056 99.009 44.3865 99.4605 44.9015C99.9261 45.4236 100.004 46.0161 99.7215 46.6228C99.5734 46.9544 99.2983 47.2224 99.1078 47.5328C98.9103 47.8432 98.7128 48.1607 98.5646 48.4922C98.3953 48.8802 98.5505 49.2329 98.8539 49.4869C99.1642 49.7479 99.5593 49.8114 99.8909 49.5927C100.18 49.3952 100.434 49.0989 100.617 48.7956C100.871 48.3794 100.998 47.8785 101.259 47.4693C101.52 47.0602 102.141 46.9896 102.607 47.2365C103.087 47.4834 103.277 47.9984 103.065 48.4922C102.967 48.718 102.825 48.9226 102.706 49.1412C102.332 49.8326 102.254 50.5451 102.593 51.2787C102.663 51.4339 102.656 51.6173 102.677 51.7584C102.593 51.836 102.557 51.8925 102.501 51.9136C101.633 52.3016 101.513 52.5133 102.042 53.0141C102.564 53.5079 102.861 54.0723 103.058 54.7425C103.143 55.0246 103.319 55.3139 103.693 55.2645C104.561 54.5802 103.82 53.5996 104.222 52.6543C105.076 52.2875 105.556 51.4198 105.937 50.4957C106.183 49.8961 106.614 49.6421 107.227 49.628C107.354 49.628 107.474 49.628 107.601 49.6139C108.885 49.4657 108.949 49.3952 109.111 48.0055C109.16 47.5822 109.111 47.1237 109.711 46.7639C110.296 46.9332 111.002 46.9191 111.672 46.4817C111.954 46.2983 112.462 46.7639 112.377 47.1096C112.257 47.5822 112.039 48.0337 111.926 48.5063C111.862 48.7956 111.89 49.1412 112.441 49.1483C112.575 48.7744 112.723 48.3794 112.85 47.9702C112.92 47.7374 112.913 47.4693 113.012 47.2507C113.076 47.1166 113.273 47.0179 113.435 46.9685C113.52 46.9473 113.696 47.039 113.746 47.1307C114.141 47.815 114.522 48.5204 114.882 49.1695C115.128 49.1695 115.326 49.1695 115.502 49.1695C116.927 51.187 117.915 53.4727 118.508 55.8853C118.508 55.8994 118.508 55.9135 118.508 55.9347H118.515C119.361 59.4266 119.389 63.1725 118.726 66.6997C118.691 66.8832 118.649 67.0666 118.613 67.25C118.557 67.2006 118.486 67.1512 118.423 67.1089C118.395 67.2077 118.366 67.3064 118.338 67.4052C118.416 67.4052 118.5 67.4193 118.578 67.4193C118.035 69.8037 117.061 71.8989 115.735 73.6484C115.763 73.3309 115.636 72.9359 115.382 72.8724C114.621 72.6819 114.084 72.2445 113.626 71.6378C113.414 71.3557 112.857 71.5109 112.709 71.8777C112.547 72.2657 112.441 72.6819 112.278 73.1828C111.291 72.8653 111.065 72.1175 110.656 71.5179C110.536 71.3416 110.254 71.1652 110.056 71.1793C109.88 71.1934 109.654 71.4403 109.57 71.6308C109.45 71.9059 109.457 72.2375 109.365 72.5267C108.998 73.6272 108.723 74.7771 107.58 75.4331C107.284 75.6024 107.115 75.9975 106.91 76.3008C106.677 76.6677 106.734 77.0063 107.03 77.2955C107.383 77.6412 107.707 77.6623 108.159 77.3731C108.349 77.2532 108.533 77.1333 108.631 77.0627C109.21 77.2179 109.076 77.9657 109.668 77.9022C110.374 76.8017 110.381 76.8158 111.728 75.8917C112.017 75.6941 112.236 75.3767 112.476 75.1086C112.716 74.8406 112.942 74.5654 113.21 74.248C113.485 74.382 113.689 74.5019 113.915 74.5937C114.268 74.7347 114.621 74.7347 114.924 74.6219C112.173 77.6835 108.208 79.4894 103.566 79.7011C99.9826 79.8633 96.2155 79.1861 93.0339 77.5636V77.493H92.8999C89.7889 75.8705 87.2493 73.3309 86.0289 69.7614L86.0148 69.8037ZM89.02 54.3192L89.1258 54.2628V54.3756L89.02 54.3192Z" fill="#FADDCF"/>
<path d="M108.124 54.0935C108.434 53.9876 108.646 53.7901 108.61 53.2963C108.462 53.2328 108.265 53.0988 108.06 53.0847C107.707 53.0635 107.503 53.2963 107.475 53.649C107.453 53.9383 107.82 54.1993 108.124 54.0935Z" fill="#FADDCF"/>
<path d="M100.378 54.1711C100.385 54.1287 100.35 54.0793 100.335 54.037H100.194C100.223 54.1146 100.244 54.1922 100.272 54.2628C100.307 54.2345 100.371 54.2134 100.378 54.1781V54.1711Z" fill="#FADDCF"/>
<path d="M111.129 54.7989C111.446 54.94 111.827 55.0458 112.166 55.0105C112.398 54.9894 112.603 54.6931 112.751 54.5873C112.808 53.7266 112.264 52.7602 111.615 52.5485C111.446 52.4921 111.093 52.612 110.995 52.7602C110.797 53.0494 110.684 53.4092 110.607 53.7548C110.508 54.2134 110.698 54.6084 111.129 54.7989Z" fill="#FADDCF"/>
<path d="M94.5575 49.6774C94.9102 49.6774 95.27 49.6492 95.6086 49.5504C95.7215 49.5151 95.7709 49.2612 95.8344 49.1412C95.7779 49.0354 95.7638 48.9719 95.7215 48.9367C95.3264 48.5981 94.5434 48.7744 94.3318 49.2823C94.2965 49.374 94.4728 49.6774 94.5575 49.6774Z" fill="#FADDCF"/>
<path d="M96.2645 47.2295C96.4973 47.2013 96.7018 46.9896 96.8359 46.905C96.9064 46.4323 96.6595 46.0726 96.4056 46.1502C96.2151 46.2066 96.0035 46.383 95.9117 46.5664C95.7777 46.8485 95.9964 47.2648 96.2574 47.2295H96.2645Z" fill="#FADDCF"/>
<path d="M98.1412 60.8869C98.3811 60.8375 98.621 60.767 98.8608 60.7035C100.66 60.2449 100.702 60.259 101.88 61.8957C102.24 60.7317 101.668 60.2097 99.792 59.7511C99.6556 58.9657 99.4322 58.4249 99.1218 58.1286C98.9455 58.6154 98.8044 59.0739 98.6139 59.5113C98.4587 59.864 98.0778 59.9486 97.6616 59.8358C97.3441 59.7511 97.1325 59.2079 96.7021 59.5889C96.8291 60.7952 97.1607 61.0915 98.1342 60.8798L98.1412 60.8869Z" fill="#FADDCF"/>
<path d="M103.891 77.9092C104.011 77.8387 104.138 77.5706 104.096 77.4719C103.962 77.1756 103.743 76.9216 103.454 76.5125C103.228 76.8087 102.974 76.9922 103.002 77.1262C103.052 77.3943 103.214 77.6623 103.404 77.8669C103.489 77.9586 103.771 77.9798 103.891 77.9092Z" fill="#FADDCF"/>
<path d="M105.788 61.2255C106.183 61.5218 106.578 61.8181 107.008 62.0579C107.262 62.199 107.615 62.3401 107.862 62.2625C108.906 61.9591 109.478 62.5164 110.07 63.3207C109.675 63.8145 109.301 64.2801 108.892 64.8021C109.442 65.5922 109.626 66.3752 109.097 67.2288C108.991 67.3981 109.047 67.7297 109.139 67.9343C109.463 68.6115 109.922 69.2041 110.599 69.5568C110.761 69.6414 111.029 69.5356 111.368 69.5074C111.206 68.9713 111.079 68.5692 110.931 68.0895C111.142 67.5533 111.467 67.1018 111.474 66.6574C111.495 65.4229 111.474 64.1813 111.29 62.9609C111.185 62.2413 111.128 61.6558 111.622 61.0632C111.834 60.8093 112.031 60.4213 111.721 60.0544C110.987 60.1673 110.117 59.9651 109.111 59.4478C108.821 59.5677 108.462 59.6735 108.144 59.8569C107.333 60.3155 106.628 60.2661 106.007 59.5183C105.844 59.3208 105.569 59.2361 105.358 59.4407C105.245 59.5536 105.188 59.7652 105.181 59.9416C105.153 60.4707 105.351 60.9151 105.774 61.2325L105.788 61.2255Z" fill="#FADDCF"/>
<path d="M104.504 75.5319C104.878 75.4825 105.146 75.1651 105.111 74.6501C104.97 74.5513 104.772 74.3044 104.539 74.255C104.109 74.1704 103.77 74.6078 103.848 75.0592C103.897 75.3414 104.215 75.5672 104.504 75.5319Z" fill="#FADDCF"/>
<path d="M98.198 52.866C98.078 52.7531 97.9652 52.5838 97.8311 52.5485C97.7535 52.5274 97.6195 52.7319 97.5137 52.8307C97.6477 52.9224 97.7747 53.0423 97.9299 53.0988C97.9722 53.1129 98.0851 52.9718 98.198 52.866Z" fill="#FADDCF"/>
<path d="M95.2839 67.7579C95.2415 67.5674 95.0793 67.3981 95.0087 67.2853C94.6348 67.257 94.395 67.504 94.4726 67.7297C94.522 67.8778 94.6631 68.033 94.7971 68.0965C95.0158 68.2023 95.3332 67.9837 95.2839 67.7509V67.7579Z" fill="#FADDCF"/>
<path d="M91.2282 74.7488C90.8543 74.7488 90.4028 75.1227 90.5157 75.419C90.6003 75.6518 90.8896 75.807 91.1788 76.0821C91.4398 75.7788 91.6867 75.5954 91.7855 75.3485C91.8842 75.0875 91.5245 74.7488 91.2282 74.7418V74.7488Z" fill="#FADDCF"/>
<path d="M93.5632 74.77C93.9512 74.6078 94.325 74.3185 94.7272 74.2833C96.0534 74.1704 96.2509 73.0346 96.7447 72.1669C96.8999 71.8918 96.4132 71.3557 96.1098 71.4685C95.6583 71.6378 95.1575 71.793 94.8259 72.1034C94.0781 72.8018 93.4221 73.5849 92.7378 74.3468C92.6814 74.4102 92.7025 74.5937 92.7519 74.6854C92.8083 74.7771 92.9424 74.8123 93.0905 74.8899C93.2316 74.8547 93.408 74.8265 93.5702 74.763L93.5632 74.77Z" fill="#FADDCF"/>
<path d="M89.8167 63.0385C89.2312 63.9626 88.5328 64.6822 87.3829 64.8021C87.3265 64.8021 87.2771 64.8656 87.2277 64.9009C86.5434 65.4299 86.36 66.4105 85.5276 66.8197C85.4853 66.8408 85.5276 67.0243 85.5276 67.1512C86.0567 67.3629 86.4447 66.8408 86.9173 66.8691C87.7639 66.9184 88.4481 66.4035 89.203 66.2694C90.113 66.1142 90.7832 65.7051 91.4251 65.1054C91.5662 64.9714 91.8766 65.0137 92.4057 64.9291C91.8907 64.1672 91.5592 63.5817 91.1359 63.0667C90.8114 62.6646 90.0636 62.6434 89.8167 63.0314V63.0385Z" fill="#FADDCF"/>
<path d="M88.5332 68.3223L88.7166 68.7103C88.7942 68.6468 88.8648 68.5762 88.9424 68.5127C88.9 68.414 88.8859 68.2799 88.8154 68.2306C88.7589 68.1953 88.632 68.287 88.5403 68.3152L88.5332 68.3223Z" fill="#FADDCF"/>
<path d="M93.6546 70.7067C93.3018 70.6926 93.0761 70.8971 93.0197 71.2217C92.9985 71.3627 93.0902 71.6308 93.196 71.6802C93.6475 71.8636 93.9085 71.7507 94.614 71.1934C94.3953 71.0594 94.1978 70.9324 93.9932 70.8266C93.8874 70.7702 93.7674 70.7137 93.6546 70.7137V70.7067Z" fill="#FADDCF"/>
<path d="M93.7746 63.5182C93.9862 63.4477 94.1696 63.2783 94.4659 63.0879C93.7511 61.9309 93.958 61.0703 95.0867 60.506C94.995 59.9275 94.5365 59.9063 94.1132 59.9204C93.6476 59.9416 93.3019 60.2379 93.1397 60.6541C92.8222 61.4724 92.8716 62.3331 93.0339 63.1796C93.0832 63.4406 93.4642 63.624 93.7816 63.5182H93.7746Z" fill="#FADDCF"/>
<path d="M99.8559 65.4229C99.8559 65.7827 99.8418 65.9097 99.8559 66.0296C99.9335 66.8197 100.519 67.4616 101.239 67.5674C101.824 67.6521 102.424 67.1583 102.678 66.3611C102.734 66.1848 102.776 66.0014 102.783 65.8179C102.805 65.0631 102.057 64.2801 101.224 64.273C100.448 64.266 99.8629 64.6187 99.8559 65.4229Z" fill="#FADDCF"/>
<path d="M100.201 74.7982C100.124 74.7912 100.032 74.897 99.9473 74.9534C100.004 75.031 100.067 75.1086 100.124 75.1862C100.208 75.1298 100.293 75.0804 100.378 75.024C100.321 74.9464 100.265 74.8053 100.194 74.8053L100.201 74.7982Z" fill="#FADDCF"/>
<path d="M100.836 77.62C100.441 77.9586 100.321 78.4524 100.582 78.7135C100.66 78.7911 100.787 78.8334 100.97 78.9392C101.182 78.8475 101.471 78.7699 101.711 78.6076C102.042 78.389 102.056 77.9657 101.795 77.6623C101.549 77.3731 101.146 77.352 100.836 77.62Z" fill="#FADDCF"/>
<path d="M112.504 56.0475C112.222 56.0123 111.912 56.0405 111.636 56.1251C111.516 56.1604 111.397 56.4073 111.404 56.5555C111.411 56.7036 111.566 56.8588 111.686 56.9717C111.763 57.0422 111.904 57.0493 112.06 57.0916C112.201 57.0563 112.419 57.0704 112.532 56.9646C112.688 56.8235 112.815 56.5978 112.836 56.3932C112.85 56.2874 112.631 56.0687 112.497 56.0546L112.504 56.0475Z" fill="#FADDCF"/>
<path d="M100.984 70.6926L100.878 70.5726C100.822 70.6291 100.765 70.6855 100.709 70.7419L100.857 70.7913L100.984 70.6926Z" fill="#FADDCF"/>
<path d="M98.9811 73.1687C98.4591 73.4861 98.1205 73.5778 98.0076 73.7824C97.8101 74.1422 97.6479 74.5796 97.6549 74.9746C97.6761 75.8282 97.796 76.6818 97.5279 77.5142C97.5068 77.5706 97.5138 77.6341 97.5138 77.6976C97.5138 78.0574 97.789 78.4383 98.1135 78.53C98.438 78.6218 98.8118 78.3819 98.96 77.9939C99.1857 77.3943 99.1575 76.8017 99.0023 76.195C98.7484 75.2168 98.7437 74.2057 98.9882 73.1616L98.9811 73.1687Z" fill="#FADDCF"/>
<path d="M98.9456 64.6822C99.0021 64.3577 98.8821 63.9132 98.6705 63.6593C98.3319 63.236 97.8804 62.8833 97.4289 62.5729C97.1115 62.3542 96.7164 62.3754 96.3778 62.6011C96.0322 62.8339 95.9475 63.1866 96.0181 63.5817C96.0886 64.0049 96.2791 64.4423 96.2226 64.8444C96.0745 65.8814 96.1662 66.7915 96.9492 67.5816C97.1609 67.8002 97.1679 68.2235 97.2667 68.5692C97.6617 67.8214 98.0568 67.1371 98.3742 66.4246C98.6211 65.8673 98.8398 65.2818 98.9386 64.6822H98.9456Z" fill="#FADDCF"/>
<path d="M106.699 65.5781C106.297 65.6909 105.916 65.8744 105.422 66.0648C105.796 66.9184 105.57 67.8143 105.965 68.6115C106.607 68.7032 107.15 68.6609 107.566 68.2094C108.011 67.7226 108.124 67.123 108.018 66.481C107.905 65.7827 107.362 65.3947 106.692 65.5781H106.699Z" fill="#FADDCF"/>
<path d="M112.448 64.1884C112.391 64.5552 112.723 64.8303 113.153 64.8515C113.471 64.8656 113.753 64.5623 113.696 64.266C113.626 63.9062 113.28 63.6663 112.751 63.7157C112.68 63.8286 112.483 63.9979 112.455 64.1954L112.448 64.1884Z" fill="#FADDCF"/>
<path d="M95.5378 74.9252C94.8324 75.6941 94.5996 76.6324 94.6984 77.6412C94.7125 77.8246 94.9664 78.0786 95.1569 78.135C95.3544 78.1914 95.6931 78.1138 95.82 77.9657C96.2151 77.5001 96.5396 76.9851 96.8782 76.4701C96.977 76.322 97.0122 76.1386 97.1039 75.9128C96.8359 75.5248 96.5537 75.1298 96.2221 74.643C95.8765 74.7771 95.6578 74.7982 95.5449 74.9182L95.5378 74.9252Z" fill="#FADDCF"/>
<path d="M114.472 61.684C114.585 61.6981 114.726 61.5077 114.909 61.3666C114.712 61.2184 114.585 61.035 114.458 61.0421C114.338 61.0421 114.232 61.2466 114.119 61.3666C114.239 61.4794 114.345 61.677 114.479 61.684H114.472Z" fill="#FADDCF"/>
<path d="M200.417 67.4546C200.572 67.257 200.727 67.0666 200.875 66.8761C200.649 66.5798 200.417 66.2906 200.191 66.0013C199.507 65.1266 198.815 64.2589 198.103 63.4053C194.18 58.6788 189.92 54.2557 185.362 50.1571C183.204 48.21 180.974 46.3406 178.682 44.5488C177.92 43.9492 177.151 43.3636 176.375 42.7781C171.585 39.1874 166.548 35.9353 161.307 33.0359C159.614 32.0977 157.899 31.2018 156.164 30.3341C155.296 29.9038 154.422 29.4805 153.547 29.0714C152.672 28.6622 151.79 28.2601 150.901 27.865C150.147 27.5335 149.392 27.209 148.63 26.8915C143.311 24.6623 137.837 22.7929 132.249 21.3044C131.65 21.1422 131.05 20.987 130.451 20.8318C129.851 20.6766 129.244 20.5284 128.645 20.3873C126.133 19.7948 123.615 19.2939 121.089 18.8636C114.324 17.7208 107.495 17.1564 100.674 17.1635C99.7003 17.1635 98.7338 17.1776 97.7603 17.1987C96.7939 17.2199 95.8203 17.2552 94.8539 17.3045C93.8874 17.3539 92.9139 17.4104 91.9474 17.4739C91.4607 17.5091 90.981 17.5515 90.5013 17.5938C90.0216 17.6361 89.5348 17.6714 89.0551 17.7137C88.2157 17.7913 87.3762 17.883 86.5367 17.9747C84.8577 18.1652 83.1788 18.3909 81.5139 18.6519C77.3377 19.301 73.1897 20.1616 69.0981 21.2198C65.3099 22.2003 61.564 23.3573 57.8745 24.6835C51.4197 27.0044 45.1342 29.8332 39.0956 33.17C38.5595 33.4663 38.0233 33.7767 37.4942 34.08C35.78 35.0606 34.0869 36.0764 32.4291 37.1346C31.5967 37.6637 30.7714 38.1998 29.953 38.75C29.1347 39.3003 28.3235 39.8505 27.5193 40.4149C25.798 41.6212 24.1049 42.8769 22.4471 44.1679C21.8969 44.5982 21.3466 45.0355 20.7964 45.4729C19.7029 46.3547 18.6307 47.2506 17.5654 48.1607C15.9711 49.5292 14.4121 50.9401 12.8883 52.3933C9.33291 55.7724 5.97499 59.3631 2.82871 63.1372C2.35607 63.7086 1.88342 64.2801 1.41783 64.8585C0.952233 65.437 0.48664 66.0225 0.0351562 66.608C0.874635 67.7015 1.73528 68.7737 2.61003 69.839C7.17425 75.3696 12.2041 80.4982 17.6289 85.1683C18.9834 86.3322 20.3661 87.4751 21.7699 88.5826C22.4683 89.1399 23.1808 89.6831 23.8933 90.2263C38.8628 101.57 56.2873 109.654 74.7135 113.619C83.2705 115.46 91.9545 116.349 100.61 116.321C104.455 116.307 108.3 116.116 112.123 115.749C130.288 114.007 148.051 108.3 164.009 99.0725C172.121 94.3813 179.684 88.8154 186.548 82.4946C189.292 79.9691 191.93 77.3167 194.441 74.5513C195.697 73.1686 196.925 71.7578 198.124 70.3257C198.914 69.3804 199.69 68.414 200.452 67.4404L200.417 67.4546ZM183.444 62.6152C184.029 62.587 184.473 63.102 184.516 63.8427C184.537 64.2095 184.191 64.5411 183.817 64.527C183.112 64.4987 182.703 64.0331 182.759 63.3277C182.787 62.9256 183.07 62.6293 183.451 62.6152H183.444ZM184.114 79.1085C184.22 79.0732 184.417 79.2355 184.523 79.3483C184.572 79.3977 184.537 79.6305 184.473 79.6658C183.698 80.1314 182.893 80.5546 181.948 80.1596C181.92 80.1455 181.913 80.0608 181.87 79.9127C182.675 79.6164 183.387 79.3413 184.114 79.1085ZM178.343 57.0281C178.343 57.0281 178.244 57.1339 178.216 57.1269C178.124 57.0916 178.04 57.0281 177.955 56.9717C178.033 56.9011 178.117 56.8306 178.195 56.7671C178.251 56.8517 178.308 56.9364 178.35 57.0281H178.343ZM177.447 50.8625C177.433 50.9613 177.391 51.06 177.356 51.1517C177.278 51.0883 177.2 51.0248 177.13 50.9613C177.2 50.8907 177.264 50.8202 177.334 50.7638C177.341 50.7638 177.447 50.8343 177.447 50.8555V50.8625ZM170.456 65.2536C170.456 65.7544 170.358 66.22 169.836 66.4528C169.426 66.3823 169.017 66.3047 168.608 66.2341V64.3718C168.784 64.3224 168.968 64.2942 169.13 64.2236C170.188 63.7651 170.449 64.4564 170.449 65.2465L170.456 65.2536ZM169.518 50.8131L169.617 50.6791C169.687 50.7496 169.758 50.8202 169.814 50.8978C169.821 50.9119 169.751 50.9824 169.723 51.0248C169.652 50.9542 169.589 50.8837 169.518 50.8131ZM170.111 44.2948C170.16 43.9421 170.527 43.674 170.908 43.7093C171.373 43.7587 171.783 44.1255 171.775 44.4994C171.761 44.9791 171.261 45.4588 170.823 45.4094C170.386 45.3601 170.04 44.8169 170.111 44.2948ZM170.597 71.7507C170.774 72.3856 171.176 72.8089 171.74 73.1193C172.375 73.472 172.347 74.0857 172.121 74.5513C171.966 74.8758 171.754 75.1933 171.507 75.4472C171.084 75.8846 170.619 76.2797 170.118 76.7452C169.638 76.59 169.123 76.4278 168.608 76.2655V70.6855C169.596 70.4245 170.301 70.7137 170.597 71.7436V71.7507ZM172.044 47.3071C172.044 47.3071 171.98 47.293 171.952 47.2859C171.952 47.2718 171.945 47.2577 171.938 47.2436C171.712 47.2224 171.472 47.2295 171.268 47.1519C171.148 47.1025 171.07 46.8909 171.035 46.7357C171.021 46.6651 171.162 46.4888 171.246 46.4888C171.409 46.4817 171.656 46.5029 171.726 46.6087C171.846 46.785 171.881 47.0249 171.938 47.2436C171.952 47.2436 171.973 47.2436 171.987 47.2436C172.001 47.2647 172.022 47.2859 172.036 47.3071C172.354 47.3706 172.664 47.4411 172.975 47.5117C172.989 47.5117 173.01 47.6245 172.989 47.6669C172.968 47.7162 172.911 47.7656 172.862 47.7727C172.467 47.8221 172.248 47.561 172.036 47.3071H172.044ZM108.892 97.9579C108.455 98.1061 108.01 98.2401 107.566 98.36C107.122 98.48 106.677 98.5928 106.226 98.6916C105.774 98.7904 105.33 98.875 104.878 98.9526C103.524 99.1784 102.162 99.2912 100.801 99.2842C97.6192 99.2701 94.4377 98.6069 91.3972 97.2031C87.7148 95.4959 84.498 92.914 81.4504 90.2616C81.0836 89.937 80.7097 89.6125 80.35 89.288C79.2495 88.3075 78.1772 87.3057 77.1402 86.2617C76.7945 85.916 76.4559 85.5633 76.1173 85.2035C75.4471 84.491 74.7981 83.7574 74.1773 82.9955C73.8669 82.6145 73.5636 82.2336 73.2673 81.8386C72.964 81.4365 72.6747 81.0273 72.3996 80.6111C71.5672 79.3695 70.8617 78.0715 70.2692 76.7382C70.0716 76.2938 69.8882 75.8423 69.7189 75.3908C69.3732 74.4808 69.084 73.5637 68.8442 72.6255C68.4844 71.2216 68.2375 69.7896 68.1034 68.3434C67.8354 65.444 68.0188 62.4812 68.6184 59.5395C68.7383 58.9681 68.8724 58.4037 69.0205 57.8394C69.465 56.1604 70.0505 54.5238 70.7418 52.9365C71.673 50.8202 72.8017 48.7956 74.0786 46.8626C74.6359 45.748 75.2425 44.6617 75.9127 43.6176C76.3642 42.9263 76.8368 42.249 77.3518 41.593C78.1137 40.6124 78.9532 39.6812 79.8773 38.8135C81.4363 37.3462 83.1435 36.154 84.9565 35.1875C86.0923 34.5809 87.2704 34.0588 88.4767 33.6144C89.2033 33.3463 89.9369 33.1065 90.6847 32.8878C90.9316 32.8173 91.1856 32.7467 91.4325 32.6762C91.9333 32.5421 92.4342 32.4152 92.9421 32.3023C93.704 32.133 94.4659 31.9778 95.2419 31.8437C95.7568 31.752 96.2718 31.6744 96.7868 31.6039C97.3018 31.5333 97.8238 31.4628 98.3388 31.4064C98.5998 31.3782 98.8537 31.3499 99.1148 31.3217C99.8907 31.2441 100.674 31.1806 101.45 31.1242C101.965 31.0889 102.487 31.0607 102.995 31.0325C104.885 30.9337 106.811 30.8209 108.73 30.7997C109.689 30.7926 110.656 30.7997 111.608 30.8491C112.088 30.8773 112.561 30.9055 113.033 30.9549C113.506 30.9972 113.978 31.0536 114.451 31.1242C115.185 31.23 115.89 31.3923 116.56 31.5968C117.231 31.8014 117.865 32.0554 118.479 32.3517C118.888 32.5492 119.276 32.7679 119.657 33.0077C119.848 33.1277 120.038 33.2476 120.222 33.3816C120.779 33.7696 121.308 34.1999 121.816 34.6726C122.493 35.3004 123.128 36.0059 123.735 36.7748C126.542 40.3443 129.195 44.0409 131.918 47.681C132.92 49.0213 133.943 50.3828 134.817 51.8219C135.939 53.6702 136.821 55.6384 137.11 57.8323C137.145 58.0863 137.166 58.3332 137.181 58.5801C137.399 62.065 135.974 65.3241 134.577 68.4704C134.479 68.6961 134.38 68.9219 134.281 69.1406C133.674 70.5091 133.061 71.8777 132.419 73.2321C131.988 74.1351 131.558 75.031 131.107 75.9199C130.655 76.8087 130.19 77.6905 129.71 78.5653C129.47 79.0027 129.223 79.44 128.969 79.8704C125.308 86.177 120.497 92.004 114.098 95.6229C113.675 95.8628 113.238 96.0956 112.793 96.3143C112.37 96.5259 111.947 96.7305 111.516 96.9209C111.086 97.1114 110.656 97.2878 110.218 97.4571C109.781 97.6264 109.344 97.7816 108.906 97.9297L108.892 97.9579ZM188.72 70.107C187.853 70.3892 186.794 69.7896 186.583 68.8725C186.547 68.7173 186.604 68.4986 186.696 68.3646C186.985 67.9413 187.394 67.6873 188.036 67.6097C188.212 67.6591 188.516 67.7156 188.791 67.8284C189.193 67.9836 189.616 68.16 189.659 68.6679C189.708 69.2393 189.235 69.9307 188.706 70.107H188.72ZM190.068 58.5307C190.004 58.7564 189.729 58.9187 189.461 59.2009C189.242 58.9257 189.045 58.7776 189.002 58.5871C188.939 58.3191 189.263 58.0863 189.609 58.1215C189.863 58.1427 190.145 58.2697 190.068 58.5307ZM192.833 66.6927C191.965 67.2288 190.949 66.9678 190.484 66.0648C189.927 64.9784 190.244 63.7086 191.253 62.9679C191.45 62.8198 191.648 62.6716 191.867 62.5588C193.136 61.8957 194.265 62.594 194.244 64.1178C194.117 65.1054 193.828 66.0789 192.826 66.6997L192.833 66.6927Z" fill="#FFC55D"/>
<path d="M102.55 45.2613C102.353 45.3036 102.184 45.4729 101.866 45.6705C102.155 45.9033 102.304 46.0937 102.494 46.1502C102.79 46.2489 103.094 45.9526 103.051 45.6422C103.009 45.3601 102.804 45.2049 102.55 45.2613Z" fill="black"/>
<path d="M104.313 44.5135C104.941 45.4094 105.132 46.2842 104.821 47.3071C104.772 47.4764 104.765 47.688 104.821 47.8573C104.892 48.076 105.04 48.2665 105.16 48.4711C105.974 47.9255 106.855 47.6575 107.805 47.6669C107.918 47.5187 108.13 47.3494 108.207 47.1378C108.553 46.1854 108.92 45.3248 110.042 44.9862C110.225 44.9297 110.394 44.7604 110.542 44.5629C108.412 43.2861 106.014 42.5806 103.622 42.4748C103.777 43.1802 103.925 43.9492 104.32 44.5206L104.313 44.5135Z" fill="black"/>
<path d="M89.0127 54.3192L89.1257 54.3757V54.2628L89.0127 54.3192Z" fill="black"/>
<path d="M93.0194 77.5354V77.6059C96.201 79.2284 99.968 79.9057 103.552 79.7434C108.201 79.5318 112.158 77.7258 114.909 74.6642C114.606 74.7771 114.253 74.7771 113.901 74.636C113.682 74.5443 113.477 74.4314 113.195 74.2903C112.927 74.6078 112.701 74.8829 112.461 75.151C112.222 75.419 112.003 75.7365 111.714 75.934C110.366 76.8581 110.359 76.844 109.654 77.9445C109.061 78.0151 109.195 77.2673 108.617 77.105C108.518 77.1685 108.328 77.2955 108.144 77.4154C107.693 77.7047 107.368 77.6835 107.015 77.3378C106.712 77.0416 106.656 76.7029 106.895 76.3432C107.093 76.0328 107.269 75.6377 107.566 75.4755C108.708 74.8265 108.984 73.6766 109.35 72.569C109.449 72.2798 109.435 71.9483 109.555 71.6731C109.64 71.4756 109.865 71.2358 110.042 71.2216C110.232 71.2075 110.521 71.3839 110.641 71.5603C111.051 72.1599 111.276 72.9077 112.264 73.2251C112.426 72.7242 112.532 72.308 112.694 71.92C112.842 71.5532 113.4 71.391 113.611 71.6802C114.07 72.2939 114.606 72.7242 115.368 72.9147C115.622 72.9782 115.756 73.3732 115.721 73.6907C117.047 71.9341 118.02 69.846 118.564 67.4616C118.486 67.4616 118.401 67.4546 118.324 67.4475C118.352 67.3488 118.38 67.25 118.408 67.1512C118.472 67.2006 118.542 67.2429 118.599 67.2923C118.641 67.1089 118.676 66.9255 118.712 66.7421C119.375 63.2149 119.347 59.4689 118.5 55.977H118.493C118.493 55.977 118.493 55.9417 118.493 55.9276C117.9 53.515 116.913 51.2294 115.488 49.2118C115.311 49.2118 115.114 49.2118 114.867 49.2118C114.507 48.5628 114.133 47.8644 113.731 47.1731C113.682 47.0814 113.505 46.9826 113.421 47.0108C113.259 47.0602 113.061 47.159 112.998 47.293C112.892 47.5117 112.906 47.7727 112.835 48.0125C112.708 48.4146 112.56 48.8167 112.426 49.1906C111.876 49.1836 111.848 48.8379 111.911 48.5487C112.017 48.076 112.243 47.6245 112.363 47.1519C112.454 46.7992 111.939 46.3336 111.657 46.5241C110.987 46.9614 110.282 46.9755 109.696 46.8062C109.096 47.1731 109.146 47.6316 109.096 48.0478C108.934 49.4375 108.864 49.5081 107.587 49.6562C107.467 49.6703 107.34 49.6703 107.213 49.6703C106.599 49.6844 106.169 49.9384 105.922 50.538C105.541 51.4622 105.068 52.3299 104.208 52.6967C103.806 53.642 104.546 54.6226 103.679 55.3068C103.305 55.3562 103.128 55.067 103.044 54.7848C102.846 54.1146 102.543 53.5503 102.028 53.0565C101.499 52.5556 101.612 52.344 102.486 51.956C102.536 51.9348 102.578 51.8784 102.663 51.8008C102.642 51.6597 102.649 51.4763 102.578 51.3211C102.247 50.5804 102.324 49.8749 102.691 49.1836C102.811 48.9649 102.952 48.7603 103.051 48.5346C103.262 48.0408 103.065 47.5328 102.592 47.2789C102.134 47.039 101.506 47.1025 101.245 47.5117C100.984 47.9208 100.857 48.4146 100.603 48.8379C100.42 49.1413 100.166 49.4375 99.8763 49.6351C99.5518 49.8537 99.1497 49.7903 98.8393 49.5292C98.536 49.2753 98.3808 48.9226 98.5501 48.5346C98.6982 48.203 98.8957 47.8856 99.0933 47.5752C99.2908 47.2648 99.5589 46.9896 99.707 46.6651C99.9892 46.0514 99.9116 45.4659 99.446 44.9439C98.9945 44.4289 98.3878 44.0479 98.0351 43.3848C96.4479 44.0056 94.9805 44.9509 93.7319 46.2278C93.1111 46.263 92.5044 46.5664 92.067 47.2295C91.3475 48.33 90.6279 49.4728 89.9296 50.6368C90.1271 50.7144 90.2117 50.9613 90.2893 51.4763C90.1835 51.5327 90.0706 51.6456 89.9789 51.6315C89.7814 51.5962 89.5839 51.568 89.3934 51.5609C89.083 52.1041 88.7797 52.6544 88.4834 53.2117C88.568 53.1623 88.6598 53.1341 88.7656 53.127C89.2523 53.1058 89.7673 53.0635 90.2188 53.1976C91.2487 53.508 92.0247 53.3034 92.5468 52.3299C92.5961 52.2381 92.7302 52.1888 93.0123 51.9842C93.1041 52.7108 93.1746 53.2469 93.2451 53.8254C92.1094 54.2628 91.0371 54.686 89.9578 55.0881C89.732 55.1728 89.4781 55.1799 89.2382 55.1869C88.4904 55.194 88.0531 54.7284 88.0813 53.9947C87.6721 54.813 87.2912 55.6384 86.9455 56.4779C87.4393 57.0211 87.1078 58.0298 86.36 58.1921C86.3388 58.1921 86.3177 58.1921 86.2965 58.2062C86.0567 58.9187 85.845 59.6453 85.6757 60.3719C86.5787 60.513 87.0443 61.1267 87.0372 62.1779C87.0372 63.0879 86.5081 63.5746 85.5064 63.5958C85.3935 63.5958 85.2877 63.5958 85.189 63.5817C85.0549 65.6416 85.2807 67.7368 86.0002 69.846C87.2277 73.4156 89.7602 75.9552 92.8713 77.5777H93.0053L93.0194 77.5354ZM114.458 61.0421C114.585 61.0421 114.719 61.2184 114.909 61.3666C114.726 61.5077 114.585 61.6982 114.472 61.684C114.345 61.6699 114.232 61.4795 114.112 61.3666C114.225 61.2537 114.338 61.0491 114.451 61.0421H114.458ZM96.8782 76.4772C96.5396 76.9851 96.2151 77.5072 95.82 77.9727C95.693 78.1209 95.3544 78.1985 95.1569 78.142C94.9664 78.0856 94.7125 77.8317 94.6984 77.6482C94.6067 76.6395 94.8324 75.6942 95.5378 74.9323C95.6507 74.8124 95.8694 74.7912 96.2151 74.6572C96.5537 75.1369 96.8288 75.539 97.0969 75.927C97.0122 76.1527 96.9699 76.3361 96.8711 76.4843L96.8782 76.4772ZM96.9558 67.5816C96.1727 66.7844 96.081 65.8814 96.2292 64.8444C96.2856 64.4423 96.0951 64.005 96.0246 63.5817C95.9611 63.1866 96.0387 62.841 96.3844 62.6011C96.723 62.3754 97.118 62.3542 97.4355 62.5729C97.887 62.8833 98.3384 63.236 98.6771 63.6593C98.8816 63.9132 99.0016 64.3577 98.9522 64.6822C98.8534 65.2818 98.6347 65.8673 98.3878 66.4246C98.0704 67.1371 97.6753 67.8144 97.2803 68.5692C97.1745 68.2235 97.1745 67.8002 96.9628 67.5816H96.9558ZM98.9522 77.9939C98.804 78.3819 98.4302 78.6288 98.1057 78.53C97.7811 78.4383 97.506 78.0503 97.506 77.6976C97.506 77.6341 97.506 77.5706 97.5201 77.5142C97.7882 76.6747 97.6683 75.8282 97.6471 74.9746C97.6401 74.5725 97.8023 74.1351 97.9998 73.7824C98.1198 73.5708 98.4513 73.4791 98.9733 73.1687C98.7335 74.2127 98.7382 75.2239 98.9875 76.2021C99.1427 76.8088 99.1709 77.4084 98.9451 78.001L98.9522 77.9939ZM100.123 75.1792C100.067 75.1016 100.003 75.024 99.9469 74.9464C100.032 74.89 100.123 74.7841 100.201 74.7912C100.264 74.7912 100.321 74.9323 100.384 75.0099C100.3 75.0663 100.215 75.1157 100.13 75.1721L100.123 75.1792ZM101.703 78.6006C101.464 78.7558 101.174 78.8404 100.963 78.9321C100.779 78.8263 100.659 78.7911 100.575 78.7064C100.314 78.4454 100.441 77.9516 100.829 77.613C101.139 77.3449 101.534 77.3661 101.788 77.6553C102.049 77.9586 102.028 78.3819 101.703 78.6006ZM100.709 70.7419C100.765 70.6855 100.822 70.6291 100.878 70.5726L100.984 70.6926L100.857 70.7913L100.709 70.7419ZM107.573 68.2023C107.164 68.6538 106.62 68.6962 105.971 68.6044C105.576 67.8144 105.795 66.9184 105.428 66.0578C105.922 65.8673 106.303 65.6769 106.705 65.571C107.375 65.3876 107.918 65.7756 108.031 66.474C108.137 67.116 108.017 67.7156 107.58 68.2023H107.573ZM113.689 64.2589C113.745 64.5552 113.47 64.8585 113.146 64.8444C112.722 64.8303 112.391 64.5552 112.44 64.1813C112.468 63.9838 112.666 63.8145 112.737 63.7016C113.266 63.6522 113.611 63.8921 113.682 64.2519L113.689 64.2589ZM112.842 56.3862C112.814 56.5907 112.687 56.8165 112.539 56.9576C112.426 57.0634 112.207 57.0563 112.066 57.0845C111.911 57.0422 111.77 57.0352 111.693 56.9646C111.566 56.8518 111.417 56.6966 111.41 56.5484C111.403 56.4003 111.523 56.1534 111.643 56.1181C111.918 56.0334 112.229 56.0052 112.511 56.0405C112.645 56.0546 112.864 56.2803 112.849 56.3791L112.842 56.3862ZM110.606 53.7478C110.684 53.4021 110.797 53.0424 110.994 52.7531C111.093 52.605 111.446 52.4851 111.615 52.5415C112.264 52.7531 112.807 53.7196 112.751 54.5802C112.61 54.6931 112.398 54.9823 112.165 55.0035C111.827 55.0388 111.453 54.9329 111.128 54.7919C110.691 54.6014 110.5 54.1993 110.606 53.7478ZM108.059 53.0776C108.264 53.0917 108.462 53.2258 108.61 53.2893C108.645 53.7831 108.433 53.9876 108.123 54.0864C107.813 54.1852 107.446 53.9312 107.474 53.642C107.502 53.2893 107.7 53.0635 108.059 53.0776ZM105.379 59.4266C105.59 59.222 105.858 59.3067 106.028 59.5042C106.649 60.252 107.354 60.3014 108.165 59.8428C108.483 59.6665 108.843 59.5536 109.132 59.4337C110.138 59.951 111.008 60.1532 111.742 60.0404C112.052 60.4072 111.855 60.7952 111.643 61.0491C111.149 61.6417 111.206 62.2343 111.312 62.9468C111.488 64.1602 111.516 65.4088 111.495 66.6433C111.488 67.0948 111.17 67.5392 110.952 68.0754C111.1 68.5621 111.227 68.9642 111.389 69.4933C111.051 69.5215 110.782 69.6273 110.62 69.5427C109.943 69.19 109.477 68.5974 109.16 67.9202C109.061 67.7156 109.012 67.384 109.118 67.2147C109.647 66.3611 109.463 65.5781 108.913 64.788C109.329 64.266 109.696 63.8004 110.091 63.3066C109.499 62.5024 108.934 61.9451 107.883 62.2484C107.636 62.3189 107.276 62.1779 107.03 62.0438C106.599 61.811 106.197 61.5077 105.809 61.2114C105.386 60.8939 105.188 60.4425 105.217 59.9204C105.224 59.7511 105.28 59.5324 105.393 59.4196L105.379 59.4266ZM104.539 74.248C104.779 74.2974 104.97 74.5443 105.111 74.643C105.146 75.151 104.878 75.4755 104.504 75.5249C104.215 75.5601 103.897 75.3344 103.848 75.0522C103.77 74.6007 104.109 74.1633 104.539 74.248ZM103.46 76.5054C103.742 76.9146 103.961 77.1685 104.102 77.4648C104.151 77.5636 104.017 77.8387 103.897 77.9022C103.777 77.9727 103.495 77.9516 103.411 77.8599C103.227 77.6553 103.058 77.3872 103.008 77.1192C102.987 76.9851 103.234 76.8017 103.46 76.5054ZM102.783 65.8179C102.783 66.0014 102.733 66.1848 102.677 66.3611C102.423 67.1583 101.823 67.6521 101.238 67.5674C100.518 67.4616 99.9328 66.8197 99.8552 66.0296C99.841 65.9097 99.8552 65.7827 99.8552 65.4229C99.8622 64.6187 100.455 64.266 101.224 64.273C102.056 64.2801 102.804 65.0631 102.783 65.8179ZM100.328 54.03C100.342 54.0794 100.384 54.1287 100.37 54.164C100.363 54.1993 100.3 54.2204 100.264 54.2487C100.236 54.1781 100.215 54.1076 100.187 54.03H100.328ZM97.8305 52.5415C97.9716 52.5768 98.0774 52.7461 98.1974 52.8589C98.0774 52.9648 97.9716 53.1129 97.9293 53.0917C97.7811 53.0353 97.6542 52.9154 97.5131 52.8237C97.6189 52.7249 97.7529 52.5203 97.8305 52.5415ZM97.6683 59.8287C98.0845 59.9416 98.4584 59.864 98.6206 59.5042C98.8111 59.0668 98.9522 58.6083 99.1285 58.1216C99.4389 58.4178 99.6623 58.9587 99.7987 59.7441C101.675 60.2026 102.247 60.7246 101.887 61.8886C100.709 60.252 100.666 60.2379 98.8675 60.6964C98.6277 60.7599 98.3878 60.8305 98.148 60.8798C97.1745 61.0915 96.8429 60.7952 96.7159 59.5889C97.1462 59.2079 97.3579 59.7441 97.6753 59.8358L97.6683 59.8287ZM95.9188 46.5523C96.0034 46.3759 96.2151 46.1925 96.4126 46.1361C96.6736 46.0585 96.9134 46.4182 96.8429 46.8909C96.7089 46.9755 96.4972 47.1872 96.2715 47.2154C96.0105 47.2507 95.7847 46.8344 95.9258 46.5523H95.9188ZM95.7213 48.9226C95.7636 48.9578 95.7777 49.0284 95.8341 49.1271C95.7706 49.2471 95.7212 49.5081 95.6084 49.5363C95.2698 49.6351 94.91 49.6703 94.5573 49.6633C94.4726 49.6633 94.2892 49.3599 94.3315 49.2682C94.5432 48.7603 95.3262 48.5839 95.7213 48.9226ZM94.4797 67.7226C94.4021 67.4969 94.6419 67.25 95.0158 67.2782C95.0864 67.3911 95.2486 67.5533 95.2909 67.7509C95.3403 67.9766 95.0299 68.1953 94.8042 68.0965C94.6631 68.033 94.529 67.8778 94.4797 67.7297V67.7226ZM94.6137 71.1864C93.9083 71.7437 93.6472 71.8565 93.1958 71.6731C93.0899 71.6308 92.9982 71.3627 93.0194 71.2146C93.0758 70.8901 93.3016 70.6855 93.6543 70.6996C93.7672 70.6996 93.8871 70.7561 93.9929 70.8125C94.1975 70.9254 94.395 71.0523 94.6137 71.1793V71.1864ZM93.1323 60.647C93.2945 60.2308 93.6402 59.9345 94.1058 59.9134C94.522 59.8993 94.9876 59.9134 95.0793 60.4989C93.9553 61.0633 93.7484 61.9239 94.4585 63.0808C94.1622 63.2713 93.9859 63.4406 93.7672 63.5111C93.4497 63.617 93.0688 63.4335 93.0194 63.1725C92.8571 62.326 92.8078 61.4654 93.1252 60.647H93.1323ZM88.7162 68.7032L88.5328 68.3152C88.6315 68.2799 88.7585 68.1953 88.8079 68.2306C88.8784 68.2729 88.8925 68.414 88.9349 68.5127C88.8573 68.5762 88.7867 68.6468 88.7091 68.7103L88.7162 68.7032ZM91.7849 75.3414C91.6932 75.5883 91.4392 75.7718 91.1782 76.0751C90.889 75.8 90.5997 75.6377 90.5151 75.412C90.4022 75.1157 90.8537 74.7348 91.2276 74.7418C91.5239 74.7418 91.8836 75.0875 91.7849 75.3485V75.3414ZM91.4251 65.1054C90.7831 65.7051 90.113 66.1142 89.2029 66.2694C88.4411 66.3964 87.7568 66.9184 86.9173 66.8691C86.4447 66.8408 86.0567 67.3629 85.5276 67.1512C85.5276 67.0243 85.4923 66.8408 85.5276 66.8197C86.36 66.4105 86.5364 65.43 87.2277 64.9009C87.2771 64.8656 87.3265 64.8021 87.3829 64.8021C88.5328 64.6751 89.2312 63.9626 89.8167 63.0385C90.0636 62.6505 90.8114 62.6717 91.1359 63.0738C91.5591 63.5887 91.8907 64.1743 92.4057 64.9361C91.8836 65.0208 91.5732 64.9785 91.4251 65.1125V65.1054ZM92.7443 74.6854C92.6878 74.6007 92.6737 74.4103 92.7302 74.3468C93.4074 73.5849 94.0705 72.7948 94.8183 72.1035C95.1569 71.7931 95.6578 71.6308 96.1022 71.4685C96.4055 71.3557 96.8993 71.8918 96.7371 72.1669C96.2433 73.0276 96.0528 74.1704 94.7195 74.2833C94.3245 74.3185 93.9506 74.6078 93.5555 74.77C93.3933 74.8335 93.2169 74.8617 93.0758 74.897C92.9347 74.8124 92.7937 74.7771 92.7372 74.6924L92.7443 74.6854Z" fill="black"/>
</g>
<defs>
<clipPath id="clip0_265_14068">
<rect width="200.875" height="116.328" fill="white"/>
</clipPath>
</defs>
</svg>
