<svg width="91" height="85" viewBox="0 0 91 85" fill="none" xmlns="http://www.w3.org/2000/svg">
<g clip-path="url(#clip0_265_14069)">
<path d="M55.543 77.4987C56.2616 75.8258 56.5361 74.0179 57.1022 72.2977C57.7021 70.4696 58.7664 68.9113 60.8509 68.7326C63.1964 68.5302 65.6165 69.596 67.8806 70.0615C72.2089 70.9486 76.9576 71.0093 80.6521 68.2604C83.5534 66.0984 84.7398 62.8469 84.1229 59.5077C84.0686 59.5516 84.0076 59.5887 83.9398 59.6056C83.6382 59.6798 83.2619 59.4201 83.2653 59.1401C83.2653 58.9411 83.4755 58.7219 83.7094 58.6746C83.7839 58.6578 83.8619 58.6645 83.9331 58.6848C83.8314 58.3171 83.7161 57.9495 83.5738 57.5852C82.7095 55.3996 81.3537 53.4737 79.9505 51.6051C78.4794 49.6454 76.9643 47.7195 75.4018 45.8341C74.0833 44.2387 72.7275 42.6737 71.3446 41.1357C75.0459 39.3379 79.9132 39.1288 83.9195 37.7257C83.6856 37.6076 83.5128 37.3682 83.4958 37.1084C83.4789 36.869 83.7602 36.6329 84.0585 36.643C84.4381 36.6531 84.7398 36.9533 84.7228 37.3074C84.7228 37.3479 84.7092 37.3918 84.6923 37.4322C86.5836 36.6666 88.2411 35.5704 89.424 33.8266C89.3664 33.7153 89.3291 33.5838 89.3087 33.4455H89.668C89.9866 32.9193 90.2713 32.3426 90.5052 31.6983C93.6472 23.0435 81.0791 20.6454 75.1646 20.3014C72.9885 20.1732 70.8125 20.2676 68.6534 20.5577C66.7282 20.8174 64.8301 21.4448 62.8913 21.5763C61 21.7079 59.3765 21.0198 59.0816 18.9927C58.8003 17.0567 59.4849 15.0363 59.8171 13.1509C60.4814 9.39347 60.556 5.19086 57.8004 2.19237C55.0177 -0.836477 50.7029 -0.310308 47.3168 1.31205C41.1684 4.25995 36.5045 10.1085 34.4335 16.5845C34.3217 13.3735 33.8065 10.1861 32.0846 7.4001C30.0306 4.07444 26.3836 1.91917 22.3976 2.67469C18.215 3.46732 16.3203 7.54513 16.6253 11.4712C16.8084 13.8592 17.6218 16.1156 18.2557 18.4092C18.7641 20.244 19.3233 22.8445 17.2659 23.9542C15.4729 24.9222 13.2833 24.3455 11.4361 23.8834C9.26006 23.337 6.98234 22.8513 4.82665 23.7451C1.29484 25.2089 -0.433775 29.2564 0.0915899 32.8856C0.725417 37.2602 3.91828 40.6196 7.33485 43.1628C9.18549 44.5389 11.2192 45.6654 13.0461 47.0652C14.4934 48.1749 16.422 50.1547 15.0221 52.0301C13.8189 53.6356 11.3988 54.2393 9.63968 54.9881C7.66701 55.8279 5.74519 56.8533 4.38941 58.5532C3.19294 60.0508 2.55572 61.9227 2.95907 63.8318C3.31496 65.5115 4.4911 66.8573 5.86383 67.8253C9.25328 70.2099 13.9883 70.4865 17.9777 70.0885C20.3808 69.849 22.7196 69.306 24.9769 68.4493C26.5497 67.8523 28.8646 66.7055 30.5424 67.5217C32.4473 68.4493 31.7457 71.3263 31.7931 72.9959C31.844 74.8645 32.3693 76.696 33.2506 78.3419C34.9995 81.6035 38.2636 84.1972 41.9615 84.8347C45.6526 85.4688 49.4318 84.2782 52.2688 81.8868C53.6754 80.6996 54.8143 79.1885 55.5396 77.5021L55.543 77.4987ZM80.7504 64.7087C80.947 64.702 81.1469 64.7256 81.2079 64.9415C81.2283 65.0123 81.1503 65.1742 81.0825 65.2012C80.8588 65.2855 80.7504 65.1034 80.6419 64.9516C80.6216 64.9246 80.6216 64.8807 80.5978 64.7796C80.686 64.7391 80.7165 64.7121 80.7504 64.7087ZM77.3677 67.7679C77.3812 67.6904 77.3914 67.6128 77.4151 67.5386C77.5134 67.2553 77.6185 66.9719 77.7168 66.692C77.7846 66.6987 77.8524 66.7021 77.9202 66.7089C77.9914 67.1608 78.0693 67.6128 78.1303 68.0648C78.154 68.2503 77.8931 68.402 77.71 68.3211C77.4694 68.2132 77.3304 67.9939 77.3677 67.7713V67.7679ZM74.4968 69.7815L74.4833 69.8726L74.4121 69.8119L74.4968 69.7815ZM73.3681 65.7004C73.4122 65.6464 73.602 65.643 73.68 65.6936C73.7478 65.7375 73.802 65.923 73.7647 65.9769C73.6224 66.1827 73.4427 66.3614 73.2292 66.6043C73.1309 66.4356 73.0156 66.3277 73.0394 66.2704C73.1207 66.068 73.2326 65.869 73.3715 65.7004H73.3681ZM72.8733 68.7933C72.9784 68.8068 73.0834 68.8203 73.2088 68.8371C73.1444 68.9248 73.1139 69.0092 73.0665 69.0227C73.0021 69.0395 72.9106 69.0193 72.8563 68.9788C72.8292 68.9586 72.8665 68.8574 72.8733 68.7933ZM77.127 38.4542C77.3643 38.434 77.5982 38.606 77.649 38.8286C77.6829 38.9939 77.5033 39.2097 77.3135 39.2367C77.0694 39.2705 76.8355 39.1018 76.805 38.8691C76.7779 38.6802 76.944 38.4677 77.1304 38.4542H77.127ZM75.8696 33.4421C75.856 33.5973 75.8628 33.7558 75.8221 33.9042C75.7136 34.2786 75.4018 34.5181 75.0696 34.5147C74.751 34.5113 74.5341 34.2482 74.4765 33.7895C74.4629 33.6748 74.4629 33.5602 74.4562 33.4455H75.8696V33.4421ZM68.9076 48.9574C69.1686 48.9034 69.4533 48.9 69.7177 48.9405C70.2126 49.0113 70.4905 49.5038 70.3481 49.9929C70.1854 50.5561 69.7516 50.8698 69.1245 50.8732C68.5992 50.8765 68.2162 50.6236 68.1416 50.229C68.0399 49.6825 68.3958 49.0653 68.9076 48.9574ZM67.9721 52.9374C68.345 52.9644 68.589 53.2409 68.5856 53.6322C68.5822 54.0167 68.3179 54.2764 67.9281 54.273C67.5586 54.273 67.2637 53.9998 67.24 53.6389C67.2129 53.2409 67.5586 52.9104 67.9721 52.9408V52.9374ZM66.8028 61.8452C67.1926 61.835 67.4773 62.0947 67.4841 62.4658C67.4908 62.7794 67.24 62.9987 66.8706 63.0054C66.4367 63.0122 66.1723 62.7794 66.1927 62.4118C66.213 62.0813 66.457 61.8553 66.8028 61.8452ZM63.5014 35.6783C63.8845 35.6648 64.2031 35.9886 64.2437 36.4339C64.281 36.8352 63.9387 37.1826 63.5184 37.1793C63.1523 37.1759 62.8947 36.9027 62.8642 36.4912C62.8303 36.0123 63.0778 35.6952 63.4981 35.6817L63.5014 35.6783ZM61.6237 49.4701C61.9321 49.4599 62.1728 49.7298 62.1762 50.0839C62.1762 50.5022 61.9592 50.7517 61.5627 50.7821C61.2271 50.8091 60.9594 50.5797 60.939 50.2424C60.9119 49.8276 61.2136 49.4869 61.6237 49.4701ZM54.1194 75.6301C54.0584 75.6065 53.9974 75.5863 53.9364 75.5627C53.9601 75.502 53.9839 75.4446 54.0042 75.3839C54.0618 75.4109 54.1432 75.421 54.1669 75.4649C54.1872 75.502 54.1364 75.5728 54.1194 75.6301ZM54.577 39.203C54.655 39.203 54.7363 39.3177 54.8583 39.4155C54.7397 39.5066 54.6482 39.6246 54.5838 39.6111C54.4991 39.5943 54.3872 39.483 54.3737 39.3953C54.3635 39.3379 54.5025 39.203 54.5736 39.1996L54.577 39.203ZM54.6923 53.6592C54.6957 53.9088 54.5194 54.0909 54.2686 54.0943C54.0076 54.0943 53.8246 53.9492 53.7873 53.703C53.7534 53.4838 53.9466 53.2983 54.2211 53.2814C54.4923 53.2645 54.6889 53.4197 54.6923 53.6592ZM53.5195 40.795C53.8415 40.8051 54.1093 41.139 54.1059 41.5269C54.1059 41.7563 53.8991 41.9654 53.6686 41.9823C53.3026 42.0059 53.0111 41.7158 53.0247 41.338C53.0382 41.0547 53.2822 40.7883 53.5161 40.795H53.5195ZM51.4011 59.1232C51.3909 58.8028 51.6553 58.5667 52.0044 58.5768C52.3569 58.587 52.5874 58.8332 52.5569 59.1705C52.5298 59.4605 52.3095 59.6663 52.0248 59.6696C51.6892 59.6764 51.4113 59.4302 51.4011 59.1232Z" fill="#FFBE41"/>
<path d="M27.1971 45.2877C28.5021 48.2423 31.0476 50.0097 33.3863 52.1009C35.7182 54.1887 37.4435 57.2614 41.0464 56.7993C42.7479 56.5801 44.2935 55.7234 45.7205 54.8194C46.9746 54.0268 48.205 53.1903 49.3777 52.2763C51.6453 50.5089 53.7501 48.2491 54.4043 45.3754C55.1906 41.9182 53.8382 38.2249 52.5977 35.0274C52.4858 34.7407 52.3672 34.4573 52.2452 34.174C52.0994 34.2381 51.9435 34.2516 51.7978 34.1909C51.5639 34.0964 51.3877 33.8401 51.0894 33.9244C51.0894 33.9379 51.0894 33.948 51.0894 33.9615L51.0589 33.9784C51.0284 34.6934 51.0657 35.4186 50.9369 36.1134C50.7911 36.9061 50.5708 37.7088 49.7438 38.1439C49.1574 38.4542 48.7066 38.3834 48.3168 37.8505C48.0423 37.4761 47.7779 37.1084 48.0524 36.5856C48.1236 36.4507 47.9508 36.1876 47.8762 35.9751C47.866 35.9718 47.8558 35.9684 47.8457 35.9617L47.822 35.9549C47.3813 36.0089 46.9441 36.0696 46.5035 36.0999C46.4424 36.1033 46.3204 35.9414 46.3204 35.8571C46.3204 35.7829 46.4391 35.6615 46.5238 35.6446C46.6695 35.6142 46.8322 35.6277 46.9746 35.6682C47.2627 35.7492 47.5406 35.8605 47.822 35.9583C47.8355 35.9583 47.8525 35.9549 47.866 35.9515C47.866 35.9583 47.8728 35.9684 47.8762 35.9785C48.1982 36.1067 48.5168 36.1303 48.8388 35.965C49.1438 35.8099 49.4489 35.6615 49.7743 35.4996C49.876 35.1657 49.9709 34.8419 50.0725 34.5046C50.4047 34.3292 50.7301 34.1572 51.0589 33.9818C51.0589 33.9683 51.0589 33.9514 51.0589 33.9379C51.069 33.9346 51.0792 33.9346 51.0894 33.9312C51.0996 33.6209 51.1911 33.3477 51.4216 33.1183C51.4961 33.0441 51.5673 32.9901 51.6419 32.9463C51.2521 32.2414 50.7979 31.5769 50.2454 30.9765C49.1133 29.7488 47.6389 28.8617 46.1476 28.1332C42.7818 26.494 38.7484 25.3641 35.0505 26.5378C32.6508 27.3001 30.4714 29.0034 29.441 31.2868C26.0108 34.9768 25.1736 40.6972 27.2039 45.291L27.1971 45.2877ZM47.0661 40.9501C47.4762 40.7646 48.2389 41.2099 48.3338 41.6753C48.3677 41.844 48.2727 41.9924 48.0931 42.0092C47.9474 42.0227 47.7745 42.016 47.6491 41.9485C47.3847 41.8035 47.1441 41.6112 46.7746 41.3583C46.8966 41.1795 46.9509 41.0007 47.0661 40.9501ZM47.9779 29.5768C48.0118 29.5768 48.0423 29.6847 48.0728 29.7421C48.0084 29.7758 47.944 29.8331 47.8796 29.8298C47.8457 29.8298 47.8186 29.7218 47.7847 29.6645C47.8491 29.6341 47.9135 29.5734 47.9779 29.5802V29.5768ZM47.8457 33.4623C48.1067 32.9261 48.5981 32.6562 49.2862 32.6697C49.6895 32.6798 49.9438 32.889 50.0217 33.2768C50.1031 33.6681 49.9607 34.0324 49.615 34.1369C49.2116 34.2583 48.7846 34.3528 48.3643 34.3764C47.8931 34.4034 47.6321 33.9008 47.8457 33.4623ZM43.9749 42.6804C43.7275 42.3398 43.558 42.1711 43.4801 41.9654C43.4462 41.8777 43.5817 41.6989 43.68 41.6045C43.7139 41.5708 43.9546 41.6551 43.958 41.7023C43.9851 41.9586 43.9715 42.2183 43.9715 42.6804H43.9749ZM44.2393 32.7304C44.707 32.754 45.0155 33.0374 45.0053 33.432C44.9952 33.8401 44.7138 34.1066 44.3376 34.0661C43.836 34.0121 43.5106 33.7288 43.5546 33.378C43.6055 32.9733 43.88 32.7136 44.2393 32.7304ZM42.0328 38.434C42.1514 38.3362 42.2904 38.2383 42.4327 38.2114C43.036 38.0967 43.6428 38.009 44.2732 38.1507C44.3444 38.6363 44.2054 39.0276 43.9817 39.3885C43.6394 39.9417 42.8462 40.1575 42.2361 39.8877C41.687 39.6415 41.565 38.8185 42.0328 38.434ZM40.1381 30.0254C40.2533 30.0793 40.3313 30.2109 40.3855 30.2716C40.3448 30.5381 40.1448 30.6595 39.9415 30.6089C39.7652 30.5684 39.7008 30.4369 39.7178 30.275C39.7415 30.076 39.9516 29.9411 40.1381 30.0254ZM39.1653 39.9754C39.2127 39.655 39.5178 39.3919 39.8059 39.4222C40.1076 39.4526 40.3584 39.7427 40.3618 40.0665C40.3652 40.3633 40.0669 40.6027 39.7144 40.5859C39.3754 40.569 39.1178 40.2857 39.1653 39.9754ZM38.606 30.7168C38.6976 30.7033 38.7992 30.7843 38.8975 30.8248C38.8535 30.9091 38.823 31.0575 38.7653 31.0676C38.6467 31.0878 38.5145 31.0372 38.2806 30.9934C38.4501 30.8416 38.5213 30.7303 38.606 30.7168ZM35.5081 26.8346C35.8402 26.8549 36.1317 27.1787 36.1317 27.5294C36.1317 27.8128 35.8402 28.0893 35.525 28.1028C35.1691 28.1163 34.8268 27.806 34.8404 27.4789C34.8573 27.1247 35.1793 26.811 35.5081 26.8313V26.8346ZM31.2204 46.0263C31.0916 46.0533 30.9832 46.0972 30.8781 46.0938C30.7696 46.0938 30.6612 46.0432 30.5459 46.0128C30.7267 45.7925 30.9527 45.7981 31.2238 46.0297L31.2204 46.0263Z" fill="black"/>
</g>
<defs>
<clipPath id="clip0_265_14069">
<rect width="91" height="85" fill="white"/>
</clipPath>
</defs>
</svg>
