<svg width="23" height="22" viewBox="0 0 23 22" fill="none" xmlns="http://www.w3.org/2000/svg">
<g clip-path="url(#clip0_3745_3904)">
<path d="M22.2852 11.2537C22.2852 10.506 22.2246 9.75418 22.0953 9.01855H11.7197V13.2545H17.6613C17.4148 14.6206 16.6225 15.8291 15.4625 16.5971V19.3456H19.0073C21.0888 17.4297 22.2852 14.6004 22.2852 11.2537Z" fill="#4285F4"/>
<path d="M11.7195 22.0006C14.6863 22.0006 17.1882 21.0265 19.0111 19.345L15.4664 16.5965C14.4801 17.2675 13.2069 17.6474 11.7236 17.6474C8.85382 17.6474 6.42061 15.7114 5.54756 13.1084H1.88965V15.9418C3.757 19.6563 7.56042 22.0006 11.7195 22.0006Z" fill="#34A853"/>
<path d="M5.54372 13.1085C5.08295 11.7423 5.08295 10.263 5.54372 8.89684V6.06348H1.88985C0.329684 9.17169 0.329684 12.8336 1.88985 15.9418L5.54372 13.1085Z" fill="#FBBC04"/>
<path d="M11.7195 4.35386C13.2878 4.3296 14.8035 4.91972 15.9393 6.00295L19.0798 2.8624C17.0912 0.995046 14.4518 -0.0315938 11.7195 0.000741277C7.56042 0.000741277 3.757 2.34504 1.88965 6.06357L5.54352 8.89694C6.41252 6.28992 8.84978 4.35386 11.7195 4.35386Z" fill="#EA4335"/>
</g>
<defs>
<clipPath id="clip0_3745_3904">
<rect width="22" height="22" fill="white" transform="translate(0.5)"/>
</clipPath>
</defs>
</svg>
