<svg width="76" height="76" viewBox="0 0 76 76" fill="none" xmlns="http://www.w3.org/2000/svg">
    <g clip-path="url(#clip0_7205_10796)">
        <path d="M76 26.9959C76 33.4222 73.6053 39.3075 68.4633 45.5112C63.8623 51.0625 57.2516 56.6967 49.5949 63.221C46.9787 65.4499 44.014 67.9768 40.938 70.6684C40.132 71.3735 39.0994 71.7649 38.0267 71.7713H38C36.918 71.7713 35.8749 71.3793 35.062 70.6673C31.9918 67.9826 29.0317 65.4586 26.4201 63.2326L26.4068 63.2228C18.7513 56.6979 12.1377 51.0625 7.53784 45.5112C2.39471 39.3075 0 33.4222 0 26.9959C0 20.7517 2.14133 14.9899 6.02911 10.7727C9.96387 6.50516 15.3621 4.15625 21.2312 4.15625C25.6188 4.15625 29.6353 5.54205 33.1729 8.27713C34.9582 9.65829 36.5753 11.3468 38 13.3188L38.0267 13.2834C39.4455 11.3265 41.054 9.6496 42.8283 8.27713C46.3647 5.54205 50.3829 4.15625 54.7688 4.15625C60.639 4.15625 66.0373 6.50516 69.9709 10.7727C73.8587 14.9899 76 20.7499 76 26.9959Z" fill="#FF7AA8"/>
        <path d="M76 26.9959C76 33.4222 73.6053 39.3075 68.4633 45.5112C63.8623 51.0625 57.2516 56.6967 49.5949 63.221C46.9787 65.4499 44.014 67.9768 40.938 70.6684C40.132 71.3735 39.0994 71.7649 38.0267 71.7713V13.2834C39.4455 11.3265 41.054 9.6496 42.8283 8.27713C46.3647 5.54205 50.3829 4.15625 54.7688 4.15625C60.639 4.15625 66.0373 6.50516 69.9709 10.7727C73.8587 14.9899 76 20.7499 76 26.9959Z" fill="#FF5D97"/>
    </g>
    <defs>
        <clipPath id="clip0_7205_10796">
            <rect width="76" height="76" fill="white"/>
        </clipPath>
    </defs>
</svg>