<svg width="18" height="14" viewBox="0 0 18 14" fill="none" xmlns="http://www.w3.org/2000/svg">
<path fill-rule="evenodd" clip-rule="evenodd" d="M8.99993 4.08721C7.41051 4.08721 6.12202 5.37569 6.12202 6.96512C6.12202 8.55454 7.41051 9.84302 8.99993 9.84302C10.5894 9.84302 11.8778 8.55454 11.8778 6.96512C11.8778 5.37569 10.5894 4.08721 8.99993 4.08721ZM7.27319 6.96512C7.27319 6.01146 8.04628 5.23837 8.99993 5.23837C9.95358 5.23837 10.7267 6.01146 10.7267 6.96512C10.7267 7.91877 9.95358 8.69186 8.99993 8.69186C8.04628 8.69186 7.27319 7.91877 7.27319 6.96512Z" fill="#9CA3AF"/>
<path fill-rule="evenodd" clip-rule="evenodd" d="M9 0.25C6.14854 0.25 4.08284 1.37554 2.73365 2.77662C1.40735 4.15394 0.75 5.8255 0.75 6.96512C0.75 8.10473 1.40735 9.77629 2.73365 11.1536C4.08284 12.5547 6.14854 13.6802 9 13.6802C11.8515 13.6802 13.9172 12.5547 15.2663 11.1536C16.5927 9.77629 17.25 8.10473 17.25 6.96512C17.25 5.8255 16.5927 4.15394 15.2663 2.77662C13.9172 1.37554 11.8515 0.25 9 0.25ZM1.90116 6.96512C1.90116 6.18613 2.39498 4.78792 3.56286 3.57512C4.70785 2.38609 6.47937 1.40116 9 1.40116C11.5206 1.40116 13.2921 2.38609 14.4371 3.57512C15.605 4.78792 16.0988 6.18613 16.0988 6.96512C16.0988 7.7441 15.605 9.14231 14.4371 10.3551C13.2921 11.5441 11.5206 12.5291 9 12.5291C6.47937 12.5291 4.70785 11.5441 3.56286 10.3551C2.39498 9.14231 1.90116 7.7441 1.90116 6.96512Z" fill="#9CA3AF"/>
</svg>
