<svg width="25" height="24" viewBox="0 0 25 24" fill="none" xmlns="http://www.w3.org/2000/svg">
<path d="M2.06521 1.66625C0.184993 3.61924 0.569809 5.69385 0.569809 11.9964C0.569809 17.2303 -0.343381 22.4772 4.43591 23.7124C5.92831 24.0962 19.1516 24.0962 20.642 23.7104C22.6319 23.197 24.2509 21.5829 24.4722 18.7686C24.5031 18.3758 24.5031 5.62406 24.4712 5.2233C24.236 2.22553 22.3906 0.497844 19.9591 0.147921C19.4018 0.0671697 19.2902 0.0432434 16.431 0.0382587C6.2892 0.0432434 4.06605 -0.408367 2.06521 1.66625Z" fill="url(#paint0_linear_3716_18123)"/>
<path d="M12.531 3.16763C8.91113 3.16763 5.47371 2.84562 4.16075 6.21525C3.61842 7.60696 3.69718 9.4144 3.69718 12.0024C3.69718 14.2734 3.62441 16.4079 4.16075 17.7886C5.47072 21.1602 8.93606 20.8372 12.529 20.8372C15.9953 20.8372 19.5693 21.1981 20.8982 17.7886C21.4416 16.3829 21.3618 14.6024 21.3618 12.0024C21.3618 8.55106 21.5522 6.32291 19.8784 4.65006C18.1836 2.95528 15.8916 3.16763 12.527 3.16763H12.531ZM11.7394 4.75973C19.2902 4.74776 20.2512 3.90835 19.7209 15.5695C19.5324 19.6938 16.3921 19.2411 12.532 19.2411C5.49365 19.2411 5.29128 19.0398 5.29128 11.9984C5.29128 4.87537 5.84956 4.76371 11.7394 4.75773V4.75973ZM17.2465 6.22621C16.6613 6.22621 16.1867 6.70075 16.1867 7.28595C16.1867 7.87115 16.6613 8.34569 17.2465 8.34569C17.8317 8.34569 18.3062 7.87115 18.3062 7.28595C18.3062 6.70075 17.8317 6.22621 17.2465 6.22621ZM12.531 7.4654C10.0257 7.4654 7.99495 9.49714 7.99495 12.0024C7.99495 14.5077 10.0257 16.5385 12.531 16.5385C15.0363 16.5385 17.066 14.5077 17.066 12.0024C17.066 9.49714 15.0363 7.4654 12.531 7.4654ZM12.531 9.0575C16.424 9.0575 16.429 14.9474 12.531 14.9474C8.63897 14.9474 8.63299 9.0575 12.531 9.0575Z" fill="white"/>
<defs>
<linearGradient id="paint0_linear_3716_18123" x1="2.11108" y1="22.4364" x2="24.3481" y2="3.19053" gradientUnits="userSpaceOnUse">
<stop stop-color="#FFDD55"/>
<stop offset="0.5" stop-color="#FF543E"/>
<stop offset="1" stop-color="#C837AB"/>
</linearGradient>
</defs>
</svg>
