<svg width="126" height="120" viewBox="0 0 126 120" fill="none" xmlns="http://www.w3.org/2000/svg">
<path d="M18.1186 9.09759C-15.0572 20.504 4.46239 62.8142 20.3747 81.4289C70.2888 139.824 97.4656 118.448 106.675 103.755C115.036 90.4162 120.085 74.4295 123.21 58.752C126.293 43.6301 129.644 17.7736 116.405 5.71506C102.088 -7.32649 84.4584 3.94007 78.4476 19.5998C78.4397 19.6215 78.4318 19.6431 78.422 19.6648C71.646 37.3792 70.6055 50.2277 57.085 29.3731C48.2615 15.7681 34.3023 3.53425 18.1186 9.09759Z" fill="#FFFD9F"/>
<path d="M41.3454 67.3018C41.1723 66.5552 40.9422 65.8381 40.6589 65.1604C38.9084 60.9997 34.6186 58.6514 32.4884 63.8759C30.8932 67.7845 30.4054 73.9073 31.5207 78.0424C32.4825 81.6061 35.7358 83.4146 38.4344 80.5207C41.428 77.3115 42.3957 71.8053 41.3454 67.2998V67.3018Z" fill="#6875F5"/>
<path d="M90.3317 77.0968C89.9836 73.2808 83.9097 68.5607 81.3154 71.5256C79.4862 73.6157 79.3426 80.7433 80.6624 83.1979C81.4334 84.6301 82.5113 85.4969 83.9176 85.7984C88.7228 86.8307 90.729 81.4564 90.3337 77.0987L90.3317 77.0968Z" fill="#6875F5"/>
<path d="M58.9096 40.4485C55.2335 35.7027 50.8689 43.7955 50.7489 47.5977C50.7233 48.3876 50.8748 49.1619 51.0931 49.9046C51.8268 52.3829 53.4573 53.6476 55.6229 53.423C56.5867 53.3225 57.4226 52.8497 58.1464 52.0873C59.7416 50.4049 60.4654 48.2379 60.5402 45.7951C60.5166 45.3696 60.5146 45.0248 60.4772 44.684C60.2982 43.0903 59.834 41.6423 58.9116 40.4465L58.9096 40.4485ZM56.9525 49.4534C56.982 49.483 57.0253 49.548 57.0627 49.5972C57.0253 49.548 56.982 49.483 56.9525 49.4534Z" fill="#6875F5"/>
<path d="M70.1752 91.1017C67.6497 90.2684 64.9098 91.7616 65.0691 97.8096C65.0888 98.5523 65.0967 99.2812 65.256 100.004C65.793 102.453 67.2563 103.82 69.7405 102.853C71.0839 102.331 72.207 101.387 73.1275 100.095C75.834 96.2947 73.1531 92.0828 70.1772 91.0997L70.1752 91.1017Z" fill="#6875F5"/>
<path d="M46.3752 90.0536C44.6207 88.4638 40.5217 90.8259 39.672 92.7033C38.6748 94.9078 40.0477 98.6193 41.6605 100.113C42.3293 100.731 43.0984 101.033 43.9481 100.905C46.2218 100.558 48.2595 97.7643 48.2871 94.2754C48.2969 93.056 47.516 91.0918 46.3752 90.0556V90.0536Z" fill="#6875F5"/>
<path d="M74.4294 53.5629C73.6524 53.3284 72.7988 53.3797 71.9609 53.8367C69.8661 54.9813 69.4846 59.209 69.8012 61.571C69.8799 62.1522 70.0569 62.7097 70.3067 63.2219C70.9204 64.4827 72.014 65.0914 73.2099 64.8334C74.1973 64.6206 75.0529 64.0946 75.7669 63.2377C76.9234 61.8488 77.4191 60.125 77.5135 58.1944C77.6138 56.1535 76.2232 54.1027 74.4294 53.5648V53.5629Z" fill="#6875F5"/>
<path d="M51.681 68.8739C48.5556 71.76 47.7216 81.4308 53.3254 78.9643C54.5783 78.4127 55.6089 77.4809 56.4173 76.2024C56.9759 75.3218 57.269 74.3151 57.2749 73.6591C57.269 71.8407 56.7694 70.4381 55.963 69.5082C54.358 67.6603 52.8572 67.7864 51.681 68.8739Z" fill="#6875F5"/>
<path d="M68.2305 80.5877C69.5896 80.2685 71.2143 78.5979 71.527 76.8269C72.0227 74.0216 67.904 70.2017 66.1161 73.1745C65.5004 74.1989 65.227 75.3691 65.1621 76.6062C65.2231 77.7272 65.4571 78.7555 66.0551 79.6243C66.6255 80.4517 67.3591 80.7945 68.2305 80.5896V80.5877Z" fill="#6875F5"/>
</svg>
