<svg width="334" height="91" viewBox="0 0 334 91" fill="none" xmlns="http://www.w3.org/2000/svg">
<path d="M52.8368 19.5393H15.8048C14.4329 19.4669 13.3427 18.3369 13.3427 16.9463C13.3427 15.7801 14.2163 15.1934 15.9347 15.1934H50.8224C51.4072 15.1934 51.8837 14.7154 51.8837 14.1287C51.8837 13.542 51.4072 13.064 50.8224 13.064H15.9347C13.025 13.064 11.22 14.5488 11.22 16.9463C11.22 17.3084 11.2633 17.6561 11.3427 17.9965V62.9834C11.3355 63.0848 11.3283 63.1789 11.3283 63.2804C11.3283 64.7362 12.0431 66.2428 13.1044 67.0323C13.4221 67.2713 13.747 67.322 14.0214 67.322C14.1369 67.322 14.2452 67.322 14.3318 67.3075H14.3896C14.4835 67.3437 14.5845 67.3655 14.6929 67.3655H15.4365V76.1079C15.4365 76.4628 15.6315 76.7887 15.9419 76.9553C16.0791 77.0277 16.238 77.064 16.3896 77.064C16.5773 77.064 16.765 77.006 16.9239 76.8974L21.0682 74.0726L25.3281 76.9046C25.6241 77.1002 25.9996 77.1147 26.31 76.9481C26.6205 76.7815 26.8154 76.4555 26.8154 76.1079V67.3655H52.844C53.4288 67.3655 53.9054 66.8874 53.9054 66.3007V20.5968C53.9054 20.0173 53.4216 19.5393 52.8368 19.5393ZM24.9021 74.3261L21.5881 72.1242C21.4292 72.0155 21.2487 71.9648 21.061 71.9648C20.8733 71.9648 20.6856 72.0228 20.5267 72.1314L17.3426 74.3043V67.3727H24.9021V74.3261ZM42.5914 51.9811C41.8261 51.9811 41.1113 51.7349 40.5048 51.3437C39.4507 52.2274 38.2449 52.9155 36.9308 53.3935C36.9381 53.4877 36.9381 53.5746 36.9453 53.676C36.9236 55.8707 35.133 57.6235 32.9526 57.6018C30.7649 57.58 29.0104 55.791 29.032 53.5963C29.032 53.5601 29.0392 53.5167 29.0465 53.4804C28.2595 53.2124 27.5158 52.8648 26.8154 52.4447V52.2998C26.8154 52.1694 26.7866 52.2274 26.7432 52.4012C26.2595 52.1115 25.7902 51.7928 25.357 51.4379C24.7505 51.7928 24.0501 52.0028 23.2992 51.9884C21.1188 51.9666 19.3643 50.1776 19.3932 47.9829C19.4076 46.5923 20.1368 45.3899 21.2271 44.6946C21.0466 43.8689 20.9455 43.0214 20.9455 42.145C20.9455 41.4352 21.0177 40.7398 21.1404 40.0662C20.1079 39.3419 19.4293 38.1468 19.4509 36.7923C19.4726 34.5904 21.2559 32.8304 23.4436 32.8593C23.9924 32.8666 24.5122 32.9897 24.9815 33.1998C26.2017 32.1133 27.6313 31.2731 29.2197 30.7589C29.4941 28.8249 31.1475 27.3184 33.1619 27.3401C35.198 27.3618 36.8514 28.9481 37.0391 30.9399C38.4687 31.4759 39.7756 32.2727 40.8875 33.2794C41.4218 33.0187 42.0138 32.8593 42.642 32.8666C44.8297 32.8883 46.5914 34.6774 46.5625 36.8793C46.5481 38.2989 45.7827 39.5302 44.6564 40.2111C44.7575 40.8412 44.8297 41.4859 44.8297 42.1522C44.8297 42.978 44.743 43.7892 44.5842 44.5642C45.8044 45.245 46.6347 46.556 46.6058 48.0626C46.5697 50.25 44.7791 52.0173 42.5914 51.9811Z" fill="#6875F5"/>
<path d="M97.66 65.564V47.384H83.92V65.564H75.1V24.044H83.92V40.424H97.66V24.044H106.48V65.564H97.66ZM139.357 56.744C139.357 57.984 139.537 58.904 139.897 59.504C140.257 60.064 140.857 60.484 141.697 60.764L139.897 66.404C138.017 66.244 136.477 65.804 135.277 65.084C134.117 64.364 133.217 63.244 132.577 61.724C130.497 64.924 127.317 66.524 123.037 66.524C119.877 66.524 117.357 65.624 115.477 63.824C113.637 61.984 112.717 59.604 112.717 56.684C112.717 53.204 113.977 50.544 116.497 48.704C119.017 46.864 122.637 45.944 127.357 45.944H131.017V44.384C131.017 42.424 130.577 41.064 129.697 40.304C128.817 39.544 127.357 39.164 125.317 39.164C123.077 39.164 120.277 39.724 116.917 40.844L114.997 35.144C118.957 33.584 122.877 32.804 126.757 32.804C131.077 32.804 134.257 33.744 136.297 35.624C138.337 37.464 139.357 40.224 139.357 43.904V56.744ZM125.377 60.404C127.777 60.404 129.657 59.224 131.017 56.864V50.804H128.197C123.597 50.804 121.297 52.524 121.297 55.964C121.297 57.364 121.637 58.464 122.317 59.264C123.037 60.024 124.057 60.404 125.377 60.404ZM175.723 35.504C173.643 36.304 170.583 36.704 166.543 36.704C168.543 37.584 170.023 38.684 170.983 40.004C171.943 41.284 172.423 42.904 172.423 44.864C172.423 46.904 171.883 48.744 170.803 50.384C169.763 51.984 168.243 53.244 166.243 54.164C164.283 55.084 161.983 55.544 159.343 55.544C157.943 55.544 156.703 55.404 155.623 55.124C154.823 55.644 154.423 56.344 154.423 57.224C154.423 57.864 154.663 58.384 155.143 58.784C155.663 59.144 156.643 59.324 158.083 59.324H162.943C165.303 59.324 167.363 59.724 169.123 60.524C170.923 61.284 172.303 62.364 173.263 63.764C174.263 65.124 174.763 66.684 174.763 68.444C174.763 71.684 173.363 74.204 170.563 76.004C167.803 77.844 163.803 78.764 158.563 78.764C154.803 78.764 151.823 78.364 149.623 77.564C147.463 76.804 145.943 75.684 145.063 74.204C144.183 72.724 143.743 70.864 143.743 68.624H151.363C151.363 69.664 151.563 70.484 151.963 71.084C152.363 71.724 153.083 72.184 154.123 72.464C155.203 72.784 156.743 72.944 158.743 72.944C161.503 72.944 163.423 72.604 164.503 71.924C165.623 71.244 166.183 70.284 166.183 69.044C166.183 67.924 165.763 67.064 164.923 66.464C164.083 65.864 162.843 65.564 161.203 65.564H156.523C153.363 65.564 151.003 64.984 149.443 63.824C147.883 62.624 147.103 61.124 147.103 59.324C147.103 58.204 147.423 57.124 148.063 56.084C148.743 55.004 149.663 54.104 150.823 53.384C148.863 52.304 147.423 51.044 146.503 49.604C145.623 48.124 145.183 46.364 145.183 44.324C145.183 42.004 145.743 39.984 146.863 38.264C148.023 36.504 149.623 35.164 151.663 34.244C153.743 33.284 156.103 32.804 158.743 32.804C162.023 32.884 164.723 32.604 166.843 31.964C168.963 31.324 171.223 30.324 173.623 28.964L175.723 35.504ZM158.923 38.504C157.323 38.504 156.043 39.024 155.083 40.064C154.163 41.064 153.703 42.444 153.703 44.204C153.703 46.004 154.163 47.424 155.083 48.464C156.043 49.504 157.343 50.024 158.983 50.024C160.703 50.024 162.003 49.524 162.883 48.524C163.763 47.524 164.203 46.044 164.203 44.084C164.203 40.364 162.443 38.504 158.923 38.504ZM208.36 35.504C206.28 36.304 203.22 36.704 199.18 36.704C201.18 37.584 202.66 38.684 203.62 40.004C204.58 41.284 205.06 42.904 205.06 44.864C205.06 46.904 204.52 48.744 203.44 50.384C202.4 51.984 200.88 53.244 198.88 54.164C196.92 55.084 194.62 55.544 191.98 55.544C190.58 55.544 189.34 55.404 188.26 55.124C187.46 55.644 187.06 56.344 187.06 57.224C187.06 57.864 187.3 58.384 187.78 58.784C188.3 59.144 189.28 59.324 190.72 59.324H195.58C197.94 59.324 200 59.724 201.76 60.524C203.56 61.284 204.94 62.364 205.9 63.764C206.9 65.124 207.4 66.684 207.4 68.444C207.4 71.684 206 74.204 203.2 76.004C200.44 77.844 196.44 78.764 191.2 78.764C187.44 78.764 184.46 78.364 182.26 77.564C180.1 76.804 178.58 75.684 177.7 74.204C176.82 72.724 176.38 70.864 176.38 68.624H184C184 69.664 184.2 70.484 184.6 71.084C185 71.724 185.72 72.184 186.76 72.464C187.84 72.784 189.38 72.944 191.38 72.944C194.14 72.944 196.06 72.604 197.14 71.924C198.26 71.244 198.82 70.284 198.82 69.044C198.82 67.924 198.4 67.064 197.56 66.464C196.72 65.864 195.48 65.564 193.84 65.564H189.16C186 65.564 183.64 64.984 182.08 63.824C180.52 62.624 179.74 61.124 179.74 59.324C179.74 58.204 180.06 57.124 180.7 56.084C181.38 55.004 182.3 54.104 183.46 53.384C181.5 52.304 180.06 51.044 179.14 49.604C178.26 48.124 177.82 46.364 177.82 44.324C177.82 42.004 178.38 39.984 179.5 38.264C180.66 36.504 182.26 35.164 184.3 34.244C186.38 33.284 188.74 32.804 191.38 32.804C194.66 32.884 197.36 32.604 199.48 31.964C201.6 31.324 203.86 30.324 206.26 28.964L208.36 35.504ZM191.56 38.504C189.96 38.504 188.68 39.024 187.72 40.064C186.8 41.064 186.34 42.444 186.34 44.204C186.34 46.004 186.8 47.424 187.72 48.464C188.68 49.504 189.98 50.024 191.62 50.024C193.34 50.024 194.64 49.524 195.52 48.524C196.4 47.524 196.84 46.044 196.84 44.084C196.84 40.364 195.08 38.504 191.56 38.504ZM235.509 56.744C235.509 57.984 235.689 58.904 236.049 59.504C236.409 60.064 237.009 60.484 237.849 60.764L236.049 66.404C234.169 66.244 232.629 65.804 231.429 65.084C230.269 64.364 229.369 63.244 228.729 61.724C226.649 64.924 223.469 66.524 219.189 66.524C216.029 66.524 213.509 65.624 211.629 63.824C209.789 61.984 208.869 59.604 208.869 56.684C208.869 53.204 210.129 50.544 212.649 48.704C215.169 46.864 218.789 45.944 223.509 45.944H227.169V44.384C227.169 42.424 226.729 41.064 225.849 40.304C224.969 39.544 223.509 39.164 221.469 39.164C219.229 39.164 216.429 39.724 213.069 40.844L211.149 35.144C215.109 33.584 219.029 32.804 222.909 32.804C227.229 32.804 230.409 33.744 232.449 35.624C234.489 37.464 235.509 40.224 235.509 43.904V56.744ZM221.529 60.404C223.929 60.404 225.809 59.224 227.169 56.864V50.804H224.349C219.749 50.804 217.449 52.524 217.449 55.964C217.449 57.364 217.789 58.464 218.469 59.264C219.189 60.024 220.209 60.404 221.529 60.404ZM271.562 21.104V65.564H264.062L263.582 61.664C261.342 64.904 258.302 66.524 254.462 66.524C250.542 66.524 247.542 65.024 245.462 62.024C243.422 58.984 242.402 54.864 242.402 49.664C242.402 46.384 242.922 43.484 243.962 40.964C245.042 38.404 246.562 36.404 248.522 34.964C250.482 33.524 252.742 32.804 255.302 32.804C258.262 32.804 260.842 33.864 263.042 35.984V20.144L271.562 21.104ZM256.982 60.164C258.222 60.164 259.322 59.864 260.282 59.264C261.242 58.624 262.162 57.644 263.042 56.324V42.104C262.202 41.104 261.342 40.364 260.462 39.884C259.622 39.364 258.642 39.104 257.522 39.104C255.562 39.104 254.022 39.964 252.902 41.684C251.822 43.404 251.282 46.064 251.282 49.664C251.282 53.464 251.762 56.164 252.722 57.764C253.722 59.364 255.142 60.164 256.982 60.164ZM293.32 32.804C298.08 32.804 301.8 34.304 304.48 37.304C307.16 40.264 308.5 44.384 308.5 49.664C308.5 53.024 307.88 55.984 306.64 58.544C305.44 61.064 303.68 63.024 301.36 64.424C299.08 65.824 296.38 66.524 293.26 66.524C288.5 66.524 284.76 65.044 282.04 62.084C279.36 59.084 278.02 54.944 278.02 49.664C278.02 46.304 278.62 43.364 279.82 40.844C281.06 38.284 282.82 36.304 285.1 34.904C287.42 33.504 290.16 32.804 293.32 32.804ZM293.32 39.164C291.16 39.164 289.54 40.024 288.46 41.744C287.42 43.424 286.9 46.064 286.9 49.664C286.9 53.264 287.42 55.924 288.46 57.644C289.54 59.324 291.14 60.164 293.26 60.164C295.38 60.164 296.96 59.324 298 57.644C299.08 55.924 299.62 53.264 299.62 49.664C299.62 46.064 299.1 43.424 298.06 41.744C297.02 40.024 295.44 39.164 293.32 39.164ZM333.999 64.064C332.839 64.864 331.519 65.464 330.039 65.864C328.599 66.304 327.159 66.524 325.719 66.524C322.439 66.484 319.959 65.544 318.279 63.704C316.599 61.864 315.759 59.164 315.759 55.604V39.764H311.019V33.764H315.759V26.804L324.279 25.784V33.764H331.599L330.759 39.764H324.279V55.424C324.279 56.944 324.539 58.044 325.059 58.724C325.579 59.404 326.379 59.744 327.459 59.744C328.539 59.744 329.739 59.384 331.059 58.664L333.999 64.064Z" fill="#111928"/>
</svg>
