<svg width="213" height="55" viewBox="0 0 213 55" fill="none" xmlns="http://www.w3.org/2000/svg">
<path d="M38.7692 8.27538H10.9952C9.96636 8.22106 9.14868 7.37361 9.14868 6.33061C9.14868 5.45601 9.80391 5.01599 11.0927 5.01599H37.2584C37.6971 5.01599 38.0545 4.65745 38.0545 4.21744C38.0545 3.77742 37.6971 3.41888 37.2584 3.41888H11.0927C8.91041 3.41888 7.55664 4.53251 7.55664 6.33061C7.55664 6.60223 7.58913 6.86298 7.6487 7.1183V40.8584C7.64328 40.9345 7.63787 41.0051 7.63787 41.0812C7.63787 42.1731 8.17396 43.303 8.96998 43.8951C9.20824 44.0744 9.45192 44.1124 9.6577 44.1124C9.74434 44.1124 9.82557 44.1124 9.89055 44.1015H9.93387C10.0043 44.1287 10.0801 44.145 10.1613 44.145H10.7191V50.7018C10.7191 50.968 10.8653 51.2125 11.0981 51.3374C11.201 51.3917 11.3201 51.4189 11.4338 51.4189C11.5746 51.4189 11.7154 51.3754 11.8346 51.2939L14.9428 49.1753L18.1377 51.2994C18.3598 51.446 18.6413 51.4569 18.8742 51.332C19.107 51.207 19.2532 50.9626 19.2532 50.7018V44.145H38.7747C39.2133 44.145 39.5707 43.7865 39.5707 43.3465V9.0685C39.5707 8.63391 39.2079 8.27538 38.7692 8.27538ZM17.8182 49.3655L15.3327 47.714C15.2136 47.6326 15.0782 47.5945 14.9374 47.5945C14.7966 47.5945 14.6558 47.638 14.5367 47.7195L12.1486 49.3492V44.1504H17.8182V49.3655ZM31.0852 32.6068C30.5112 32.6068 29.9751 32.4221 29.5203 32.1287C28.7297 32.7914 27.8253 33.3075 26.8398 33.6661C26.8452 33.7367 26.8452 33.8019 26.8506 33.8779C26.8344 35.5239 25.4914 36.8385 23.8561 36.8222C22.2153 36.8059 20.8994 35.4642 20.9157 33.8182C20.9157 33.791 20.9211 33.7584 20.9265 33.7312C20.3363 33.5302 19.7785 33.2695 19.2532 32.9544V32.8458C19.2532 32.748 19.2316 32.7915 19.1991 32.9218C18.8363 32.7045 18.4843 32.4655 18.1594 32.1993C17.7045 32.4655 17.1793 32.623 16.6161 32.6122C14.9807 32.5959 13.6649 31.2541 13.6865 29.6081C13.6974 28.5651 14.2443 27.6633 15.062 27.1418C14.9266 26.5225 14.8508 25.887 14.8508 25.2297C14.8508 24.6973 14.9049 24.1758 14.997 23.6706C14.2226 23.1273 13.7136 22.231 13.7298 21.2152C13.7461 19.5637 15.0836 18.2437 16.7244 18.2654C17.1359 18.2709 17.5258 18.3632 17.8778 18.5207C18.793 17.7059 19.8652 17.0757 21.0565 16.69C21.2622 15.2396 22.5023 14.1097 24.0131 14.126C25.5402 14.1423 26.7802 15.332 26.921 16.8259C27.9932 17.2278 28.9733 17.8254 29.8073 18.5805C30.208 18.3849 30.652 18.2654 31.1231 18.2709C32.7639 18.2871 34.0852 19.6289 34.0635 21.2804C34.0527 22.3451 33.4787 23.2686 32.6339 23.7792C32.7098 24.2518 32.7639 24.7353 32.7639 25.2351C32.7639 25.8544 32.6989 26.4628 32.5798 27.0441C33.4949 27.5547 34.1177 28.5379 34.096 29.6679C34.0689 31.3084 32.726 32.6339 31.0852 32.6068Z" fill="white"/>
<path d="M70.2206 39.9189V29.0109H61.9766V39.9189H56.6846V15.0069H61.9766V24.8349H70.2206V15.0069H75.5126V39.9189H70.2206ZM95.2387 34.6269C95.2387 35.3709 95.3467 35.9229 95.5627 36.2829C95.7787 36.6189 96.1387 36.8709 96.6427 37.0389L95.5627 40.4229C94.4347 40.3269 93.5107 40.0629 92.7907 39.6309C92.0947 39.1989 91.5547 38.5269 91.1707 37.6149C89.9227 39.5349 88.0147 40.4949 85.4467 40.4949C83.5507 40.4949 82.0387 39.9549 80.9107 38.8749C79.8067 37.7709 79.2547 36.3429 79.2547 34.5909C79.2547 32.5029 80.0107 30.9069 81.5227 29.8029C83.0347 28.6989 85.2067 28.1469 88.0387 28.1469H90.2347V27.2109C90.2347 26.0349 89.9707 25.2189 89.4427 24.7629C88.9147 24.3069 88.0387 24.0789 86.8147 24.0789C85.4707 24.0789 83.7907 24.4149 81.7747 25.0869L80.6227 21.6669C82.9987 20.7309 85.3507 20.2629 87.6787 20.2629C90.2707 20.2629 92.1787 20.8269 93.4027 21.9549C94.6267 23.0589 95.2387 24.7149 95.2387 26.9229V34.6269ZM86.8507 36.8229C88.2907 36.8229 89.4187 36.1149 90.2347 34.6989V31.0629H88.5427C85.7827 31.0629 84.4027 32.0949 84.4027 34.1589C84.4027 34.9989 84.6067 35.6589 85.0147 36.1389C85.4467 36.5949 86.0587 36.8229 86.8507 36.8229ZM117.059 21.8829C115.811 22.3629 113.975 22.6029 111.551 22.6029C112.751 23.1309 113.639 23.7909 114.215 24.5829C114.791 25.3509 115.079 26.3229 115.079 27.4989C115.079 28.7229 114.755 29.8269 114.107 30.8109C113.483 31.7709 112.571 32.5269 111.371 33.0789C110.195 33.6309 108.815 33.9069 107.231 33.9069C106.391 33.9069 105.647 33.8229 104.999 33.6549C104.519 33.9669 104.279 34.3869 104.279 34.9149C104.279 35.2989 104.423 35.6109 104.711 35.8509C105.023 36.0669 105.611 36.1749 106.475 36.1749H109.391C110.807 36.1749 112.043 36.4149 113.099 36.8949C114.179 37.3509 115.007 37.9989 115.583 38.8389C116.183 39.6549 116.483 40.5909 116.483 41.6469C116.483 43.5909 115.643 45.1029 113.963 46.1829C112.307 47.2869 109.907 47.8389 106.763 47.8389C104.507 47.8389 102.719 47.5989 101.399 47.1189C100.103 46.6629 99.1906 45.9909 98.6626 45.1029C98.1346 44.2149 97.8706 43.0989 97.8706 41.7549H102.443C102.443 42.3789 102.563 42.8709 102.803 43.2309C103.043 43.6149 103.475 43.8909 104.099 44.0589C104.747 44.2509 105.671 44.3469 106.871 44.3469C108.527 44.3469 109.679 44.1429 110.327 43.7349C110.999 43.3269 111.335 42.7509 111.335 42.0069C111.335 41.3349 111.083 40.8189 110.579 40.4589C110.075 40.0989 109.331 39.9189 108.347 39.9189H105.539C103.643 39.9189 102.227 39.5709 101.291 38.8749C100.355 38.1549 99.8866 37.2549 99.8866 36.1749C99.8866 35.5029 100.079 34.8549 100.463 34.2309C100.871 33.5829 101.423 33.0429 102.119 32.6109C100.943 31.9629 100.079 31.2069 99.5266 30.3429C98.9986 29.4549 98.7346 28.3989 98.7346 27.1749C98.7346 25.7829 99.0706 24.5709 99.7426 23.5389C100.439 22.4829 101.399 21.6789 102.623 21.1269C103.871 20.5509 105.287 20.2629 106.871 20.2629C108.839 20.3109 110.459 20.1429 111.731 19.7589C113.003 19.3749 114.359 18.7749 115.799 17.9589L117.059 21.8829ZM106.979 23.6829C106.019 23.6829 105.251 23.9949 104.675 24.6189C104.123 25.2189 103.847 26.0469 103.847 27.1029C103.847 28.1829 104.123 29.0349 104.675 29.6589C105.251 30.2829 106.031 30.5949 107.015 30.5949C108.047 30.5949 108.827 30.2949 109.355 29.6949C109.883 29.0949 110.147 28.2069 110.147 27.0309C110.147 24.7989 109.091 23.6829 106.979 23.6829ZM136.641 21.8829C135.393 22.3629 133.557 22.6029 131.133 22.6029C132.333 23.1309 133.221 23.7909 133.797 24.5829C134.373 25.3509 134.661 26.3229 134.661 27.4989C134.661 28.7229 134.337 29.8269 133.689 30.8109C133.065 31.7709 132.153 32.5269 130.953 33.0789C129.777 33.6309 128.397 33.9069 126.813 33.9069C125.973 33.9069 125.229 33.8229 124.581 33.6549C124.101 33.9669 123.861 34.3869 123.861 34.9149C123.861 35.2989 124.005 35.6109 124.293 35.8509C124.605 36.0669 125.193 36.1749 126.057 36.1749H128.973C130.389 36.1749 131.625 36.4149 132.681 36.8949C133.761 37.3509 134.589 37.9989 135.165 38.8389C135.765 39.6549 136.065 40.5909 136.065 41.6469C136.065 43.5909 135.225 45.1029 133.545 46.1829C131.889 47.2869 129.489 47.8389 126.345 47.8389C124.089 47.8389 122.301 47.5989 120.981 47.1189C119.685 46.6629 118.773 45.9909 118.245 45.1029C117.717 44.2149 117.453 43.0989 117.453 41.7549H122.025C122.025 42.3789 122.145 42.8709 122.385 43.2309C122.625 43.6149 123.057 43.8909 123.681 44.0589C124.329 44.2509 125.253 44.3469 126.453 44.3469C128.109 44.3469 129.261 44.1429 129.909 43.7349C130.581 43.3269 130.917 42.7509 130.917 42.0069C130.917 41.3349 130.665 40.8189 130.161 40.4589C129.657 40.0989 128.913 39.9189 127.929 39.9189H125.121C123.225 39.9189 121.809 39.5709 120.873 38.8749C119.937 38.1549 119.469 37.2549 119.469 36.1749C119.469 35.5029 119.661 34.8549 120.045 34.2309C120.453 33.5829 121.005 33.0429 121.701 32.6109C120.525 31.9629 119.661 31.2069 119.109 30.3429C118.581 29.4549 118.317 28.3989 118.317 27.1749C118.317 25.7829 118.653 24.5709 119.325 23.5389C120.021 22.4829 120.981 21.6789 122.205 21.1269C123.453 20.5509 124.869 20.2629 126.453 20.2629C128.421 20.3109 130.041 20.1429 131.313 19.7589C132.585 19.3749 133.941 18.7749 135.381 17.9589L136.641 21.8829ZM126.561 23.6829C125.601 23.6829 124.833 23.9949 124.257 24.6189C123.705 25.2189 123.429 26.0469 123.429 27.1029C123.429 28.1829 123.705 29.0349 124.257 29.6589C124.833 30.2829 125.613 30.5949 126.597 30.5949C127.629 30.5949 128.409 30.2949 128.937 29.6949C129.465 29.0949 129.729 28.2069 129.729 27.0309C129.729 24.7989 128.673 23.6829 126.561 23.6829ZM152.93 34.6269C152.93 35.3709 153.038 35.9229 153.254 36.2829C153.47 36.6189 153.83 36.8709 154.334 37.0389L153.254 40.4229C152.126 40.3269 151.202 40.0629 150.482 39.6309C149.786 39.1989 149.246 38.5269 148.862 37.6149C147.614 39.5349 145.706 40.4949 143.138 40.4949C141.242 40.4949 139.73 39.9549 138.602 38.8749C137.498 37.7709 136.946 36.3429 136.946 34.5909C136.946 32.5029 137.702 30.9069 139.214 29.8029C140.726 28.6989 142.898 28.1469 145.73 28.1469H147.926V27.2109C147.926 26.0349 147.662 25.2189 147.134 24.7629C146.606 24.3069 145.73 24.0789 144.506 24.0789C143.162 24.0789 141.482 24.4149 139.466 25.0869L138.314 21.6669C140.69 20.7309 143.042 20.2629 145.37 20.2629C147.962 20.2629 149.87 20.8269 151.094 21.9549C152.318 23.0589 152.93 24.7149 152.93 26.9229V34.6269ZM144.542 36.8229C145.982 36.8229 147.11 36.1149 147.926 34.6989V31.0629H146.234C143.474 31.0629 142.094 32.0949 142.094 34.1589C142.094 34.9989 142.298 35.6589 142.706 36.1389C143.138 36.5949 143.75 36.8229 144.542 36.8229ZM174.562 13.2429V39.9189H170.062L169.774 37.5789C168.43 39.5229 166.606 40.4949 164.302 40.4949C161.95 40.4949 160.15 39.5949 158.902 37.7949C157.678 35.9709 157.066 33.4989 157.066 30.3789C157.066 28.4109 157.378 26.6709 158.002 25.1589C158.65 23.6229 159.562 22.4229 160.738 21.5589C161.914 20.6949 163.27 20.2629 164.806 20.2629C166.582 20.2629 168.13 20.8989 169.45 22.1709V12.6669L174.562 13.2429ZM165.814 36.6789C166.558 36.6789 167.218 36.4989 167.794 36.1389C168.37 35.7549 168.922 35.1669 169.45 34.3749V25.8429C168.946 25.2429 168.43 24.7989 167.902 24.5109C167.398 24.1989 166.81 24.0429 166.138 24.0429C164.962 24.0429 164.038 24.5589 163.366 25.5909C162.718 26.6229 162.394 28.2189 162.394 30.3789C162.394 32.6589 162.682 34.2789 163.258 35.2389C163.858 36.1989 164.71 36.6789 165.814 36.6789ZM187.616 20.2629C190.472 20.2629 192.704 21.1629 194.312 22.9629C195.92 24.7389 196.724 27.2109 196.724 30.3789C196.724 32.3949 196.352 34.1709 195.608 35.7069C194.888 37.2189 193.832 38.3949 192.44 39.2349C191.072 40.0749 189.452 40.4949 187.58 40.4949C184.724 40.4949 182.48 39.6069 180.848 37.8309C179.24 36.0309 178.436 33.5469 178.436 30.3789C178.436 28.3629 178.796 26.5989 179.516 25.0869C180.26 23.5509 181.316 22.3629 182.684 21.5229C184.076 20.6829 185.72 20.2629 187.616 20.2629ZM187.616 24.0789C186.32 24.0789 185.348 24.5949 184.7 25.6269C184.076 26.6349 183.764 28.2189 183.764 30.3789C183.764 32.5389 184.076 34.1349 184.7 35.1669C185.348 36.1749 186.308 36.6789 187.58 36.6789C188.852 36.6789 189.8 36.1749 190.424 35.1669C191.072 34.1349 191.396 32.5389 191.396 30.3789C191.396 28.2189 191.084 26.6349 190.46 25.6269C189.836 24.5949 188.888 24.0789 187.616 24.0789ZM212.024 39.0189C211.328 39.4989 210.536 39.8589 209.648 40.0989C208.784 40.3629 207.92 40.4949 207.056 40.4949C205.088 40.4709 203.6 39.9069 202.592 38.8029C201.584 37.6989 201.08 36.0789 201.08 33.9429V24.4389H198.236V20.8389H201.08V16.6629L206.192 16.0509V20.8389H210.584L210.08 24.4389H206.192V33.8349C206.192 34.7469 206.348 35.4069 206.66 35.8149C206.972 36.2229 207.452 36.4269 208.1 36.4269C208.748 36.4269 209.468 36.2109 210.26 35.7789L212.024 39.0189Z" fill="white"/>
</svg>
