<svg width="213" height="55" viewBox="0 0 213 55" fill="none" xmlns="http://www.w3.org/2000/svg">
<path d="M39.4326 7.92046H11.6586C10.6297 7.86614 9.81201 7.0187 9.81201 5.97569C9.81201 5.10109 10.4672 4.66107 11.756 4.66107H37.9218C38.3604 4.66107 38.7178 4.30253 38.7178 3.86252C38.7178 3.4225 38.3604 3.06396 37.9218 3.06396H11.756C9.57374 3.06396 8.21997 4.17759 8.21997 5.97569C8.21997 6.24731 8.25246 6.50806 8.31203 6.76338V40.5035C8.30661 40.5796 8.3012 40.6502 8.3012 40.7263C8.3012 41.8181 8.83729 42.9481 9.63331 43.5402C9.87157 43.7195 10.1153 43.7575 10.321 43.7575C10.4077 43.7575 10.4889 43.7575 10.5539 43.7466H10.5972C10.6676 43.7738 10.7434 43.7901 10.8246 43.7901H11.3824V50.3469C11.3824 50.6131 11.5286 50.8575 11.7614 50.9825C11.8643 51.0368 11.9835 51.064 12.0972 51.064C12.238 51.064 12.3788 51.0205 12.4979 50.939L15.6062 48.8204L18.8011 50.9445C19.0231 51.0911 19.3047 51.102 19.5375 50.977C19.7704 50.8521 19.9166 50.6076 19.9166 50.3469V43.7901H39.438C39.8766 43.7901 40.234 43.4315 40.234 42.9915V8.71358C40.234 8.27899 39.8712 7.92046 39.4326 7.92046ZM18.4816 49.0105L15.996 47.3591C15.8769 47.2776 15.7415 47.2396 15.6007 47.2396C15.46 47.2396 15.3192 47.2831 15.2 47.3646L12.812 48.9942V43.7955H18.4816V49.0105ZM31.7486 32.2518C31.1746 32.2518 30.6385 32.0671 30.1836 31.7738C29.393 32.4365 28.4887 32.9526 27.5031 33.3111C27.5085 33.3818 27.5085 33.4469 27.514 33.523C27.4977 35.169 26.1548 36.4836 24.5194 36.4673C22.8786 36.451 21.5628 35.1092 21.579 33.4632C21.579 33.4361 21.5844 33.4035 21.5898 33.3763C20.9996 33.1753 20.4418 32.9146 19.9166 32.5995V32.4909C19.9166 32.3931 19.8949 32.4365 19.8624 32.5669C19.4996 32.3496 19.1476 32.1106 18.8227 31.8444C18.3679 32.1106 17.8426 32.2681 17.2794 32.2573C15.6441 32.241 14.3282 30.8992 14.3499 29.2532C14.3607 28.2102 14.9076 27.3084 15.7253 26.7869C15.5899 26.1676 15.5141 25.532 15.5141 24.8747C15.5141 24.3424 15.5683 23.8209 15.6603 23.3157C14.886 22.7724 14.3769 21.8761 14.3932 20.8603C14.4094 19.2088 15.747 17.8888 17.3877 17.9105C17.7993 17.9159 18.1892 18.0083 18.5411 18.1658C19.4563 17.351 20.5285 16.7208 21.7198 16.3351C21.9256 14.8847 23.1656 13.7548 24.6764 13.7711C26.2035 13.7874 27.4436 14.977 27.5844 16.4709C28.6565 16.8729 29.6367 17.4705 30.4706 18.2256C30.8713 18.03 31.3154 17.9105 31.7865 17.9159C33.4272 17.9322 34.7485 19.274 34.7269 20.9254C34.716 21.9902 34.142 22.9137 33.2973 23.4243C33.3731 23.8969 33.4272 24.3804 33.4272 24.8802C33.4272 25.4995 33.3623 26.1079 33.2431 26.6891C34.1583 27.1998 34.781 28.183 34.7594 29.3129C34.7323 30.9535 33.3893 32.279 31.7486 32.2518Z" fill="url(#paint0_linear_3778_41022)"/>
<path d="M70.884 39.564V28.656H62.64V39.564H57.348V14.652H62.64V24.48H70.884V14.652H76.176V39.564H70.884ZM95.902 34.272C95.902 35.016 96.01 35.568 96.226 35.928C96.442 36.264 96.802 36.516 97.306 36.684L96.226 40.068C95.098 39.972 94.174 39.708 93.454 39.276C92.758 38.844 92.218 38.172 91.834 37.26C90.586 39.18 88.678 40.14 86.11 40.14C84.214 40.14 82.702 39.6 81.574 38.52C80.47 37.416 79.918 35.988 79.918 34.236C79.918 32.148 80.674 30.552 82.186 29.448C83.698 28.344 85.87 27.792 88.702 27.792H90.898V26.856C90.898 25.68 90.634 24.864 90.106 24.408C89.578 23.952 88.702 23.724 87.478 23.724C86.134 23.724 84.454 24.06 82.438 24.732L81.286 21.312C83.662 20.376 86.014 19.908 88.342 19.908C90.934 19.908 92.842 20.472 94.066 21.6C95.29 22.704 95.902 24.36 95.902 26.568V34.272ZM87.514 36.468C88.954 36.468 90.082 35.76 90.898 34.344V30.708H89.206C86.446 30.708 85.066 31.74 85.066 33.804C85.066 34.644 85.27 35.304 85.678 35.784C86.11 36.24 86.722 36.468 87.514 36.468ZM117.722 21.528C116.474 22.008 114.638 22.248 112.214 22.248C113.414 22.776 114.302 23.436 114.878 24.228C115.454 24.996 115.742 25.968 115.742 27.144C115.742 28.368 115.418 29.472 114.77 30.456C114.146 31.416 113.234 32.172 112.034 32.724C110.858 33.276 109.478 33.552 107.894 33.552C107.054 33.552 106.31 33.468 105.662 33.3C105.182 33.612 104.942 34.032 104.942 34.56C104.942 34.944 105.086 35.256 105.374 35.496C105.686 35.712 106.274 35.82 107.138 35.82H110.054C111.47 35.82 112.706 36.06 113.762 36.54C114.842 36.996 115.67 37.644 116.246 38.484C116.846 39.3 117.146 40.236 117.146 41.292C117.146 43.236 116.306 44.748 114.626 45.828C112.97 46.932 110.57 47.484 107.426 47.484C105.17 47.484 103.382 47.244 102.062 46.764C100.766 46.308 99.8539 45.636 99.3259 44.748C98.7979 43.86 98.5339 42.744 98.5339 41.4H103.106C103.106 42.024 103.226 42.516 103.466 42.876C103.706 43.26 104.138 43.536 104.762 43.704C105.41 43.896 106.334 43.992 107.534 43.992C109.19 43.992 110.342 43.788 110.99 43.38C111.662 42.972 111.998 42.396 111.998 41.652C111.998 40.98 111.746 40.464 111.242 40.104C110.738 39.744 109.994 39.564 109.01 39.564H106.202C104.306 39.564 102.89 39.216 101.954 38.52C101.018 37.8 100.55 36.9 100.55 35.82C100.55 35.148 100.742 34.5 101.126 33.876C101.534 33.228 102.086 32.688 102.782 32.256C101.606 31.608 100.742 30.852 100.19 29.988C99.6619 29.1 99.3979 28.044 99.3979 26.82C99.3979 25.428 99.7339 24.216 100.406 23.184C101.102 22.128 102.062 21.324 103.286 20.772C104.534 20.196 105.95 19.908 107.534 19.908C109.502 19.956 111.122 19.788 112.394 19.404C113.666 19.02 115.022 18.42 116.462 17.604L117.722 21.528ZM107.642 23.328C106.682 23.328 105.914 23.64 105.338 24.264C104.786 24.864 104.51 25.692 104.51 26.748C104.51 27.828 104.786 28.68 105.338 29.304C105.914 29.928 106.694 30.24 107.678 30.24C108.71 30.24 109.49 29.94 110.018 29.34C110.546 28.74 110.81 27.852 110.81 26.676C110.81 24.444 109.754 23.328 107.642 23.328ZM137.304 21.528C136.056 22.008 134.22 22.248 131.796 22.248C132.996 22.776 133.884 23.436 134.46 24.228C135.036 24.996 135.324 25.968 135.324 27.144C135.324 28.368 135 29.472 134.352 30.456C133.728 31.416 132.816 32.172 131.616 32.724C130.44 33.276 129.06 33.552 127.476 33.552C126.636 33.552 125.892 33.468 125.244 33.3C124.764 33.612 124.524 34.032 124.524 34.56C124.524 34.944 124.668 35.256 124.956 35.496C125.268 35.712 125.856 35.82 126.72 35.82H129.636C131.052 35.82 132.288 36.06 133.344 36.54C134.424 36.996 135.252 37.644 135.828 38.484C136.428 39.3 136.728 40.236 136.728 41.292C136.728 43.236 135.888 44.748 134.208 45.828C132.552 46.932 130.152 47.484 127.008 47.484C124.752 47.484 122.964 47.244 121.644 46.764C120.348 46.308 119.436 45.636 118.908 44.748C118.38 43.86 118.116 42.744 118.116 41.4H122.688C122.688 42.024 122.808 42.516 123.048 42.876C123.288 43.26 123.72 43.536 124.344 43.704C124.992 43.896 125.916 43.992 127.116 43.992C128.772 43.992 129.924 43.788 130.572 43.38C131.244 42.972 131.58 42.396 131.58 41.652C131.58 40.98 131.328 40.464 130.824 40.104C130.32 39.744 129.576 39.564 128.592 39.564H125.784C123.888 39.564 122.472 39.216 121.536 38.52C120.6 37.8 120.132 36.9 120.132 35.82C120.132 35.148 120.324 34.5 120.708 33.876C121.116 33.228 121.668 32.688 122.364 32.256C121.188 31.608 120.324 30.852 119.772 29.988C119.244 29.1 118.98 28.044 118.98 26.82C118.98 25.428 119.316 24.216 119.988 23.184C120.684 22.128 121.644 21.324 122.868 20.772C124.116 20.196 125.532 19.908 127.116 19.908C129.084 19.956 130.704 19.788 131.976 19.404C133.248 19.02 134.604 18.42 136.044 17.604L137.304 21.528ZM127.224 23.328C126.264 23.328 125.496 23.64 124.92 24.264C124.368 24.864 124.092 25.692 124.092 26.748C124.092 27.828 124.368 28.68 124.92 29.304C125.496 29.928 126.276 30.24 127.26 30.24C128.292 30.24 129.072 29.94 129.6 29.34C130.128 28.74 130.392 27.852 130.392 26.676C130.392 24.444 129.336 23.328 127.224 23.328ZM153.593 34.272C153.593 35.016 153.701 35.568 153.917 35.928C154.133 36.264 154.493 36.516 154.997 36.684L153.917 40.068C152.789 39.972 151.865 39.708 151.145 39.276C150.449 38.844 149.909 38.172 149.525 37.26C148.277 39.18 146.369 40.14 143.801 40.14C141.905 40.14 140.393 39.6 139.265 38.52C138.161 37.416 137.609 35.988 137.609 34.236C137.609 32.148 138.365 30.552 139.877 29.448C141.389 28.344 143.561 27.792 146.393 27.792H148.589V26.856C148.589 25.68 148.325 24.864 147.797 24.408C147.269 23.952 146.393 23.724 145.169 23.724C143.825 23.724 142.145 24.06 140.129 24.732L138.977 21.312C141.353 20.376 143.705 19.908 146.033 19.908C148.625 19.908 150.533 20.472 151.757 21.6C152.981 22.704 153.593 24.36 153.593 26.568V34.272ZM145.205 36.468C146.645 36.468 147.773 35.76 148.589 34.344V30.708H146.897C144.137 30.708 142.757 31.74 142.757 33.804C142.757 34.644 142.961 35.304 143.369 35.784C143.801 36.24 144.413 36.468 145.205 36.468ZM175.225 12.888V39.564H170.725L170.437 37.224C169.093 39.168 167.269 40.14 164.965 40.14C162.613 40.14 160.813 39.24 159.565 37.44C158.341 35.616 157.729 33.144 157.729 30.024C157.729 28.056 158.041 26.316 158.665 24.804C159.313 23.268 160.225 22.068 161.401 21.204C162.577 20.34 163.933 19.908 165.469 19.908C167.245 19.908 168.793 20.544 170.113 21.816V12.312L175.225 12.888ZM166.477 36.324C167.221 36.324 167.881 36.144 168.457 35.784C169.033 35.4 169.585 34.812 170.113 34.02V25.488C169.609 24.888 169.093 24.444 168.565 24.156C168.061 23.844 167.473 23.688 166.801 23.688C165.625 23.688 164.701 24.204 164.029 25.236C163.381 26.268 163.057 27.864 163.057 30.024C163.057 32.304 163.345 33.924 163.921 34.884C164.521 35.844 165.373 36.324 166.477 36.324ZM188.28 19.908C191.136 19.908 193.368 20.808 194.976 22.608C196.584 24.384 197.388 26.856 197.388 30.024C197.388 32.04 197.016 33.816 196.272 35.352C195.552 36.864 194.496 38.04 193.104 38.88C191.736 39.72 190.116 40.14 188.244 40.14C185.388 40.14 183.144 39.252 181.512 37.476C179.904 35.676 179.1 33.192 179.1 30.024C179.1 28.008 179.46 26.244 180.18 24.732C180.924 23.196 181.98 22.008 183.348 21.168C184.74 20.328 186.384 19.908 188.28 19.908ZM188.28 23.724C186.984 23.724 186.012 24.24 185.364 25.272C184.74 26.28 184.428 27.864 184.428 30.024C184.428 32.184 184.74 33.78 185.364 34.812C186.012 35.82 186.972 36.324 188.244 36.324C189.516 36.324 190.464 35.82 191.088 34.812C191.736 33.78 192.06 32.184 192.06 30.024C192.06 27.864 191.748 26.28 191.124 25.272C190.5 24.24 189.552 23.724 188.28 23.724ZM212.687 38.664C211.991 39.144 211.199 39.504 210.311 39.744C209.447 40.008 208.583 40.14 207.719 40.14C205.751 40.116 204.263 39.552 203.255 38.448C202.247 37.344 201.743 35.724 201.743 33.588V24.084H198.899V20.484H201.743V16.308L206.855 15.696V20.484H211.247L210.743 24.084H206.855V33.48C206.855 34.392 207.011 35.052 207.323 35.46C207.635 35.868 208.115 36.072 208.763 36.072C209.411 36.072 210.131 35.856 210.923 35.424L212.687 38.664Z" fill="#111928"/>
<defs>
<linearGradient id="paint0_linear_3778_41022" x1="8.21997" y1="3.06396" x2="48.2537" y2="11.097" gradientUnits="userSpaceOnUse">
<stop stop-color="#00FFB9"/>
<stop offset="1" stop-color="#40F2FD"/>
</linearGradient>
</defs>
</svg>
