<svg width="134" height="139" viewBox="0 0 134 139" fill="none" xmlns="http://www.w3.org/2000/svg">
<path d="M0.140099 94.2976C-0.343737 101.816 0.331383 109.565 3.3638 116.382C8.56222 128.07 19.6904 135.201 31.1 137.799C45.345 141.048 60.0007 137.188 73.61 132.216C74.9265 131.734 76.2317 131.24 77.5426 130.746C77.7451 130.853 77.9983 130.887 78.2908 130.797C91.0731 126.864 103.152 119.827 112.834 109.806C122.911 99.3812 130.039 85.8644 132.807 71.0739C135.428 57.069 133.718 42.4188 127.496 29.912C121.408 17.6802 111.49 8.23132 99.2927 3.82672C92.2208 1.27935 84.7157 0.274992 77.2613 0.0617759C69.9869 -0.145829 62.5662 0.14594 55.3874 1.66651C48.5518 3.11413 42.0088 5.8635 36.3209 10.3298C30.9424 14.5492 26.481 20.0536 22.7229 25.9563C18.6609 32.3416 15.3359 39.2879 12.3935 46.3409C9.16983 54.0728 6.49185 62.074 4.39335 70.2379C2.37362 78.082 0.668943 86.1786 0.145725 94.2976H0.140099Z" fill="#FFFD9F"/>
<path d="M32.5752 46.5146C32.1026 44.9941 30.5273 44.4891 29.0814 44.8762C25.6496 45.8077 25.1207 49.494 25.3908 52.4959C25.3908 52.5576 25.4076 52.6193 25.4133 52.6755C25.2895 53.9155 25.6833 54.9984 27.1236 55.4753C30.0547 56.4404 32.1363 52.9392 32.5527 50.577C32.7721 49.3482 32.9521 47.7322 32.5695 46.509L32.5752 46.5146Z" fill="#FF7C5C"/>
<path d="M45.7899 29.1829C44.6928 29.037 43.6801 29.6093 42.8644 30.4566C42.8306 30.4734 42.7968 30.4902 42.7575 30.5071C40.9684 31.4834 39.6294 34.7097 40.7096 36.6005C41.4072 37.8237 42.8362 38.1884 44.1133 37.734C45.2329 37.3356 46.1162 36.3929 46.735 35.411C47.7815 33.739 48.7041 29.5756 45.7842 29.1829H45.7899Z" fill="#FF7C5C"/>
<path d="M47.2809 48.361C46.7633 46.5038 44.5466 46.2401 43.2245 47.4016L43.2133 47.4128C42.6619 47.6484 42.1669 48.0524 41.8405 48.5574C41.5761 48.9726 41.3567 49.4888 41.1823 50.0387C41.1035 50.2182 41.036 50.3978 40.991 50.5773C40.9404 50.7793 40.9179 50.9869 40.9179 51.1945C40.8447 51.649 40.8054 52.0979 40.8222 52.4907C40.8841 54.3928 42.8532 55.2457 44.4454 54.4938C45.5987 53.9495 46.3301 52.9227 46.797 51.7725C47.2077 50.7569 47.5847 49.4383 47.2865 48.3554L47.2809 48.361Z" fill="#FF7C5C"/>
<path d="M61.9307 37.7788C61.4919 36.8698 60.4229 36.247 59.2921 36.9035C57.458 37.9695 56.0403 40.0456 56.1078 42.2226C56.1528 43.6254 57.1148 44.9552 58.6114 44.9944C59.8041 45.0281 60.8392 44.1752 61.3512 43.1541C62.032 41.8018 62.9377 39.1254 61.9307 37.7732V37.7788Z" fill="#FF7C5C"/>
<path d="M60.7947 17.5511C60.3165 17.0405 59.5401 16.8778 58.8425 17.063C58.0661 16.7544 57.1378 16.9115 56.6202 17.8654C55.8944 19.2008 55.36 21.0075 55.9001 22.4158C56.007 23.1172 56.3164 23.7568 56.9296 24.2338C57.7004 24.8341 58.8819 25.0754 59.6245 24.2338C59.8101 24.0262 59.9789 23.8073 60.1364 23.5885C60.3559 23.4034 60.5528 23.1845 60.7159 22.9376C61.256 22.1297 61.7792 20.9626 61.8805 19.9975C61.9818 19.0156 61.5767 18.073 60.7947 17.5511Z" fill="#FF7C5C"/>
<path d="M30.718 30.5404C30.5324 29.3958 28.8502 28.728 27.9163 29.407C27.0161 30.0578 26.0485 31.1913 25.5815 32.4032C25.2946 32.9924 25.1596 33.632 25.3002 34.3502C25.5478 35.579 26.6392 36.6058 27.9332 36.6226C30.9093 36.6619 31.05 32.6277 30.7124 30.546L30.718 30.5404Z" fill="#FF7C5C"/>
<path d="M104.425 32.1286C103.525 33.4472 104.11 34.9902 105.314 35.8711C108.178 37.9696 111.407 36.0899 113.59 34.0083C113.635 33.9634 113.675 33.9241 113.714 33.8792C114.766 33.2059 115.368 32.2184 114.845 30.7988C113.776 27.9148 109.736 28.4647 107.621 29.6093C106.524 30.204 105.14 31.0681 104.42 32.1286H104.425Z" fill="#FF7C5C"/>
<path d="M82.5964 32.6053C83.1646 33.5536 84.2448 33.9856 85.415 34.0922C85.4488 34.1091 85.4825 34.1259 85.5219 34.1427C87.401 34.9339 90.771 33.9688 91.5811 31.9489C92.1043 30.6415 91.5024 29.2949 90.349 28.5823C89.342 27.9595 88.0536 27.8529 86.8947 27.9819C84.9312 28.2063 81.0886 30.0804 82.5964 32.5997V32.6053Z" fill="#FF7C5C"/>
<path d="M96.7112 19.504C95.5747 21.0638 96.7506 22.9603 98.4834 23.2689H98.5003C99.0291 23.5551 99.6536 23.6898 100.256 23.628C100.745 23.5775 101.291 23.426 101.831 23.2184C102.022 23.1679 102.208 23.1118 102.371 23.0333C102.562 22.9491 102.737 22.8369 102.9 22.7078C103.305 22.4834 103.676 22.2309 103.98 21.9784C105.432 20.7496 104.875 18.6792 103.294 17.9049C102.152 17.3438 100.891 17.4111 99.6986 17.7646C98.6465 18.0732 97.3751 18.6006 96.7112 19.5096V19.504Z" fill="#FF7C5C"/>
<path d="M79.2878 14.6504C78.849 15.5594 79.029 16.7769 80.2443 17.2539C82.2246 18.0226 84.7338 17.8374 86.3991 16.4234C87.4737 15.5145 87.9125 13.9378 87.018 12.7427C86.3035 11.7888 84.987 11.5195 83.8674 11.7551C82.3821 12.0693 79.721 13.0288 79.2878 14.6504Z" fill="#FF7C5C"/>
<path d="M64.1262 28.1333C64.0193 28.8235 64.3793 29.5361 64.9532 29.9625C65.1951 30.7592 65.8984 31.3877 66.9673 31.1969C68.4694 30.9276 70.2191 30.2206 70.9843 28.9301C71.4681 28.4139 71.7775 27.7686 71.7719 26.9943C71.7663 26.018 71.2206 24.9463 70.0954 24.8902C69.8141 24.879 69.5384 24.879 69.2683 24.8902C68.987 24.8341 68.6945 24.8173 68.3963 24.8397C67.4286 24.9239 66.1853 25.2381 65.3639 25.7599C64.5312 26.2873 64.0418 27.1963 64.1205 28.1333H64.1262Z" fill="#FF7C5C"/>
<path d="M93.0441 43.5189C92.2565 44.3774 92.7853 46.1055 93.8936 46.4085C94.9626 46.7059 96.4535 46.7564 97.6968 46.3636C98.3382 46.2177 98.9289 45.926 99.3959 45.3705C100.206 44.411 100.33 42.9185 99.5421 41.9029C97.7193 39.5576 94.4675 41.959 93.0441 43.5189Z" fill="#FF7C5C"/>
</svg>
