<svg width="87" height="86" viewBox="0 0 87 86" fill="none" xmlns="http://www.w3.org/2000/svg">
<path d="M7.62642 43.5974H1.10325C1.02472 43.5993 0.94661 43.5855 0.873507 43.5567C0.800404 43.528 0.733788 43.4849 0.677579 43.43C0.62137 43.3752 0.576704 43.3096 0.546207 43.2372C0.51571 43.1648 0.5 43.0871 0.5 43.0085C0.5 42.93 0.51571 42.8522 0.546207 42.7798C0.576704 42.7074 0.62137 42.6419 0.677579 42.587C0.733788 42.5321 0.800404 42.489 0.873507 42.4603C0.94661 42.4315 1.02472 42.4177 1.10325 42.4196H7.62642C7.78015 42.4233 7.92634 42.487 8.03377 42.597C8.14119 42.7071 8.20132 42.8547 8.20132 43.0085C8.20132 43.1623 8.14119 43.31 8.03377 43.42C7.92634 43.53 7.78015 43.5937 7.62642 43.5974Z" fill="#00D69B"/>
<path d="M85.9116 43.5972H79.3874C79.2337 43.5935 79.0875 43.5299 78.9801 43.4198C78.8726 43.3098 78.8125 43.1621 78.8125 43.0083C78.8125 42.8546 78.8726 42.7069 78.9801 42.5968C79.0875 42.4868 79.2337 42.4231 79.3874 42.4194H85.9109C86.0646 42.4231 86.2108 42.4868 86.3182 42.5968C86.4257 42.7069 86.4858 42.8546 86.4858 43.0083C86.4858 43.1621 86.4257 43.3098 86.3182 43.4198C86.2108 43.5299 86.0646 43.5935 85.9109 43.5972H85.9116Z" fill="#00D69B"/>
<path d="M43.5072 85.9999C43.4299 86 43.3532 85.9848 43.2818 85.9552C43.2103 85.9257 43.1453 85.8823 43.0906 85.8277C43.0359 85.773 42.9925 85.708 42.9629 85.6366C42.9333 85.5651 42.9181 85.4885 42.9181 85.4111V78.8869C42.9162 78.8084 42.9301 78.7303 42.9588 78.6572C42.9876 78.5841 43.0306 78.5175 43.0855 78.4613C43.1404 78.4051 43.206 78.3604 43.2783 78.3299C43.3507 78.2994 43.4285 78.2837 43.507 78.2837C43.5856 78.2837 43.6634 78.2994 43.7357 78.3299C43.8081 78.3604 43.8737 78.4051 43.9286 78.4613C43.9834 78.5175 44.0265 78.5841 44.0553 78.6572C44.084 78.7303 44.0978 78.8084 44.0959 78.8869V85.4101C44.0962 85.4875 44.0811 85.5642 44.0516 85.6358C44.0221 85.7074 43.9788 85.7725 43.9241 85.8273C43.8694 85.8821 43.8044 85.9255 43.7329 85.9551C43.6613 85.9848 43.5846 86 43.5072 85.9999Z" fill="#00D69B"/>
<path d="M43.5072 7.7155C43.351 7.7155 43.2011 7.65343 43.0907 7.54296C42.9802 7.43249 42.9181 7.28265 42.9181 7.12642V0.603253C42.9162 0.524724 42.9301 0.44661 42.9588 0.373507C42.9876 0.300404 43.0306 0.233788 43.0855 0.177579C43.1404 0.12137 43.206 0.0767037 43.2783 0.0462071C43.3507 0.0157105 43.4285 0 43.507 0C43.5856 0 43.6634 0.0157105 43.7357 0.0462071C43.8081 0.0767037 43.8737 0.12137 43.9286 0.177579C43.9834 0.233788 44.0265 0.300404 44.0553 0.373507C44.084 0.44661 44.0978 0.524724 44.0959 0.603253V7.12642C44.096 7.20376 44.0808 7.28036 44.0512 7.35182C44.0217 7.42329 43.9783 7.48823 43.9236 7.54294C43.869 7.59764 43.804 7.64104 43.7326 7.67065C43.6611 7.70026 43.5846 7.7155 43.5072 7.7155Z" fill="#00D69B"/>
<path d="M13.522 73.5808C13.4056 73.5806 13.2918 73.546 13.195 73.4812C13.0983 73.4165 13.0229 73.3245 12.9784 73.2169C12.9338 73.1093 12.9222 72.991 12.9449 72.8768C12.9676 72.7626 13.0237 72.6577 13.106 72.5753L17.7182 67.9627C17.8294 67.8556 17.9781 67.7965 18.1324 67.7979C18.2867 67.7993 18.4343 67.8612 18.5434 67.9703C18.6525 68.0794 18.7145 68.227 18.716 68.3813C18.7175 68.5356 18.6583 68.6843 18.5513 68.7955L13.9387 73.4084C13.884 73.4631 13.8191 73.5065 13.7475 73.5361C13.676 73.5657 13.5994 73.5809 13.522 73.5808Z" fill="#00D69B"/>
<path d="M68.8796 18.2241C68.7631 18.224 68.6493 18.1895 68.5525 18.1248C68.4557 18.06 68.3803 17.9681 68.3358 17.8605C68.2912 17.7529 68.2796 17.6345 68.3024 17.5204C68.3251 17.4062 68.3812 17.3013 68.4635 17.219L73.0758 12.6077C73.1869 12.5007 73.3356 12.4415 73.4899 12.4429C73.6442 12.4443 73.7918 12.5062 73.901 12.6153C74.0101 12.7244 74.0721 12.872 74.0735 13.0263C74.075 13.1806 74.0159 13.3293 73.9089 13.4405L69.2963 18.0521C69.2416 18.1068 69.1766 18.1501 69.1051 18.1796C69.0336 18.2092 68.9569 18.2243 68.8796 18.2241Z" fill="#00D69B"/>
<path d="M73.4925 73.5808C73.3364 73.5814 73.1865 73.5201 73.0757 73.4102L68.4635 68.7972C68.3531 68.6868 68.291 68.537 68.291 68.3808C68.291 68.2247 68.3531 68.0749 68.4635 67.9645C68.5739 67.854 68.7237 67.792 68.8799 67.792C69.036 67.792 69.1858 67.854 69.2962 67.9645L73.9088 72.5771C73.9912 72.6594 74.0472 72.7644 74.0699 72.8786C74.0926 72.9928 74.081 73.1112 74.0364 73.2188C73.9918 73.3264 73.9164 73.4184 73.8196 73.4831C73.7228 73.5479 73.6089 73.5825 73.4925 73.5825V73.5808Z" fill="#00D69B"/>
<path d="M18.1356 18.2238C18.0584 18.2241 17.9818 18.2093 17.9103 18.18C17.8388 18.1507 17.7737 18.1076 17.7189 18.0531L13.108 13.4388C12.9976 13.3284 12.9355 13.1786 12.9355 13.0224C12.9355 12.8663 12.9976 12.7165 13.108 12.6061C13.2184 12.4956 13.3682 12.4336 13.5244 12.4336C13.6806 12.4336 13.8303 12.4956 13.9408 12.6061L18.552 17.2187C18.6344 17.301 18.6905 17.4059 18.7132 17.5201C18.7359 17.6344 18.7243 17.7528 18.6797 17.8604C18.6351 17.968 18.5596 18.0599 18.4628 18.1246C18.366 18.1893 18.2521 18.2238 18.1356 18.2238Z" fill="#00D69B"/>
<path d="M4.33182 59.8229C4.19551 59.8231 4.06335 59.776 3.9579 59.6896C3.85244 59.6033 3.78022 59.483 3.75356 59.3493C3.7269 59.2156 3.74745 59.0769 3.8117 58.9566C3.87595 58.8364 3.97992 58.7422 4.10588 58.6901L10.1338 56.1939C10.2782 56.1343 10.4404 56.1346 10.5846 56.1946C10.7289 56.2546 10.8434 56.3694 10.9029 56.5139C10.9625 56.6583 10.9622 56.8205 10.9022 56.9647C10.8422 57.1089 10.7274 57.2234 10.583 57.283L4.55571 59.7792C4.4847 59.8084 4.4086 59.8233 4.33182 59.8229Z" fill="#00D69B"/>
<path d="M76.6568 29.865C76.5206 29.8648 76.3887 29.8175 76.2834 29.7311C76.1782 29.6446 76.1062 29.5244 76.0797 29.3908C76.0531 29.2572 76.0737 29.1186 76.1378 28.9985C76.202 28.8783 76.3057 28.7841 76.4315 28.7319L82.4588 26.2357C82.6027 26.178 82.7636 26.1793 82.9065 26.2395C83.0494 26.2996 83.1629 26.4137 83.2222 26.557C83.2816 26.7003 83.282 26.8611 83.2235 27.0048C83.165 27.1484 83.0522 27.2631 82.9096 27.3241L76.8824 29.82C76.8109 29.8498 76.7342 29.8651 76.6568 29.865Z" fill="#00D69B"/>
<path d="M59.7353 82.7723C59.6188 82.7724 59.5049 82.7379 59.408 82.6733C59.3111 82.6086 59.2356 82.5167 59.1909 82.4092L56.6947 76.3816C56.6369 76.2376 56.6383 76.0767 56.6985 75.9338C56.7586 75.7909 56.8727 75.6774 57.016 75.6181C57.1592 75.5587 57.3201 75.5583 57.4637 75.6168C57.6073 75.6753 57.7221 75.7881 57.783 75.9307L60.2789 81.9587C60.3162 82.0481 60.3309 82.1453 60.3215 82.2417C60.3121 82.3382 60.2791 82.4308 60.2253 82.5114C60.1714 82.5919 60.0986 82.6579 60.0131 82.7035C59.9276 82.7491 59.8321 82.7729 59.7353 82.7726V82.7723Z" fill="#00D69B"/>
<path d="M29.7762 10.4467C29.6599 10.4467 29.5461 10.4122 29.4493 10.3476C29.3525 10.2829 29.2771 10.191 29.2325 10.0835L26.7363 4.05591C26.6765 3.91158 26.6764 3.74939 26.7362 3.60503C26.7959 3.46067 26.9106 3.34595 27.0549 3.28612C27.1992 3.22629 27.3614 3.22624 27.5058 3.28599C27.6502 3.34574 27.7649 3.46039 27.8247 3.60472L30.3206 9.63267C30.3578 9.72214 30.3724 9.81943 30.3629 9.91588C30.3535 10.0123 30.3204 10.1049 30.2665 10.1855C30.2126 10.2661 30.1397 10.3321 30.0541 10.3776C29.9686 10.4232 29.8731 10.4469 29.7762 10.4467Z" fill="#00D69B"/>
<path d="M27.2802 82.7724C27.2029 82.7727 27.1263 82.7576 27.0549 82.7281C26.9106 82.6682 26.796 82.5535 26.7363 82.4092C26.6765 82.2649 26.6765 82.1028 26.7361 81.9584L29.2324 75.9308C29.2921 75.7866 29.4068 75.6719 29.5511 75.6122C29.6954 75.5524 29.8575 75.5525 30.0018 75.6122C30.1461 75.672 30.2607 75.7867 30.3205 75.931C30.3802 76.0753 30.3802 76.2374 30.3204 76.3817L27.8245 82.4093C27.7798 82.5168 27.7042 82.6087 27.6074 82.6733C27.5105 82.738 27.3966 82.7724 27.2802 82.7724Z" fill="#00D69B"/>
<path d="M57.2379 10.4468C57.141 10.4471 57.0456 10.4234 56.96 10.3778C56.8745 10.3323 56.8015 10.2663 56.7477 10.1857C56.6938 10.1051 56.6607 10.0125 56.6512 9.91607C56.6418 9.81962 56.6563 9.72233 56.6936 9.63286L59.1898 3.60491C59.2183 3.53187 59.2611 3.46526 59.3157 3.40897C59.3703 3.35269 59.4355 3.30787 59.5077 3.27713C59.5798 3.2464 59.6573 3.23037 59.7357 3.22999C59.8141 3.22961 59.8918 3.24488 59.9642 3.27491C60.0366 3.30494 60.1023 3.34913 60.1575 3.40488C60.2126 3.46063 60.256 3.52683 60.2852 3.59958C60.3145 3.67234 60.3288 3.7502 60.3276 3.82859C60.3263 3.90698 60.3094 3.98433 60.2779 4.0561L57.784 10.0837C57.7393 10.1916 57.6635 10.2837 57.5663 10.3484C57.469 10.4131 57.3547 10.4473 57.2379 10.4468Z" fill="#00D69B"/>
<path d="M82.6847 59.8233C82.6072 59.8236 82.5305 59.8084 82.4591 59.7785L76.4318 57.2823C76.3604 57.2527 76.2955 57.2093 76.2408 57.1546C76.1861 57.0999 76.1427 57.035 76.1132 56.9636C76.0836 56.8921 76.0683 56.8155 76.0684 56.7382C76.0684 56.6609 76.0836 56.5843 76.1132 56.5129C76.1428 56.4414 76.1862 56.3765 76.2409 56.3218C76.2956 56.2672 76.3605 56.2238 76.432 56.1942C76.5034 56.1646 76.58 56.1494 76.6573 56.1494C76.7346 56.1494 76.8112 56.1647 76.8827 56.1943L82.9099 58.6905C83.0358 58.7426 83.1398 58.8367 83.204 58.9569C83.2683 59.077 83.2889 59.2157 83.2623 59.3493C83.2357 59.483 83.1636 59.6033 83.0583 59.6897C82.953 59.7761 82.8209 59.8233 82.6847 59.8233Z" fill="#00D69B"/>
<path d="M10.3589 29.8652C10.2816 29.8654 10.2049 29.8501 10.1336 29.8201L4.10569 27.3242C3.96136 27.2644 3.84671 27.1497 3.78697 27.0053C3.72722 26.8609 3.72726 26.6988 3.7871 26.5544C3.84693 26.4101 3.96164 26.2954 4.10601 26.2357C4.25037 26.1759 4.41256 26.176 4.55689 26.2358L10.5828 28.7321C10.7086 28.7843 10.8123 28.8785 10.8765 28.9986C10.9406 29.1187 10.9612 29.2574 10.9346 29.3909C10.9081 29.5245 10.8361 29.6447 10.7308 29.7312C10.6256 29.8177 10.4937 29.865 10.3575 29.8652H10.3589Z" fill="#00D69B"/>
<path d="M64.317 63.8265C75.8151 52.3284 75.8151 33.6862 64.317 22.1881C52.8189 10.69 34.1767 10.69 22.6786 22.1881C11.1805 33.6862 11.1805 52.3284 22.6786 63.8265C34.1767 75.3247 52.8189 75.3247 64.317 63.8265Z" fill="#00D69B"/>
<path d="M43.5074 73.0439C37.5668 73.0439 31.7595 71.2824 26.82 67.982C21.8806 64.6816 18.0307 59.9907 15.7572 54.5023C13.4838 49.0139 12.8889 42.9746 14.0478 37.1481C15.2067 31.3216 18.0673 25.9696 22.2679 21.7689C26.4685 17.5682 31.8205 14.7074 37.6469 13.5484C43.4734 12.3894 49.5127 12.9841 55.0011 15.2575C60.4896 17.5308 65.1807 21.3806 68.4812 26.32C71.7817 31.2594 73.5433 37.0666 73.5434 43.0072C73.5344 50.9705 70.367 58.6051 64.7361 64.2361C59.1052 69.8671 51.4707 73.0347 43.5074 73.0439ZM43.5074 14.149C37.7997 14.1489 32.2201 15.8414 27.4743 19.0124C22.7285 22.1834 19.0296 26.6905 16.8453 31.9637C14.661 37.2369 14.0895 43.0394 15.203 48.6375C16.3165 54.2355 19.065 59.3776 23.101 63.4136C27.1369 67.4496 32.2791 70.1981 37.8771 71.3116C43.4752 72.4251 49.2777 71.8535 54.5509 69.6693C59.8241 67.485 64.3312 63.7861 67.5022 59.0403C70.6732 54.2944 72.3656 48.7149 72.3656 43.0072C72.357 35.3562 69.3138 28.021 63.9037 22.6109C58.4936 17.2008 51.1584 14.1576 43.5074 14.149Z" fill="#00D69B"/>
<path d="M65.8878 43.007C65.888 47.4335 64.5757 51.7606 62.1166 55.4413C59.6576 59.1219 56.1623 61.9907 52.0728 63.6848C47.9834 65.3789 43.4834 65.8223 39.1419 64.9589C34.8004 64.0954 30.8125 61.964 27.6824 58.834C24.5523 55.7041 22.4207 51.7163 21.5571 47.3748C20.6934 43.0334 21.1366 38.5334 22.8305 34.4438C24.5245 30.3542 27.3931 26.8588 31.0736 24.3996C34.7541 21.9404 39.0812 20.6279 43.5077 20.6279C49.4431 20.628 55.1353 22.9858 59.3323 27.1826C63.5294 31.3795 65.8874 37.0716 65.8878 43.007Z" fill="#DBFFF5"/>
<path d="M43.5065 65.9764C39.7333 65.9764 36.0182 65.0469 32.6895 63.27C29.3609 61.4931 26.5213 58.9235 24.4216 55.7884C22.322 52.6533 21.0271 49.0493 20.6513 45.2948C20.2755 41.5403 20.8305 37.7511 22.2671 34.2621C23.7037 30.773 25.9777 27.6916 28.8881 25.2903C31.7985 22.8889 35.2557 21.2415 38.9541 20.4937C42.6525 19.7459 46.4781 19.9207 50.0929 21.0027C53.7076 22.0847 57.0002 24.0406 59.6794 26.6974C59.788 26.8081 59.8486 26.957 59.8482 27.112C59.8477 27.267 59.7863 27.4156 59.6772 27.5256C59.5681 27.6357 59.42 27.6984 59.2651 27.7001C59.1101 27.7019 58.9606 27.6425 58.8491 27.535C55.272 23.9883 50.5766 21.7905 45.5618 21.3156C40.5469 20.8406 35.5224 22.1178 31.3431 24.9298C27.1638 27.7418 24.0878 31.915 22.6385 36.7393C21.1893 41.5636 21.4562 46.741 23.394 51.3907C25.3317 56.0403 28.8206 59.875 33.2669 62.2423C37.7133 64.6096 42.8425 65.3632 47.7819 64.375C52.7213 63.3868 57.1658 60.7178 60.3591 56.822C63.5525 52.9263 65.2974 48.0445 65.2971 43.0072C65.2972 41.8734 65.21 40.7413 65.0364 39.6209C65.0245 39.5445 65.0277 39.4664 65.046 39.3912C65.0642 39.3161 65.0971 39.2452 65.1427 39.1827C65.1883 39.1202 65.2458 39.0674 65.3119 39.0271C65.3779 38.9868 65.4513 38.96 65.5277 38.948C65.6041 38.9361 65.6822 38.9394 65.7574 38.9576C65.8325 38.9758 65.9034 39.0087 65.9659 39.0543C66.0284 39.1 66.0812 39.1574 66.1215 39.2235C66.1618 39.2896 66.1886 39.3629 66.2006 39.4393C66.3835 40.6198 66.4755 41.8126 66.4756 43.0072C66.4685 49.0968 64.0463 54.935 59.7403 59.241C55.4343 63.547 49.5961 65.9692 43.5065 65.9764Z" fill="#00D69B"/>
<path d="M64.3205 31.0032C63.9533 30.6359 63.5173 30.3446 63.0375 30.1458C62.5577 29.947 62.0434 29.8447 61.5241 29.8447C61.0047 29.8447 60.4904 29.947 60.0106 30.1458C59.5308 30.3446 59.0949 30.6359 58.7277 31.0032L42.0568 47.6734L35.6128 41.2294C34.8685 40.5012 33.867 40.096 32.8258 40.1016C31.7845 40.1072 30.7875 40.5233 30.0511 41.2595C29.3147 41.9958 28.8985 42.9927 28.8926 44.034C28.8868 45.0753 29.2919 46.0768 30.02 46.8212L39.2602 56.0628C39.6272 56.4303 40.0631 56.7219 40.5429 56.9208C41.0227 57.1197 41.537 57.2221 42.0564 57.2221C42.5758 57.2221 43.0901 57.1197 43.57 56.9208C44.0498 56.7219 44.4856 56.4303 44.8527 56.0628L64.3205 36.5953C65.062 35.8538 65.4786 34.848 65.4786 33.7993C65.4786 32.7506 65.062 31.7448 64.3205 31.0032Z" fill="white"/>
<path d="M42.0553 57.8114C41.4583 57.8135 40.8668 57.6969 40.3152 57.4684C39.7636 57.2399 39.263 56.904 38.8424 56.4803L29.6021 47.2377C28.7501 46.3856 28.2715 45.23 28.2715 44.025C28.2715 43.4283 28.389 42.8375 28.6174 42.2863C28.8457 41.7351 29.1804 41.2342 29.6023 40.8123C30.0242 40.3905 30.5251 40.0558 31.0763 39.8275C31.6276 39.5992 32.2184 39.4817 32.815 39.4817C34.02 39.4817 35.1757 39.9604 36.0277 40.8125L42.0553 46.8398L58.3098 30.5863C59.1626 29.7356 60.318 29.2578 61.5226 29.2578C62.7272 29.2578 63.8826 29.7356 64.7354 30.5863C65.5874 31.4384 66.0661 32.5941 66.0661 33.7991C66.0661 35.0041 65.5874 36.1598 64.7354 37.0118L45.2679 56.4793C44.8474 56.9031 44.3468 57.2392 43.7953 57.4678C43.2438 57.6965 42.6523 57.8133 42.0553 57.8114ZM32.8151 40.662C32.1494 40.6617 31.4986 40.8589 30.945 41.2286C30.3914 41.5983 29.9599 42.1239 29.7051 42.7389C29.4503 43.3538 29.3836 44.0306 29.5135 44.6835C29.6434 45.3364 29.9641 45.9361 30.4349 46.4067L39.6751 55.6479C40.316 56.2604 41.1684 56.6022 42.055 56.6022C42.9415 56.6022 43.7939 56.2604 44.4348 55.6479L63.9023 36.1805C64.2148 35.868 64.4628 35.4969 64.632 35.0886C64.8011 34.6803 64.8882 34.2426 64.8882 33.8006C64.8882 33.3586 64.8011 32.9209 64.632 32.5126C64.4628 32.1043 64.2148 31.7333 63.9023 31.4208C63.2613 30.8083 62.4089 30.4665 61.5224 30.4665C60.6359 30.4665 59.7835 30.8083 59.1426 31.4208L42.4717 48.0903C42.417 48.145 42.352 48.1884 42.2806 48.218C42.2091 48.2476 42.1325 48.2628 42.0551 48.2628C41.9778 48.2628 41.9012 48.2476 41.8297 48.218C41.7582 48.1884 41.6933 48.145 41.6386 48.0903L35.1946 41.6449C34.8821 41.3326 34.5111 41.085 34.1028 40.9164C33.6945 40.7477 33.2569 40.6613 32.8151 40.662Z" fill="#00D69B"/>
</svg>
