<svg width="89" height="164" viewBox="0 0 89 164" fill="none" xmlns="http://www.w3.org/2000/svg">
<path d="M6.38239 124.093C8.71353 130.064 11.6623 135.795 15.2135 141.139C18.7705 146.492 22.9069 151.622 27.7565 155.866C32.501 160.018 38.2706 163.491 44.6998 163.952C51.0067 164.404 56.9713 161.624 61.5226 157.407C66.554 152.744 69.6692 146.494 71.9487 140.122C74.515 132.95 76.435 125.506 78.2785 118.121C82.0649 102.96 84.8913 87.5612 86.7463 72.0465C87.7732 63.4605 88.5057 57.5922 88.7581 49.2827C89.326 30.5811 89.5115 19.2336 81.9559 10.7868C80.7683 9.45939 75.0581 3.32408 66.3245 2.36668C59.3368 1.60001 52.6494 4.62476 46.8474 8.20258C41.4603 11.5267 36.4079 15.4097 31.7648 19.7046C22.5646 28.2143 14.9401 38.4348 9.4689 49.6965C3.95755 61.0384 0.666425 73.4234 0.0927249 86.0259C-0.496274 98.9602 1.6704 112.026 6.38239 124.091V124.093Z" fill="#81EEFF"/>
<path d="M48.8326 39.7183C52.2863 40.1055 55.6845 40.7825 59.0139 41.759C59.251 36.7222 59.6201 31.693 60.1249 26.6772C60.211 25.8152 61.5745 25.8076 61.4865 26.6772C60.953 31.9925 60.5686 37.321 60.3334 42.6573C60.3142 43.0826 59.9107 43.4487 59.4709 43.3114C55.9981 42.2358 52.445 41.4806 48.8326 41.0762C47.972 40.979 47.9625 39.6211 48.8326 39.7183Z" fill="#0E0E0E"/>
<path d="M53.1419 67.4121C56.4005 67.0593 59.7796 66.8076 62.8279 68.1044C63.1989 65.0778 63.5699 62.0511 63.9409 59.0245C64.046 58.1682 65.4076 58.1586 65.3024 59.0245C64.8894 62.3887 64.4763 65.7548 64.0652 69.1191C64.004 69.6225 63.5335 69.9735 63.0401 69.7045C60.0034 68.051 56.4522 68.4096 53.1419 68.7681C52.2718 68.8616 52.2794 67.5037 53.1419 67.4102V67.4121Z" fill="#0E0E0E"/>
<path d="M15.2752 60.5541C17.9907 60.2413 20.7387 59.9323 23.4695 60.2546C25.6209 60.5083 27.5734 61.2368 29.4972 62.1408C29.4035 55.8758 29.9772 49.6261 31.1992 43.4774C31.3694 42.6211 32.6813 42.9834 32.5111 43.8379C31.2413 50.2268 30.702 56.7226 30.8798 63.2336C30.8951 63.7771 30.2985 64.0403 29.8548 63.8191C27.5447 62.6653 25.2404 61.7231 22.6358 61.5286C20.1765 61.3455 17.7134 61.6278 15.2733 61.9081C14.4051 62.0073 14.4127 60.6494 15.2733 60.5502L15.2752 60.5541Z" fill="#0E0E0E"/>
<path d="M32.0048 95.4662C34.0759 95.8972 36.145 96.3302 38.2161 96.7612L41.3217 97.4096C41.6392 97.4764 42.3869 97.7891 42.6527 97.688C42.8459 97.9283 42.9109 97.8215 42.8478 97.3715C42.8898 97.0663 42.93 96.7612 42.9702 96.4541C43.5075 92.4319 44.0009 88.404 44.458 84.3704C44.5555 83.5122 45.9171 83.5026 45.8195 84.3704C45.5461 86.7906 45.2592 89.2069 44.9571 91.6233C44.8098 92.7943 44.6607 93.9653 44.5077 95.1363C44.3776 96.1299 44.4235 97.5031 44.0372 98.4337C43.7925 99.025 43.3297 99.1604 42.7349 99.0879C41.5512 98.9449 40.3541 98.592 39.1857 98.3479C36.6709 97.8235 34.1581 97.299 31.6453 96.7745C30.7886 96.5952 31.1519 95.2869 32.0068 95.4662H32.0048Z" fill="#0E0E0E"/>
<path d="M74.0538 12.9838C74.1724 11.5839 74.3139 10.186 74.4764 8.78994C74.7996 6.01122 75.2069 3.24394 75.6908 0.490004C75.8418 -0.368215 77.1537 -0.00585557 77.0026 0.850457C76.5647 3.33929 76.188 5.83957 75.8896 8.34939C75.6066 10.7238 75.2165 13.1955 75.2242 15.5909C75.228 16.9278 76.6412 17.4789 77.6356 18.1064C78.6013 18.7167 79.5747 19.3174 80.5519 19.9067C82.6306 21.1597 84.7399 22.3651 86.8722 23.5284C87.6409 23.948 86.9544 25.1209 86.1857 24.7013C83.8029 23.4007 81.4507 22.0485 79.133 20.6353C77.9741 19.9296 76.8229 19.2106 75.685 18.4726C74.9335 17.9862 74.1877 17.4713 73.9505 16.5559C73.6637 15.4478 73.9582 14.1014 74.0538 12.9838Z" fill="#0E0E0E"/>
<path d="M36.529 141.227C37.6783 136.512 38.5427 131.737 39.103 126.915C39.2025 126.057 40.566 126.048 40.4646 126.915C39.9215 131.582 39.1126 136.207 38.0321 140.777C41.1511 141.044 44.0483 142.386 46.2685 144.629C46.8843 145.251 45.9224 146.212 45.3066 145.588C43.14 143.399 40.2715 142.155 37.1869 142.085C36.7355 142.075 36.4238 141.66 36.5309 141.225L36.529 141.227Z" fill="#0E0E0E"/>
</svg>
