<svg width="35" height="48" viewBox="0 0 35 48" fill="none" xmlns="http://www.w3.org/2000/svg">
<path fill-rule="evenodd" clip-rule="evenodd" d="M7.69236 1.21856C8.18203 0.124072 9.44104 -0.314106 10.5044 0.239864C11.5678 0.793835 12.0329 2.13018 11.5432 3.22467L4.04573 19.9829C3.55606 21.0774 2.29705 21.5156 1.23366 20.9616C0.170268 20.4076 -0.294828 19.0713 0.194841 17.9768L7.69236 1.21856ZM31.2442 13.5008C32.2974 12.8332 33.6345 13.1798 34.2308 14.275C34.827 15.3702 34.4565 16.7993 33.4033 17.4669L12.5961 30.6563C11.5428 31.3239 10.2057 30.9773 9.60951 29.8821C9.0133 28.7869 9.38376 27.3578 10.437 26.6902L31.2442 13.5008ZM33.7348 44.9441C33.8263 43.6778 32.8749 42.5651 31.6098 42.4587L14.9351 41.0559C13.67 40.9495 12.5703 41.8897 12.4788 43.156C12.3873 44.4222 13.3387 45.535 14.6038 45.6414L31.2785 47.0441C32.5436 47.1505 33.6433 46.2103 33.7348 44.9441Z" fill="#F65EA7"/>
</svg>