<svg width="76" height="76" viewBox="0 0 76 76" fill="none" xmlns="http://www.w3.org/2000/svg">
<g clip-path="url(#clip0_7634_10521)">
<path d="M67.1991 23.9263L47.3469 22.0851L39.461 3.77339C38.9088 2.49118 37.0909 2.49118 36.5389 3.77339L28.653 22.085L8.80075 23.9263C7.41063 24.0552 6.84894 25.7842 7.89765 26.7055L22.8762 39.8639L18.4927 59.3136C18.1857 60.6755 19.6566 61.744 20.8569 61.0313L37.9999 50.8521L55.143 61.0313C56.3434 61.7441 57.814 60.6755 57.5072 59.3136L53.1235 39.8639L68.1022 26.7055C69.1509 25.7842 68.5891 24.0552 67.1991 23.9263Z" fill="#FFDC64"/>
<path d="M17.7052 3.14297C18.7173 4.54868 21.5738 10.5856 23.2069 14.1039C23.4637 14.657 22.7698 15.1566 22.3267 14.7376C19.5083 12.0728 14.6893 7.4487 13.6772 6.04285C12.8764 4.93061 13.1289 3.37973 14.2413 2.57891C15.3535 1.77808 16.9044 2.03073 17.7052 3.14297Z" fill="#FFF082"/>
<path d="M58.2946 3.14297C57.2826 4.54868 54.4261 10.5856 52.7929 14.1039C52.5362 14.657 53.2301 15.1566 53.6732 14.7376C56.4916 12.0728 61.3105 7.44856 62.3227 6.04285C63.1235 4.93061 62.871 3.37973 61.7586 2.57891C60.6464 1.77808 59.0955 2.03073 58.2946 3.14297Z" fill="#FFF082"/>
<path d="M74.2872 44.365C72.6404 43.828 66.0208 42.9408 62.1729 42.4539C61.568 42.3773 61.3029 43.1903 61.8365 43.4851C65.2317 45.3606 71.1014 48.5467 72.7482 49.0837C74.0512 49.5087 75.452 48.7969 75.877 47.4938C76.3019 46.1907 75.5902 44.79 74.2872 44.365Z" fill="#FFF082"/>
<path d="M1.71269 44.365C3.35946 43.828 9.97905 42.9408 13.827 42.4539C14.4319 42.3773 14.697 43.1903 14.1634 43.4851C10.7681 45.3606 4.89847 48.5467 3.2517 49.0837C1.94871 49.5087 0.547904 48.7969 0.122927 47.4938C-0.302051 46.1907 0.409708 44.79 1.71269 44.365Z" fill="#FFF082"/>
<path d="M35.5944 72.3724C35.5944 70.6403 36.8034 64.0719 37.5337 60.2626C37.6484 59.6638 38.5036 59.6638 38.6183 60.2626C39.3486 64.0719 40.5577 70.6403 40.5577 72.3724C40.5577 73.7429 39.4466 74.854 38.0761 74.854C36.7054 74.8541 35.5944 73.7429 35.5944 72.3724Z" fill="#FFF082"/>
<path d="M42.3285 10.4323L39.461 3.77339C38.9088 2.49118 37.0909 2.49118 36.5389 3.77339L28.6528 22.085L8.80075 23.9263C7.41063 24.0552 6.84894 25.7842 7.89765 26.7055L22.8762 39.8639L18.4927 59.3136C18.1857 60.6755 19.6566 61.744 20.8569 61.0313L23.1385 59.6765C26.879 35.4634 37.3946 17.6891 42.3285 10.4323Z" fill="#FFC850"/>
</g>
<defs>
<clipPath id="clip0_7634_10521">
<rect width="76" height="76" fill="white"/>
</clipPath>
</defs>
</svg>
