<svg width="25" height="20" viewBox="0 0 25 20" fill="none" xmlns="http://www.w3.org/2000/svg">
<path d="M8.04752 19.7503C17.1042 19.7503 22.0578 12.2469 22.0578 5.74003C22.0578 5.52691 22.0578 5.31475 22.0434 5.10355C23.007 4.40651 23.8389 3.54344 24.5 2.55475C23.6014 2.95315 22.648 3.21431 21.6718 3.32947C22.6998 2.71416 23.4692 1.74625 23.8366 0.605952C22.8701 1.17956 21.8126 1.58378 20.7099 1.80115C19.9675 1.01173 18.9856 0.488993 17.9162 0.313836C16.8468 0.138679 15.7494 0.320866 14.794 0.832205C13.8385 1.34354 13.0782 2.15553 12.6307 3.1425C12.1833 4.12947 12.0735 5.23642 12.3186 6.29203C10.3609 6.19383 8.44576 5.68506 6.69745 4.79876C4.94915 3.91245 3.40676 2.66841 2.1704 1.14739C1.54073 2.23139 1.34787 3.51462 1.6311 4.73581C1.91433 5.95701 2.65234 7.02435 3.69488 7.72051C2.91123 7.69755 2.14465 7.48615 1.46 7.10419V7.16659C1.46031 8.30344 1.85385 9.40519 2.57387 10.285C3.29389 11.1647 4.29606 11.7684 5.4104 11.9935C4.68548 12.1912 3.92487 12.2201 3.18704 12.078C3.50181 13.0563 4.11443 13.9118 4.93924 14.5249C5.76405 15.138 6.75983 15.478 7.78736 15.4975C6.76644 16.2999 5.59731 16.8933 4.34687 17.2435C3.09643 17.5937 1.78921 17.6939 0.5 17.5384C2.75183 18.9834 5.37192 19.7499 8.04752 19.7464" fill="#1DA1F2"/>
</svg>
