<svg width="300" height="196" viewBox="0 0 300 196" fill="none" xmlns="http://www.w3.org/2000/svg">
<g clip-path="url(#clip0_1132_58667)">
<path d="M261.661 183.202C272.033 183.202 280.441 181.028 280.441 178.345C280.441 175.662 272.033 173.487 261.661 173.487C251.289 173.487 242.881 175.662 242.881 178.345C242.881 181.028 251.289 183.202 261.661 183.202Z" fill="#232323"/>
</g>
<g clip-path="url(#clip1_1132_58667)">
<path d="M219.286 41.4513L218.832 50.9106L246.76 19.76L219.286 41.4513Z" fill="#232323"/>
<path d="M218.831 51.2708C218.782 51.2707 218.734 51.2608 218.689 51.2416C218.644 51.2225 218.604 51.1944 218.57 51.1591C218.537 51.1238 218.51 51.0821 218.493 51.0364C218.476 50.9907 218.469 50.9421 218.471 50.8934L218.925 41.4339C218.927 41.3825 218.941 41.3322 218.964 41.2865C218.988 41.2407 219.021 41.2005 219.061 41.1686L246.536 19.4774C246.607 19.4215 246.696 19.3942 246.786 19.4009C246.876 19.4076 246.96 19.4477 247.022 19.5134C247.084 19.5792 247.119 19.6656 247.12 19.7558C247.121 19.8459 247.088 19.9332 247.028 20.0003L219.099 51.151C219.065 51.1887 219.024 51.2188 218.978 51.2395C218.932 51.2601 218.882 51.2708 218.831 51.2708ZM219.637 41.6322L219.239 49.9157L243.696 22.6377L219.637 41.6322Z" fill="#232323"/>
<path d="M247.56 18.884L232.793 53.7437L219.404 41.5713L206.75 35.456L247.56 18.884Z" fill="#00FFB9"/>
<path d="M217.294 43.4544C217.219 43.4544 217.146 43.4312 217.085 43.3879C217.024 43.3447 216.978 43.2835 216.954 43.2129C216.929 43.1423 216.927 43.0657 216.948 42.9939C216.969 42.9221 217.011 42.8586 217.07 42.8121L250.102 16.6332C250.139 16.6029 250.182 16.5802 250.228 16.5666C250.273 16.5529 250.321 16.5485 250.369 16.5536C250.416 16.5587 250.463 16.5731 250.504 16.5962C250.546 16.6193 250.583 16.6504 250.613 16.6879C250.643 16.7253 250.665 16.7683 250.677 16.8143C250.69 16.8604 250.694 16.9085 250.688 16.9559C250.682 17.0033 250.667 17.0491 250.643 17.0906C250.619 17.1321 250.588 17.1684 250.55 17.1975L217.518 43.3765C217.454 43.427 217.375 43.4545 217.294 43.4544Z" fill="white"/>
<path d="M192.687 156.576C192.568 156.576 192.451 156.517 192.383 156.409C186.294 146.871 182.36 136.851 180.691 126.626C179.215 117.594 179.495 108.389 181.521 99.2663C183.742 89.2657 188.094 79.3946 194.106 70.7201C199.268 63.2719 205.346 57.1158 211.22 53.3858C211.301 53.3345 211.398 53.3174 211.491 53.3382C211.585 53.359 211.666 53.416 211.717 53.4966C211.768 53.5772 211.786 53.6749 211.765 53.7681C211.744 53.8613 211.687 53.9425 211.606 53.9937C205.895 57.6199 199.733 63.866 194.698 71.1302C188.739 79.7286 184.425 89.5119 182.224 99.4223C180.218 108.455 179.941 117.569 181.402 126.51C183.056 136.638 186.954 146.567 192.99 156.022C193.025 156.076 193.044 156.139 193.046 156.203C193.048 156.268 193.033 156.332 193.002 156.388C192.971 156.445 192.926 156.492 192.87 156.525C192.815 156.558 192.751 156.575 192.687 156.576Z" fill="#232323"/>
<path d="M209.86 122.368C209.794 122.368 209.729 122.35 209.672 122.316C209.616 122.281 209.57 122.232 209.539 122.173C205.767 114.881 203.751 106.881 203.548 98.3948C203.386 91.6127 204.376 84.5079 206.489 77.2778C210.086 64.975 215.777 56.4489 215.834 56.3643C215.861 56.3245 215.895 56.2904 215.934 56.2638C215.973 56.2372 216.018 56.2187 216.065 56.2094C216.111 56.2001 216.159 56.2001 216.206 56.2094C216.253 56.2187 216.297 56.2372 216.337 56.2638C216.376 56.2904 216.41 56.3246 216.436 56.3643C216.462 56.404 216.48 56.4485 216.489 56.4953C216.498 56.542 216.498 56.5901 216.488 56.6367C216.478 56.6832 216.459 56.7274 216.432 56.7666C216.375 56.8505 210.738 65.3 207.175 77.501C205.085 84.6573 204.107 91.6856 204.269 98.3908C204.471 106.762 206.459 114.652 210.179 121.843C210.208 121.898 210.221 121.959 210.219 122.021C210.217 122.082 210.199 122.143 210.167 122.195C210.135 122.248 210.09 122.292 210.036 122.322C209.982 122.352 209.921 122.368 209.86 122.368Z" fill="#232323"/>
</g>
<g clip-path="url(#clip2_1132_58667)">
<path d="M173.628 178.634H170.168C170.072 178.634 169.978 178.615 169.889 178.579C169.801 178.542 169.721 178.488 169.653 178.421C169.585 178.353 169.532 178.273 169.495 178.184C169.459 178.096 169.44 178.001 169.44 177.905V174.443C169.44 174.25 169.516 174.065 169.653 173.928C169.79 173.791 169.975 173.715 170.168 173.715H173.628C173.821 173.715 174.006 173.791 174.143 173.928C174.28 174.065 174.356 174.25 174.356 174.443V177.905C174.356 178.099 174.28 178.284 174.143 178.421C174.006 178.557 173.821 178.634 173.628 178.634ZM184.198 177.527H180.739C180.643 177.527 180.548 177.509 180.46 177.472C180.371 177.435 180.291 177.382 180.224 177.314C180.156 177.246 180.102 177.166 180.066 177.077C180.029 176.989 180.01 176.894 180.01 176.799V173.337C180.01 173.143 180.087 172.958 180.224 172.821C180.36 172.684 180.545 172.608 180.739 172.608H184.198C184.392 172.608 184.577 172.684 184.714 172.821C184.85 172.958 184.927 173.143 184.927 173.337V176.799C184.927 176.992 184.85 177.177 184.713 177.314C184.577 177.451 184.392 177.527 184.198 177.527ZM163.057 177.527H159.598C159.502 177.527 159.407 177.509 159.319 177.472C159.23 177.435 159.15 177.382 159.082 177.314C159.015 177.246 158.961 177.166 158.925 177.077C158.888 176.989 158.869 176.894 158.869 176.799V173.337C158.869 173.143 158.946 172.958 159.082 172.821C159.219 172.684 159.404 172.608 159.598 172.608H163.057C163.251 172.608 163.436 172.684 163.572 172.821C163.709 172.958 163.786 173.143 163.786 173.337V176.799C163.786 176.992 163.709 177.177 163.572 177.314C163.436 177.451 163.251 177.527 163.057 177.527ZM194.769 177.527H191.309C191.213 177.527 191.119 177.509 191.03 177.472C190.942 177.435 190.862 177.382 190.794 177.314C190.726 177.246 190.673 177.166 190.636 177.077C190.6 176.989 190.581 176.894 190.581 176.799V173.337C190.581 173.143 190.657 172.958 190.794 172.821C190.931 172.684 191.116 172.608 191.309 172.608H194.769C194.962 172.608 195.147 172.684 195.284 172.821C195.421 172.958 195.497 173.143 195.497 173.337V176.799C195.497 176.992 195.421 177.177 195.284 177.314C195.147 177.451 194.962 177.527 194.769 177.527Z" fill="#232323"/>
<path d="M203.367 177.327L232.864 111.738L283.59 111.436L253.871 177.943L203.367 177.327Z" fill="white"/>
<path d="M253.869 178.312H253.864L203.36 177.696C203.299 177.695 203.239 177.679 203.186 177.649C203.132 177.619 203.087 177.577 203.054 177.525C203.021 177.473 203.001 177.414 202.997 177.353C202.993 177.292 203.003 177.231 203.029 177.175L232.525 111.586C232.554 111.522 232.601 111.467 232.66 111.428C232.72 111.39 232.789 111.369 232.859 111.368L283.586 111.067H283.588C283.65 111.067 283.71 111.082 283.764 111.111C283.818 111.141 283.864 111.183 283.898 111.235C283.931 111.287 283.951 111.346 283.956 111.407C283.961 111.468 283.95 111.53 283.925 111.586L254.205 178.093C254.176 178.158 254.129 178.214 254.069 178.252C254.01 178.291 253.94 178.312 253.869 178.312ZM203.932 176.965L253.631 177.571L283.018 111.808L233.1 112.105L203.932 176.965Z" fill="#232323"/>
<path d="M253.534 179.725C252.612 179.724 251.865 178.976 251.865 178.054C251.865 177.826 251.912 177.6 252.003 177.391L280.985 113.472C281.173 113.038 280.852 112.554 280.379 112.558L235.11 113.065C234.8 113.067 234.498 113.158 234.239 113.327C233.98 113.495 233.774 113.734 233.645 114.015L204.566 178.095C204.203 178.943 203.222 179.337 202.375 178.974C201.527 178.611 201.134 177.629 201.496 176.781L231.438 110.746C231.567 110.446 231.781 110.189 232.054 110.009C232.327 109.829 232.647 109.733 232.974 109.733L283.923 109.208C284.845 109.208 285.592 109.957 285.592 110.879C285.592 111.107 285.546 111.333 285.455 111.542L255.069 178.717C254.939 179.017 254.725 179.272 254.452 179.451C254.179 179.63 253.86 179.725 253.534 179.725Z" fill="white"/>
<path d="M253.537 180.094H253.535C253.267 180.094 253.002 180.042 252.755 179.939C252.507 179.836 252.283 179.686 252.094 179.496C251.904 179.307 251.754 179.082 251.652 178.834C251.549 178.587 251.497 178.321 251.498 178.053C251.498 177.773 251.554 177.501 251.665 177.244L280.65 113.32C280.703 113.198 280.649 113.094 280.623 113.055C280.597 113.016 280.561 112.984 280.519 112.961C280.477 112.939 280.431 112.927 280.383 112.927L235.115 113.434C234.876 113.436 234.642 113.507 234.442 113.637C234.241 113.767 234.082 113.951 233.982 114.169L204.903 178.248C204.692 178.741 204.296 179.128 203.791 179.331C203.542 179.432 203.277 179.482 203.009 179.479C202.741 179.475 202.476 179.419 202.231 179.313C201.197 178.871 200.716 177.67 201.158 176.636L231.104 110.594C231.422 109.849 232.157 109.364 232.974 109.364H232.975L283.921 108.839C284.469 108.839 284.981 109.052 285.366 109.437C285.751 109.822 285.963 110.334 285.962 110.879C285.962 111.159 285.906 111.431 285.795 111.688L255.406 178.869C255.085 179.611 254.351 180.094 253.537 180.094ZM280.386 112.189C280.554 112.189 280.721 112.231 280.869 112.31C281.018 112.39 281.145 112.506 281.238 112.647C281.332 112.789 281.39 112.952 281.405 113.122C281.42 113.291 281.393 113.462 281.325 113.619L252.34 177.543C252.27 177.704 252.235 177.878 252.235 178.054C252.235 178.401 252.37 178.728 252.616 178.974C252.861 179.22 253.188 179.355 253.535 179.355H253.537C254.057 179.355 254.525 179.048 254.731 178.57L285.121 111.389C285.189 111.231 285.225 111.057 285.225 110.879C285.225 110.531 285.09 110.204 284.844 109.959C284.724 109.837 284.58 109.741 284.422 109.676C284.264 109.61 284.095 109.577 283.924 109.577L232.979 110.102H232.978C232.453 110.102 231.983 110.412 231.778 110.891L201.833 176.933C201.554 177.586 201.862 178.352 202.521 178.635C202.678 178.702 202.847 178.738 203.017 178.74C203.188 178.742 203.358 178.71 203.516 178.646C203.675 178.583 203.82 178.489 203.942 178.369C204.064 178.25 204.162 178.107 204.228 177.95L233.311 113.863C233.632 113.16 234.337 112.702 235.107 112.696L280.376 112.189H280.386Z" fill="#232323"/>
<path d="M143.862 180.254C142.368 179.896 141.447 178.393 141.806 176.898C141.952 176.289 142.299 175.747 142.79 175.36C143.281 174.973 143.889 174.762 144.515 174.763L253.501 174.866C255.038 174.866 256.284 176.112 256.284 177.65C256.285 179.187 255.039 180.434 253.503 180.434L144.515 180.331C144.295 180.331 144.076 180.305 143.862 180.254Z" fill="white"/>
<path d="M253.504 180.804L144.515 180.7C144.268 180.7 144.019 180.671 143.778 180.614L143.778 180.613C142.088 180.208 141.043 178.502 141.449 176.812C141.612 176.122 142.004 175.508 142.56 175.069C143.116 174.63 143.805 174.392 144.513 174.394H144.516L253.503 174.498H253.503C255.24 174.498 256.654 175.911 256.654 177.65C256.655 179.388 255.242 180.803 253.504 180.804ZM143.949 179.896C144.135 179.94 144.325 179.963 144.516 179.963L253.504 180.066C254.834 180.065 255.917 178.982 255.917 177.65C255.916 176.318 254.834 175.235 253.503 175.235H253.502L144.515 175.132H144.513C143.97 175.131 143.443 175.313 143.017 175.649C142.591 175.985 142.291 176.456 142.166 176.984C141.855 178.279 142.655 179.585 143.949 179.896Z" fill="#232323"/>
<path d="M250.047 178.739C250.6 178.739 251.048 178.29 251.048 177.736C251.048 177.183 250.6 176.734 250.047 176.734C249.493 176.734 249.045 177.183 249.045 177.736C249.045 178.29 249.493 178.739 250.047 178.739Z" fill="#6875F5"/>
<path d="M245.377 178.536H245.371L238.514 178.491C238.397 178.49 238.281 178.467 238.173 178.421C238.065 178.376 237.968 178.309 237.886 178.226C237.72 178.058 237.627 177.831 237.629 177.594C237.63 177.358 237.726 177.132 237.894 176.966C238.062 176.8 238.289 176.708 238.525 176.709L245.382 176.754C245.499 176.754 245.615 176.778 245.723 176.823C245.83 176.868 245.928 176.934 246.011 177.017C246.093 177.1 246.159 177.198 246.203 177.306C246.247 177.415 246.27 177.531 246.27 177.648C246.269 177.884 246.174 178.11 246.007 178.277C245.839 178.443 245.613 178.536 245.377 178.536Z" fill="#6875F5"/>
<path d="M238.418 158.393L230.243 141.107C230.198 141.045 230.171 140.972 230.165 140.896C230.159 140.82 230.175 140.744 230.209 140.676C230.244 140.608 230.296 140.551 230.361 140.512C230.426 140.472 230.501 140.451 230.577 140.451L237.086 140.45C237.309 140.449 237.528 140.502 237.727 140.604C237.926 140.705 238.098 140.852 238.229 141.033L240.416 145.717C240.467 145.788 240.534 145.847 240.612 145.888C240.689 145.929 240.775 145.952 240.862 145.955C240.95 145.958 241.037 145.942 241.117 145.906C241.197 145.87 241.268 145.817 241.324 145.75L251.133 135.832C251.288 135.647 251.481 135.499 251.7 135.398C251.918 135.297 252.157 135.245 252.397 135.246L260.661 135.287C260.755 135.287 260.847 135.315 260.927 135.366C261.006 135.417 261.069 135.489 261.109 135.575C261.148 135.66 261.163 135.755 261.15 135.849C261.138 135.942 261.099 136.03 261.038 136.103L239.327 158.425C239.27 158.493 239.199 158.546 239.119 158.582C239.039 158.617 238.952 158.634 238.865 158.631C238.777 158.628 238.691 158.605 238.614 158.564C238.537 158.522 238.47 158.464 238.418 158.393Z" fill="#00FFB9"/>
</g>
<g clip-path="url(#clip3_1132_58667)">
<path d="M99.5983 137.189C99.5983 137.189 118.396 125.868 126.197 113.519C126.197 113.519 125.105 106.736 125.983 101.764C126.663 97.9119 129.496 95.3061 134.37 97.4588C136.75 95.6461 143.551 95.3063 144.911 98.3651C146.752 98.4001 148.765 99.6113 148.765 101.877C150.692 102.33 151.938 104.256 151.372 106.182C155.565 108.788 146.629 127.071 145.251 129.634C137.09 144.815 127.18 160.677 109.173 174.873C92.1236 188.315 66.3092 186.275 57.3042 180.634C16.8201 155.276 68.6205 81.6279 90.2025 75.0241C107.852 69.6236 103.41 101.067 87.561 142.59C94.0447 140.43 99.5983 137.189 99.5983 137.189Z" fill="white"/>
<path d="M77.3811 185.337C69.2405 185.337 61.5023 183.687 57.1149 180.939C50.9205 177.059 46.56 171.844 44.1547 165.439C41.9893 159.673 41.3965 152.928 42.3928 145.391C46.3787 115.236 75.0616 79.2813 90.0991 74.6801C93.9331 73.5069 96.8954 74.0008 98.9037 76.1484C102.256 79.7325 102.846 87.775 100.659 100.053C98.6695 111.221 94.3554 125.712 88.1723 142.002C94.1849 139.904 99.2822 136.958 99.4164 136.879C99.5366 136.807 104.212 133.972 109.761 129.694C114.882 125.746 121.81 119.731 125.822 113.44C125.668 112.431 124.809 106.348 125.63 101.701C126.029 99.4429 127.11 97.7394 128.675 96.905C130.211 96.0862 132.162 96.136 134.327 97.0476C136.103 95.836 139.624 95.3612 142.175 96.0143C143.614 96.3826 144.634 97.0718 145.142 98.0147C147.035 98.1395 148.967 99.3979 149.117 101.6C150.063 101.893 150.872 102.529 151.365 103.377C151.839 104.192 151.985 105.126 151.784 106.034C153.472 107.408 153.123 111.446 150.741 118.046C148.794 123.445 146.167 128.694 145.57 129.804C137.413 144.979 127.385 160.976 109.398 175.156C105.348 178.35 100.589 180.847 95.2551 182.58C90.5348 184.113 85.4832 185.018 80.2409 185.269C79.2883 185.315 78.3348 185.337 77.3811 185.337ZM93.8074 74.7838C92.7515 74.7838 91.5846 74.9786 90.3099 75.3685C83.0685 77.5843 72.2524 87.5577 62.7546 100.777C57.7859 107.692 53.4144 115.186 50.1123 122.447C46.4079 130.593 44.0508 138.344 43.107 145.485C42.1264 152.904 42.7058 159.532 44.8291 165.186C47.1777 171.44 51.44 176.535 57.4975 180.329C62.2801 183.325 71.1937 184.982 80.2067 184.55C85.385 184.302 90.3733 183.409 95.0328 181.895C100.286 180.189 104.969 177.731 108.952 174.591C126.835 160.492 136.815 144.57 144.936 129.463C145.527 128.363 148.131 123.159 150.064 117.802C152.346 111.476 152.744 107.458 151.184 106.488C151.117 106.447 151.065 106.384 151.037 106.311C151.009 106.237 151.006 106.156 151.028 106.081C151.261 105.288 151.16 104.457 150.742 103.739C150.302 102.982 149.552 102.432 148.684 102.228C148.605 102.209 148.535 102.164 148.484 102.101C148.434 102.037 148.407 101.958 148.407 101.877C148.407 99.8732 146.603 98.7575 144.906 98.7251C144.838 98.7238 144.771 98.703 144.714 98.6652C144.657 98.6274 144.612 98.574 144.584 98.5115C144.112 97.4508 142.917 96.9473 141.996 96.7118C139.585 96.0945 136.124 96.5775 134.59 97.7453C134.539 97.7843 134.478 97.8088 134.414 97.8164C134.35 97.8239 134.285 97.8141 134.227 97.7881C132.195 96.8908 130.393 96.8053 129.014 97.5402C127.649 98.2682 126.699 99.7905 126.339 101.827C125.482 106.68 126.543 113.394 126.554 113.461C126.568 113.548 126.55 113.637 126.503 113.711C122.446 120.134 115.395 126.261 110.194 130.27C104.568 134.606 99.8334 137.469 99.7862 137.497L99.7819 137.5C99.7261 137.532 94.1213 140.785 87.6769 142.932C87.6122 142.954 87.5427 142.956 87.4765 142.94C87.4103 142.924 87.3501 142.889 87.3029 142.84C87.2557 142.79 87.2235 142.729 87.2099 142.662C87.1964 142.595 87.2021 142.526 87.2264 142.462C93.5392 125.923 97.9389 111.214 99.9496 99.9264C102.065 88.0537 101.521 80.0014 98.3773 76.64C97.2211 75.4037 95.6911 74.7838 93.8074 74.7838ZM99.6003 137.189H99.6015H99.6003Z" fill="#232323"/>
<path d="M133.553 103.381C131.624 103.381 129.577 102.376 129.449 102.313C129.364 102.27 129.299 102.195 129.269 102.105C129.238 102.014 129.245 101.915 129.288 101.83C129.331 101.744 129.405 101.679 129.496 101.649C129.587 101.619 129.686 101.626 129.771 101.668C129.782 101.674 130.866 102.209 132.142 102.491C133.257 102.737 134.755 102.836 135.559 101.91C136 101.402 136.163 100.808 136.041 100.145C135.871 99.2128 135.137 98.2532 134.215 97.7573C134.174 97.7349 134.137 97.7045 134.107 97.6679C134.077 97.6312 134.055 97.5891 134.041 97.5438C134.027 97.4985 134.023 97.451 134.028 97.404C134.032 97.3569 134.046 97.3113 134.069 97.2697C134.114 97.1856 134.191 97.123 134.282 97.0955C134.374 97.0681 134.473 97.0781 134.557 97.1233C135.661 97.7173 136.542 98.8799 136.75 100.016C136.91 100.892 136.687 101.71 136.104 102.382C135.454 103.129 134.518 103.381 133.553 103.381Z" fill="#232323"/>
<path d="M136.752 110.847C136.744 110.847 136.737 110.847 136.73 110.847C136.682 110.844 135.552 110.765 134.818 109.651C133.927 108.298 134.03 106.085 135.123 103.075C135.868 101.022 137.52 99.5533 140.033 98.7087C142.358 97.9277 144.552 97.9852 144.969 98.0045C145.016 98.0067 145.062 98.0182 145.105 98.0383C145.148 98.0584 145.186 98.0868 145.218 98.1217C145.25 98.1567 145.275 98.1976 145.291 98.2421C145.307 98.2866 145.314 98.3338 145.312 98.381C145.302 98.5796 145.134 98.7345 144.935 98.7239C144.541 98.7056 142.465 98.6514 140.263 99.3914C137.968 100.162 136.466 101.484 135.8 103.321C134.546 106.775 134.896 108.447 135.411 109.241C135.94 110.058 136.741 110.126 136.775 110.128C136.87 110.135 136.958 110.179 137.021 110.251C137.083 110.323 137.115 110.416 137.109 110.511C137.103 110.602 137.063 110.687 136.997 110.75C136.93 110.812 136.843 110.847 136.752 110.847Z" fill="#232323"/>
<path d="M139.472 114.02C139.458 114.02 139.444 114.019 139.429 114.017C139.382 114.012 138.268 113.869 137.53 112.742C136.724 111.515 136.689 109.654 137.427 107.211C138.232 104.544 139.654 102.695 141.655 101.717C145.019 100.073 148.766 101.484 148.924 101.545C149.013 101.579 149.085 101.647 149.123 101.735C149.162 101.822 149.165 101.921 149.13 102.01C149.096 102.099 149.028 102.171 148.94 102.21C148.853 102.248 148.754 102.251 148.665 102.217C148.626 102.202 145.043 100.859 141.967 102.366C140.156 103.253 138.86 104.954 138.116 107.419C137.456 109.606 137.458 111.305 138.123 112.333C138.671 113.182 139.482 113.298 139.516 113.302C139.61 113.315 139.696 113.364 139.754 113.439C139.813 113.514 139.839 113.61 139.828 113.704C139.817 113.791 139.775 113.871 139.71 113.929C139.644 113.987 139.56 114.019 139.472 114.02Z" fill="#232323"/>
<path d="M141.744 117.429C141.376 117.429 141.119 117.321 141.027 117.275C140.867 117.214 140.26 116.938 139.845 116.121C139.211 114.869 139.314 113.01 140.152 110.596C141.044 108.025 142.495 106.308 144.463 105.493C147.778 104.12 151.324 105.805 151.473 105.877C151.558 105.919 151.624 105.993 151.654 106.083C151.685 106.173 151.679 106.271 151.638 106.357C151.596 106.442 151.523 106.508 151.433 106.54C151.343 106.571 151.245 106.566 151.159 106.525C151.125 106.509 147.746 104.91 144.734 106.16C142.966 106.894 141.654 108.466 140.832 110.832C139.881 113.572 140.112 115.027 140.473 115.766C140.799 116.432 141.263 116.596 141.283 116.602C141.304 116.61 141.33 116.62 141.349 116.631C141.358 116.636 141.696 116.807 142.204 116.624C142.765 116.423 143.612 115.762 144.462 113.757C144.899 112.504 146.377 110.364 148.876 111.164C148.921 111.178 148.964 111.201 149.001 111.231C149.037 111.261 149.068 111.299 149.09 111.341C149.112 111.383 149.126 111.43 149.13 111.477C149.134 111.525 149.129 111.573 149.114 111.618C149.1 111.664 149.076 111.706 149.045 111.742C149.014 111.778 148.976 111.808 148.934 111.83C148.891 111.851 148.845 111.864 148.797 111.868C148.749 111.871 148.701 111.865 148.656 111.85C146.196 111.062 145.181 113.883 145.139 114.004C145.137 114.011 145.134 114.019 145.13 114.026C144.355 115.858 143.44 116.964 142.411 117.314C142.163 117.399 141.938 117.429 141.744 117.429Z" fill="#232323"/>
<path d="M135.166 115.719C135.093 115.719 135.023 115.697 134.963 115.657C134.903 115.616 134.857 115.558 134.831 115.491C134.804 115.424 134.798 115.351 134.814 115.28C134.83 115.21 134.866 115.146 134.919 115.096C134.998 115.023 136.882 113.289 139.617 113.528C139.815 113.545 139.962 113.719 139.945 113.917C139.928 114.115 139.753 114.261 139.555 114.245C137.148 114.037 135.428 115.606 135.411 115.622C135.345 115.684 135.257 115.719 135.166 115.719ZM128.025 116.852C127.976 116.852 127.927 116.842 127.882 116.823C127.837 116.803 127.797 116.775 127.763 116.739C126.146 115.031 125.879 113.644 125.868 113.586C125.851 113.492 125.872 113.395 125.926 113.317C125.98 113.238 126.063 113.184 126.157 113.167C126.251 113.15 126.348 113.17 126.427 113.224C126.506 113.279 126.559 113.362 126.577 113.456C126.581 113.477 126.836 114.712 128.286 116.244C128.335 116.296 128.367 116.36 128.379 116.429C128.392 116.498 128.383 116.57 128.355 116.634C128.328 116.699 128.282 116.754 128.223 116.792C128.164 116.831 128.095 116.852 128.025 116.852ZM76.3925 48.8679C73.4521 50.9681 70.5165 52.1214 67.582 52.8619C70.5033 51.9606 73.5097 50.5265 76.3925 48.8679Z" fill="#232323"/>
<path d="M67.5815 53.222C67.4955 53.2216 67.4124 53.1905 67.3473 53.1343C67.2823 53.078 67.2395 53.0004 67.2267 52.9153C67.2139 52.8303 67.2319 52.7435 67.2775 52.6706C67.3232 52.5977 67.3934 52.5436 67.4755 52.5179C70.1232 51.701 73.0628 50.368 76.2125 48.556C76.3789 48.46 76.5913 48.5118 76.6952 48.6733C76.799 48.8349 76.7578 49.0493 76.6016 49.1608C73.9486 51.0558 71.1105 52.3428 67.6699 53.211C67.641 53.2183 67.6113 53.222 67.5815 53.222Z" fill="#232323"/>
<path d="M131.049 28.0894C131.049 28.0894 125.935 39.3572 108.046 45.3806C104.37 44.3953 101.014 43.8012 98.3666 46.0755L101.66 50.3022C102.173 64.9904 99.2263 138.258 71.396 155.074C50.2943 167.823 75.5971 161.591 66.6246 164.194C34.0228 174.627 7.59851 154.314 19.8597 126.496C31.475 100.18 26.2473 96.2845 27.2546 82.2048C29.0797 56.5908 54.5146 55.8888 65.6544 53.3805C66.0074 53.3013 66.3616 53.2113 66.717 53.1141C67.0052 53.0361 67.2933 52.9521 67.5815 52.8621C70.5159 52.1216 73.4515 50.9683 76.392 48.8681C80.7084 45.7862 85.032 40.6629 89.3604 31.8145C99.8722 9.184 125.574 13.8956 131.049 28.0894Z" fill="#232323"/>
<path d="M49.5977 167.333C46.6845 167.333 43.8457 167.072 41.1205 166.549C33.5844 165.101 27.2685 161.745 22.8556 156.844C19.445 153.056 17.3008 148.398 16.655 143.373C15.9615 137.979 16.9286 132.251 19.5292 126.351C27.9318 107.314 27.4767 99.9544 26.995 92.163C26.8094 89.16 26.6173 86.0547 26.8946 82.179C27.2709 76.8981 28.6887 72.312 31.1085 68.548C33.1982 65.2975 36.1066 62.5564 39.7528 60.4006C46.4267 56.4548 54.3071 55.0744 60.639 53.9652C62.4412 53.6496 64.1435 53.3514 65.5745 53.0292C65.9254 52.9499 66.2744 52.8623 66.6212 52.7667C66.9047 52.6899 67.1912 52.6064 67.4734 52.5183C67.4797 52.5162 67.4862 52.5144 67.4927 52.5128C70.8433 51.6673 73.6045 50.416 76.1819 48.5751C80.9159 45.1949 85.1205 39.6608 89.0362 31.6561C91.5819 26.1752 95.1213 22.0007 99.5526 19.255C103.455 16.8371 107.945 15.6401 112.536 15.793C121.113 16.0789 128.688 20.9683 131.384 27.9595C131.419 28.0495 131.416 28.1499 131.376 28.2377C131.323 28.3552 130.031 31.1541 126.512 34.7284C123.278 38.0135 117.469 42.5872 108.161 45.7214C108.093 45.744 108.021 45.7463 107.952 45.728C104.605 44.8308 101.39 44.1925 98.8667 46.1319L101.944 50.0806C101.99 50.1405 102.017 50.2135 102.019 50.2893C102.229 56.2974 101.851 78.6856 97.5101 101.956C95.1655 114.526 92.0555 125.246 88.2666 133.82C83.674 144.213 78.0602 151.468 71.5818 155.382C63.4973 160.267 62.9741 161.946 63.1243 162.442C63.3892 163.315 66.4386 163.178 67.5867 163.127C67.8889 163.113 68.1499 163.101 68.3377 163.101C68.5441 163.1 68.9274 163.101 68.9843 163.445C69.0431 163.802 68.6814 163.926 68.2982 164.058C67.9808 164.167 67.4807 164.32 66.7244 164.54C60.9289 166.394 55.1294 167.333 49.5977 167.333ZM67.6783 53.2086C67.3906 53.2984 67.1012 53.3827 66.8104 53.4614C66.4532 53.5598 66.0938 53.6499 65.7324 53.7316C64.2847 54.0577 62.5742 54.3572 60.7632 54.6744C54.4889 55.7735 46.6803 57.1413 40.1194 61.0202C36.5708 63.1183 33.7429 65.7819 31.7143 68.9372C29.3606 72.5984 27.9806 77.0708 27.613 82.2302C27.3391 86.058 27.5295 89.139 27.7138 92.1186C28.2012 100 28.6614 107.444 20.1883 126.641C17.6412 132.42 16.6928 138.019 17.3694 143.282C17.9965 148.16 20.0787 152.684 23.3909 156.362C27.698 161.145 33.8758 164.423 41.2564 165.842C49.0054 167.33 57.6987 166.654 66.4045 163.886C64.4599 163.916 62.7618 163.731 62.4345 162.651C62.1502 161.713 62.7505 159.876 71.2088 154.766C77.5583 150.93 83.0756 143.785 87.6074 133.529C91.3737 125.006 94.4671 114.339 96.8016 101.824C101.103 78.7646 101.503 56.5859 101.303 50.4309L98.0815 46.2965C98.0246 46.2236 97.998 46.1315 98.0072 46.0395C98.0164 45.9475 98.0607 45.8625 98.1309 45.8022C100.932 43.396 104.411 44.0391 108.033 45.0045C113.08 43.294 120.253 40.0463 125.97 34.2523C128.986 31.1952 130.354 28.6695 130.655 28.0734C128.012 21.4256 120.744 16.7873 112.512 16.513C108.062 16.3643 103.713 17.5246 99.9319 19.8672C95.6219 22.5376 92.1748 26.6082 89.6862 31.966C85.7135 40.0873 81.4342 45.7097 76.6004 49.161C73.9501 51.0541 71.1146 52.3404 67.6783 53.2086Z" fill="#232323"/>
<path d="M132.549 64.4956C130.438 65.7117 123.823 64.6477 120.667 63.7926C113.561 67.4876 113.15 96.9672 112.626 96.5315C112.626 96.5315 88.5786 105.538 77.0586 92.0093C77.0586 92.0093 88.5786 88.7031 85.9743 77.8535C85.9743 77.8535 99.8906 66.0015 103.407 45.9553C119.15 45.399 129.102 32.8741 130.903 27.7136C132.421 30.9219 133.698 35.0914 134.582 38.5403C134.849 39.4144 135.153 40.4784 135.647 41.2574C136.141 42.0174 136.978 42.4924 137.776 42.9104C139.525 43.7464 137.928 45.9886 136.598 46.7486C136.693 50.2828 137.719 61.4745 132.549 64.4956Z" fill="white"/>
<path d="M95.9122 99.8287C92.8195 99.8287 89.9612 99.4748 87.382 98.7705C83.026 97.5808 79.4607 95.3845 76.7852 92.2424C76.7461 92.1965 76.7192 92.1416 76.7069 92.0827C76.6945 92.0238 76.6972 91.9627 76.7145 91.9051C76.7319 91.8474 76.7635 91.7951 76.8063 91.7528C76.8492 91.7105 76.902 91.6796 76.9599 91.6629C76.9881 91.6548 79.8125 90.8247 82.2774 88.7109C85.5426 85.911 86.6688 82.2862 85.6248 77.9371C85.6093 77.8725 85.612 77.8049 85.6326 77.7417C85.6532 77.6785 85.6908 77.6223 85.7414 77.5791C85.776 77.5497 89.2441 74.5693 93.0936 69.1926C96.6418 64.2368 101.25 56.1717 103.053 45.8928C103.068 45.8115 103.109 45.7376 103.172 45.6835C103.234 45.6293 103.313 45.5982 103.395 45.5953C111.911 45.2943 118.297 41.4525 122.155 38.2827C126.686 34.5602 129.643 30.2324 130.563 27.5947C130.587 27.5273 130.63 27.4684 130.687 27.4256C130.744 27.3827 130.813 27.3578 130.884 27.354C130.956 27.3502 131.027 27.3677 131.088 27.4043C131.149 27.4408 131.198 27.4948 131.229 27.5593C132.869 31.0242 134.146 35.3887 134.93 38.4429L134.982 38.6131C135.233 39.4407 135.517 40.3787 135.952 41.0643C136.391 41.7395 137.174 42.1877 137.938 42.5883C138.71 42.9595 138.89 43.5413 138.906 43.9647C138.945 45.0351 137.961 46.2981 136.965 46.9464C136.974 47.2283 136.988 47.5509 137.003 47.9127C137.199 52.4717 137.605 61.9581 132.731 64.8064L132.729 64.8074C130.448 66.1224 123.635 64.948 120.714 64.1775C118.501 65.4411 116.703 69.6132 115.37 76.5834C114.235 82.5202 113.709 89.0909 113.394 93.0167C113.307 94.1063 113.238 94.9669 113.175 95.5839C113.073 96.5886 113.018 96.7685 112.784 96.8669C112.753 96.88 112.719 96.8889 112.686 96.8933C111.998 97.1416 106.186 99.1764 99.1901 99.7026C98.0994 99.7856 97.006 99.8277 95.9122 99.8287ZM77.6879 92.1798C80.2257 94.9943 83.5483 96.977 87.5718 98.0759C90.9599 99.001 94.8508 99.3068 99.1362 98.9845C105.849 98.4796 111.444 96.5713 112.367 96.2424C112.448 95.8108 112.555 94.4772 112.676 92.9591C112.992 89.0186 113.52 82.4235 114.663 76.4483C116.083 69.0219 117.993 64.7777 120.502 63.4732C120.582 63.4312 120.675 63.4212 120.762 63.4451C123.819 64.2731 130.36 65.34 132.368 64.1843C134.285 63.064 135.53 60.5714 136.068 56.7757C136.524 53.5561 136.38 50.1787 136.284 47.9437C136.264 47.4865 136.247 47.0916 136.238 46.7583C136.237 46.6933 136.252 46.6289 136.284 46.5721C136.316 46.5154 136.363 46.4683 136.42 46.436C137.278 45.9459 138.215 44.7962 138.186 43.9912C138.173 43.6581 137.989 43.4108 137.621 43.2351C137.617 43.2331 137.614 43.2313 137.61 43.2292C136.759 42.7836 135.883 42.2795 135.346 41.4534C134.856 40.6815 134.557 39.6936 134.292 38.822L134.238 38.6449C134.237 38.6397 134.235 38.6346 134.234 38.6294C133.515 35.8265 132.377 31.9086 130.927 28.6304C129.716 31.3825 126.823 35.3792 122.613 38.8388C118.712 42.0431 112.283 45.9191 103.712 46.3031C101.849 56.5888 97.2297 64.6569 93.6655 69.631C90.2465 74.4024 87.1172 77.3155 86.3744 77.9808C87.6498 83.6404 85.1053 87.2416 82.7277 89.2733C80.7708 90.9459 78.6528 91.8329 77.6879 92.1798ZM132.549 64.4955H132.551H132.549Z" fill="#232323"/>
<path d="M124.738 35.8609C122.989 37.7419 122.856 40.1931 123.845 40.9341C124.833 41.6752 127 40.6491 128.369 38.483C129.776 36.2599 130.213 34.0177 129.263 33.4097C128.274 32.8018 126.468 34.0178 124.738 35.8609ZM132.95 54.672C132.646 54.8811 132.342 55.033 132 55.09C131.677 55.166 131.316 55.1851 130.973 55.1281C130.289 55.071 129.643 54.7671 129.11 54.33C128.844 54.102 128.616 53.8359 128.426 53.551C128.236 53.266 128.103 52.9239 128.008 52.601C127.837 51.936 127.875 51.2139 128.179 50.5868C128.274 50.3778 128.54 50.3208 128.73 50.4348C128.882 50.5107 128.958 50.6818 128.939 50.8338V50.8528C128.882 51.3278 128.939 51.8028 129.11 52.2399C129.201 52.4589 129.323 52.6637 129.472 52.8478C129.605 53.0189 129.757 53.1899 129.928 53.3419C130.289 53.627 130.726 53.836 131.202 53.9499C131.658 54.0829 132.152 54.0639 132.608 53.9689L132.627 53.9499C132.855 53.8739 133.065 54.0069 133.122 54.2349C133.141 54.387 133.103 54.558 132.95 54.672ZM126.354 43.5753C127.248 42.9293 129.415 41.4471 131.088 39.357C131.316 39.072 131.734 39.015 132.038 39.262H132.057C132.798 39.8699 133.844 41.086 132.513 42.3591C130.878 43.8982 127.476 44.6962 126.411 44.1642C126.37 44.1458 126.333 44.119 126.302 44.0855C126.272 44.052 126.249 44.0126 126.235 43.9697C126.22 43.9268 126.215 43.8814 126.219 43.8363C126.223 43.7913 126.237 43.7477 126.259 43.7081V43.6892C126.278 43.6893 126.316 43.6323 126.354 43.5753Z" fill="#232323"/>
<path d="M108.091 45.3551C108.091 45.3551 102.568 40.6746 98.3659 42.9548C94.1452 45.245 95.1193 52.1638 103.427 55.47C105.119 56.097 106.906 56.458 108.711 56.515" fill="white"/>
<path d="M108.712 56.8749C108.709 56.8749 108.705 56.8749 108.701 56.8747C106.874 56.8172 105.058 56.458 103.302 55.8073C100.92 54.8596 98.9516 53.536 97.6008 51.9769C96.3664 50.5521 95.6651 48.9758 95.5728 47.4184C95.452 45.3816 96.4322 43.5947 98.195 42.6382C100.017 41.6492 102.356 41.7652 104.957 42.9732C106.885 43.8685 108.267 45.0311 108.325 45.0803C108.396 45.1427 108.44 45.2303 108.447 45.3245C108.454 45.4186 108.423 45.5117 108.362 45.5837C108.301 45.6558 108.214 45.7009 108.12 45.7095C108.026 45.7181 107.932 45.6895 107.859 45.6298C107.846 45.6182 106.483 44.473 104.639 43.6197C102.979 42.8515 100.573 42.1671 98.5387 43.2713C97.0054 44.1032 96.1866 45.5993 96.2919 47.3759C96.4348 49.7855 98.4193 53.0893 103.561 55.1355C105.235 55.7559 106.975 56.1 108.724 56.1552C108.817 56.1593 108.906 56.1997 108.97 56.2679C109.035 56.3362 109.07 56.4268 109.068 56.5206C109.067 56.6143 109.029 56.7038 108.962 56.77C108.896 56.8362 108.806 56.8738 108.712 56.8749ZM67.5816 52.8616C67.2935 52.9516 67.0053 53.0356 66.7171 53.1137L66.6055 53.0945C66.9308 53.0212 67.2562 52.9444 67.5816 52.8616Z" fill="#232323"/>
<path d="M66.7164 53.474C66.696 53.474 66.6755 53.4722 66.6553 53.4687L66.5437 53.4495C66.4614 53.4355 66.3866 53.3933 66.332 53.3303C66.2774 53.2673 66.2464 53.1872 66.2443 53.1039C66.2421 53.0205 66.269 52.939 66.3203 52.8733C66.3717 52.8075 66.4442 52.7616 66.5256 52.7435C66.8488 52.6711 67.1709 52.5943 67.4919 52.5129C67.5826 52.4906 67.6785 52.5043 67.7592 52.5512C67.84 52.5981 67.8994 52.6745 67.9248 52.7644C67.9503 52.8542 67.9399 52.9504 67.8958 53.0327C67.8517 53.115 67.7773 53.1769 67.6884 53.2055C67.3975 53.2964 67.1049 53.3818 66.8107 53.4615C66.7799 53.4697 66.7483 53.4739 66.7164 53.474Z" fill="#232323"/>
<path d="M108.063 45.3802C108.063 45.3802 106.409 43.9148 104.848 43.3147C106.844 38.7165 113.841 25.0027 111.331 16.0722C112.772 14.272 118.655 14.032 120.576 17.7523C122.23 21.0966 114.926 38.6539 108.063 45.3802Z" fill="#FF7C5C"/>
<path d="M108.066 45.7402C107.981 45.7402 107.895 45.7102 107.827 45.6497C107.811 45.6354 106.201 44.2198 104.721 43.6507C104.676 43.6332 104.634 43.6068 104.6 43.573C104.565 43.5392 104.537 43.4987 104.518 43.4539C104.5 43.4091 104.49 43.361 104.49 43.3125C104.491 43.2639 104.501 43.2159 104.52 43.1714C104.731 42.6842 104.996 42.101 105.303 41.4256C107.865 35.7801 113.197 24.0328 110.987 16.1696C110.972 16.1145 110.97 16.0565 110.981 16.0005C110.992 15.9444 111.017 15.8919 111.053 15.8472C111.854 14.8455 113.825 14.2865 115.845 14.487C118.159 14.7169 120.001 15.8469 120.899 17.5871C121.342 18.4822 121.253 20.1743 120.636 22.622C120.071 24.8643 119.107 27.5685 117.846 30.4424C115.025 36.8741 111.463 42.5544 108.318 45.6371C108.251 45.7033 108.16 45.7403 108.066 45.7402ZM105.327 43.1244C106.461 43.638 107.56 44.4903 108.046 44.8914C111.072 41.8206 114.47 36.3462 117.186 30.1533C119.751 24.305 120.985 19.3854 120.256 17.9118C119.474 16.3981 117.84 15.4089 115.774 15.2035C114.109 15.0377 112.457 15.4392 111.733 16.1658C113.877 24.2769 108.536 36.0447 105.959 41.7232C105.746 42.1893 105.536 42.6564 105.327 43.1244ZM120.651 63.7923C119.358 64.0014 118.217 65.4454 116.506 70.0056C112.704 66.9275 109.758 60.4291 110.841 59.65C111.849 58.9089 113.522 60.239 114.567 60.9041C116.659 62.2152 118.331 63.0702 120.651 63.7923Z" fill="#232323"/>
<path d="M116.505 70.3659C116.423 70.3659 116.343 70.3382 116.278 70.2856C112.872 67.5285 110.196 62.2335 110.254 60.2383C110.265 59.825 110.392 59.5287 110.629 59.3579C111.705 58.567 113.218 59.5768 114.323 60.3142C114.477 60.4169 114.623 60.5145 114.759 60.6006C116.677 61.8033 118.351 62.7 120.756 63.4487C120.833 63.4728 120.9 63.5224 120.946 63.5895C120.992 63.6565 121.014 63.737 121.008 63.818C121.002 63.8989 120.969 63.9755 120.915 64.0354C120.86 64.0953 120.786 64.135 120.706 64.1479C119.811 64.2925 118.723 65.1177 116.842 70.1323C116.816 70.2009 116.77 70.26 116.71 70.3017C116.649 70.3435 116.578 70.3659 116.505 70.3659ZM111.546 59.792C111.361 59.792 111.194 59.8365 111.053 59.9401C111.031 59.9562 110.98 60.0398 110.973 60.2588C110.948 61.1284 111.594 62.8506 112.617 64.6463C113.689 66.5275 115.03 68.2325 116.349 69.4015C117.566 66.2361 118.54 64.5447 119.614 63.8282C117.612 63.1205 116.088 62.284 114.374 61.2093C114.223 61.1122 114.072 61.0134 113.923 60.913C113.19 60.424 112.243 59.792 111.546 59.792ZM107.803 51.879C107.743 51.8791 107.684 51.8642 107.631 51.8355C107.578 51.8069 107.533 51.7655 107.501 51.7151C104.495 47.0908 100.389 47.7426 100.348 47.7501C100.253 47.7664 100.157 47.7446 100.079 47.6896C100 47.6347 99.9474 47.5509 99.9311 47.4568C99.9148 47.3627 99.9365 47.266 99.9915 47.1879C100.047 47.1099 100.13 47.0569 100.224 47.0406C100.412 47.0083 104.843 46.3045 108.105 51.323C108.14 51.3773 108.16 51.4402 108.163 51.5049C108.165 51.5696 108.15 51.6339 108.119 51.6908C108.088 51.7477 108.043 51.7953 107.987 51.8284C107.931 51.8616 107.868 51.879 107.803 51.879Z" fill="#232323"/>
<path d="M101.906 80.2473C105.384 90.5079 110.309 94.9405 113.218 94.1995C113.218 94.1995 108.298 141.47 116.353 176.849C105.708 181.219 101.737 187.049 70.192 184.871C56.622 184.615 41.6436 181.544 33.3223 176.426C33.3223 176.426 46.5488 158.608 58.6582 119.237C58.6582 119.237 101.754 79.8102 101.906 80.2473Z" fill="#6875F5"/>
<path d="M36.778 114.259C36.778 114.259 31.5692 113.955 29.9154 114.62C26.6837 116.33 26.3036 123.741 43.3555 136.928C45.4846 138.524 57.4227 146.466 58.6204 146.428C65.2358 146.314 45.0663 117.718 45.0663 117.718L36.778 114.259Z" fill="#6875F5"/>
<path d="M30.7511 115.746C24.9911 119.623 40.6149 138.124 63.6401 144.547C63.6401 144.528 42.9743 115.29 32.4999 115.309C31.8916 115.328 31.2642 115.405 30.7511 115.746Z" fill="#232323"/>
<path d="M63.6385 144.907C63.6061 144.907 63.5735 144.903 63.5417 144.894C54.9624 142.501 46.4928 138.134 39.6932 132.6C33.8393 127.835 29.8425 122.646 29.2625 119.058C29.0008 117.438 29.4454 116.19 30.5483 115.448L30.5496 115.447C31.1555 115.043 31.8689 114.969 32.487 114.95L32.4981 114.949C36.0498 114.949 41.0327 118.13 47.3206 124.403C51.7645 128.837 56.0426 134.017 58.849 137.582C60.105 139.177 61.3369 140.791 62.5441 142.423C63.9988 144.393 63.9988 144.404 63.9988 144.547C63.9987 144.643 63.9607 144.734 63.8932 144.802C63.8256 144.869 63.734 144.907 63.6385 144.907ZM30.9498 116.045C30.0853 116.628 29.7568 117.602 29.9735 118.943C30.5266 122.364 34.4251 127.383 40.1479 132.041C46.6098 137.301 54.597 141.494 62.741 143.914C61.1938 141.782 56.8074 135.873 51.6059 130.017C43.2691 120.631 36.6655 115.669 32.5083 115.669H32.4988C31.9935 115.685 31.4046 115.743 30.9498 116.045Z" fill="#232323"/>
<path d="M158.527 146.739C149.891 143.961 130.572 144.137 85.039 148.565C84.689 148.71 85.3647 148.41 85.039 148.565C95.1706 128.977 103.769 101.52 102.02 89.1778C98.3576 63.3298 56.8529 87.3537 41.4359 135.426C39.2071 142.263 38.4594 148.566 38.8148 154.111C39.5345 171.403 52.8975 190.844 99.1252 185.383C113.207 183.719 150.572 169.399 154.284 166.072C155.125 170.513 158.607 171.713 160.288 167.033C161.368 174.353 165.771 170.759 166.411 166.793C176.137 188.035 177.217 152.751 158.527 146.739Z" fill="white"/>
<path d="M84.22 186.677C78.2432 186.677 72.7916 186.166 67.9133 185.146C60.2009 183.533 53.8501 180.636 49.037 176.536C40.7686 169.493 38.7187 160.462 38.455 154.126C38.0741 148.186 38.9617 141.854 41.0935 135.315C46.3108 119.046 55.0664 104.025 65.7467 93.0202C75.2832 83.1937 85.3264 77.6974 92.6145 78.3154C95.2447 78.5387 97.4159 79.5474 99.0676 81.3131C100.79 83.1541 101.903 85.7832 102.377 89.1274C103.203 94.9577 101.766 104.592 98.3305 116.256C95.1794 126.955 90.5758 138.536 85.6612 148.143C108.078 145.97 123.963 144.841 135.612 144.59C146.743 144.349 154.059 144.924 158.637 146.396C169.932 150.03 174.02 163.962 173.612 170.267C173.475 172.398 172.839 173.674 171.824 173.861C170.04 174.188 168.026 170.977 166.52 167.869C165.896 169.81 164.443 171.636 162.877 171.622C161.956 171.615 160.788 170.992 160.15 168.251C159.386 169.701 158.351 170.465 157.215 170.373C155.804 170.262 154.599 168.842 154.055 166.702C151.351 168.568 141.879 172.632 130.716 176.69C117.13 181.628 105.335 185.012 99.1675 185.74C93.8825 186.365 88.8905 186.677 84.22 186.677ZM91.4658 78.9877C84.4919 78.9877 75.1798 84.3344 66.2637 93.5215C55.659 104.449 46.9635 119.37 41.7788 135.536C39.675 141.99 38.7989 148.231 39.1742 154.088C39.4323 160.289 41.4336 169.113 49.5041 175.988C54.2243 180.009 60.4677 182.853 68.0607 184.441C76.6749 186.243 87.1123 186.44 99.083 185.026C105.199 184.303 116.933 180.934 130.47 176.013C142.154 171.766 152.289 167.378 154.044 165.805C154.092 165.762 154.15 165.733 154.212 165.72C154.275 165.707 154.34 165.711 154.4 165.732C154.461 165.752 154.514 165.788 154.556 165.837C154.598 165.885 154.627 165.943 154.638 166.006C155.034 168.096 156.092 169.563 157.272 169.656C158.317 169.74 159.293 168.738 159.949 166.911C159.976 166.836 160.028 166.771 160.096 166.729C160.163 166.686 160.244 166.667 160.324 166.675C160.403 166.683 160.478 166.717 160.536 166.772C160.595 166.828 160.633 166.901 160.644 166.98C161.011 169.465 161.827 170.895 162.882 170.902L162.89 170.902C164.173 170.902 165.71 168.881 166.056 166.735C166.068 166.659 166.104 166.589 166.16 166.535C166.215 166.481 166.286 166.446 166.363 166.436C166.44 166.425 166.518 166.44 166.585 166.477C166.653 166.515 166.707 166.573 166.739 166.643C169.647 172.995 171.267 173.231 171.693 173.153C172.324 173.037 172.784 171.913 172.893 170.221C173.068 167.514 172.374 162.585 169.84 157.601C167.941 153.868 164.419 149.013 158.416 147.082C153.917 145.635 146.676 145.072 135.627 145.31C123.892 145.563 107.841 146.71 85.122 148.918C84.8045 149.029 84.6655 148.889 84.6045 148.747C84.5574 148.638 84.5251 148.443 84.7769 148.288C89.763 138.628 94.4485 126.887 97.6395 116.053C101.047 104.485 102.476 94.9589 101.664 89.2284C100.78 82.9895 97.6296 79.4639 92.5536 79.0328C92.1982 79.0027 91.8347 78.9877 91.4658 78.9877Z" fill="#232323"/>
<path d="M73.9618 154.001C73.8892 154.001 73.8183 153.979 73.7584 153.938C73.6985 153.897 73.6524 153.839 73.6261 153.771C73.5998 153.704 73.5945 153.63 73.6109 153.559C73.6274 153.488 73.6648 153.424 73.7183 153.375C73.8863 153.222 77.9142 149.59 84.9691 148.212C85.0628 148.193 85.16 148.213 85.2393 148.266C85.3185 148.319 85.3734 148.402 85.3917 148.496C85.41 148.59 85.3903 148.687 85.337 148.766C85.2837 148.845 85.201 148.9 85.1072 148.918C78.2625 150.255 74.2447 153.87 74.2049 153.906C74.1386 153.967 74.0518 154.001 73.9618 154.001Z" fill="#232323"/>
<path d="M101.468 78.9174C104.776 86.5558 102.928 114.122 85.3669 148.689C85.3669 148.689 68.5432 150.475 54.7609 133.717C41.6441 117.756 36.1883 113.879 29.877 114.658C31.6258 113.67 47.7273 107.476 70.5962 87.2589C75.5387 82.8887 83.0477 76.3142 89.0358 74.1481C93.7882 72.4569 98.9209 73.027 101.468 78.9174Z" fill="#6875F5"/>
<path d="M85.5182 148.805C85.4576 148.805 85.398 148.789 85.3449 148.76C85.2918 148.731 85.2469 148.689 85.2144 148.638C85.1819 148.587 85.1628 148.528 85.1589 148.468C85.1551 148.407 85.1665 148.347 85.1922 148.292C90.3837 137.218 94.4906 126.731 97.399 117.122C99.7252 109.436 101.294 102.292 102.062 95.8882C103.369 84.9892 101.879 79.9537 101.864 79.9041C101.838 79.8135 101.849 79.7166 101.894 79.6339C101.939 79.5513 102.014 79.4895 102.104 79.4618C102.194 79.4341 102.291 79.4426 102.375 79.4856C102.459 79.5286 102.522 79.6027 102.552 79.6919C102.616 79.8983 104.098 84.8708 102.787 95.8905C102.02 102.339 100.446 109.53 98.1084 117.265C95.1889 126.925 91.0627 137.467 85.8447 148.597C85.8157 148.659 85.7695 148.712 85.7117 148.749C85.6539 148.785 85.5867 148.805 85.5182 148.805Z" fill="white"/>
<path d="M154.316 166.686C154.23 166.686 154.147 166.655 154.082 166.599C154.017 166.543 153.973 166.466 153.96 166.381C153.717 164.797 153.832 163.357 153.837 163.296C153.845 163.201 153.891 163.113 153.964 163.052C154.037 162.99 154.131 162.96 154.226 162.967C154.321 162.975 154.409 163.021 154.471 163.094C154.533 163.166 154.563 163.261 154.555 163.356C154.554 163.37 154.442 164.775 154.672 166.272C154.68 166.323 154.677 166.375 154.663 166.425C154.648 166.475 154.624 166.522 154.59 166.561C154.556 166.6 154.514 166.632 154.467 166.654C154.419 166.675 154.368 166.686 154.316 166.686ZM160.32 167.407C160.267 167.407 160.215 167.395 160.168 167.373C160.12 167.351 160.078 167.318 160.044 167.278C160.01 167.238 159.985 167.19 159.972 167.139C159.958 167.089 159.956 167.035 159.965 166.983C160.847 162.027 160.259 158.354 158.217 156.068C156.141 153.742 153.039 153.421 150.803 153.56C150.755 153.563 150.708 153.557 150.663 153.542C150.618 153.526 150.577 153.502 150.542 153.471C150.506 153.44 150.477 153.402 150.456 153.359C150.436 153.317 150.424 153.271 150.421 153.223C150.418 153.176 150.424 153.129 150.439 153.084C150.455 153.039 150.479 152.998 150.51 152.963C150.541 152.927 150.579 152.898 150.622 152.878C150.664 152.857 150.71 152.845 150.758 152.842C154.193 152.628 156.959 153.577 158.755 155.588C160.951 158.048 161.596 161.924 160.674 167.109C160.659 167.193 160.616 167.268 160.551 167.322C160.486 167.377 160.405 167.406 160.32 167.407ZM166.324 167.647C166.272 167.647 166.221 167.635 166.173 167.614C166.126 167.592 166.084 167.561 166.051 167.522C166.017 167.483 165.992 167.437 165.977 167.387C165.963 167.337 165.959 167.285 165.967 167.234C166.646 162.664 167.149 158.258 165.855 154.583C164.375 150.377 160.652 147.621 154.473 146.155C154.381 146.133 154.3 146.075 154.25 145.993C154.2 145.912 154.184 145.814 154.206 145.721C154.217 145.675 154.237 145.632 154.265 145.594C154.292 145.555 154.327 145.523 154.368 145.498C154.408 145.473 154.453 145.456 154.499 145.449C154.546 145.441 154.594 145.443 154.64 145.454C161.076 146.981 164.967 149.889 166.535 154.344C167.884 158.175 167.373 162.677 166.68 167.339C166.667 167.425 166.624 167.503 166.559 167.559C166.493 167.615 166.41 167.646 166.324 167.647Z" fill="#232323"/>
</g>
<defs>
<clipPath id="clip0_1132_58667">
<rect width="37.56" height="9.71517" fill="white" transform="translate(242.881 173.487)"/>
</clipPath>
<clipPath id="clip1_1132_58667">
<rect width="67.8" height="137.692" fill="white" transform="translate(179.76 18.884)"/>
</clipPath>
<clipPath id="clip2_1132_58667">
<rect width="144.6" height="71.9642" fill="white" transform="translate(141.361 108.839)"/>
</clipPath>
<clipPath id="clip3_1132_58667">
<rect width="157.2" height="172.234" fill="white" transform="translate(16.4395 14.4463)"/>
</clipPath>
</defs>
</svg>
