<svg width="126" height="120" viewBox="0 0 126 120" fill="none" xmlns="http://www.w3.org/2000/svg">
<path d="M18.1186 9.09762C-15.0572 20.5041 4.46239 62.8142 20.3747 81.429C70.2888 139.824 97.4656 118.448 106.675 103.755C115.036 90.4162 120.085 74.4295 123.21 58.752C126.293 43.6302 129.644 17.7736 116.405 5.71509C102.088 -7.32646 84.4584 3.9401 78.4476 19.5998C78.4397 19.6215 78.4318 19.6432 78.422 19.6648C71.646 37.3793 70.6055 50.2278 57.085 29.3731C48.2615 15.7681 34.3023 3.53428 18.1186 9.09762Z" fill="#FFFD9F"/>
<path d="M41.3464 67.3019C41.1733 66.5553 40.9431 65.8382 40.6599 65.1605C38.9094 60.9998 34.6195 58.6515 32.4894 63.876C30.8942 67.7846 30.4064 73.9074 31.5217 78.0425C32.4835 81.6062 35.7367 83.4147 38.4353 80.5208C41.429 77.3116 42.3967 71.8054 41.3464 67.2999V67.3019Z" fill="#6875F5"/>
<path d="M90.3317 77.0968C89.9836 73.2809 83.9097 68.5607 81.3154 71.5256C79.4862 73.6158 79.3426 80.7433 80.6624 83.198C81.4334 84.6302 82.5113 85.497 83.9176 85.7984C88.7228 86.8307 90.729 81.4565 90.3337 77.0988L90.3317 77.0968Z" fill="#6875F5"/>
<path d="M58.9106 40.4485C55.2344 35.7027 50.8699 43.7956 50.7499 47.5977C50.7243 48.3877 50.8758 49.1619 51.0941 49.9046C51.8277 52.3829 53.4583 53.6477 55.6239 53.4231C56.5877 53.3226 57.4236 52.8498 58.1474 52.0874C59.7426 50.405 60.4664 48.238 60.5411 45.7952C60.5175 45.3696 60.5156 45.0249 60.4782 44.6841C60.2992 43.0903 59.835 41.6423 58.9125 40.4465L58.9106 40.4485ZM56.9535 49.4535C56.983 49.483 57.0263 49.548 57.0637 49.5973C57.0263 49.548 56.983 49.483 56.9535 49.4535Z" fill="#6875F5"/>
<path d="M70.1752 91.1017C67.6497 90.2684 64.9098 91.7617 65.0691 97.8097C65.0888 98.5524 65.0967 99.2813 65.256 100.004C65.793 102.453 67.2563 103.82 69.7405 102.853C71.0839 102.331 72.207 101.387 73.1275 100.095C75.834 96.2947 73.1531 92.0828 70.1772 91.0998L70.1752 91.1017Z" fill="#6875F5"/>
<path d="M46.3762 90.0537C44.6217 88.4639 40.5227 90.8259 39.673 92.7034C38.6758 94.9078 40.0487 98.6193 41.6615 100.113C42.3303 100.731 43.0993 101.033 43.949 100.905C46.2228 100.558 48.2605 97.7643 48.288 94.2754C48.2979 93.056 47.517 91.0919 46.3762 90.0556V90.0537Z" fill="#6875F5"/>
<path d="M74.4294 53.5629C73.6524 53.3285 72.7988 53.3797 71.9609 53.8368C69.8661 54.9814 69.4846 59.209 69.8012 61.5711C69.8799 62.1522 70.0569 62.7098 70.3067 63.222C70.9204 64.4828 72.014 65.0915 73.2099 64.8334C74.1973 64.6207 75.0529 64.0947 75.7669 63.2377C76.9234 61.8489 77.4191 60.1251 77.5135 58.1945C77.6138 56.1535 76.2232 54.1027 74.4294 53.5649V53.5629Z" fill="#6875F5"/>
<path d="M51.682 68.874C48.5566 71.7601 47.7226 81.4309 53.3263 78.9644C54.5792 78.4128 55.6099 77.481 56.4183 76.2025C56.9769 75.3219 57.27 74.3152 57.2759 73.6592C57.27 71.8408 56.7704 70.4382 55.9639 69.5083C54.359 67.6604 52.8582 67.7865 51.682 68.874V68.874Z" fill="#6875F5"/>
<path d="M68.2324 80.5877C69.5916 80.2686 71.2162 78.598 71.529 76.827C72.0246 74.0216 67.9059 70.2018 66.118 73.1745C65.5024 74.1989 65.229 75.3691 65.1641 76.6063C65.225 77.7273 65.4591 78.7556 66.057 79.6244C66.6274 80.4518 67.3611 80.7946 68.2324 80.5897V80.5877Z" fill="#6875F5"/>
</svg>
